G04*
G04 #@! TF.GenerationSoftware,Altium Limited,Altium Designer,26.9.1 (10)*
G04*
G04 Layer_Color=65535*
G04 Board_Origin=74640005|44270005*
%FSLAX44Y44*%
%MOMM*%
G71*
G04*
G04 #@! TF.SameCoordinates,427E28D3-E2DD-46D8-A39D-FC7D8936D1B0*
G04*
G04*
G04 #@! TF.FilePolarity,Positive*
G04*
G01*
G75*
%ADD10C,0.2500*%
%ADD11C,0.2540*%
%ADD12C,0.2000*%
%ADD13C,0.1500*%
%ADD14C,0.1270*%
G36*
X386750Y331840D02*
X379249D01*
Y341840D01*
X386750D01*
Y331840D01*
D02*
G37*
G36*
X386671Y378135D02*
X379171D01*
Y391833D01*
X386671D01*
Y378135D01*
D02*
G37*
G36*
Y350892D02*
X379171D01*
Y369519D01*
X386671D01*
Y350892D01*
D02*
G37*
G36*
X417856Y288373D02*
X418050Y288345D01*
X418258Y288317D01*
X418493Y288262D01*
X418729Y288179D01*
X418965Y288081D01*
X418979D01*
X418993Y288067D01*
X419062Y288026D01*
X419173Y287957D01*
X419298Y287859D01*
X419450Y287735D01*
X419603Y287596D01*
X419756Y287416D01*
X419880Y287222D01*
X419894Y287194D01*
X419936Y287125D01*
X419991Y287013D01*
X420047Y286861D01*
X420102Y286667D01*
X420158Y286445D01*
X420199Y286209D01*
X420213Y285932D01*
X418785D01*
Y285959D01*
Y286029D01*
X418771Y286126D01*
X418743Y286265D01*
X418702Y286403D01*
X418646Y286556D01*
X418577Y286695D01*
X418466Y286819D01*
X418452Y286833D01*
X418410Y286875D01*
X418341Y286916D01*
X418244Y286986D01*
X418119Y287041D01*
X417967Y287083D01*
X417786Y287125D01*
X417578Y287138D01*
X417481D01*
X417384Y287125D01*
X417245Y287097D01*
X417107Y287069D01*
X416954Y287013D01*
X416802Y286930D01*
X416677Y286833D01*
X416663Y286819D01*
X416635Y286778D01*
X416580Y286708D01*
X416524Y286611D01*
X416469Y286486D01*
X416413Y286334D01*
X416386Y286154D01*
X416372Y285946D01*
Y282326D01*
Y282298D01*
Y282229D01*
X416386Y282132D01*
X416413Y281993D01*
X416441Y281854D01*
X416497Y281702D01*
X416580Y281549D01*
X416677Y281425D01*
X416691Y281411D01*
X416732Y281369D01*
X416815Y281327D01*
X416913Y281272D01*
X417037Y281203D01*
X417190Y281161D01*
X417370Y281119D01*
X417578Y281106D01*
X417675D01*
X417772Y281119D01*
X417911Y281147D01*
X418050Y281189D01*
X418202Y281244D01*
X418341Y281314D01*
X418466Y281425D01*
X418480Y281438D01*
X418521Y281480D01*
X418563Y281563D01*
X418632Y281660D01*
X418688Y281785D01*
X418729Y281938D01*
X418771Y282118D01*
X418785Y282326D01*
Y283241D01*
X417370D01*
Y284476D01*
X420213D01*
Y282326D01*
Y282312D01*
Y282298D01*
Y282257D01*
Y282201D01*
X420199Y282062D01*
X420172Y281882D01*
X420130Y281674D01*
X420075Y281466D01*
X419991Y281244D01*
X419880Y281022D01*
X419866Y280995D01*
X419825Y280939D01*
X419742Y280842D01*
X419645Y280717D01*
X419520Y280579D01*
X419353Y280440D01*
X419173Y280301D01*
X418965Y280176D01*
X418937Y280163D01*
X418854Y280135D01*
X418729Y280079D01*
X418563Y280038D01*
X418369Y279982D01*
X418133Y279927D01*
X417869Y279899D01*
X417578Y279885D01*
X417440D01*
X417287Y279899D01*
X417107Y279927D01*
X416885Y279954D01*
X416649Y280010D01*
X416413Y280079D01*
X416177Y280176D01*
X416150Y280190D01*
X416080Y280232D01*
X415970Y280301D01*
X415845Y280398D01*
X415692Y280523D01*
X415540Y280662D01*
X415401Y280828D01*
X415262Y281022D01*
X415248Y281050D01*
X415207Y281119D01*
X415165Y281244D01*
X415110Y281397D01*
X415040Y281591D01*
X414999Y281813D01*
X414957Y282049D01*
X414943Y282326D01*
Y285932D01*
Y285946D01*
Y285959D01*
Y286001D01*
Y286057D01*
X414957Y286195D01*
X414985Y286376D01*
X415026Y286570D01*
X415082Y286792D01*
X415151Y287013D01*
X415262Y287222D01*
X415276Y287249D01*
X415318Y287319D01*
X415401Y287416D01*
X415498Y287540D01*
X415637Y287679D01*
X415789Y287818D01*
X415970Y287957D01*
X416177Y288081D01*
X416191D01*
X416205Y288095D01*
X416288Y288123D01*
X416413Y288179D01*
X416580Y288234D01*
X416788Y288289D01*
X417024Y288345D01*
X417287Y288373D01*
X417578Y288386D01*
X417717D01*
X417856Y288373D01*
D02*
G37*
%LPC*%
G36*
X385487Y340685D02*
X380513D01*
D01*
X384712D01*
Y339385D01*
X380513D01*
Y340685D01*
D01*
Y339385D01*
Y338527D01*
X384712D01*
Y337219D01*
X385487D01*
Y340685D01*
D02*
G37*
G36*
Y336719D02*
X380513D01*
Y333012D01*
D01*
X383079Y334386D01*
X385487Y333087D01*
Y334020D01*
X384237Y334653D01*
X384137Y334703D01*
X384054Y334736D01*
X384020Y334753D01*
X383995Y334770D01*
X383979Y334778D01*
X383970D01*
X383887Y334811D01*
X383829Y334828D01*
X383795Y334845D01*
X383779D01*
X383837Y334869D01*
X383904Y334903D01*
X383954Y334928D01*
X383962Y334936D01*
X383970D01*
X384070Y334978D01*
X384154Y335011D01*
X384187Y335028D01*
X384212Y335045D01*
X384229Y335053D01*
X384237D01*
X385487Y335678D01*
Y336636D01*
X383054Y335336D01*
X380513Y336719D01*
X385487D01*
D01*
D02*
G37*
%LPD*%
G36*
X381888Y335078D02*
X381988Y335028D01*
X382071Y334995D01*
X382096Y334978D01*
X382121Y334969D01*
X382137Y334961D01*
X382146D01*
X382238Y334920D01*
X382304Y334894D01*
X382337Y334886D01*
X382354Y334878D01*
X382287Y334853D01*
X382221Y334819D01*
X382171Y334803D01*
X382154Y334795D01*
X382146D01*
X382046Y334753D01*
X381971Y334703D01*
X381938Y334686D01*
X381913Y334670D01*
X381896Y334661D01*
X381888D01*
X380513Y333961D01*
Y335786D01*
X381888Y335078D01*
D02*
G37*
%LPC*%
G36*
X384075Y390662D02*
X381834D01*
X381667Y390653D01*
X381525Y390628D01*
X381392Y390603D01*
X381275Y390562D01*
X381184Y390528D01*
X381109Y390503D01*
X381067Y390478D01*
X381050Y390470D01*
X380934Y390387D01*
X380834Y390303D01*
X380751Y390212D01*
X380676Y390120D01*
X380617Y390045D01*
X380575Y389978D01*
X380550Y389937D01*
X380542Y389920D01*
X380484Y389779D01*
X380442Y389637D01*
X380409Y389495D01*
X380392Y389362D01*
X380376Y389254D01*
X380367Y389162D01*
Y387496D01*
X385474D01*
D01*
X384000D01*
X383125D01*
Y389204D01*
X382383D01*
Y388354D01*
X381834D01*
X381709Y388362D01*
X381600Y388387D01*
X381509Y388412D01*
X381434Y388446D01*
X381375Y388487D01*
X381325Y388512D01*
X381300Y388537D01*
X381292Y388546D01*
X381225Y388620D01*
X381184Y388704D01*
X381150Y388796D01*
X381125Y388879D01*
X381109Y388962D01*
X381100Y389020D01*
Y389079D01*
X381109Y389204D01*
X381134Y389312D01*
X381159Y389404D01*
X381200Y389479D01*
X381234Y389537D01*
X381259Y389587D01*
X381284Y389612D01*
X381292Y389620D01*
X381367Y389679D01*
X381459Y389729D01*
X381550Y389762D01*
X381634Y389779D01*
X381717Y389795D01*
X381775Y389804D01*
X381817D01*
X381834D01*
X384008D01*
X384133Y389795D01*
X384241Y389779D01*
X384333Y389745D01*
X384408Y389712D01*
X384466Y389679D01*
X384508Y389645D01*
X384533Y389629D01*
X384541Y389620D01*
X384599Y389545D01*
X384650Y389454D01*
X384683Y389362D01*
X384700Y389279D01*
X384716Y389195D01*
X384725Y389137D01*
Y389079D01*
X384716Y388954D01*
X384691Y388845D01*
X384666Y388754D01*
X384633Y388679D01*
X384591Y388620D01*
X384566Y388579D01*
X384541Y388554D01*
X384533Y388546D01*
X384458Y388479D01*
X384375Y388437D01*
X384283Y388404D01*
X384200Y388379D01*
X384116Y388362D01*
X384058Y388354D01*
X384016D01*
X384000D01*
Y387496D01*
X384166Y387504D01*
X384308Y387529D01*
X384441Y387562D01*
X384558Y387596D01*
X384650Y387629D01*
X384716Y387662D01*
X384758Y387687D01*
X384775Y387696D01*
X384891Y387771D01*
X384999Y387862D01*
X385083Y387954D01*
X385158Y388046D01*
X385216Y388121D01*
X385258Y388187D01*
X385283Y388229D01*
X385291Y388237D01*
Y388246D01*
X385349Y388387D01*
X385399Y388529D01*
X385433Y388671D01*
X385449Y388796D01*
X385466Y388912D01*
X385474Y388995D01*
Y389079D01*
X385466Y389254D01*
X385449Y389412D01*
X385416Y389554D01*
X385383Y389679D01*
X385349Y389779D01*
X385316Y389854D01*
X385299Y389903D01*
X385291Y389912D01*
Y389920D01*
X385216Y390045D01*
X385133Y390154D01*
X385049Y390245D01*
X384966Y390328D01*
X384891Y390387D01*
X384833Y390437D01*
X384791Y390462D01*
X384775Y390470D01*
X384650Y390537D01*
X384516Y390578D01*
X384383Y390612D01*
X384266Y390637D01*
X384158Y390653D01*
X384075Y390662D01*
D02*
G37*
G36*
X385408Y386571D02*
X380434D01*
Y383464D01*
X385408D01*
Y384505D01*
Y384238D01*
X383050D01*
X382858D01*
X382767Y384230D01*
X382683D01*
X382608D01*
X382550Y384222D01*
X382517D01*
X382500D01*
X382275Y384205D01*
X382175D01*
X382084Y384197D01*
X382000D01*
X381942Y384188D01*
X381908D01*
X381892D01*
X381784Y384180D01*
X381692Y384172D01*
X381600Y384163D01*
X381525Y384155D01*
X381467Y384147D01*
X381425Y384138D01*
X381392D01*
X381384D01*
X385408Y385521D01*
Y386571D01*
D02*
G37*
G36*
Y382455D02*
X380434D01*
Y380981D01*
X380442Y380798D01*
X380467Y380631D01*
X380492Y380481D01*
X380534Y380356D01*
X380567Y380248D01*
X380592Y380173D01*
X380617Y380123D01*
X380625Y380106D01*
X380700Y379973D01*
X380792Y379856D01*
X380884Y379756D01*
X380967Y379681D01*
X381050Y379614D01*
X381109Y379565D01*
X381150Y379539D01*
X381167Y379531D01*
X381300Y379464D01*
X381442Y379415D01*
X381584Y379373D01*
X381709Y379348D01*
X381825Y379331D01*
X381908Y379323D01*
X380434D01*
D01*
X385408D01*
Y382455D01*
D02*
G37*
%LPD*%
G36*
X380376Y388904D02*
X380392Y388745D01*
X380426Y388604D01*
X380459Y388487D01*
X380484Y388387D01*
X380517Y388312D01*
X380534Y388262D01*
X380542Y388246D01*
X380617Y388121D01*
X380700Y388012D01*
X380784Y387912D01*
X380867Y387837D01*
X380942Y387779D01*
X381000Y387729D01*
X381034Y387704D01*
X381050Y387696D01*
X381184Y387629D01*
X381317Y387579D01*
X381442Y387546D01*
X381567Y387521D01*
X381675Y387504D01*
X381759Y387496D01*
X380367D01*
Y389079D01*
X380376Y388904D01*
D02*
G37*
G36*
X380434Y384505D02*
Y385788D01*
X382867D01*
X383050D01*
X383142Y385796D01*
X383225D01*
X383292D01*
X383350Y385805D01*
X383383D01*
X383400D01*
X383608Y385821D01*
X383708D01*
X383791Y385830D01*
X383866Y385838D01*
X383916D01*
X383958Y385846D01*
X383966D01*
X384066Y385855D01*
X384158D01*
X384241Y385863D01*
X384316D01*
X384375Y385871D01*
X384416D01*
X384441D01*
X384450D01*
X380434Y384505D01*
D02*
G37*
G36*
X384641Y380981D02*
X384633Y380848D01*
X384608Y380731D01*
X384575Y380631D01*
X384533Y380548D01*
X384491Y380481D01*
X384458Y380431D01*
X384433Y380398D01*
X384425Y380389D01*
X384341Y380314D01*
X384241Y380264D01*
X384150Y380223D01*
X384058Y380198D01*
X383975Y380181D01*
X383908Y380173D01*
X383866D01*
X383858D01*
X383850D01*
X381992D01*
X381858Y380181D01*
X381750Y380206D01*
X381650Y380239D01*
X381567Y380281D01*
X381500Y380323D01*
X381450Y380356D01*
X381417Y380381D01*
X381409Y380389D01*
X381334Y380473D01*
X381284Y380573D01*
X381242Y380673D01*
X381217Y380764D01*
X381200Y380848D01*
X381192Y380923D01*
Y381606D01*
X384641D01*
Y380981D01*
D02*
G37*
G36*
X385408Y379323D02*
X383850D01*
X384025Y379331D01*
X384175Y379356D01*
X384316Y379390D01*
X384433Y379423D01*
X384533Y379464D01*
X384608Y379498D01*
X384650Y379523D01*
X384666Y379531D01*
X384791Y379614D01*
X384899Y379706D01*
X384991Y379798D01*
X385066Y379889D01*
X385133Y379973D01*
X385174Y380048D01*
X385199Y380089D01*
X385208Y380098D01*
Y380106D01*
X385274Y380248D01*
X385324Y380398D01*
X385358Y380548D01*
X385383Y380681D01*
X385399Y380798D01*
X385408Y380897D01*
Y379323D01*
D02*
G37*
%LPC*%
G36*
Y367887D02*
X380434D01*
Y365546D01*
Y367037D01*
X382408D01*
Y366421D01*
X380434Y365546D01*
Y364613D01*
X385408D01*
D01*
X380434D01*
X382525Y365587D01*
X382592Y365437D01*
X382675Y365312D01*
X382758Y365196D01*
X382850Y365104D01*
X382925Y365029D01*
X382992Y364971D01*
X383033Y364938D01*
X383050Y364929D01*
X383191Y364846D01*
X383341Y364788D01*
X383492Y364738D01*
X383625Y364713D01*
X383750Y364696D01*
X383841Y364679D01*
X383875D01*
X383900D01*
X383916D01*
X383925D01*
X384091Y364688D01*
X384233Y364713D01*
X384366Y364746D01*
X384483Y364779D01*
X384575Y364821D01*
X384641Y364854D01*
X384683Y364879D01*
X384700Y364888D01*
X384816Y364971D01*
X384924Y365062D01*
X385008Y365154D01*
X385083Y365246D01*
X385141Y365329D01*
X385183Y365396D01*
X385208Y365437D01*
X385216Y365446D01*
Y365454D01*
X385283Y365596D01*
X385324Y365746D01*
X385358Y365887D01*
X385383Y366021D01*
X385399Y366137D01*
X385408Y366229D01*
Y367887D01*
D02*
G37*
G36*
X384075Y363796D02*
X381834D01*
X381667Y363788D01*
X381525Y363763D01*
X381392Y363738D01*
X381275Y363696D01*
X381184Y363663D01*
X381109Y363638D01*
X381067Y363613D01*
X381050Y363605D01*
X380934Y363530D01*
X380834Y363438D01*
X380751Y363346D01*
X380676Y363263D01*
X380617Y363180D01*
X380575Y363121D01*
X380550Y363080D01*
X380542Y363063D01*
X380484Y362921D01*
X380442Y362780D01*
X380409Y362638D01*
X380392Y362505D01*
X380376Y362397D01*
X380367Y362305D01*
Y362447D01*
Y362222D01*
X380376Y362047D01*
X380392Y361888D01*
X380426Y361747D01*
X380459Y361622D01*
X380484Y361522D01*
X380517Y361447D01*
X380534Y361405D01*
X380542Y361389D01*
X380617Y361264D01*
X380700Y361155D01*
X380784Y361055D01*
X380867Y360980D01*
X380942Y360922D01*
X381000Y360872D01*
X381034Y360847D01*
X381050Y360839D01*
X381184Y360772D01*
X381317Y360722D01*
X381442Y360689D01*
X381567Y360664D01*
X381675Y360647D01*
X381759Y360639D01*
X380367D01*
D01*
X385474D01*
Y361763D01*
Y360639D01*
X381834D01*
Y361497D01*
X381709Y361505D01*
X381600Y361530D01*
X381509Y361555D01*
X381434Y361588D01*
X381375Y361630D01*
X381325Y361655D01*
X381300Y361680D01*
X381292Y361688D01*
X381234Y361763D01*
X381184Y361847D01*
X381150Y361938D01*
X381134Y362022D01*
X381117Y362105D01*
X381109Y362163D01*
Y362222D01*
X381117Y362338D01*
X381134Y362447D01*
X381167Y362538D01*
X381200Y362613D01*
X381234Y362680D01*
X381267Y362721D01*
X381284Y362747D01*
X381292Y362755D01*
X381367Y362821D01*
X381459Y362863D01*
X381550Y362896D01*
X381634Y362921D01*
X381717Y362938D01*
X381775Y362946D01*
X381817D01*
X381834D01*
X384000D01*
X384125Y362938D01*
X384233Y362913D01*
X384325Y362888D01*
X384400Y362846D01*
X384458Y362813D01*
X384500Y362788D01*
X384524Y362763D01*
X384533Y362755D01*
X384599Y362680D01*
X384641Y362588D01*
X384674Y362505D01*
X384700Y362413D01*
X384716Y362338D01*
X384725Y362280D01*
Y362222D01*
X384716Y362097D01*
X384691Y361988D01*
X384666Y361897D01*
X384633Y361822D01*
X384591Y361763D01*
X384566Y361722D01*
X384541Y361697D01*
X384533Y361688D01*
X384458Y361622D01*
X384375Y361580D01*
X384283Y361547D01*
X384200Y361522D01*
X384116Y361505D01*
X384058Y361497D01*
X384016D01*
X384000D01*
Y360639D01*
X384166Y360647D01*
X384308Y360672D01*
X384441Y360705D01*
X384558Y360739D01*
X384650Y360772D01*
X384716Y360805D01*
X384758Y360830D01*
X384775Y360839D01*
X384891Y360914D01*
X384999Y361005D01*
X385083Y361097D01*
X385158Y361189D01*
X385216Y361264D01*
X385258Y361330D01*
X385283Y361372D01*
X385291Y361380D01*
Y361389D01*
X385349Y361522D01*
X385399Y361663D01*
X385433Y361805D01*
X385449Y361938D01*
X385466Y362047D01*
X385474Y362138D01*
Y361763D01*
Y362138D01*
Y362222D01*
X385466Y362397D01*
X385449Y362555D01*
X385416Y362696D01*
X385383Y362821D01*
X385349Y362921D01*
X385316Y362996D01*
X385299Y363046D01*
X385291Y363055D01*
Y363063D01*
X385216Y363188D01*
X385133Y363296D01*
X385049Y363388D01*
X384966Y363463D01*
X384891Y363521D01*
X384833Y363571D01*
X384791Y363596D01*
X384775Y363605D01*
X384650Y363671D01*
X384516Y363713D01*
X384383Y363746D01*
X384266Y363771D01*
X384158Y363788D01*
X384075Y363796D01*
D02*
G37*
G36*
X385408Y359614D02*
X384633D01*
Y358614D01*
X381200D01*
Y359614D01*
X380434D01*
Y356748D01*
X385408D01*
Y359614D01*
D02*
G37*
G36*
Y355648D02*
X380434D01*
Y352541D01*
X385408D01*
Y353582D01*
Y353316D01*
X383050D01*
X382858D01*
X382767Y353307D01*
X382683D01*
X382608D01*
X382550Y353299D01*
X382517D01*
X382500D01*
X382275Y353282D01*
X382175D01*
X382084Y353274D01*
X382000D01*
X381942Y353266D01*
X381908D01*
X381892D01*
X381784Y353257D01*
X381692Y353249D01*
X381600Y353241D01*
X381525Y353232D01*
X381467Y353224D01*
X381425Y353216D01*
X381392D01*
X381384D01*
X385408Y354599D01*
Y355648D01*
D02*
G37*
%LPD*%
G36*
X384658Y366312D02*
X384650Y366187D01*
X384624Y366079D01*
X384591Y365979D01*
X384558Y365904D01*
X384516Y365837D01*
X384483Y365796D01*
X384458Y365762D01*
X384450Y365754D01*
X384366Y365687D01*
X384283Y365637D01*
X384191Y365596D01*
X384100Y365571D01*
X384025Y365554D01*
X383958Y365546D01*
X383916D01*
X383900D01*
X383775Y365554D01*
X383666Y365579D01*
X383575Y365612D01*
X383492Y365646D01*
X383433Y365687D01*
X383383Y365721D01*
X383358Y365746D01*
X383350Y365754D01*
X383283Y365837D01*
X383242Y365929D01*
X383208Y366021D01*
X383183Y366104D01*
X383167Y366187D01*
X383158Y366254D01*
Y367037D01*
X384658D01*
Y366312D01*
D02*
G37*
G36*
X384633Y356748D02*
X381200D01*
Y357756D01*
X384633D01*
Y356748D01*
D02*
G37*
G36*
X380434Y353582D02*
Y354865D01*
X382867D01*
X383050D01*
X383142Y354874D01*
X383225D01*
X383292D01*
X383350Y354882D01*
X383383D01*
X383400D01*
X383608Y354898D01*
X383708D01*
X383791Y354907D01*
X383866Y354915D01*
X383916D01*
X383958Y354924D01*
X383966D01*
X384066Y354932D01*
X384158D01*
X384241Y354940D01*
X384316D01*
X384375Y354949D01*
X384416D01*
X384441D01*
X384450D01*
X380434Y353582D01*
D02*
G37*
D10*
X411717Y294662D02*
G03*
X411717Y294662I-1250J0D01*
G01*
X525673Y313447D02*
G03*
X525673Y313447I-1250J0D01*
G01*
D11*
X409740Y277128D02*
G03*
X409586Y276974I0J-154D01*
G01*
X476602Y277008D02*
G03*
X476482Y277128I-120J0D01*
G01*
X409586Y262882D02*
Y276974D01*
X476602Y262564D02*
Y277008D01*
X409740Y277128D02*
X476482D01*
D12*
X714300Y306703D02*
G03*
X714300Y306703I-1000J0D01*
G01*
Y377376D02*
G03*
X714300Y377376I-1000J0D01*
G01*
Y447852D02*
G03*
X714300Y447852I-1000J0D01*
G01*
X709411Y268603D02*
G03*
X709411Y268603I-1000J0D01*
G01*
Y339276D02*
G03*
X709411Y339276I-1000J0D01*
G01*
Y409550D02*
G03*
X709411Y409550I-1000J0D01*
G01*
X402217Y313662D02*
Y316912D01*
Y382412D02*
Y385662D01*
X470967D02*
X474217D01*
X402217D02*
X405467D01*
X474217Y313662D02*
Y316912D01*
Y382412D02*
Y385662D01*
X470967Y313662D02*
X474217D01*
X402217D02*
X405467D01*
X516923Y323008D02*
X519423D01*
X516923D02*
Y325508D01*
X554423Y323008D02*
X556923D01*
Y325508D01*
X516923Y363008D02*
X519423D01*
X516923Y360508D02*
Y363008D01*
X554423D02*
X556923D01*
Y360508D02*
Y363008D01*
X429918Y445770D02*
X463018D01*
X429918Y411430D02*
X463018D01*
D13*
X623522Y279264D02*
X627522D01*
X623522Y348699D02*
X627522D01*
X623522Y418252D02*
X627522D01*
X623522Y297153D02*
X627522D01*
X623522Y366588D02*
X627522D01*
X623522Y436141D02*
X627522D01*
X541035Y299704D02*
X545036D01*
X510938Y271545D02*
X514938D01*
X606133Y285109D02*
Y291109D01*
X617133Y285109D02*
Y291109D01*
X588244Y285109D02*
Y291109D01*
X599244Y285109D02*
Y291109D01*
X588244Y354629D02*
Y360629D01*
X599244Y354629D02*
Y360629D01*
X606133Y354629D02*
Y360629D01*
X617133Y354629D02*
Y360629D01*
X617133Y425072D02*
Y431072D01*
X606133Y425072D02*
Y431072D01*
X599244Y425072D02*
Y431072D01*
X588244Y425072D02*
Y431072D01*
X559466Y405834D02*
Y411834D01*
X548466Y405834D02*
Y411834D01*
X541577Y405834D02*
Y411834D01*
X530577Y405834D02*
Y411834D01*
X523688Y405834D02*
Y411834D01*
X512688Y405834D02*
Y411834D01*
X505799Y405834D02*
Y411834D01*
X494799Y405834D02*
Y411834D01*
X513559Y376452D02*
X519558D01*
X513559Y387452D02*
X519558D01*
X530577Y438744D02*
Y444744D01*
X541577Y438744D02*
Y444744D01*
X512688Y438744D02*
Y444744D01*
X523688Y438744D02*
Y444744D01*
X494799Y438744D02*
Y444744D01*
X505799Y438744D02*
Y444744D01*
X548466Y438798D02*
Y444798D01*
X559466Y438798D02*
Y444798D01*
X504549Y272153D02*
Y278153D01*
X493549Y272153D02*
Y278153D01*
X544448Y387386D02*
X550447D01*
X544448Y376386D02*
X550447D01*
X517091Y294204D02*
X523091D01*
X517091Y305204D02*
X523091D01*
X533447Y287315D02*
X539447D01*
X533447Y276315D02*
X539447D01*
D14*
X737850Y263153D02*
X772150D01*
X737850Y312153D02*
X772150D01*
X737850Y333826D02*
X772150D01*
X737850Y382826D02*
X772150D01*
X737850Y404302D02*
X772150D01*
X737850Y453302D02*
X772150D01*
X649561Y312153D02*
X683861D01*
X649561Y263153D02*
X683861D01*
X649561Y382826D02*
X683861D01*
X649561Y333826D02*
X683861D01*
X649561Y453100D02*
X683861D01*
X649561Y404100D02*
X683861D01*
M02*
