G04*
G04 #@! TF.GenerationSoftware,Altium Limited,Altium Designer,26.9.1 (10)*
G04*
G04 Layer_Physical_Order=1*
G04 Layer_Color=255*
G04 Board_Origin=74640005|44270005*
%FSLAX44Y44*%
%MOMM*%
G71*
G04*
G04 #@! TF.SameCoordinates,427E28D3-E2DD-46D8-A39D-FC7D8936D1B0*
G04*
G04*
G04 #@! TF.FilePolarity,Positive*
G04*
G01*
G75*
%ADD11C,0.2540*%
%ADD15R,0.3000X1.2000*%
%ADD16R,1.2000X0.3000*%
%ADD17R,0.2425X0.9096*%
%ADD18R,1.2700X0.6100*%
G04:AMPARAMS|DCode=19|XSize=0.55mm|YSize=0.5mm|CornerRadius=0.0625mm|HoleSize=0mm|Usage=FLASHONLY|Rotation=180.000|XOffset=0mm|YOffset=0mm|HoleType=Round|Shape=RoundedRectangle|*
%AMROUNDEDRECTD19*
21,1,0.5500,0.3750,0,0,180.0*
21,1,0.4250,0.5000,0,0,180.0*
1,1,0.1250,-0.2125,0.1875*
1,1,0.1250,0.2125,0.1875*
1,1,0.1250,0.2125,-0.1875*
1,1,0.1250,-0.2125,-0.1875*
%
%ADD19ROUNDEDRECTD19*%
G04:AMPARAMS|DCode=20|XSize=1.3mm|YSize=0.76mm|CornerRadius=0.095mm|HoleSize=0mm|Usage=FLASHONLY|Rotation=0.000|XOffset=0mm|YOffset=0mm|HoleType=Round|Shape=RoundedRectangle|*
%AMROUNDEDRECTD20*
21,1,1.3000,0.5700,0,0,0.0*
21,1,1.1100,0.7600,0,0,0.0*
1,1,0.1900,0.5550,-0.2850*
1,1,0.1900,-0.5550,-0.2850*
1,1,0.1900,-0.5550,0.2850*
1,1,0.1900,0.5550,0.2850*
%
%ADD20ROUNDEDRECTD20*%
G04:AMPARAMS|DCode=21|XSize=1.3mm|YSize=0.76mm|CornerRadius=0.095mm|HoleSize=0mm|Usage=FLASHONLY|Rotation=270.000|XOffset=0mm|YOffset=0mm|HoleType=Round|Shape=RoundedRectangle|*
%AMROUNDEDRECTD21*
21,1,1.3000,0.5700,0,0,270.0*
21,1,1.1100,0.7600,0,0,270.0*
1,1,0.1900,-0.2850,-0.5550*
1,1,0.1900,-0.2850,0.5550*
1,1,0.1900,0.2850,0.5550*
1,1,0.1900,0.2850,-0.5550*
%
%ADD21ROUNDEDRECTD21*%
G04:AMPARAMS|DCode=22|XSize=5mm|YSize=5mm|CornerRadius=1.25mm|HoleSize=0mm|Usage=FLASHONLY|Rotation=0.000|XOffset=0mm|YOffset=0mm|HoleType=Round|Shape=RoundedRectangle|*
%AMROUNDEDRECTD22*
21,1,5.0000,2.5000,0,0,0.0*
21,1,2.5000,5.0000,0,0,0.0*
1,1,2.5000,1.2500,-1.2500*
1,1,2.5000,-1.2500,-1.2500*
1,1,2.5000,-1.2500,1.2500*
1,1,2.5000,1.2500,1.2500*
%
%ADD22ROUNDEDRECTD22*%
%ADD23C,1.1000*%
%ADD24R,0.9096X0.2425*%
%ADD25R,1.6500X3.6800*%
%ADD27R,1.0500X0.9000*%
%ADD35R,2.5500X2.5500*%
%ADD38R,2.0000X1.5000*%
%AMCUSTOMSHAPE39*
4,1,20,-2.4160,-1.2935,-1.7060,-1.2935,-1.7060,-0.6985,-2.4160,-0.6985,-2.4160,-0.0635,-1.7060,-0.0635,-1.7060,0.5715,-2.4160,0.5715,-2.4160,1.2065,-1.7060,1.2065,-1.7060,1.8415,-2.4160,1.8415,-2.4160,2.4640,-1.3960,2.4640,-1.3960,2.1590,2.1040,2.1590,2.1040,-1.6510,-1.3960,-1.6510,-1.3960,-1.9560,-2.4160,-1.9560,-2.4160,-1.2935,0.0*%
%ADD39CUSTOMSHAPE39*%

%AMCUSTOMSHAPE40*
4,1,20,2.4160,1.2935,1.7060,1.2935,1.7060,0.6985,2.4160,0.6985,2.4160,0.0635,1.7060,0.0635,1.7060,-0.5715,2.4160,-0.5715,2.4160,-1.2065,1.7060,-1.2065,1.7060,-1.8415,2.4160,-1.8415,2.4160,-2.4640,1.3960,-2.4640,1.3960,-2.1590,-2.1040,-2.1590,-2.1040,1.6510,1.3960,1.6510,1.3960,1.9560,2.4160,1.9560,2.4160,1.2935,0.0*%
%ADD40CUSTOMSHAPE40*%

G04:AMPARAMS|DCode=41|XSize=5mm|YSize=4.5mm|CornerRadius=1.125mm|HoleSize=0mm|Usage=FLASHONLY|Rotation=0.000|XOffset=0mm|YOffset=0mm|HoleType=Round|Shape=RoundedRectangle|*
%AMROUNDEDRECTD41*
21,1,5.0000,2.2500,0,0,0.0*
21,1,2.7500,4.5000,0,0,0.0*
1,1,2.2500,1.3750,-1.1250*
1,1,2.2500,-1.3750,-1.1250*
1,1,2.2500,-1.3750,1.1250*
1,1,2.2500,1.3750,1.1250*
%
%ADD41ROUNDEDRECTD41*%
%ADD42C,0.2030*%
%ADD43C,0.1540*%
%ADD44C,0.4000*%
%ADD45C,0.3000*%
%ADD46C,0.8000*%
%ADD47C,0.4500*%
%ADD48C,0.6000*%
G36*
X838663Y455304D02*
X840603Y454501D01*
X842349Y453334D01*
X843834Y451849D01*
X845001Y450103D01*
X845805Y448162D01*
X846214Y446103D01*
Y417387D01*
X845805Y415327D01*
X845001Y413387D01*
X843834Y411641D01*
X842349Y410156D01*
X840603Y408990D01*
X838663Y408186D01*
X836603Y407776D01*
X819636D01*
X819586Y407766D01*
X819536Y407774D01*
X818592Y407727D01*
X818445Y407691D01*
X818294D01*
X816443Y407322D01*
X816257Y407245D01*
X816060Y407206D01*
X814316Y406484D01*
X814149Y406372D01*
X813964Y406296D01*
X812394Y405247D01*
X812252Y405105D01*
X812085Y404993D01*
X810750Y403658D01*
X810639Y403491D01*
X810497Y403349D01*
X809448Y401780D01*
X809371Y401594D01*
X809259Y401427D01*
X808537Y399683D01*
X808498Y399486D01*
X808421Y399301D01*
X808053Y397449D01*
Y397298D01*
X808016Y397151D01*
X807970Y396208D01*
X807977Y396157D01*
X807967Y396108D01*
Y393905D01*
X807977Y393855D01*
X807970Y393805D01*
X807976Y393672D01*
X806987Y392465D01*
X806824Y392402D01*
X631381D01*
Y397799D01*
X718548D01*
X719390Y397966D01*
X720105Y398443D01*
X727474Y405813D01*
X735539D01*
Y413691D01*
X721061D01*
Y405813D01*
X721061Y405813D01*
X721061D01*
X720324Y404889D01*
X717636Y402201D01*
X631381D01*
Y448387D01*
X631489Y448495D01*
X632651Y448819D01*
X632699Y448741D01*
Y444475D01*
X632981Y443794D01*
X633661Y443512D01*
X639607D01*
X639743Y443456D01*
X639799Y443321D01*
Y439278D01*
X639743Y439143D01*
X639607Y439087D01*
X633661D01*
X632981Y438805D01*
X632699Y438125D01*
Y431775D01*
X632981Y431094D01*
X633661Y430812D01*
X639607D01*
X639743Y430756D01*
X639799Y430621D01*
Y426578D01*
X639743Y426443D01*
X639607Y426387D01*
X633661D01*
X632981Y426105D01*
X632699Y425425D01*
Y419075D01*
X632981Y418394D01*
X633661Y418112D01*
X639607D01*
X639743Y418056D01*
X639799Y417921D01*
Y414278D01*
X639743Y414143D01*
X639607Y414087D01*
X633661D01*
X632981Y413805D01*
X632699Y413125D01*
Y406500D01*
X632981Y405819D01*
X633661Y405537D01*
X643861D01*
X644541Y405819D01*
X644823Y406500D01*
Y408396D01*
X644879Y408531D01*
X645015Y408587D01*
X678861D01*
X679541Y408869D01*
X679823Y409550D01*
Y447650D01*
X679541Y448330D01*
X678861Y448612D01*
X645015D01*
X644879Y448668D01*
X644823Y448803D01*
Y450700D01*
X644766Y450838D01*
X644772Y450936D01*
X644763Y450962D01*
X644773Y450988D01*
X644774Y451016D01*
X645147Y451823D01*
X645549Y452263D01*
X685181D01*
X686172Y451589D01*
Y443711D01*
X700650D01*
Y451589D01*
X692787D01*
X689854Y454522D01*
X690340Y455695D01*
X834533D01*
X834551Y455699D01*
X834570Y455695D01*
X835572Y455714D01*
X836603D01*
X838663Y455304D01*
D02*
G37*
G36*
X560732Y446512D02*
X560578Y446358D01*
X493947D01*
X493052Y447258D01*
X493104Y455695D01*
X560732D01*
Y446512D01*
D02*
G37*
G36*
X567716Y455432D02*
Y444654D01*
X579994D01*
Y448176D01*
X614874D01*
X621758Y441292D01*
Y438766D01*
X622238Y437607D01*
X623397Y437127D01*
X627647D01*
X628806Y437607D01*
X629149Y438435D01*
X630419Y438183D01*
Y416210D01*
X629149Y415957D01*
X628806Y416786D01*
X627647Y417266D01*
X623397D01*
X622238Y416786D01*
X621758Y415627D01*
Y413101D01*
X613012Y404355D01*
X579994D01*
Y407542D01*
X568682D01*
X568156Y408812D01*
X570108Y410765D01*
X579994D01*
Y421543D01*
X571140D01*
X570731Y422812D01*
X570938Y423122D01*
X571067Y423770D01*
Y430653D01*
X579994D01*
Y441432D01*
X567716D01*
Y432476D01*
X567683Y432313D01*
Y424470D01*
X564633Y421420D01*
X563460Y421906D01*
Y423615D01*
X563178Y424296D01*
X563003Y424471D01*
X562660Y424613D01*
X562323Y424753D01*
X494142Y424811D01*
X494142Y424811D01*
X494142Y424811D01*
X493812Y424674D01*
X493461Y424530D01*
X493461Y424529D01*
X493461Y424529D01*
X492563Y423632D01*
X492563Y423631D01*
X492562Y423631D01*
X492424Y423296D01*
X492281Y422951D01*
X492281Y422951D01*
X492281Y422951D01*
Y412219D01*
X492562Y411539D01*
X493243Y411257D01*
X517178D01*
X517529Y411111D01*
X519120D01*
X519472Y411257D01*
X534876D01*
X535227Y411111D01*
X536819D01*
X537170Y411257D01*
X552235D01*
X553290Y410820D01*
X554881D01*
X555936Y411257D01*
X561113D01*
Y397383D01*
X558054Y394324D01*
X524149D01*
X523502Y394195D01*
X522953Y393829D01*
X513895Y384771D01*
X513528Y384222D01*
X513399Y383574D01*
Y363556D01*
X512129Y362899D01*
X511117Y363319D01*
X509525D01*
X508055Y362710D01*
X506930Y361584D01*
X506469Y360471D01*
X505063Y361053D01*
X503472D01*
X503396Y361021D01*
X502873Y362158D01*
X503998Y363283D01*
X504607Y364753D01*
Y366344D01*
X503998Y367814D01*
X502872Y368940D01*
X501402Y369548D01*
X499811D01*
X498341Y368940D01*
X497216Y367814D01*
X496607Y366344D01*
Y364753D01*
X497216Y363283D01*
X498341Y362158D01*
X499811Y361549D01*
X501402D01*
X501478Y361580D01*
X502001Y360444D01*
X500876Y359319D01*
X500661Y358799D01*
X488321D01*
X487606Y359773D01*
X487606Y360821D01*
X487606Y364551D01*
X487606Y365821D01*
X487606Y369551D01*
X487606Y370821D01*
X487606Y374551D01*
X487606Y375821D01*
Y379551D01*
X473828D01*
X473828Y374773D01*
X473828Y373503D01*
X473828Y369773D01*
X473828Y368503D01*
X473828Y364773D01*
X473828Y363503D01*
X473828Y360536D01*
X472558Y360283D01*
X472142Y361287D01*
X471017Y362412D01*
X469547Y363021D01*
X467956D01*
X466486Y362412D01*
X465360Y361287D01*
X464751Y359817D01*
Y358226D01*
X465360Y356756D01*
X466486Y355630D01*
X467956Y355022D01*
X469547D01*
X471017Y355630D01*
X472142Y356756D01*
X472558Y357760D01*
X473828Y357507D01*
Y354773D01*
X473828D01*
Y354551D01*
X473828D01*
Y349773D01*
X473828D01*
Y349551D01*
X473828D01*
Y344773D01*
X473828Y344773D01*
Y344551D01*
X473828D01*
X473828Y343503D01*
Y340821D01*
X473828Y339773D01*
X473828D01*
Y339551D01*
X473828Y339551D01*
X473828Y334773D01*
X472836Y334103D01*
X467296D01*
X466553Y333955D01*
X465924Y333535D01*
X460365Y327976D01*
X458729D01*
X458595Y328301D01*
X457470Y329426D01*
X456000Y330035D01*
X454408D01*
X452938Y329426D01*
X451813Y328301D01*
X451204Y326830D01*
Y325239D01*
X451813Y323769D01*
X452938Y322644D01*
X454408Y322035D01*
X456000D01*
X457470Y322644D01*
X458595Y323769D01*
X458729Y324093D01*
X461169D01*
X461912Y324241D01*
X462542Y324662D01*
X468100Y330221D01*
X472836D01*
X473828Y329551D01*
X473828Y328503D01*
Y325821D01*
X473828Y324773D01*
X473828D01*
Y324551D01*
X473828D01*
Y319773D01*
X480361D01*
X488627Y311507D01*
X489256Y311087D01*
X489999Y310939D01*
X499185D01*
X499928Y311087D01*
X500558Y311507D01*
X502259Y313209D01*
X502816Y312653D01*
X504286Y312044D01*
X505877D01*
X507347Y312653D01*
X508472Y313778D01*
X509081Y315248D01*
Y316839D01*
X508472Y318309D01*
X507347Y319435D01*
X505877Y320044D01*
X504286D01*
X502816Y319435D01*
X501690Y318309D01*
X501358Y317508D01*
X501257Y317488D01*
X500627Y317067D01*
X498381Y314821D01*
X496769D01*
X496243Y316091D01*
X496671Y316520D01*
X497280Y317990D01*
Y319581D01*
X496671Y321051D01*
X497352Y322166D01*
X497802Y322353D01*
X498927Y323478D01*
X499537Y324948D01*
Y326539D01*
X499444Y326763D01*
X501353Y328672D01*
X512473D01*
Y328407D01*
X522322D01*
Y320451D01*
X521482Y320103D01*
X520356Y318977D01*
X519747Y317507D01*
Y315916D01*
X520356Y314446D01*
X521482Y313321D01*
X522952Y312712D01*
X524543D01*
X525405Y313069D01*
X526377Y312097D01*
X526255Y311802D01*
Y310211D01*
X526586Y309414D01*
X526611Y308502D01*
X525951Y307881D01*
X525150Y307549D01*
X524025Y306424D01*
X523416Y304954D01*
Y303362D01*
X524025Y301892D01*
X524366Y301551D01*
Y294154D01*
X524509Y293436D01*
X524915Y292828D01*
X525523Y292421D01*
X526241Y292279D01*
X531941D01*
X532659Y292421D01*
X533267Y292828D01*
X533673Y293436D01*
X533816Y294154D01*
Y296772D01*
X534482Y297438D01*
X535091Y298908D01*
Y300499D01*
X534482Y301969D01*
X533816Y302635D01*
Y305254D01*
X533673Y305971D01*
X533267Y306579D01*
X533198Y306626D01*
X533022Y308070D01*
X533045Y308139D01*
X533647Y308741D01*
X534255Y310211D01*
Y310227D01*
X534649Y310490D01*
X536240D01*
X537710Y311099D01*
X538264Y311653D01*
X538847Y312218D01*
X539923Y311653D01*
X540232Y311345D01*
X541702Y310736D01*
X543293D01*
X544763Y311345D01*
X545888Y312470D01*
X546497Y313940D01*
Y315531D01*
X545888Y317002D01*
X545602Y317288D01*
X546128Y318559D01*
X546524D01*
Y329369D01*
X550498D01*
Y328407D01*
X561373D01*
Y332609D01*
X561373D01*
Y332956D01*
X562512Y333722D01*
X562761Y333556D01*
Y274741D01*
X562890Y274094D01*
X563256Y273545D01*
X567532Y269270D01*
Y261046D01*
X469754D01*
X469652Y262274D01*
X471374Y262735D01*
X472917Y263627D01*
X474178Y264887D01*
X475069Y266431D01*
X475531Y268153D01*
Y269935D01*
X475069Y271657D01*
X474178Y273201D01*
X472917Y274461D01*
X471374Y275352D01*
X469652Y275814D01*
X467869D01*
X467533Y275724D01*
X456073Y287184D01*
X456599Y288454D01*
X456625D01*
X458095Y289063D01*
X459220Y290188D01*
X459829Y291658D01*
Y293249D01*
X460748Y293992D01*
X460923Y294049D01*
X461666Y293901D01*
X474199D01*
X474358Y293619D01*
X474589Y292631D01*
X473673Y291715D01*
X473064Y290245D01*
Y288653D01*
X473673Y287183D01*
X474798Y286058D01*
X476268Y285449D01*
X477860D01*
X479330Y286058D01*
X480455Y287183D01*
X481064Y288653D01*
Y290245D01*
X480455Y291715D01*
X479539Y292631D01*
X479770Y293619D01*
X479929Y293901D01*
X486556D01*
X492155Y288302D01*
X491767Y287721D01*
X491624Y287003D01*
Y281303D01*
X491767Y280586D01*
X492173Y279977D01*
X492782Y279571D01*
X493499Y279428D01*
X504599D01*
X505317Y279571D01*
X505925Y279977D01*
X506231Y280007D01*
X509174Y277064D01*
Y274170D01*
X509655Y273011D01*
X510813Y272532D01*
X515063D01*
X516222Y273011D01*
X516702Y274170D01*
Y277920D01*
X516222Y279079D01*
X515063Y279559D01*
X512170D01*
X507342Y284387D01*
X506712Y284807D01*
X506474Y284855D01*
Y287003D01*
X506331Y287721D01*
X505925Y288329D01*
X505317Y288735D01*
X504599Y288878D01*
X497070D01*
X488733Y297215D01*
X488103Y297635D01*
X487360Y297783D01*
X462470D01*
X461154Y299100D01*
X461640Y300273D01*
X463106Y300273D01*
X464376Y300273D01*
X468106D01*
Y314051D01*
X463328Y314051D01*
X462058Y314051D01*
X458329D01*
Y314051D01*
X458106D01*
X458106Y314051D01*
X453328Y314051D01*
X452058Y314051D01*
X448328Y314051D01*
X447058Y314051D01*
X443328D01*
Y300273D01*
X448106Y300273D01*
X449376Y300273D01*
X453106Y300273D01*
X454490Y300273D01*
X456494Y298269D01*
Y296454D01*
X455034D01*
X453563Y295845D01*
X452438Y294719D01*
X451829Y293249D01*
Y293223D01*
X450559Y292697D01*
X445858Y297398D01*
X445144Y297876D01*
X444301Y298043D01*
X440970D01*
X438106Y300907D01*
Y314051D01*
X434770D01*
X434770Y314051D01*
X434579D01*
X434506Y314228D01*
X434391Y314342D01*
X434223Y315320D01*
X434254Y315774D01*
X434685Y316814D01*
Y318405D01*
X434076Y319875D01*
X432950Y321001D01*
X431480Y321610D01*
X429889D01*
X429069Y321270D01*
X417659Y332680D01*
Y384280D01*
X418328Y385273D01*
X419376Y385273D01*
X423106Y385273D01*
X424376Y385273D01*
X428106Y385273D01*
X428516Y384173D01*
Y382248D01*
X428684Y381405D01*
X429106Y380773D01*
Y379701D01*
X429715Y378231D01*
X430841Y377106D01*
X432311Y376497D01*
X433902D01*
X435372Y377106D01*
X436497Y378231D01*
X437106Y379701D01*
Y381292D01*
X436497Y382763D01*
X435372Y383888D01*
X435094Y384003D01*
X435347Y385273D01*
X438106Y385273D01*
X439376Y385273D01*
X441969D01*
X443120Y385100D01*
X443202Y384043D01*
Y363676D01*
X442878Y363542D01*
X441753Y362417D01*
X441143Y360947D01*
Y359355D01*
X441753Y357885D01*
X442878Y356760D01*
X444348Y356151D01*
X445939D01*
X447409Y356760D01*
X448006Y357357D01*
X449276Y356831D01*
Y349600D01*
X448952Y349465D01*
X447827Y348340D01*
X447218Y346870D01*
Y345279D01*
X447827Y343809D01*
X448952Y342683D01*
X450422Y342074D01*
X452013D01*
X453483Y342683D01*
X454609Y343809D01*
X455218Y345279D01*
Y346870D01*
X454609Y348340D01*
X453483Y349465D01*
X453159Y349600D01*
Y384073D01*
X453315Y385176D01*
X454383Y385273D01*
X458106Y385273D01*
X459376Y385273D01*
X463106Y385273D01*
X464376Y385273D01*
X468106D01*
Y399051D01*
X463328Y399051D01*
X462058Y399051D01*
X458328Y399051D01*
X457058Y399051D01*
X453328Y399051D01*
X452058Y399051D01*
X448328Y399051D01*
X447058Y399051D01*
X443328Y399051D01*
X442058Y399051D01*
X438328Y399051D01*
X437058Y399051D01*
X433328Y399051D01*
X432058Y399051D01*
X428328Y399051D01*
X427058Y399051D01*
X423328Y399051D01*
X422058Y399051D01*
X418328Y399051D01*
X417058Y399051D01*
X413329D01*
Y399051D01*
X413106D01*
Y399051D01*
X408328D01*
Y385273D01*
X408776D01*
Y355839D01*
X407506Y355313D01*
X407266Y355553D01*
X405796Y356162D01*
X404204D01*
X403876Y356026D01*
X402606Y356875D01*
X402606Y359551D01*
X402606Y360821D01*
X402606Y364551D01*
X402606Y365821D01*
X402606Y369551D01*
X402606Y370821D01*
X402606Y374551D01*
X402606Y375821D01*
Y379551D01*
X388828D01*
X388828Y374773D01*
X388828Y373503D01*
X388828Y369773D01*
X388828Y368503D01*
X388828Y364773D01*
X388828Y363503D01*
X388828Y359773D01*
X388828Y358503D01*
Y354773D01*
X388828Y354773D01*
Y354551D01*
X388828D01*
X388828Y353503D01*
Y349773D01*
X387836Y349103D01*
X381293D01*
X378389Y352007D01*
Y368540D01*
X356611D01*
Y351762D01*
X373144D01*
X378419Y346486D01*
X377881Y345229D01*
X356611D01*
Y328451D01*
X378389D01*
Y334899D01*
X387702D01*
X388828Y334551D01*
Y330821D01*
X388828Y329773D01*
X388828D01*
Y329551D01*
X388828Y329551D01*
X388828Y324773D01*
X388828Y323503D01*
Y319773D01*
X402606D01*
X402606Y324551D01*
X402606Y325821D01*
Y327449D01*
X403876Y328298D01*
X404204Y328162D01*
X405796D01*
X407266Y328771D01*
X407506Y329011D01*
X408776Y328485D01*
Y327407D01*
X408924Y326665D01*
X409345Y326035D01*
X416650Y318730D01*
X416515Y318405D01*
Y316814D01*
X417124Y315344D01*
X417147Y315321D01*
X416621Y314051D01*
X413328Y314051D01*
X412058Y314051D01*
X408328D01*
Y300273D01*
X413106Y300273D01*
X414376Y300273D01*
X418106Y300273D01*
X419376Y300273D01*
X423106D01*
X423106Y300273D01*
X423329D01*
Y300273D01*
X424376Y300273D01*
X428106Y300273D01*
X429376Y300273D01*
X432338Y300273D01*
X432746Y300242D01*
X432900Y300163D01*
X432904Y300162D01*
X432906Y300159D01*
X433055Y300084D01*
X433515Y299541D01*
X433553Y299521D01*
X433569Y299481D01*
X433663Y299442D01*
X433684Y299341D01*
X434161Y298626D01*
X437273Y295515D01*
X437234Y295067D01*
X436868Y294123D01*
X435692Y293636D01*
X434566Y292511D01*
X434432Y292186D01*
X433930D01*
X433187Y292038D01*
X432557Y291617D01*
X425478Y284538D01*
X425057Y283908D01*
X424909Y283165D01*
Y272854D01*
X424943Y272682D01*
X424352Y271657D01*
X423890Y269935D01*
Y268153D01*
X424352Y266431D01*
X425243Y264887D01*
X426504Y263627D01*
X428047Y262735D01*
X429769Y262274D01*
X429667Y261046D01*
X364618D01*
X361922Y261583D01*
X359383Y262635D01*
X357098Y264162D01*
X355154Y266105D01*
X353627Y268391D01*
X352575Y270930D01*
X352039Y273626D01*
Y275000D01*
Y400956D01*
X413919D01*
X414096Y401029D01*
X414287D01*
X414422Y401085D01*
X414558Y401220D01*
X414599Y401238D01*
X414617Y401279D01*
X414943Y401606D01*
X415073Y401918D01*
X415264D01*
X415264Y401918D01*
X425351D01*
X425717Y402284D01*
Y403936D01*
X425905Y403973D01*
X426138Y404129D01*
X426398Y404236D01*
X426436Y404327D01*
X426517Y404382D01*
X426572Y404658D01*
X426680Y404917D01*
Y409311D01*
X427057D01*
Y447889D01*
X426680D01*
Y455695D01*
X491241D01*
X492136Y454794D01*
X492103Y449313D01*
X490458Y447668D01*
X489324D01*
X487854Y447060D01*
X486728Y445934D01*
X486119Y444464D01*
Y442873D01*
X486728Y441403D01*
X487854Y440277D01*
X489324Y439669D01*
X490915D01*
X492385Y440277D01*
X493510Y441403D01*
X494119Y442873D01*
Y442999D01*
X496516Y445395D01*
X496981D01*
X498105Y444272D01*
X499575Y443663D01*
X501166D01*
X502636Y444272D01*
X503760Y445395D01*
X514927D01*
X515807Y444516D01*
X517277Y443907D01*
X518868D01*
X520338Y444516D01*
X521217Y445395D01*
X532976D01*
X534011Y444360D01*
X535481Y443751D01*
X537073D01*
X538543Y444360D01*
X539579Y445395D01*
X550894D01*
X550894Y445395D01*
X552020Y444270D01*
X553490Y443661D01*
X555081D01*
X556551Y444270D01*
X557676Y445395D01*
X557677Y445395D01*
X560578D01*
X561258Y445677D01*
X561412Y445831D01*
X561694Y446512D01*
Y450388D01*
X561838Y450532D01*
X562447Y452002D01*
Y453594D01*
X562103Y454425D01*
X562867Y455695D01*
X566555D01*
X567716Y455432D01*
D02*
G37*
G36*
X562322Y423791D02*
X562497Y423615D01*
Y419284D01*
X561608Y418395D01*
X561241Y417846D01*
X561113Y417199D01*
Y412219D01*
X493243D01*
Y422951D01*
X494141Y423849D01*
X562322Y423791D01*
D02*
G37*
G36*
X642937Y452244D02*
X643811Y451021D01*
X643811Y450993D01*
X643793Y450678D01*
X643813Y450655D01*
Y450625D01*
X643861Y450508D01*
Y448612D01*
X644143Y447932D01*
X644823Y447650D01*
X678670D01*
X678805Y447594D01*
X678861Y447458D01*
Y409741D01*
X678805Y409606D01*
X678670Y409550D01*
X644823D01*
X644143Y409268D01*
X643861Y408587D01*
Y406691D01*
X643805Y406556D01*
X643670Y406500D01*
X633852D01*
X633717Y406556D01*
X633661Y406691D01*
Y412933D01*
X633717Y413069D01*
X633852Y413125D01*
X639799D01*
X640479Y413407D01*
X640761Y414087D01*
Y418112D01*
X640479Y418793D01*
X639799Y419075D01*
X633852D01*
X633717Y419131D01*
X633661Y419266D01*
Y425233D01*
X633717Y425369D01*
X633852Y425425D01*
X639799D01*
X640479Y425707D01*
X640761Y426387D01*
Y430812D01*
X640479Y431493D01*
X639799Y431775D01*
X633852D01*
X633717Y431831D01*
X633661Y431966D01*
Y437933D01*
X633717Y438069D01*
X633852Y438125D01*
X639799D01*
X640479Y438407D01*
X640761Y439087D01*
Y443512D01*
X640479Y444193D01*
X639799Y444475D01*
X633852D01*
X633717Y444531D01*
X633661Y444666D01*
Y450049D01*
X633656Y450062D01*
X633661Y450074D01*
X633516Y450400D01*
X633379Y450730D01*
X633367Y450735D01*
X633361Y450747D01*
X633102Y450993D01*
X633610Y452263D01*
X642919D01*
X642937Y452244D01*
D02*
G37*
G36*
X425717Y447889D02*
Y409311D01*
Y404917D01*
X424447Y404664D01*
X424127Y405438D01*
X423002Y406563D01*
X421531Y407172D01*
X419940D01*
X418470Y406563D01*
X417345Y405438D01*
X416736Y403968D01*
Y402880D01*
X415073D01*
X414896Y402807D01*
X414704D01*
X414569Y402672D01*
X414392Y402598D01*
X414319Y402422D01*
X414184Y402286D01*
X414054Y401974D01*
X413919Y401918D01*
X352039D01*
Y442500D01*
Y443799D01*
X352546Y446349D01*
X353541Y448750D01*
X354985Y450911D01*
X356823Y452749D01*
X358984Y454193D01*
X361385Y455188D01*
X363935Y455695D01*
X425717D01*
Y447889D01*
D02*
G37*
G36*
X808421Y390712D02*
X808498Y390527D01*
X808537Y390330D01*
X809259Y388586D01*
X809371Y388419D01*
X809448Y388233D01*
X810497Y386663D01*
X810639Y386521D01*
X810750Y386354D01*
X812085Y385020D01*
X812252Y384908D01*
X812394Y384766D01*
X813964Y383717D01*
X814149Y383640D01*
X814316Y383529D01*
X816060Y382806D01*
X816257Y382767D01*
X816443Y382690D01*
X818294Y382322D01*
X818445D01*
X818592Y382285D01*
X819536Y382239D01*
X819586Y382247D01*
X819636Y382237D01*
X836582D01*
X838599Y381835D01*
X840499Y381048D01*
X842209Y379906D01*
X843663Y378451D01*
X844806Y376741D01*
X845593Y374841D01*
X845994Y372824D01*
Y344308D01*
X845585Y342248D01*
X844781Y340308D01*
X843614Y338562D01*
X842129Y337077D01*
X840383Y335911D01*
X838443Y335107D01*
X836383Y334697D01*
X820923D01*
X820873Y334687D01*
X820823Y334695D01*
X819753Y334642D01*
X819606Y334605D01*
X819455D01*
X817356Y334188D01*
X817170Y334111D01*
X816973Y334072D01*
X814996Y333253D01*
X814829Y333141D01*
X814644Y333065D01*
X812865Y331876D01*
X812722Y331734D01*
X812555Y331622D01*
X811042Y330109D01*
X810931Y329942D01*
X810789Y329800D01*
X809600Y328021D01*
X809523Y327835D01*
X809411Y327668D01*
X808593Y325691D01*
X808553Y325494D01*
X808476Y325308D01*
X808331Y324575D01*
X807999Y323402D01*
X716196D01*
X716071Y324672D01*
X716697Y324797D01*
X717411Y325274D01*
X727474Y335337D01*
X735539D01*
Y343215D01*
X721061D01*
Y335337D01*
X721061Y335337D01*
X721061D01*
X720324Y334413D01*
X714943Y329032D01*
X631073D01*
Y385556D01*
X682118D01*
X685439Y382235D01*
X686172Y381315D01*
X686172D01*
X686172Y381315D01*
Y373437D01*
X700650D01*
Y381315D01*
X692585D01*
X684586Y389314D01*
X683872Y389791D01*
X683030Y389958D01*
X631073D01*
Y391440D01*
X808276D01*
X808421Y390712D01*
D02*
G37*
G36*
X621758Y371739D02*
Y369213D01*
X622238Y368055D01*
X623397Y367575D01*
X627647D01*
X628806Y368055D01*
X628841Y368139D01*
X630111Y367886D01*
Y347402D01*
X628841Y347149D01*
X628806Y347233D01*
X627647Y347713D01*
X623397D01*
X622238Y347233D01*
X621890Y346393D01*
X620620Y346646D01*
Y354743D01*
X620338Y355423D01*
X619658Y355705D01*
X586050D01*
X585369Y355423D01*
X585088Y354743D01*
Y342548D01*
X585369Y341868D01*
X586050Y341586D01*
X617999D01*
X618526Y340316D01*
X614462Y336252D01*
X579994D01*
Y339440D01*
X567716D01*
Y328662D01*
X579994D01*
Y331850D01*
X618660D01*
X625235Y325274D01*
X625950Y324797D01*
X626792Y324629D01*
X631161D01*
Y323402D01*
X630481Y323120D01*
X630199Y322440D01*
Y319474D01*
X630252Y319346D01*
X630230Y319306D01*
X629516Y318829D01*
X627051Y316363D01*
X579810D01*
Y319551D01*
X567532D01*
Y308773D01*
X579810D01*
Y311961D01*
X612102D01*
X621758Y302304D01*
Y299778D01*
X622238Y298620D01*
X623397Y298140D01*
X627647D01*
X628806Y298620D01*
X628929Y298917D01*
X630199Y298664D01*
Y277754D01*
X628929Y277501D01*
X628806Y277798D01*
X627647Y278278D01*
X623397D01*
X622238Y277798D01*
X621758Y276639D01*
Y276517D01*
X621465Y276321D01*
X620256Y275111D01*
X619082Y275597D01*
Y278106D01*
X619194Y278217D01*
X619803Y279688D01*
Y281279D01*
X619194Y282749D01*
X619082Y282860D01*
Y284877D01*
X618801Y285557D01*
X618120Y285839D01*
X585972D01*
X585795Y285766D01*
X585604D01*
X585469Y285710D01*
X585333Y285574D01*
X585292Y285557D01*
X585275Y285516D01*
X585142Y285383D01*
X585101Y285366D01*
X585083Y285324D01*
X584948Y285189D01*
X584892Y285054D01*
Y284862D01*
X584819Y284685D01*
Y274034D01*
X584450Y273740D01*
X583645Y273411D01*
X579810Y277247D01*
Y285662D01*
X567532D01*
Y277250D01*
X566262Y276571D01*
X566144Y276650D01*
Y335327D01*
X566015Y335975D01*
X565648Y336523D01*
X561373Y340799D01*
Y342609D01*
X562354Y343307D01*
X567716D01*
Y342662D01*
X579994D01*
Y353440D01*
X567716D01*
Y347709D01*
X562354D01*
X561373Y348407D01*
Y350217D01*
X566544Y355388D01*
X566911Y355937D01*
X567039Y356585D01*
X567039Y356585D01*
Y361561D01*
X567716Y362551D01*
X568309Y362551D01*
X579994D01*
Y373329D01*
X568309D01*
X567716Y373329D01*
X567039Y374319D01*
Y375561D01*
X567716Y376551D01*
X579994D01*
Y379739D01*
X613759D01*
X621758Y371739D01*
D02*
G37*
G36*
X619658Y342548D02*
X586050D01*
Y354743D01*
X619658D01*
Y342548D01*
D02*
G37*
G36*
X433825Y313547D02*
X433898Y313370D01*
X434075Y313297D01*
X434211Y313162D01*
X434402D01*
X434579Y313089D01*
X437144D01*
Y300907D01*
X436078Y300162D01*
X434249D01*
X433669Y300849D01*
X433665Y300851D01*
X433664Y300854D01*
X433341Y301018D01*
X433014Y301186D01*
X433010Y301185D01*
X433007Y301187D01*
X432411Y301232D01*
X432374Y301220D01*
X432338Y301235D01*
X429376Y301235D01*
X428106Y301235D01*
X424551Y301235D01*
X424049Y301406D01*
X423976Y301444D01*
X423289Y302137D01*
X423383Y313662D01*
X429763D01*
X429889Y313610D01*
X431480D01*
X431606Y313662D01*
X433711D01*
X433825Y313547D01*
D02*
G37*
G36*
X807970Y321842D02*
X807984Y321742D01*
X807970Y321642D01*
X808023Y320563D01*
X808059Y320416D01*
Y320265D01*
X808480Y318150D01*
X808557Y317964D01*
X808596Y317767D01*
X809422Y315774D01*
X809533Y315607D01*
X809610Y315422D01*
X810808Y313629D01*
X810950Y313486D01*
X811062Y313319D01*
X812587Y311794D01*
X812754Y311683D01*
X812896Y311541D01*
X814690Y310342D01*
X814875Y310265D01*
X815042Y310154D01*
X817035Y309328D01*
X817232Y309289D01*
X817418Y309212D01*
X819533Y308792D01*
X819684D01*
X819831Y308755D01*
X820909Y308702D01*
X820960Y308709D01*
X821009Y308699D01*
X836545D01*
X838605Y308290D01*
X840545Y307486D01*
X842291Y306319D01*
X843776Y304834D01*
X844942Y303088D01*
X845746Y301148D01*
X846156Y299088D01*
Y298039D01*
Y271707D01*
Y270657D01*
X845746Y268598D01*
X844942Y266658D01*
X843776Y264911D01*
X842291Y263426D01*
X840545Y262260D01*
X838605Y261456D01*
X836545Y261046D01*
X713139D01*
X713557Y261325D01*
X718633Y266402D01*
X721061D01*
Y264664D01*
X735539D01*
Y272542D01*
X721061D01*
Y270804D01*
X717721D01*
X717019Y270665D01*
X716879Y270637D01*
X716165Y270160D01*
X711088Y265083D01*
X644629D01*
Y265083D01*
X644750Y265376D01*
D01*
X644823Y265553D01*
Y267449D01*
X644879Y267585D01*
X645015Y267641D01*
X678861D01*
X679038Y267714D01*
D01*
X679173Y267770D01*
D01*
X679541Y267923D01*
X679694Y268291D01*
D01*
X679750Y268426D01*
D01*
X679823Y268603D01*
Y306703D01*
X679750Y306880D01*
D01*
X679694Y307015D01*
D01*
X679541Y307384D01*
X679173Y307536D01*
D01*
X679038Y307592D01*
D01*
X678861Y307665D01*
X645015D01*
X644879Y307722D01*
X644823Y307857D01*
Y309562D01*
Y309753D01*
X644750Y309930D01*
D01*
X644694Y310065D01*
D01*
X644541Y310434D01*
X644173Y310586D01*
D01*
X644038Y310642D01*
D01*
X643861Y310715D01*
X633661D01*
X633484Y310642D01*
D01*
X633349Y310586D01*
D01*
X632981Y310434D01*
X632828Y310065D01*
D01*
X632772Y309930D01*
D01*
X632699Y309753D01*
Y309562D01*
Y303720D01*
Y303528D01*
X632772Y303351D01*
D01*
X632828Y303216D01*
D01*
X632981Y302848D01*
X633349Y302695D01*
D01*
X633484Y302639D01*
D01*
X633661Y302566D01*
X639607D01*
X639743Y302510D01*
X639799Y302374D01*
Y298332D01*
X639743Y298197D01*
X639607Y298140D01*
X633661D01*
X633484Y298067D01*
D01*
X633349Y298011D01*
D01*
X632981Y297859D01*
X632828Y297490D01*
D01*
X632772Y297355D01*
D01*
X632699Y297178D01*
Y296987D01*
Y291019D01*
Y290828D01*
X632772Y290651D01*
D01*
X632828Y290516D01*
D01*
X632981Y290148D01*
X633349Y289995D01*
D01*
X633484Y289939D01*
D01*
X633661Y289866D01*
X639607D01*
X639743Y289810D01*
X639799Y289674D01*
Y285632D01*
X639743Y285497D01*
X639607Y285440D01*
X633661D01*
X633484Y285367D01*
D01*
X633349Y285311D01*
D01*
X632981Y285159D01*
X632828Y284790D01*
D01*
X632772Y284655D01*
D01*
X632699Y284478D01*
Y284287D01*
Y278319D01*
Y278128D01*
X632772Y277951D01*
D01*
X632828Y277816D01*
D01*
X632981Y277448D01*
X633349Y277295D01*
D01*
X633484Y277239D01*
D01*
X633661Y277166D01*
X639607D01*
X639743Y277110D01*
X639799Y276975D01*
Y273332D01*
X639743Y273197D01*
X639607Y273140D01*
X633661D01*
X633484Y273067D01*
D01*
X633349Y273011D01*
D01*
X632981Y272859D01*
X632828Y272490D01*
D01*
X632772Y272355D01*
D01*
X632699Y272178D01*
Y271987D01*
Y265744D01*
Y265553D01*
X632772Y265376D01*
Y265376D01*
X632893Y265083D01*
X631161D01*
Y314247D01*
X631985Y315071D01*
X681930D01*
X686359Y310642D01*
X686172D01*
Y302764D01*
X700650D01*
Y310642D01*
X692585D01*
X684398Y318829D01*
X683684Y319306D01*
X682842Y319474D01*
X631161D01*
Y322440D01*
X807999D01*
X807970Y321842D01*
D02*
G37*
G36*
X618120Y273891D02*
X585781D01*
Y284685D01*
X585837Y284821D01*
X585972Y284877D01*
X618120D01*
Y273891D01*
D02*
G37*
G36*
X643805Y309697D02*
X643861Y309562D01*
Y307665D01*
X644143Y306985D01*
X644823Y306703D01*
X678670D01*
X678805Y306647D01*
X678861Y306512D01*
Y268794D01*
X678805Y268659D01*
X678670Y268603D01*
X644823D01*
X644143Y268321D01*
X643861Y267641D01*
Y265744D01*
X643740Y265451D01*
Y265260D01*
X643666Y265083D01*
X633856D01*
X633783Y265260D01*
Y265451D01*
X633661Y265744D01*
Y271987D01*
X633717Y272122D01*
X633852Y272178D01*
X639799D01*
X640479Y272460D01*
X640761Y273140D01*
Y277166D01*
X640479Y277846D01*
X639799Y278128D01*
X633852D01*
X633717Y278184D01*
X633661Y278319D01*
Y284287D01*
X633717Y284422D01*
X633852Y284478D01*
X639799D01*
X640479Y284760D01*
X640761Y285440D01*
Y289866D01*
X640479Y290546D01*
X639799Y290828D01*
X633852D01*
X633717Y290884D01*
X633661Y291019D01*
Y296987D01*
X633717Y297122D01*
X633852Y297178D01*
X639799D01*
X640479Y297460D01*
X640761Y298140D01*
Y302566D01*
X640479Y303246D01*
X639799Y303528D01*
X633852D01*
X633717Y303584D01*
X633661Y303720D01*
Y309562D01*
X633717Y309697D01*
X633852Y309753D01*
X643670D01*
X643805Y309697D01*
D02*
G37*
%LPC*%
G36*
X736147Y453761D02*
X720511D01*
X719831Y453480D01*
X719549Y452799D01*
Y449075D01*
X719489Y448929D01*
Y447338D01*
X719549Y447192D01*
Y417266D01*
X719831Y416585D01*
X720511Y416303D01*
X736147D01*
X736827Y416585D01*
X737109Y417266D01*
Y452799D01*
X736827Y453480D01*
X736147Y453761D01*
D02*
G37*
%LPD*%
G36*
Y417266D02*
X720511D01*
Y452799D01*
X736147D01*
Y417266D01*
D02*
G37*
%LPC*%
G36*
X599367Y443072D02*
X597776D01*
X596306Y442463D01*
X595775Y441932D01*
X595449Y441797D01*
X595050D01*
X593744Y442057D01*
X592438Y441797D01*
X591867D01*
X591540Y441932D01*
X591010Y442463D01*
X589540Y443072D01*
X587948D01*
X586478Y442463D01*
X585353Y441338D01*
X584744Y439868D01*
Y438276D01*
X585353Y436806D01*
X586184Y435975D01*
X586319Y435649D01*
Y434222D01*
X586462Y433504D01*
X586868Y432896D01*
X587477Y432490D01*
X588194Y432347D01*
X590216D01*
X590543Y432212D01*
X591381Y431373D01*
X592851Y430764D01*
X594443D01*
X595913Y431373D01*
X596751Y432212D01*
X597078Y432347D01*
X599294D01*
X600011Y432490D01*
X600620Y432896D01*
X601026Y433504D01*
X601169Y434222D01*
Y435673D01*
X601304Y436000D01*
X601975Y436671D01*
X602197Y436763D01*
X602197Y436763D01*
X602197D01*
X602302Y436806D01*
X603051Y436806D01*
X603156Y436763D01*
X603156D01*
X603156Y436763D01*
X603377Y436671D01*
X604073Y435975D01*
X604208Y435649D01*
Y434222D01*
X604351Y433504D01*
X604757Y432896D01*
X605365Y432490D01*
X606083Y432347D01*
X608020D01*
X608347Y432211D01*
X609264Y431294D01*
X610735Y430685D01*
X612326D01*
X613796Y431294D01*
X614714Y432211D01*
X615041Y432347D01*
X617183D01*
X617901Y432490D01*
X618509Y432896D01*
X618915Y433504D01*
X619058Y434222D01*
Y436190D01*
X619193Y436517D01*
X619482Y436806D01*
X620091Y438276D01*
Y439868D01*
X619482Y441338D01*
X618357Y442463D01*
X616887Y443072D01*
X615295D01*
X613825Y442463D01*
X613295Y441932D01*
X612968Y441797D01*
X609756D01*
X609430Y441932D01*
X608899Y442463D01*
X607429Y443072D01*
X605837D01*
X604367Y442463D01*
X603377Y441473D01*
X603156Y441381D01*
X603156Y441381D01*
X603156D01*
X603051Y441338D01*
X602154Y441338D01*
X602049Y441381D01*
X602049D01*
X602049Y441381D01*
X601827Y441473D01*
X600838Y442463D01*
X600382Y442652D01*
X599367Y443072D01*
D02*
G37*
G36*
X484157Y447889D02*
X465879D01*
Y409311D01*
X484157D01*
Y447889D01*
D02*
G37*
G36*
X424677Y342242D02*
X423086D01*
X421615Y341633D01*
X420490Y340508D01*
X419881Y339038D01*
Y337447D01*
X420490Y335976D01*
X421615Y334851D01*
X423086Y334242D01*
X424677D01*
X425001Y334377D01*
X433043Y326335D01*
X432764Y325659D01*
Y324068D01*
X433372Y322598D01*
X434498Y321473D01*
X435968Y320864D01*
X437559D01*
X439029Y321473D01*
X440155Y322598D01*
X440764Y324068D01*
Y325659D01*
X440155Y327129D01*
X439029Y328255D01*
X437559Y328864D01*
X436006D01*
X427747Y337122D01*
X427881Y337447D01*
Y339038D01*
X427272Y340508D01*
X426147Y341633D01*
X424677Y342242D01*
D02*
G37*
G36*
X543831Y308204D02*
X542240D01*
X541066Y307717D01*
X540910D01*
X539752Y307237D01*
X539272Y306079D01*
Y305570D01*
X539035Y304999D01*
Y303408D01*
X539272Y302838D01*
Y302329D01*
X539752Y301170D01*
X540910Y300690D01*
X541066D01*
X542240Y300204D01*
X543831D01*
X545005Y300690D01*
X545160D01*
X546319Y301170D01*
X546799Y302329D01*
Y302838D01*
X547035Y303408D01*
Y304999D01*
X546799Y305570D01*
Y306079D01*
X546319Y307237D01*
X545160Y307717D01*
X545005D01*
X543831Y308204D01*
D02*
G37*
G36*
X514706Y291003D02*
X513115D01*
X511645Y290394D01*
X510519Y289269D01*
X509911Y287799D01*
Y286208D01*
X510519Y284737D01*
X511645Y283612D01*
X513115Y283003D01*
X514706D01*
X516176Y283612D01*
X517302Y284737D01*
X517910Y286208D01*
Y287799D01*
X517302Y289269D01*
X516176Y290394D01*
X514706Y291003D01*
D02*
G37*
G36*
X556297Y289837D02*
X554705D01*
X553235Y289228D01*
X552110Y288103D01*
X551501Y286632D01*
Y285041D01*
X552110Y283571D01*
X553235Y282446D01*
X554705Y281837D01*
X556297D01*
X557767Y282446D01*
X558892Y283571D01*
X559501Y285041D01*
Y286632D01*
X558892Y288103D01*
X557767Y289228D01*
X556297Y289837D01*
D02*
G37*
G36*
X548197Y289240D02*
X542497D01*
X541780Y289097D01*
X541172Y288690D01*
X540765Y288082D01*
X540622Y287365D01*
Y276265D01*
X540765Y275547D01*
X541172Y274939D01*
X541780Y274532D01*
X542497Y274390D01*
X548197D01*
X548915Y274532D01*
X549523Y274939D01*
X549930Y275547D01*
X550073Y276265D01*
Y287365D01*
X549930Y288082D01*
X549523Y288690D01*
X548915Y289097D01*
X548197Y289240D01*
D02*
G37*
G36*
X528499Y289446D02*
X526908D01*
X526410Y289240D01*
X524598D01*
X523880Y289097D01*
X523272Y288690D01*
X522865Y288082D01*
X522722Y287365D01*
Y276265D01*
X522865Y275547D01*
X523272Y274939D01*
X523880Y274532D01*
X524598Y274390D01*
X529273D01*
X529876Y273196D01*
X529267Y271726D01*
Y270135D01*
X529876Y268664D01*
X531001Y267539D01*
X532471Y266930D01*
X534062D01*
X535533Y267539D01*
X536658Y268664D01*
X537267Y270135D01*
Y271726D01*
X536658Y273196D01*
X535533Y274321D01*
X534062Y274930D01*
X533103D01*
X532966Y275009D01*
X532164Y276018D01*
X532140Y276103D01*
X532172Y276265D01*
Y287365D01*
X532030Y288082D01*
X531623Y288690D01*
X531015Y289097D01*
X530297Y289240D01*
X528997D01*
X528499Y289446D01*
D02*
G37*
G36*
X558339Y274815D02*
X556748D01*
X555277Y274206D01*
X554152Y273081D01*
X553543Y271610D01*
Y270019D01*
X554152Y268549D01*
X555277Y267424D01*
X556748Y266815D01*
X558339D01*
X559809Y267424D01*
X560934Y268549D01*
X561543Y270019D01*
Y271610D01*
X560934Y273081D01*
X559809Y274206D01*
X558339Y274815D01*
D02*
G37*
G36*
X513868Y271037D02*
X512276D01*
X511122Y270559D01*
X510813D01*
X509655Y270079D01*
X509174Y268920D01*
Y268080D01*
X509072Y267833D01*
Y266242D01*
X509174Y265994D01*
Y265170D01*
X509655Y264011D01*
X510813Y263531D01*
X511083D01*
X512276Y263037D01*
X513868D01*
X515061Y263531D01*
X515063D01*
X516222Y264011D01*
X516702Y265170D01*
Y265348D01*
X517072Y266242D01*
Y267833D01*
X516702Y268727D01*
Y268920D01*
X516222Y270079D01*
X515063Y270559D01*
X515022D01*
X513868Y271037D01*
D02*
G37*
%LPD*%
G36*
X600293Y441647D02*
X601282Y440657D01*
X601681Y440492D01*
X601963Y440375D01*
X603242Y440375D01*
X603242D01*
D01*
X603524Y440492D01*
X603922Y440657D01*
Y440657D01*
X603922D01*
X604912Y441647D01*
X606029Y442110D01*
X607237D01*
X608354Y441647D01*
X608884Y441116D01*
X609565Y440835D01*
X613159D01*
X613840Y441116D01*
X614370Y441647D01*
X615487Y442110D01*
X616695D01*
X617812Y441647D01*
X618666Y440793D01*
X619129Y439676D01*
Y438468D01*
X618666Y437351D01*
X618378Y437062D01*
X618096Y436382D01*
Y434317D01*
X618009Y433880D01*
X617815Y433590D01*
X617525Y433396D01*
X617088Y433309D01*
X614849D01*
X614169Y433027D01*
X613251Y432109D01*
X612135Y431647D01*
X610926D01*
X609809Y432109D01*
X608892Y433027D01*
X608211Y433309D01*
X606178D01*
X605741Y433396D01*
X605451Y433590D01*
X605257Y433880D01*
X605170Y434317D01*
Y435840D01*
X604888Y436520D01*
X603922Y437486D01*
X603524Y437651D01*
X603242Y437768D01*
X602110Y437768D01*
X602110D01*
D01*
X601828Y437652D01*
X601430Y437486D01*
Y437486D01*
X601430D01*
X600489Y436545D01*
X600207Y435865D01*
Y434317D01*
X600120Y433880D01*
X599926Y433590D01*
X599636Y433396D01*
X599199Y433309D01*
X596887D01*
X596206Y433027D01*
X595368Y432189D01*
X594251Y431726D01*
X593043D01*
X591926Y432189D01*
X591088Y433027D01*
X590407Y433309D01*
X588289D01*
X587852Y433396D01*
X587562Y433590D01*
X587368Y433880D01*
X587281Y434317D01*
Y435840D01*
X586999Y436521D01*
X586169Y437351D01*
X586005Y437747D01*
Y440397D01*
X586169Y440793D01*
X587023Y441647D01*
X588140Y442110D01*
X589348D01*
X590465Y441647D01*
X590995Y441116D01*
X591676Y440835D01*
X592438D01*
X592529Y440872D01*
X592626Y440853D01*
X593744Y441076D01*
X594862Y440853D01*
X594959Y440872D01*
X595050Y440835D01*
X595640D01*
X596320Y441116D01*
X596851Y441647D01*
X597968Y442110D01*
X599176D01*
X600293Y441647D01*
D02*
G37*
G36*
X483195Y410273D02*
X466842D01*
Y446926D01*
X483195D01*
Y410273D01*
D02*
G37*
%LPC*%
G36*
X736487Y383015D02*
X720318D01*
X719637Y382733D01*
X719355Y382053D01*
Y346835D01*
X719637Y346155D01*
X720318Y345873D01*
X736403D01*
X737083Y346155D01*
X737168Y346239D01*
X737450Y346920D01*
Y382053D01*
X737168Y382733D01*
X736487Y383015D01*
D02*
G37*
G36*
X643861Y381388D02*
X633661D01*
X632981Y381106D01*
X632699Y380426D01*
Y374201D01*
X632981Y373521D01*
X633661Y373239D01*
X639607D01*
X639743Y373183D01*
X639799Y373047D01*
Y369005D01*
X639743Y368869D01*
X639607Y368813D01*
X633661D01*
X632981Y368531D01*
X632699Y367851D01*
Y361501D01*
X632981Y360821D01*
X633661Y360539D01*
X639607D01*
X639743Y360483D01*
X639799Y360347D01*
Y356305D01*
X639743Y356169D01*
X639607Y356113D01*
X633661D01*
X632981Y355831D01*
X632699Y355151D01*
Y348801D01*
X632981Y348121D01*
X633661Y347839D01*
X639607D01*
X639743Y347783D01*
X639799Y347647D01*
Y344005D01*
X639743Y343869D01*
X639607Y343813D01*
X633661D01*
X632981Y343531D01*
X632699Y342851D01*
Y336226D01*
X632981Y335546D01*
X633661Y335264D01*
X643861D01*
X644541Y335546D01*
X644823Y336226D01*
Y338122D01*
X644879Y338258D01*
X645015Y338314D01*
X678861D01*
X679541Y338596D01*
X679823Y339276D01*
Y377376D01*
X679541Y378056D01*
X678861Y378338D01*
X645015D01*
X644879Y378394D01*
X644823Y378530D01*
Y380426D01*
X644541Y381106D01*
X644038Y381315D01*
X643861Y381388D01*
D02*
G37*
%LPD*%
G36*
X736487Y346920D02*
X736403Y346835D01*
X720318D01*
Y382053D01*
X736487D01*
Y346920D01*
D02*
G37*
G36*
X643805Y380370D02*
X643861Y380235D01*
Y378338D01*
X644143Y377658D01*
X644823Y377376D01*
X678670D01*
X678805Y377320D01*
X678861Y377185D01*
Y339467D01*
X678805Y339332D01*
X678670Y339276D01*
X644823D01*
X644143Y338994D01*
X643861Y338314D01*
Y336417D01*
X643805Y336282D01*
X643670Y336226D01*
X633852D01*
X633717Y336282D01*
X633661Y336417D01*
Y342660D01*
X633717Y342795D01*
X633852Y342851D01*
X639799D01*
X640479Y343133D01*
X640761Y343813D01*
Y347839D01*
X640479Y348519D01*
X639799Y348801D01*
X633852D01*
X633717Y348857D01*
X633661Y348992D01*
Y354960D01*
X633717Y355095D01*
X633852Y355151D01*
X639799D01*
X640479Y355433D01*
X640761Y356113D01*
Y360539D01*
X640479Y361219D01*
X639799Y361501D01*
X633852D01*
X633717Y361557D01*
X633661Y361692D01*
Y367660D01*
X633717Y367795D01*
X633852Y367851D01*
X639799D01*
X640479Y368133D01*
X640761Y368813D01*
Y373239D01*
X640479Y373919D01*
X639799Y374201D01*
X633852D01*
X633717Y374257D01*
X633661Y374392D01*
Y380235D01*
X633717Y380370D01*
X633852Y380426D01*
X643670D01*
X643805Y380370D01*
D02*
G37*
%LPC*%
G36*
X579810Y305551D02*
X567532D01*
Y294773D01*
X579810D01*
Y305551D01*
D02*
G37*
G36*
X737290Y312470D02*
X719450D01*
X718770Y312188D01*
X718488Y311507D01*
Y276698D01*
X718770Y276018D01*
X719450Y275736D01*
X737290D01*
X737970Y276018D01*
X738252Y276698D01*
Y311507D01*
X737970Y312188D01*
X737290Y312470D01*
D02*
G37*
%LPD*%
G36*
Y276698D02*
X719450D01*
Y311507D01*
X737290D01*
Y276698D01*
D02*
G37*
D11*
X611633Y297009D02*
X611633Y297009D01*
X615373Y334051D02*
X619571D01*
X626792Y326830D01*
X613014Y314162D02*
X627962D01*
X631073Y317272D01*
X613014Y314162D02*
X625522Y301653D01*
X573671Y314162D02*
X613014D01*
X573855Y334051D02*
X615373D01*
X606993Y369059D02*
X607887D01*
X593744Y419172D02*
X593744Y419172D01*
X536077Y432744D02*
X536131Y432798D01*
X536077Y432744D02*
X536077Y432744D01*
X518188Y432744D02*
X518188Y432744D01*
X536077Y399934D02*
X536077Y399934D01*
X593744Y366529D02*
X596444D01*
X536077Y399934D02*
X536077Y399934D01*
X518188Y399934D02*
X518188Y399934D01*
X625522Y362088D02*
Y362088D01*
X625272Y362088D02*
X625522D01*
X611633Y366529D02*
X614163Y363999D01*
X395717Y332162D02*
X405000D01*
X430717Y382248D02*
Y392162D01*
Y382248D02*
X432468Y380497D01*
X433106D01*
X497599Y450644D02*
X500299D01*
X490119Y443669D02*
X490624D01*
X468760Y269044D02*
Y271383D01*
X435717Y300183D02*
Y307162D01*
X440059Y295842D02*
X444301D01*
X468760Y271383D01*
X435717Y300183D02*
X440059Y295842D01*
X571312Y345508D02*
X573855Y348051D01*
X555936Y345508D02*
X571312D01*
X613923Y402154D02*
X614054Y402284D01*
X622200D01*
X624484Y400000D01*
X718548D01*
X728300Y409752D01*
X616633Y268376D02*
X620685D01*
X626179Y262882D01*
X712000D01*
X717721Y268603D01*
X728300D01*
X626792Y326830D02*
X715854D01*
X728300Y339276D01*
X615786Y450377D02*
X616091Y450072D01*
X623549D01*
X627942Y454464D01*
X686799D01*
X693411Y447852D01*
X628929Y387757D02*
X683030D01*
X614670Y381940D02*
X623112D01*
X628929Y387757D01*
X683030D02*
X693411Y377376D01*
X631073Y317272D02*
X682842D01*
X693411Y306703D01*
X615786Y450377D02*
X625522Y440641D01*
X574189Y450377D02*
X615786D01*
X573855Y450042D02*
X574189Y450377D01*
X539495Y363099D02*
Y369345D01*
X540971Y370821D01*
X573855Y381940D02*
X614670D01*
X625522Y371088D01*
X613923Y402154D02*
X625522Y413752D01*
X573855Y402154D02*
X613923D01*
X573671Y280273D02*
X585568Y268376D01*
X616633D01*
X623022Y274764D01*
X625522D01*
X615373Y334051D02*
X625522Y344199D01*
D15*
X410717Y307162D02*
D03*
X415717D02*
D03*
X420717D02*
D03*
X425717D02*
D03*
X430717D02*
D03*
X435717D02*
D03*
X440717D02*
D03*
X445717D02*
D03*
X450717D02*
D03*
X455717D02*
D03*
X460717D02*
D03*
X465717D02*
D03*
Y392162D02*
D03*
X460717D02*
D03*
X455717D02*
D03*
X450717D02*
D03*
X445717D02*
D03*
X440717D02*
D03*
X435717D02*
D03*
X430717D02*
D03*
X425717D02*
D03*
X420717D02*
D03*
X415717D02*
D03*
X410717D02*
D03*
D16*
X480717Y322162D02*
D03*
Y327162D02*
D03*
Y332162D02*
D03*
Y337162D02*
D03*
Y342162D02*
D03*
Y347162D02*
D03*
Y352162D02*
D03*
Y357162D02*
D03*
Y362162D02*
D03*
Y367162D02*
D03*
Y372162D02*
D03*
Y377162D02*
D03*
X395717D02*
D03*
Y372162D02*
D03*
Y367162D02*
D03*
Y362162D02*
D03*
Y357162D02*
D03*
Y352162D02*
D03*
Y347162D02*
D03*
Y342162D02*
D03*
Y337162D02*
D03*
Y332162D02*
D03*
Y327162D02*
D03*
Y322162D02*
D03*
D17*
X529423Y323996D02*
D03*
X549423D02*
D03*
X524423D02*
D03*
X534423D02*
D03*
X539423D02*
D03*
X544423D02*
D03*
X549423Y362021D02*
D03*
X544423D02*
D03*
X539423D02*
D03*
X534423D02*
D03*
X529423D02*
D03*
X524423D02*
D03*
D18*
X728300Y422452D02*
D03*
Y435152D02*
D03*
Y447852D02*
D03*
Y377376D02*
D03*
Y364676D02*
D03*
Y306703D02*
D03*
Y351976D02*
D03*
Y294003D02*
D03*
Y281303D02*
D03*
Y268603D02*
D03*
Y339276D02*
D03*
Y409752D02*
D03*
X693411Y268603D02*
D03*
Y281303D02*
D03*
Y294003D02*
D03*
Y306703D02*
D03*
Y339276D02*
D03*
Y351976D02*
D03*
Y364676D02*
D03*
Y377376D02*
D03*
Y409550D02*
D03*
Y422250D02*
D03*
Y434950D02*
D03*
Y447650D02*
D03*
D19*
X625522Y422752D02*
D03*
Y431641D02*
D03*
Y292653D02*
D03*
Y283764D02*
D03*
X625522Y353199D02*
D03*
Y362088D02*
D03*
X543036Y295204D02*
D03*
X512938Y276045D02*
D03*
Y267045D02*
D03*
X625522Y274764D02*
D03*
X625522Y344199D02*
D03*
X625522Y413752D02*
D03*
Y301653D02*
D03*
X625522Y371088D02*
D03*
X625522Y440641D02*
D03*
X543036Y304204D02*
D03*
D20*
X611633Y419172D02*
D03*
X553966Y432798D02*
D03*
X593744Y419172D02*
D03*
X536077Y432744D02*
D03*
X518188Y432744D02*
D03*
X553966Y399934D02*
D03*
X536077Y399934D02*
D03*
X518188Y399934D02*
D03*
X611633Y366529D02*
D03*
X593744Y366529D02*
D03*
X593744Y297009D02*
D03*
X611633Y297009D02*
D03*
X500299Y432744D02*
D03*
X500299Y399934D02*
D03*
X499049Y266253D02*
D03*
Y284153D02*
D03*
X553966Y450698D02*
D03*
X536077Y450644D02*
D03*
X518188Y450644D02*
D03*
X500299Y450644D02*
D03*
X500299Y417834D02*
D03*
X518188Y417834D02*
D03*
X536077Y417834D02*
D03*
X553966Y417834D02*
D03*
X593744Y437072D02*
D03*
X611633Y437072D02*
D03*
X611633Y348629D02*
D03*
X593744Y348629D02*
D03*
X593744Y279109D02*
D03*
X611633Y279109D02*
D03*
D21*
X507658Y381952D02*
D03*
X511191Y299704D02*
D03*
X529091D02*
D03*
X525559Y381952D02*
D03*
X556348Y381886D02*
D03*
X538447D02*
D03*
X545347Y281815D02*
D03*
X527447D02*
D03*
D22*
X380435Y289379D02*
D03*
X380191Y428072D02*
D03*
D23*
X417961Y269044D02*
D03*
X430661D02*
D03*
X456060D02*
D03*
X443360D02*
D03*
X468760D02*
D03*
X417961D02*
D03*
X430661D02*
D03*
X456060D02*
D03*
X443360D02*
D03*
X468760D02*
D03*
D24*
X517910Y330508D02*
D03*
Y340508D02*
D03*
Y335508D02*
D03*
X555936Y330508D02*
D03*
Y335508D02*
D03*
Y340508D02*
D03*
Y345508D02*
D03*
Y350508D02*
D03*
Y355508D02*
D03*
X517910D02*
D03*
Y350508D02*
D03*
Y345508D02*
D03*
D25*
X417918Y428600D02*
D03*
X475018D02*
D03*
D27*
X573671Y280273D02*
D03*
Y266273D02*
D03*
X573855Y334051D02*
D03*
Y348051D02*
D03*
X573855Y402154D02*
D03*
Y416153D02*
D03*
X573671Y314162D02*
D03*
Y300162D02*
D03*
X573855Y381940D02*
D03*
Y367940D02*
D03*
X573855Y450042D02*
D03*
Y436043D02*
D03*
D35*
X536923Y343008D02*
D03*
D38*
X367500Y336840D02*
D03*
Y360151D02*
D03*
Y385125D02*
D03*
D39*
X657821Y426060D02*
D03*
Y355786D02*
D03*
Y285113D02*
D03*
D40*
X763890Y290193D02*
D03*
Y360866D02*
D03*
Y431342D02*
D03*
D41*
X819636Y285000D02*
D03*
Y358326D02*
D03*
Y431587D02*
D03*
D42*
X480717Y342162D02*
X480787Y342092D01*
X490043D01*
X490113Y342023D01*
X395396Y336840D02*
X395717Y337162D01*
X367500Y336840D02*
X395396D01*
X367500Y360151D02*
X380489Y347162D01*
X395717D01*
X542785Y295204D02*
X543036D01*
X538881Y291300D02*
X542785Y295204D01*
X516895Y291300D02*
X538881D01*
X511191Y297004D02*
Y299704D01*
Y297004D02*
X516895Y291300D01*
X395717Y352162D02*
X405000D01*
X436764Y324864D02*
Y325360D01*
X423881Y338242D02*
X436764Y325360D01*
X500188Y283014D02*
X505970D01*
X511203Y277780D01*
X512688Y276045D02*
X512938D01*
X511203Y277530D02*
Y277780D01*
Y277530D02*
X512688Y276045D01*
X458435Y295059D02*
Y299073D01*
X455829Y292454D02*
X458435Y295059D01*
Y299073D02*
X461666Y295842D01*
X487360D01*
X455204Y302304D02*
X458435Y299073D01*
X455204Y302304D02*
X455717Y302817D01*
Y307162D01*
X426851Y272854D02*
X430661Y269044D01*
X487360Y295842D02*
X499049Y284153D01*
X500188Y283014D01*
X426851Y283165D02*
X433930Y290245D01*
X437958D01*
X426851Y272854D02*
Y283165D01*
X415717Y331876D02*
Y392162D01*
Y331876D02*
X429984Y317610D01*
X430685D01*
X456060Y269044D02*
Y271742D01*
X453697Y274106D02*
X456060Y271742D01*
X453697Y274106D02*
Y276214D01*
X447824Y282087D02*
X453697Y276214D01*
X451218Y346074D02*
Y385162D01*
X450717Y385662D02*
X451218Y385162D01*
X450717Y385662D02*
Y392162D01*
X502000Y315694D02*
X505125D01*
X499185Y312880D02*
X502000Y315694D01*
X489999Y312880D02*
X499185D01*
X480717Y322162D02*
X489999Y312880D01*
X455204Y326035D02*
X461169D01*
X467296Y332162D01*
X480717D01*
X487506Y325566D02*
X488621Y324450D01*
X485910Y327162D02*
X487506Y325566D01*
X487506D01*
X480717Y327162D02*
X485910D01*
X488621Y324450D02*
X493280Y319792D01*
Y318785D02*
Y319792D01*
X488621Y324450D02*
Y324450D01*
X410717Y327407D02*
Y392162D01*
Y327407D02*
X420515Y317610D01*
X440821Y269044D02*
Y271846D01*
X431866Y280801D02*
X440821Y271846D01*
X431866Y280801D02*
Y281064D01*
X445144Y360151D02*
Y385088D01*
X445775Y385719D01*
Y387757D01*
X571251Y345447D02*
X573855Y348051D01*
X545099Y281566D02*
X545347Y281815D01*
X544873Y281566D02*
X545099D01*
X524423Y362021D02*
Y365356D01*
X520327Y369453D02*
X524423Y365356D01*
X519861Y369453D02*
X520327D01*
X559210Y355447D02*
X559469Y355705D01*
Y357105D01*
X560578Y358214D01*
Y358883D01*
X541225Y381886D02*
X544423Y378688D01*
Y374461D02*
Y378688D01*
Y362021D02*
Y367180D01*
X545986Y368744D02*
Y372898D01*
X544423Y374461D02*
X545986Y372898D01*
X544423Y367180D02*
X545986Y368744D01*
X532071Y369649D02*
Y370303D01*
X532614Y370846D01*
X532071Y369649D02*
X534471Y367249D01*
X549399Y362045D02*
X549423Y362021D01*
X549399Y362045D02*
Y367213D01*
X551221Y369035D01*
Y370821D01*
X534423Y362021D02*
X534471Y362068D01*
Y367249D01*
X538447Y381886D02*
X541225D01*
X556063Y355233D02*
X556348Y355518D01*
Y381886D01*
D43*
X517468Y340066D02*
X517910Y340508D01*
X497317Y339440D02*
X497943Y340066D01*
X496516Y339440D02*
X497317D01*
X497943Y340066D02*
X517468D01*
X494806Y346239D02*
X495607D01*
X480717Y347162D02*
X493883D01*
X494806Y346239D01*
X498964Y352179D02*
X498981Y352197D01*
X480717Y352162D02*
X480735Y352179D01*
X498964D01*
X480717Y357162D02*
X480772Y357107D01*
X504213D01*
X504267Y357053D01*
X508521Y349765D02*
X508974Y349311D01*
X510771D01*
X514575Y345508D01*
X517910D01*
X510321Y354711D02*
Y359319D01*
X514081Y350951D02*
X517468D01*
X517910Y350508D01*
X510321Y354711D02*
X514081Y350951D01*
X529392Y311870D02*
X530255Y311007D01*
X529392Y311870D02*
Y321861D01*
X495536Y325744D02*
Y326335D01*
X500652Y330364D02*
X515154D01*
X496032Y325744D02*
X500652Y330364D01*
X495536Y325744D02*
X496032D01*
X523747Y316712D02*
X524380Y317344D01*
Y321047D01*
X534423Y315512D02*
Y323996D01*
Y315512D02*
X535444Y314490D01*
X534228Y315012D02*
X535028Y314211D01*
X535308Y314490D01*
X535444D01*
X495536Y331994D02*
Y333474D01*
X499460Y335422D02*
X500591D01*
X517824D01*
X499514D02*
X500591D01*
X495536Y331994D02*
X496032D01*
X497613Y333574D01*
X497666D01*
X499487Y335395D01*
X526255Y368524D02*
Y370821D01*
Y368524D02*
X529423Y365356D01*
Y362021D02*
Y365356D01*
X515091Y383574D02*
X524149Y392633D01*
X515091Y358328D02*
X517910Y355508D01*
X515091Y358328D02*
Y383574D01*
X524149Y392633D02*
X558754D01*
X562804Y396682D01*
Y417199D01*
X569375Y423770D01*
Y432313D01*
X573105Y436043D01*
X573855D01*
X573105Y416153D02*
X573855D01*
X565348Y408396D02*
X573105Y416153D01*
X565348Y356585D02*
Y408396D01*
X559271Y350508D02*
X565348Y356585D01*
X555936Y350508D02*
X559271D01*
X572921Y266273D02*
X573671D01*
X564452Y274741D02*
X572921Y266273D01*
X564452Y274741D02*
Y335327D01*
X559271Y340508D02*
X564452Y335327D01*
X555936Y340508D02*
X559271D01*
D44*
X490624Y443669D02*
X497599Y450644D01*
D45*
X539417Y318296D02*
Y320881D01*
Y318296D02*
X540945Y316768D01*
Y316365D02*
Y316768D01*
Y316365D02*
X542497Y314812D01*
Y314736D02*
Y314812D01*
D46*
X593744Y437072D02*
X593744Y437072D01*
X611633Y279109D02*
X611633Y279109D01*
D47*
X477665Y388571D02*
D03*
X611638Y345605D02*
D03*
X593760Y345859D02*
D03*
X479554Y442530D02*
D03*
X422748Y442178D02*
D03*
X496516Y339440D02*
D03*
X495607Y346239D02*
D03*
X498981Y352197D02*
D03*
X504267Y357053D02*
D03*
X508521Y349765D02*
D03*
X510321Y359319D02*
D03*
X490113Y342023D02*
D03*
X593744Y297009D02*
D03*
X611633Y297009D02*
D03*
X573671Y300162D02*
D03*
X530255Y311007D02*
D03*
X420736Y403172D02*
D03*
X731796Y448134D02*
D03*
X723674Y435259D02*
D03*
X723488Y448134D02*
D03*
X731944Y434986D02*
D03*
X732035Y422353D02*
D03*
X724284Y377329D02*
D03*
X723856Y422535D02*
D03*
X731796Y377313D02*
D03*
X611633Y419172D02*
D03*
X611633Y366529D02*
D03*
X593744Y419172D02*
D03*
X593744Y366529D02*
D03*
X731755Y364500D02*
D03*
X731813Y351869D02*
D03*
X724397Y351927D02*
D03*
X731007Y306861D02*
D03*
X724458D02*
D03*
X724339Y364674D02*
D03*
X731046Y293994D02*
D03*
X724550D02*
D03*
X731339Y281353D02*
D03*
X724609Y281412D02*
D03*
X382617Y305269D02*
D03*
X372983Y305348D02*
D03*
X393056Y305186D02*
D03*
X387468Y301269D02*
D03*
X397907Y301186D02*
D03*
X382617Y297269D02*
D03*
X377835Y301348D02*
D03*
X363336Y305186D02*
D03*
X372983Y297348D02*
D03*
X368188Y301186D02*
D03*
X397907Y293186D02*
D03*
Y285186D02*
D03*
X393056Y289186D02*
D03*
Y297186D02*
D03*
X387468Y285269D02*
D03*
X393056Y281186D02*
D03*
X387468Y277269D02*
D03*
X397907Y277186D02*
D03*
X392896Y272348D02*
D03*
X377835Y293348D02*
D03*
X387468Y293269D02*
D03*
X372983Y289348D02*
D03*
X382617Y289269D02*
D03*
X377835Y285348D02*
D03*
X368188Y293186D02*
D03*
X363336Y297186D02*
D03*
X368188Y285186D02*
D03*
X363336Y289186D02*
D03*
X382617Y281269D02*
D03*
X372983Y281348D02*
D03*
X382457Y272431D02*
D03*
X377835Y277348D02*
D03*
X368188Y277186D02*
D03*
X363336Y281186D02*
D03*
X372823Y272510D02*
D03*
X363176Y272348D02*
D03*
X405000Y352162D02*
D03*
X423881Y338242D02*
D03*
X436764Y324864D02*
D03*
X477064Y289449D02*
D03*
X437958Y290245D02*
D03*
X455829Y292454D02*
D03*
X405000Y332162D02*
D03*
X513911Y287003D02*
D03*
X430685Y317610D02*
D03*
X447824Y282087D02*
D03*
X495536Y325744D02*
D03*
X451218Y346074D02*
D03*
X523747Y316712D02*
D03*
X533267Y270930D02*
D03*
X505081Y316044D02*
D03*
X535444Y314490D02*
D03*
X455204Y326035D02*
D03*
X493280Y318785D02*
D03*
X420515Y317610D02*
D03*
X431866Y281064D02*
D03*
X433106Y380497D02*
D03*
X495536Y331994D02*
D03*
X445144Y360151D02*
D03*
X549736Y452798D02*
D03*
X558447D02*
D03*
X540285Y452744D02*
D03*
X531818D02*
D03*
X536277Y447751D02*
D03*
X513911Y452744D02*
D03*
X522127D02*
D03*
X504359Y452754D02*
D03*
X518072Y447907D02*
D03*
X500371Y447663D02*
D03*
X496465Y452744D02*
D03*
X554285Y447661D02*
D03*
X513072Y267037D02*
D03*
X500607Y365549D02*
D03*
X490119Y443669D02*
D03*
X615786Y350074D02*
D03*
X597968Y350151D02*
D03*
X589348Y350231D02*
D03*
X607237Y350217D02*
D03*
X531091Y299704D02*
D03*
X527416Y304158D02*
D03*
X557990Y419445D02*
D03*
X549605Y419563D02*
D03*
X540275Y419445D02*
D03*
X531536Y419563D02*
D03*
X522560Y419445D02*
D03*
X504845Y419682D02*
D03*
X514057Y419445D02*
D03*
X615803Y280483D02*
D03*
X611584Y275913D02*
D03*
X607441Y280607D02*
D03*
X597968Y280770D02*
D03*
X593602Y276111D02*
D03*
X589348Y280989D02*
D03*
X554086Y414820D02*
D03*
X536023Y415112D02*
D03*
X518325Y415111D02*
D03*
X500626Y415330D02*
D03*
X588744Y439072D02*
D03*
X593647Y434764D02*
D03*
X611530Y434685D02*
D03*
X616091Y439072D02*
D03*
X606633D02*
D03*
X598572Y439072D02*
D03*
X496619Y419834D02*
D03*
X525867Y382370D02*
D03*
X413740Y442091D02*
D03*
X418215Y438481D02*
D03*
X421992Y434255D02*
D03*
X417950Y429676D02*
D03*
X413854Y434255D02*
D03*
X417929Y421003D02*
D03*
X422110Y425117D02*
D03*
X413854Y425109D02*
D03*
X421992Y416819D02*
D03*
X413589D02*
D03*
X542497Y314736D02*
D03*
X392563Y411347D02*
D03*
X397574Y432185D02*
D03*
Y424185D02*
D03*
X392723Y428185D02*
D03*
Y420185D02*
D03*
Y444185D02*
D03*
X387135Y424268D02*
D03*
Y416268D02*
D03*
Y432268D02*
D03*
X397574Y416185D02*
D03*
X387135Y440268D02*
D03*
X392723Y436185D02*
D03*
X397574Y440185D02*
D03*
X367854Y424185D02*
D03*
Y432185D02*
D03*
Y416185D02*
D03*
X363003Y444185D02*
D03*
Y436185D02*
D03*
Y420185D02*
D03*
Y428185D02*
D03*
X362843Y411347D02*
D03*
X382284Y444268D02*
D03*
Y436268D02*
D03*
X377501Y440347D02*
D03*
X372490Y411509D02*
D03*
X382284Y428268D02*
D03*
Y420268D02*
D03*
X382124Y411430D02*
D03*
X377501Y424347D02*
D03*
X372650Y428347D02*
D03*
Y420347D02*
D03*
X377501Y416347D02*
D03*
Y432347D02*
D03*
X372650Y436347D02*
D03*
X367854Y440185D02*
D03*
X372650Y444347D02*
D03*
X666169Y285190D02*
D03*
X671020Y281190D02*
D03*
X666169Y277190D02*
D03*
X671020Y273190D02*
D03*
Y289190D02*
D03*
X666169Y293190D02*
D03*
X671020Y297190D02*
D03*
X666169Y301190D02*
D03*
X656535Y285269D02*
D03*
X661386Y281269D02*
D03*
X656535Y277269D02*
D03*
X661386Y273269D02*
D03*
Y289269D02*
D03*
X656535Y293269D02*
D03*
X661386Y297269D02*
D03*
X656535Y301269D02*
D03*
X646888Y285107D02*
D03*
X651740Y281107D02*
D03*
X646888Y277107D02*
D03*
X651740Y273107D02*
D03*
Y289107D02*
D03*
X646888Y293107D02*
D03*
X651740Y297107D02*
D03*
X646888Y301107D02*
D03*
X666169Y356497D02*
D03*
X671020Y352497D02*
D03*
X666169Y348497D02*
D03*
X671020Y344497D02*
D03*
Y360497D02*
D03*
X666169Y364497D02*
D03*
X671020Y368497D02*
D03*
X666169Y372497D02*
D03*
X656535Y356576D02*
D03*
X661386Y352576D02*
D03*
X656535Y348576D02*
D03*
X661386Y344576D02*
D03*
Y360576D02*
D03*
X656535Y364576D02*
D03*
X661386Y368576D02*
D03*
X656535Y372576D02*
D03*
X646888Y356414D02*
D03*
X651740Y352414D02*
D03*
X646888Y348414D02*
D03*
X651740Y344414D02*
D03*
Y360414D02*
D03*
X646888Y364414D02*
D03*
X651740Y368414D02*
D03*
X646888Y372414D02*
D03*
Y442314D02*
D03*
X651740Y438314D02*
D03*
X646888Y434314D02*
D03*
X651740Y430314D02*
D03*
Y414314D02*
D03*
X646888Y418314D02*
D03*
X651740Y422314D02*
D03*
X646888Y426314D02*
D03*
X656535Y442476D02*
D03*
X661386Y438476D02*
D03*
X656535Y434476D02*
D03*
X661386Y430476D02*
D03*
Y414476D02*
D03*
X656535Y418476D02*
D03*
X661386Y422476D02*
D03*
X656535Y426476D02*
D03*
X666169Y442397D02*
D03*
X671020Y438397D02*
D03*
X666169Y434397D02*
D03*
X671020Y430397D02*
D03*
Y414397D02*
D03*
X666169Y418397D02*
D03*
X671020Y422397D02*
D03*
X666169Y426397D02*
D03*
X468751Y359021D02*
D03*
X693411Y268603D02*
D03*
Y339276D02*
D03*
Y409550D02*
D03*
X527704Y285446D02*
D03*
X557543Y270815D02*
D03*
X470588Y442058D02*
D03*
X475063Y438448D02*
D03*
X478840Y434222D02*
D03*
X474798Y429643D02*
D03*
X470702Y434222D02*
D03*
X474778Y420970D02*
D03*
X478959Y425084D02*
D03*
X470702Y425076D02*
D03*
X478840Y416786D02*
D03*
X470437D02*
D03*
X526255Y370821D02*
D03*
X555501Y285837D02*
D03*
X544873Y281566D02*
D03*
X519861Y369453D02*
D03*
X543036Y304204D02*
D03*
X560578Y358883D02*
D03*
X573855Y367940D02*
D03*
X573855Y436043D02*
D03*
X767382Y426973D02*
D03*
X772234Y422973D02*
D03*
X767382Y418973D02*
D03*
X772234Y414973D02*
D03*
Y430973D02*
D03*
X767382Y434973D02*
D03*
X772234Y438973D02*
D03*
X767382Y442973D02*
D03*
X757749Y427052D02*
D03*
X762600Y423052D02*
D03*
X757749Y419052D02*
D03*
X762600Y415052D02*
D03*
Y431052D02*
D03*
X757749Y435052D02*
D03*
X762600Y439052D02*
D03*
X757749Y443052D02*
D03*
X748102Y426890D02*
D03*
X752953Y422890D02*
D03*
X748102Y418890D02*
D03*
X752953Y414890D02*
D03*
Y430890D02*
D03*
X748102Y434890D02*
D03*
X752953Y438890D02*
D03*
X748102Y442890D02*
D03*
X768672Y356787D02*
D03*
X773524Y352787D02*
D03*
X768672Y348787D02*
D03*
X773524Y344787D02*
D03*
Y360787D02*
D03*
X768672Y364787D02*
D03*
X773524Y368787D02*
D03*
X768672Y372787D02*
D03*
X759039Y356866D02*
D03*
X763890Y352866D02*
D03*
X759039Y348866D02*
D03*
X763890Y344866D02*
D03*
Y360866D02*
D03*
X759039Y364866D02*
D03*
X763890Y368866D02*
D03*
X759039Y372866D02*
D03*
X749392Y356704D02*
D03*
X754243Y352704D02*
D03*
X749392Y348704D02*
D03*
X754243Y344704D02*
D03*
Y360704D02*
D03*
X749392Y364704D02*
D03*
X754243Y368704D02*
D03*
X749392Y372704D02*
D03*
X768672Y286114D02*
D03*
X773524Y282114D02*
D03*
X768672Y278114D02*
D03*
X773524Y274114D02*
D03*
Y290114D02*
D03*
X768672Y294114D02*
D03*
X773524Y298114D02*
D03*
X768672Y302114D02*
D03*
X759039Y286193D02*
D03*
X763890Y282193D02*
D03*
X759039Y278193D02*
D03*
X763890Y274193D02*
D03*
Y290193D02*
D03*
X759039Y294193D02*
D03*
X763890Y298193D02*
D03*
X759039Y302193D02*
D03*
X749392Y286031D02*
D03*
X754243Y282031D02*
D03*
X749392Y278031D02*
D03*
X754243Y274031D02*
D03*
Y290031D02*
D03*
X749392Y294031D02*
D03*
X754243Y298031D02*
D03*
X749392Y302031D02*
D03*
X532614Y370846D02*
D03*
X540971Y370821D02*
D03*
X551221D02*
D03*
D48*
X804396Y269760D02*
D03*
Y277380D02*
D03*
Y285000D02*
D03*
Y292620D02*
D03*
Y300240D02*
D03*
X812016Y269760D02*
D03*
Y277380D02*
D03*
Y285000D02*
D03*
Y292620D02*
D03*
Y300240D02*
D03*
X819636Y269760D02*
D03*
Y277380D02*
D03*
Y285000D02*
D03*
Y292620D02*
D03*
Y300240D02*
D03*
X827256Y269760D02*
D03*
Y277380D02*
D03*
Y285000D02*
D03*
Y292620D02*
D03*
Y300240D02*
D03*
X834876Y269760D02*
D03*
Y277380D02*
D03*
Y285000D02*
D03*
Y292620D02*
D03*
Y300240D02*
D03*
X804396Y343086D02*
D03*
Y350706D02*
D03*
Y358326D02*
D03*
Y365946D02*
D03*
Y373566D02*
D03*
X812016Y343086D02*
D03*
Y350706D02*
D03*
Y358326D02*
D03*
Y365946D02*
D03*
Y373566D02*
D03*
X819636Y343086D02*
D03*
Y350706D02*
D03*
Y358326D02*
D03*
Y365946D02*
D03*
Y373566D02*
D03*
X827256Y343086D02*
D03*
Y350706D02*
D03*
Y358326D02*
D03*
Y365946D02*
D03*
Y373566D02*
D03*
X834876Y343086D02*
D03*
Y350706D02*
D03*
Y358326D02*
D03*
Y365946D02*
D03*
Y373566D02*
D03*
X804396Y416347D02*
D03*
Y423967D02*
D03*
Y431587D02*
D03*
Y439207D02*
D03*
Y446827D02*
D03*
X812016Y416347D02*
D03*
Y423967D02*
D03*
Y431587D02*
D03*
Y439207D02*
D03*
Y446827D02*
D03*
X819636Y416347D02*
D03*
Y423967D02*
D03*
Y431587D02*
D03*
Y439207D02*
D03*
Y446827D02*
D03*
X827256Y416347D02*
D03*
Y423967D02*
D03*
Y431587D02*
D03*
Y439207D02*
D03*
Y446827D02*
D03*
X834876Y416347D02*
D03*
Y423967D02*
D03*
Y431587D02*
D03*
Y439207D02*
D03*
Y446827D02*
D03*
M02*
