G04*
G04 #@! TF.GenerationSoftware,Altium Limited,Altium Designer,26.9.1 (10)*
G04*
G04 Layer_Physical_Order=6*
G04 Layer_Color=16711680*
G04 Board_Origin=74640005|44270005*
%FSLAX44Y44*%
%MOMM*%
G71*
G04*
G04 #@! TF.SameCoordinates,427E28D3-E2DD-46D8-A39D-FC7D8936D1B0*
G04*
G04*
G04 #@! TF.FilePolarity,Positive*
G04*
G01*
G75*
%ADD11C,0.2540*%
G04:AMPARAMS|DCode=19|XSize=0.55mm|YSize=0.5mm|CornerRadius=0.0625mm|HoleSize=0mm|Usage=FLASHONLY|Rotation=180.000|XOffset=0mm|YOffset=0mm|HoleType=Round|Shape=RoundedRectangle|*
%AMROUNDEDRECTD19*
21,1,0.5500,0.3750,0,0,180.0*
21,1,0.4250,0.5000,0,0,180.0*
1,1,0.1250,-0.2125,0.1875*
1,1,0.1250,0.2125,0.1875*
1,1,0.1250,0.2125,-0.1875*
1,1,0.1250,-0.2125,-0.1875*
%
%ADD19ROUNDEDRECTD19*%
G04:AMPARAMS|DCode=20|XSize=1.3mm|YSize=0.76mm|CornerRadius=0.095mm|HoleSize=0mm|Usage=FLASHONLY|Rotation=0.000|XOffset=0mm|YOffset=0mm|HoleType=Round|Shape=RoundedRectangle|*
%AMROUNDEDRECTD20*
21,1,1.3000,0.5700,0,0,0.0*
21,1,1.1100,0.7600,0,0,0.0*
1,1,0.1900,0.5550,-0.2850*
1,1,0.1900,-0.5550,-0.2850*
1,1,0.1900,-0.5550,0.2850*
1,1,0.1900,0.5550,0.2850*
%
%ADD20ROUNDEDRECTD20*%
G04:AMPARAMS|DCode=21|XSize=1.3mm|YSize=0.76mm|CornerRadius=0.095mm|HoleSize=0mm|Usage=FLASHONLY|Rotation=270.000|XOffset=0mm|YOffset=0mm|HoleType=Round|Shape=RoundedRectangle|*
%AMROUNDEDRECTD21*
21,1,1.3000,0.5700,0,0,270.0*
21,1,1.1100,0.7600,0,0,270.0*
1,1,0.1900,-0.2850,-0.5550*
1,1,0.1900,-0.2850,0.5550*
1,1,0.1900,0.2850,0.5550*
1,1,0.1900,0.2850,-0.5550*
%
%ADD21ROUNDEDRECTD21*%
%ADD23C,1.1000*%
%ADD42C,0.2030*%
%ADD47C,0.4500*%
%ADD48C,0.6000*%
%ADD49C,0.5000*%
%ADD51R,1.0047X0.5588*%
G04:AMPARAMS|DCode=52|XSize=1.8052mm|YSize=0.6121mm|CornerRadius=0.3061mm|HoleSize=0mm|Usage=FLASHONLY|Rotation=90.000|XOffset=0mm|YOffset=0mm|HoleType=Round|Shape=RoundedRectangle|*
%AMROUNDEDRECTD52*
21,1,1.8052,0.0000,0,0,90.0*
21,1,1.1931,0.6121,0,0,90.0*
1,1,0.6121,0.0000,0.5966*
1,1,0.6121,0.0000,-0.5966*
1,1,0.6121,0.0000,-0.5966*
1,1,0.6121,0.0000,0.5966*
%
%ADD52ROUNDEDRECTD52*%
G04:AMPARAMS|DCode=53|XSize=0.55mm|YSize=0.5mm|CornerRadius=0.0625mm|HoleSize=0mm|Usage=FLASHONLY|Rotation=90.000|XOffset=0mm|YOffset=0mm|HoleType=Round|Shape=RoundedRectangle|*
%AMROUNDEDRECTD53*
21,1,0.5500,0.3750,0,0,90.0*
21,1,0.4250,0.5000,0,0,90.0*
1,1,0.1250,0.1875,0.2125*
1,1,0.1250,0.1875,-0.2125*
1,1,0.1250,-0.1875,-0.2125*
1,1,0.1250,-0.1875,0.2125*
%
%ADD53ROUNDEDRECTD53*%
%ADD54R,2.3000X2.3000*%
%ADD55R,0.6121X1.8052*%
G36*
X637711Y392673D02*
Y389810D01*
Y326895D01*
Y324032D01*
Y261046D01*
X542474D01*
X541988Y262220D01*
X546245Y266477D01*
X546666Y267107D01*
X547362Y267479D01*
X547498Y267423D01*
X551248D01*
X552407Y267902D01*
X552768Y268774D01*
X554059D01*
X554152Y268549D01*
X555277Y267424D01*
X556748Y266815D01*
X558339D01*
X559809Y267424D01*
X560934Y268549D01*
X561543Y270019D01*
Y271610D01*
X560934Y273081D01*
X559809Y274206D01*
X558339Y274815D01*
X556748D01*
X555277Y274206D01*
X554156Y273085D01*
X552887Y273091D01*
Y273311D01*
X552407Y274470D01*
X551248Y274950D01*
X547498D01*
X546814Y275407D01*
Y278041D01*
X547139Y278175D01*
X548264Y279300D01*
X548506Y279885D01*
X548877Y280771D01*
X549686Y280847D01*
X560786D01*
X561503Y280989D01*
X562112Y281396D01*
X562518Y282004D01*
X562661Y282722D01*
Y288422D01*
X562518Y289139D01*
X562112Y289748D01*
X561503Y290154D01*
X560786Y290297D01*
X549686D01*
X548968Y290154D01*
X548360Y289748D01*
X547954Y289139D01*
X547811Y288422D01*
Y285944D01*
X546541Y285205D01*
X545668Y285566D01*
X544077D01*
X542607Y284957D01*
X541482Y283832D01*
X540873Y282362D01*
Y280770D01*
X541482Y279300D01*
X542607Y278175D01*
X542932Y278041D01*
Y275407D01*
X542248Y274950D01*
X538498D01*
X537339Y274470D01*
X537292Y274357D01*
X535794Y274059D01*
X535533Y274321D01*
X534062Y274930D01*
X532471D01*
X531001Y274321D01*
X529876Y273196D01*
X529267Y271726D01*
Y270135D01*
X529876Y268664D01*
X531001Y267539D01*
X532471Y266930D01*
X534062D01*
X535533Y267539D01*
X535944Y267951D01*
X537339Y267902D01*
X537339Y267902D01*
X537339Y267902D01*
X537339D01*
X538498Y267423D01*
X540041D01*
X540527Y266249D01*
X538241Y263964D01*
X517315D01*
X516655Y265233D01*
X517072Y266242D01*
Y267833D01*
X516463Y269303D01*
X515338Y270428D01*
X513868Y271037D01*
X512276D01*
X510806Y270428D01*
X509681Y269303D01*
X509072Y267833D01*
Y266242D01*
X509490Y265233D01*
X508830Y263964D01*
X490682D01*
Y266419D01*
X490202Y267578D01*
X489043Y268058D01*
X484793D01*
X483634Y267578D01*
X483154Y266419D01*
Y262669D01*
X483300Y262316D01*
X482452Y261046D01*
X469754D01*
X469652Y262274D01*
X471374Y262735D01*
X472917Y263627D01*
X474178Y264887D01*
X475069Y266431D01*
X475531Y268153D01*
Y269935D01*
X475069Y271657D01*
X474178Y273201D01*
X472917Y274461D01*
X471374Y275352D01*
X469652Y275814D01*
X467869D01*
X466147Y275352D01*
X464604Y274461D01*
X463343Y273201D01*
X463144Y272855D01*
X461677D01*
X461478Y273201D01*
X460217Y274461D01*
X458674Y275352D01*
X456952Y275814D01*
X455169D01*
X453447Y275352D01*
X451904Y274461D01*
X450643Y273201D01*
X450444Y272855D01*
X448977D01*
X448778Y273201D01*
X447517Y274461D01*
X445974Y275352D01*
X444252Y275814D01*
X442469D01*
X440747Y275352D01*
X439204Y274461D01*
X437943Y273201D01*
X437744Y272855D01*
X436277D01*
X436078Y273201D01*
X434817Y274461D01*
X433274Y275352D01*
X431552Y275814D01*
X431600Y277064D01*
X432661Y277064D01*
X434131Y277673D01*
X435257Y278798D01*
X435866Y280268D01*
Y281859D01*
X435257Y283330D01*
X434131Y284455D01*
X432661Y285064D01*
X431070D01*
X429600Y284455D01*
X428475Y283330D01*
X427865Y281859D01*
Y280268D01*
X428475Y278798D01*
X429600Y277673D01*
X431070Y277064D01*
X431021Y275814D01*
X429769Y275814D01*
X428047Y275352D01*
X426504Y274461D01*
X425243Y273201D01*
X424352Y271657D01*
X423890Y269935D01*
Y268153D01*
X424352Y266431D01*
X425243Y264887D01*
X426504Y263627D01*
X428047Y262735D01*
X429769Y262274D01*
X429667Y261046D01*
X364618D01*
X361922Y261583D01*
X359383Y262635D01*
X357098Y264162D01*
X355154Y266105D01*
X353627Y268391D01*
X352575Y270930D01*
X352039Y273626D01*
Y275000D01*
Y357860D01*
X404038D01*
Y356162D01*
X404062Y356103D01*
X402734Y355553D01*
X401609Y354428D01*
X401000Y352957D01*
Y351366D01*
X401609Y349896D01*
X402734Y348771D01*
X404062Y348221D01*
X404038Y348162D01*
Y336162D01*
X404062Y336103D01*
X402734Y335553D01*
X401609Y334428D01*
X401000Y332957D01*
Y331366D01*
X401609Y329896D01*
X402734Y328771D01*
X404062Y328221D01*
X404038Y328162D01*
Y301539D01*
X404320Y300858D01*
X405000Y300577D01*
Y300162D01*
X410287D01*
X410540Y298892D01*
X410066Y298696D01*
X409586Y297537D01*
Y293787D01*
X410066Y292628D01*
X411225Y292148D01*
X415475D01*
X416633Y292628D01*
X417086Y293721D01*
X419267D01*
X420010Y293868D01*
X420640Y294289D01*
X421720Y295370D01*
X424614D01*
X425772Y295850D01*
X426252Y297008D01*
Y299902D01*
X426512Y300162D01*
X452479D01*
Y298792D01*
X452622Y298074D01*
X453028Y297466D01*
X453461Y297177D01*
X453563Y296326D01*
X453509Y295790D01*
X452438Y294719D01*
X451829Y293249D01*
Y291658D01*
X452438Y290188D01*
X453563Y289063D01*
X455034Y288454D01*
X456625D01*
X458095Y289063D01*
X459220Y290188D01*
X459829Y291658D01*
Y293249D01*
X459220Y294719D01*
X458293Y295647D01*
X458498Y296581D01*
X458682Y296917D01*
X460054D01*
X460771Y297060D01*
X461380Y297466D01*
X461786Y298074D01*
X461929Y298792D01*
Y300162D01*
X466204D01*
Y311636D01*
X471004D01*
X471747Y311784D01*
X472377Y312204D01*
X490516Y330344D01*
X492014Y330046D01*
X492146Y329728D01*
X493005Y328869D01*
X492146Y328010D01*
X491536Y326539D01*
Y324948D01*
X492146Y323478D01*
X491464Y322363D01*
X491014Y322177D01*
X489889Y321051D01*
X489280Y319581D01*
Y317990D01*
X489889Y316520D01*
X491014Y315394D01*
X492484Y314786D01*
X494076D01*
X494400Y314920D01*
X501327Y307993D01*
Y305100D01*
X501807Y303941D01*
X502966Y303461D01*
X503150D01*
Y301599D01*
X502966D01*
X501807Y301119D01*
X501327Y299960D01*
Y297067D01*
X494329Y290069D01*
X493908Y289439D01*
X493761Y288696D01*
Y286669D01*
X492668Y286217D01*
X492188Y285058D01*
Y280808D01*
X492668Y279649D01*
X493827Y279169D01*
X497577D01*
X498736Y279649D01*
X499216Y280808D01*
Y285058D01*
X498736Y286217D01*
X497643Y286669D01*
Y287892D01*
X500057Y290306D01*
X501327Y289780D01*
Y287211D01*
X501807Y286052D01*
X502890Y285603D01*
Y283396D01*
X501807Y282948D01*
X501327Y281789D01*
Y278039D01*
X501807Y276880D01*
X502966Y276400D01*
X507216D01*
X508375Y276880D01*
X508480Y277135D01*
X510998D01*
X511446Y276053D01*
X512605Y275573D01*
X516355D01*
X517514Y276053D01*
X517994Y277212D01*
Y281462D01*
X517514Y282620D01*
X517137Y282777D01*
X516838Y284274D01*
X517302Y284737D01*
X517910Y286208D01*
Y287799D01*
X517302Y289269D01*
X516176Y290394D01*
X514706Y291003D01*
X513115D01*
X511645Y290394D01*
X510519Y289269D01*
X510125Y288316D01*
X508855Y288568D01*
Y290961D01*
X508375Y292119D01*
X507216Y292599D01*
X504488D01*
X503962Y293793D01*
X504577Y294572D01*
X507216D01*
X508375Y295052D01*
X508855Y296210D01*
Y299960D01*
X508375Y301119D01*
X507216Y301599D01*
X507032D01*
Y303461D01*
X507216D01*
X508375Y303941D01*
X508855Y305100D01*
Y308850D01*
X508375Y310008D01*
X507216Y310488D01*
X505140D01*
X504955Y310617D01*
X504876Y310774D01*
X505658Y312044D01*
X505877D01*
X506884Y312461D01*
X507216D01*
X508375Y312941D01*
X508855Y314100D01*
Y314701D01*
X509081Y315248D01*
Y316839D01*
X508855Y317386D01*
Y317850D01*
X508375Y319008D01*
X507348Y319433D01*
X507347Y319435D01*
X507032Y319565D01*
Y321350D01*
X507216D01*
X508375Y321830D01*
X508855Y322989D01*
Y326739D01*
X508375Y327897D01*
X507216Y328377D01*
X502966D01*
X501807Y327897D01*
X501327Y326739D01*
Y322989D01*
X501807Y321830D01*
X502966Y321350D01*
X503150D01*
Y319573D01*
X502816Y319435D01*
X502801Y319420D01*
X501807Y319008D01*
X501327Y317850D01*
Y317433D01*
X501081Y316839D01*
Y315526D01*
X500281Y315013D01*
X499908Y314903D01*
X497146Y317665D01*
X497280Y317990D01*
Y319581D01*
X496671Y321051D01*
X497352Y322166D01*
X497802Y322353D01*
X498927Y323478D01*
X499537Y324948D01*
Y326539D01*
X498927Y328010D01*
X498068Y328869D01*
X498927Y329728D01*
X499537Y331198D01*
Y332789D01*
X498927Y334260D01*
X498592Y334595D01*
X498782Y336049D01*
X499907Y337174D01*
X500516Y338644D01*
Y340235D01*
X499907Y341706D01*
X498782Y342831D01*
X499048Y344095D01*
X499607Y345443D01*
Y347035D01*
X499375Y347595D01*
X499777Y348197D01*
X501247Y348806D01*
X502372Y349931D01*
X502981Y351401D01*
Y351881D01*
X503270Y352571D01*
X504244Y352659D01*
X504919Y351521D01*
X504521Y350560D01*
Y348969D01*
X505130Y347499D01*
X506256Y346374D01*
X507726Y345765D01*
X509317D01*
X510787Y346374D01*
X511912Y347499D01*
X512521Y348969D01*
Y350560D01*
X511912Y352030D01*
X510787Y353156D01*
X509317Y353765D01*
X508903D01*
X508297Y354979D01*
X508866Y355592D01*
X509525Y355319D01*
X511117D01*
X512587Y355928D01*
X513712Y357053D01*
X514321Y358523D01*
Y360114D01*
X513712Y361584D01*
X512587Y362710D01*
X511117Y363319D01*
X509525D01*
X509302Y363226D01*
X508032Y364075D01*
Y368399D01*
X507889Y369116D01*
X507482Y369724D01*
X506874Y370131D01*
X506157Y370274D01*
X495057D01*
X494339Y370131D01*
X493731Y369724D01*
X493619Y369558D01*
X484245D01*
Y372065D01*
X490161Y377981D01*
X490910Y379102D01*
X491173Y380425D01*
Y393404D01*
X490910Y394726D01*
X490161Y395848D01*
X484467Y401542D01*
X484541Y402295D01*
X484947Y402904D01*
X485090Y403621D01*
Y408956D01*
X492563Y416429D01*
X492566Y416434D01*
X494072Y416725D01*
X494353Y416443D01*
X495824Y415834D01*
X496626D01*
Y414534D01*
X497235Y413064D01*
X498360Y411939D01*
X499830Y411330D01*
X501422D01*
X502892Y411939D01*
X504017Y413064D01*
X504626Y414534D01*
Y415682D01*
X505641D01*
X507111Y416291D01*
X508236Y417416D01*
X508845Y418886D01*
X510057Y418745D01*
Y418650D01*
X510666Y417180D01*
X511791Y416054D01*
X513261Y415445D01*
X514325D01*
Y414316D01*
X514934Y412846D01*
X516059Y411720D01*
X517529Y411111D01*
X519120D01*
X520591Y411720D01*
X521716Y412846D01*
X522325Y414316D01*
Y415445D01*
X523356D01*
X524826Y416054D01*
X525951Y417180D01*
X526385Y418227D01*
X527733Y418291D01*
X528145Y417298D01*
X529270Y416172D01*
X530740Y415564D01*
X532023D01*
Y414316D01*
X532632Y412846D01*
X533757Y411720D01*
X535227Y411111D01*
X536819D01*
X538289Y411720D01*
X539414Y412846D01*
X540023Y414316D01*
Y415445D01*
X541071D01*
X542541Y416054D01*
X543666Y417180D01*
X544275Y418650D01*
Y420241D01*
X543666Y421711D01*
X542541Y422836D01*
X541071Y423445D01*
X539479D01*
X538009Y422836D01*
X536884Y421711D01*
X536617Y421067D01*
X535243D01*
X534927Y421829D01*
X533801Y422954D01*
X532331Y423563D01*
X530740D01*
X529270Y422954D01*
X528145Y421829D01*
X527711Y420782D01*
X526362Y420718D01*
X525951Y421711D01*
X524826Y422836D01*
X523356Y423445D01*
X521764D01*
X520294Y422836D01*
X519169Y421711D01*
X518996Y421293D01*
X517621D01*
X517448Y421711D01*
X516323Y422836D01*
X514852Y423445D01*
X513261D01*
X511791Y422836D01*
X510666Y421711D01*
X510057Y420241D01*
X508845Y420382D01*
Y420477D01*
X508236Y421947D01*
X507111Y423073D01*
X505641Y423682D01*
X504049D01*
X502579Y423073D01*
X501454Y421947D01*
X501451Y421940D01*
X500076D01*
X500010Y422100D01*
X498885Y423225D01*
X497415Y423834D01*
X495824D01*
X494845Y423428D01*
X493575Y424105D01*
Y441558D01*
X494119Y442873D01*
Y444464D01*
X493510Y445934D01*
X492385Y447060D01*
X490915Y447668D01*
X489324D01*
X487854Y447060D01*
X486728Y445934D01*
X486119Y444464D01*
Y442873D01*
X486664Y441558D01*
Y420303D01*
X484014Y417653D01*
X482637Y418073D01*
X482231Y419052D01*
X481106Y420177D01*
X480994Y420223D01*
Y421598D01*
X481224Y421693D01*
X482350Y422818D01*
X482958Y424288D01*
Y425880D01*
X482350Y427350D01*
X481224Y428475D01*
X479855Y429042D01*
X479824Y429206D01*
X479792Y429541D01*
X479855Y430312D01*
X481106Y430831D01*
X482231Y431956D01*
X482840Y433426D01*
Y435018D01*
X482231Y436488D01*
X481208Y437511D01*
X481182Y438177D01*
X481281Y438915D01*
X481820Y439139D01*
X482945Y440264D01*
X483554Y441734D01*
Y443325D01*
X482945Y444795D01*
X481820Y445921D01*
X480350Y446530D01*
X478758D01*
X477288Y445921D01*
X476163Y444795D01*
X475661Y443583D01*
X474720Y443416D01*
X474338Y443457D01*
X473979Y444324D01*
X472854Y445449D01*
X471384Y446058D01*
X469793D01*
X468323Y445449D01*
X467474Y444600D01*
X466204Y444991D01*
Y455695D01*
X492100D01*
X492832Y454425D01*
X492465Y453540D01*
Y451948D01*
X493074Y450478D01*
X494199Y449353D01*
X495670Y448744D01*
X496180D01*
X496371Y448458D01*
Y446867D01*
X496980Y445397D01*
X498105Y444272D01*
X499575Y443663D01*
X501166D01*
X502636Y444272D01*
X503762Y445397D01*
X504371Y446867D01*
Y448458D01*
X504568Y448754D01*
X505155D01*
X506625Y449363D01*
X507750Y450488D01*
X508359Y451958D01*
Y453550D01*
X508168Y454011D01*
X508909Y455172D01*
X509365Y455172D01*
X510104Y454008D01*
X509911Y453540D01*
Y451948D01*
X510519Y450478D01*
X511645Y449353D01*
X512899Y448833D01*
X513115Y448744D01*
X514072Y447626D01*
Y447112D01*
X514681Y445642D01*
X515807Y444516D01*
X517277Y443907D01*
X518868D01*
X520338Y444516D01*
X521463Y445642D01*
X522072Y447112D01*
Y447587D01*
X522922Y448744D01*
X523246Y448878D01*
X524393Y449353D01*
X525518Y450478D01*
X526127Y451948D01*
Y453540D01*
X525803Y454322D01*
X526463Y455381D01*
X527482D01*
X528142Y454322D01*
X527818Y453540D01*
Y451948D01*
X528427Y450478D01*
X529552Y449353D01*
X531023Y448744D01*
X532145D01*
X532277Y448546D01*
Y446955D01*
X532886Y445485D01*
X534011Y444360D01*
X535481Y443751D01*
X537073D01*
X538543Y444360D01*
X539668Y445485D01*
X540277Y446955D01*
Y448546D01*
X540409Y448744D01*
X541081D01*
X542551Y449353D01*
X543676Y450478D01*
X544286Y451948D01*
Y453540D01*
X544194Y453760D01*
X544994Y455009D01*
X545005Y455009D01*
X545812Y453778D01*
X545736Y453594D01*
Y452002D01*
X546345Y450532D01*
X547470Y449407D01*
X548940Y448798D01*
X550057D01*
X550285Y448456D01*
Y446865D01*
X550894Y445395D01*
X552020Y444270D01*
X553490Y443661D01*
X555081D01*
X556551Y444270D01*
X557676Y445395D01*
X558285Y446865D01*
Y448456D01*
X558514Y448798D01*
X559243D01*
X560713Y449407D01*
X561838Y450532D01*
X562447Y452002D01*
Y453594D01*
X562103Y454425D01*
X562867Y455695D01*
X637711D01*
Y392673D01*
D02*
G37*
G36*
X464728Y415002D02*
X454527D01*
Y407636D01*
X464728D01*
Y399265D01*
X461466Y396002D01*
X454527D01*
Y388636D01*
X464728D01*
Y358312D01*
X459766Y353350D01*
X459677Y353332D01*
X458370Y352459D01*
X457497Y351153D01*
X457191Y349612D01*
Y337681D01*
X457497Y336140D01*
X458370Y334833D01*
X459677Y333960D01*
X461218Y333654D01*
X462759Y333960D01*
X463458Y334428D01*
X464728Y333749D01*
Y321995D01*
X463704D01*
X462546Y321515D01*
X462066Y320356D01*
Y317378D01*
X460872Y316852D01*
X460093Y317467D01*
Y320356D01*
X459613Y321515D01*
X458569Y321947D01*
X458311Y322495D01*
X458091Y323265D01*
X458595Y323769D01*
X459204Y325239D01*
Y326830D01*
X458595Y328301D01*
X457470Y329426D01*
X456000Y330035D01*
X454408D01*
X452938Y329426D01*
X451813Y328301D01*
X451679Y327976D01*
X449640D01*
X448897Y327828D01*
X448267Y327407D01*
X423757Y302897D01*
X420864D01*
X419705Y302417D01*
X419341Y301539D01*
X405000D01*
Y328162D01*
X405796D01*
X407266Y328771D01*
X408391Y329896D01*
X409000Y331366D01*
Y332957D01*
X408391Y334428D01*
X407266Y335553D01*
X405796Y336162D01*
X405000D01*
Y348162D01*
X405796D01*
X407266Y348771D01*
X408391Y349896D01*
X409000Y351366D01*
Y352957D01*
X408391Y354428D01*
X407266Y355553D01*
X405796Y356162D01*
X405000D01*
Y358822D01*
X352039D01*
Y442500D01*
Y443799D01*
X352546Y446349D01*
X353541Y448750D01*
X354985Y450911D01*
X356823Y452749D01*
X358984Y454193D01*
X361385Y455188D01*
X363935Y455695D01*
X464728D01*
Y415002D01*
D02*
G37*
G36*
X484262Y391973D02*
Y381856D01*
X478766Y376360D01*
X478676Y376342D01*
X477370Y375469D01*
X476497Y374162D01*
X476191Y372621D01*
Y360690D01*
X476497Y359149D01*
X477370Y357843D01*
X478676Y356970D01*
X480218Y356663D01*
X481759Y356970D01*
X483065Y357843D01*
X483938Y359149D01*
X484245Y360690D01*
Y362647D01*
X493192D01*
X493324Y361981D01*
X493731Y361373D01*
X494339Y360966D01*
X495057Y360824D01*
X500585D01*
X501111Y359553D01*
X500876Y359319D01*
X500267Y357848D01*
Y357368D01*
X499792Y356233D01*
X499094Y356197D01*
X498186D01*
X496716Y355588D01*
X495590Y354463D01*
X494981Y352993D01*
Y351401D01*
X495213Y350841D01*
X494811Y350239D01*
X493341Y349630D01*
X492216Y348505D01*
X491632Y347097D01*
X491084Y346140D01*
X490908Y346022D01*
X489317D01*
X487847Y345414D01*
X486722Y344288D01*
X486113Y342818D01*
Y341227D01*
X486722Y339757D01*
X487847Y338632D01*
X488276Y338454D01*
Y333595D01*
X470602Y315921D01*
X469143Y316032D01*
X469093Y316106D01*
Y318999D01*
X481590Y331497D01*
X482011Y332126D01*
X482159Y332869D01*
Y333731D01*
X484167D01*
Y353561D01*
X476268D01*
Y333731D01*
X476538D01*
X477064Y332461D01*
X467474Y322871D01*
X466204Y323397D01*
Y350015D01*
X471195Y355006D01*
X471944Y356127D01*
X472051Y356664D01*
X472142Y356756D01*
X472751Y358226D01*
Y359817D01*
X472142Y361287D01*
X471017Y362412D01*
X469547Y363021D01*
X467956D01*
X467474Y362822D01*
X466204Y363671D01*
Y388636D01*
X466352D01*
Y391115D01*
X475736Y400499D01*
X484262Y391973D01*
D02*
G37*
G36*
X808469Y390596D02*
X808498Y390527D01*
X808537Y390330D01*
X809259Y388586D01*
X809371Y388419D01*
X809448Y388233D01*
X810497Y386663D01*
X810639Y386521D01*
X810750Y386354D01*
X812085Y385020D01*
X812252Y384908D01*
X812394Y384766D01*
X813964Y383717D01*
X814149Y383640D01*
X814316Y383529D01*
X816060Y382806D01*
X816257Y382767D01*
X816443Y382690D01*
X818294Y382322D01*
X818445D01*
X818592Y382285D01*
X819536Y382239D01*
X819586Y382247D01*
X819636Y382237D01*
X836582D01*
X838599Y381835D01*
X840499Y381048D01*
X842209Y379906D01*
X843663Y378451D01*
X844806Y376741D01*
X845593Y374841D01*
X845994Y372824D01*
Y344308D01*
X845585Y342248D01*
X844781Y340308D01*
X843614Y338562D01*
X842129Y337077D01*
X840383Y335911D01*
X838443Y335107D01*
X836383Y334697D01*
X820923D01*
X820873Y334687D01*
X820823Y334695D01*
X819753Y334642D01*
X819606Y334605D01*
X819455D01*
X817356Y334188D01*
X817170Y334111D01*
X816973Y334072D01*
X814996Y333253D01*
X814829Y333141D01*
X814644Y333065D01*
X812865Y331876D01*
X812722Y331734D01*
X812555Y331622D01*
X811042Y330109D01*
X810931Y329942D01*
X810789Y329800D01*
X809600Y328021D01*
X809523Y327835D01*
X809411Y327668D01*
X808872Y326365D01*
X808851Y326341D01*
X808583Y326165D01*
X807473Y325776D01*
X807473Y325776D01*
X807422Y325779D01*
X807379Y325781D01*
X806256Y325782D01*
X639572Y325892D01*
X639571Y325894D01*
X638725Y326791D01*
X638673Y326895D01*
Y389810D01*
X639572Y390708D01*
X808469Y390596D01*
D02*
G37*
G36*
X807378Y324819D02*
X808184Y323837D01*
X808059Y323209D01*
Y323058D01*
X808022Y322912D01*
X807970Y321842D01*
X807984Y321742D01*
X807970Y321642D01*
X808023Y320563D01*
X808059Y320416D01*
Y320265D01*
X808480Y318150D01*
X808557Y317964D01*
X808596Y317767D01*
X809422Y315774D01*
X809533Y315607D01*
X809610Y315422D01*
X810808Y313629D01*
X810950Y313486D01*
X811062Y313319D01*
X812587Y311794D01*
X812754Y311683D01*
X812896Y311541D01*
X814690Y310342D01*
X814875Y310265D01*
X815042Y310154D01*
X817035Y309328D01*
X817232Y309289D01*
X817418Y309212D01*
X819533Y308792D01*
X819684D01*
X819831Y308755D01*
X820909Y308702D01*
X820960Y308709D01*
X821009Y308699D01*
X836545D01*
X838605Y308290D01*
X840545Y307486D01*
X842291Y306319D01*
X843776Y304834D01*
X844942Y303088D01*
X845746Y301148D01*
X846156Y299088D01*
Y270657D01*
X845746Y268598D01*
X844942Y266658D01*
X843776Y264911D01*
X842291Y263426D01*
X840545Y262260D01*
X838605Y261456D01*
X836545Y261046D01*
X638673D01*
Y324032D01*
X639572Y324930D01*
X807378Y324819D01*
D02*
G37*
G36*
X838663Y455304D02*
X840603Y454501D01*
X842349Y453334D01*
X843834Y451849D01*
X845001Y450103D01*
X845805Y448162D01*
X846214Y446103D01*
Y417387D01*
X845805Y415327D01*
X845001Y413387D01*
X843834Y411641D01*
X842349Y410156D01*
X840603Y408990D01*
X838663Y408186D01*
X836603Y407776D01*
X819636D01*
X819586Y407766D01*
X819536Y407774D01*
X818592Y407727D01*
X818445Y407691D01*
X818294D01*
X816443Y407322D01*
X816257Y407245D01*
X816060Y407206D01*
X814316Y406484D01*
X814149Y406372D01*
X813964Y406296D01*
X812394Y405247D01*
X812252Y405105D01*
X812085Y404993D01*
X810750Y403658D01*
X810639Y403491D01*
X810497Y403349D01*
X809448Y401780D01*
X809371Y401594D01*
X809259Y401427D01*
X808537Y399683D01*
X808498Y399486D01*
X808421Y399301D01*
X808053Y397449D01*
Y397298D01*
X808016Y397151D01*
X807970Y396208D01*
X807977Y396157D01*
X807967Y396108D01*
Y393905D01*
X807977Y393855D01*
X807970Y393805D01*
X808016Y392861D01*
X808024Y392828D01*
X807995Y392610D01*
X807747Y392162D01*
X807251Y391559D01*
X639572Y391670D01*
X639571Y391671D01*
X638725Y392569D01*
X638673Y392673D01*
Y455695D01*
X834533D01*
X834551Y455699D01*
X834570Y455695D01*
X835572Y455714D01*
X836603D01*
X838663Y455304D01*
D02*
G37*
%LPC*%
G36*
X599367Y443072D02*
X597776D01*
X596306Y442463D01*
X595181Y441338D01*
X594572Y439868D01*
Y438850D01*
X594443Y438764D01*
X592851D01*
X592744Y438836D01*
Y439868D01*
X592135Y441338D01*
X591010Y442463D01*
X589540Y443072D01*
X587948D01*
X586478Y442463D01*
X585353Y441338D01*
X584744Y439868D01*
Y438276D01*
X585353Y436806D01*
X586478Y435681D01*
X587948Y435072D01*
X589540D01*
X589647Y435000D01*
Y433969D01*
X590256Y432498D01*
X591381Y431373D01*
X592851Y430764D01*
X594443D01*
X595913Y431373D01*
X597038Y432498D01*
X597647Y433969D01*
Y434986D01*
X597776Y435072D01*
X599367D01*
X600838Y435681D01*
X601963Y436806D01*
X603242Y436806D01*
X604367Y435681D01*
X605837Y435072D01*
X607429D01*
X607530Y435004D01*
Y433889D01*
X608139Y432419D01*
X609264Y431294D01*
X610735Y430685D01*
X612326D01*
X613796Y431294D01*
X614921Y432419D01*
X615530Y433889D01*
Y435072D01*
X616887D01*
X618357Y435681D01*
X619482Y436806D01*
X620091Y438276D01*
Y439868D01*
X619482Y441338D01*
X618357Y442463D01*
X616887Y443072D01*
X615295D01*
X613825Y442463D01*
X612700Y441338D01*
X612091Y439868D01*
Y438685D01*
X610735D01*
X610633Y438753D01*
Y439868D01*
X610024Y441338D01*
X608899Y442463D01*
X607429Y443072D01*
X605837D01*
X604367Y442463D01*
X603242Y441338D01*
X601963Y441338D01*
X600838Y442463D01*
X599367Y443072D01*
D02*
G37*
G36*
X574651Y440042D02*
X573059D01*
X571589Y439434D01*
X570464Y438308D01*
X569855Y436838D01*
Y435247D01*
X570464Y433777D01*
X571589Y432651D01*
X573059Y432043D01*
X574651D01*
X576121Y432651D01*
X577246Y433777D01*
X577855Y435247D01*
Y436838D01*
X577246Y438308D01*
X576121Y439434D01*
X574651Y440042D01*
D02*
G37*
G36*
X550401Y423563D02*
X548809D01*
X547339Y422954D01*
X546214Y421829D01*
X545605Y420359D01*
Y418768D01*
X546214Y417298D01*
X547339Y416172D01*
X548809Y415564D01*
X550086D01*
Y414024D01*
X550695Y412554D01*
X551820Y411429D01*
X553290Y410820D01*
X554881D01*
X556351Y411429D01*
X557477Y412554D01*
X558086Y414024D01*
Y415445D01*
X558786D01*
X560256Y416054D01*
X561381Y417180D01*
X561990Y418650D01*
Y420241D01*
X561381Y421711D01*
X560256Y422836D01*
X558786Y423445D01*
X557194D01*
X555724Y422836D01*
X554599Y421711D01*
X554509Y421495D01*
X553134D01*
X552996Y421829D01*
X551871Y422954D01*
X550401Y423563D01*
D02*
G37*
G36*
X526663Y386371D02*
X525072D01*
X523601Y385761D01*
X522476Y384636D01*
X521867Y383166D01*
Y381575D01*
X522476Y380105D01*
X523601Y378979D01*
X525072Y378371D01*
X526663D01*
X528133Y378979D01*
X529258Y380105D01*
X529867Y381575D01*
Y383166D01*
X529258Y384636D01*
X528133Y385761D01*
X526663Y386371D01*
D02*
G37*
G36*
X533410Y374846D02*
X531818D01*
X530348Y374237D01*
X529422Y373311D01*
X528521Y374212D01*
X527051Y374821D01*
X525460D01*
X523990Y374212D01*
X522864Y373087D01*
X521497Y373105D01*
X520657Y373453D01*
X519065D01*
X517595Y372844D01*
X516470Y371718D01*
X515861Y370248D01*
Y368657D01*
X516470Y367187D01*
X517595Y366062D01*
X519065Y365453D01*
X520657D01*
X522127Y366062D01*
X523252Y367187D01*
X524619Y367169D01*
X525460Y366821D01*
X527051D01*
X528521Y367430D01*
X529447Y368356D01*
X530348Y367455D01*
X531818Y366846D01*
X533410D01*
X534880Y367455D01*
X536005Y368580D01*
X536100Y368810D01*
X537475D01*
X537580Y368555D01*
X538705Y367430D01*
X540176Y366821D01*
X541767D01*
X541832Y366848D01*
X544323Y364356D01*
Y319684D01*
X543293Y318736D01*
X541702D01*
X540232Y318127D01*
X539678Y317573D01*
X539095Y317008D01*
X538019Y317573D01*
X537710Y317881D01*
X536240Y318490D01*
X534649D01*
X533179Y317881D01*
X532053Y316756D01*
X531445Y315286D01*
Y315270D01*
X531051Y315007D01*
X529460D01*
X528597Y314649D01*
X527626Y315621D01*
X527747Y315916D01*
Y317507D01*
X527138Y318977D01*
X526013Y320103D01*
X524543Y320712D01*
X522952D01*
X521482Y320103D01*
X520356Y318977D01*
X519747Y317507D01*
Y315916D01*
X520356Y314446D01*
X521482Y313321D01*
X522952Y312712D01*
X524543D01*
X525405Y313069D01*
X526377Y312097D01*
X526255Y311802D01*
Y310211D01*
X526586Y309414D01*
X526611Y308502D01*
X525951Y307881D01*
X525150Y307549D01*
X524025Y306424D01*
X523416Y304954D01*
Y303362D01*
X524025Y301892D01*
X525150Y300767D01*
X526620Y300158D01*
X527091D01*
Y298908D01*
X527700Y297438D01*
X528825Y296313D01*
X530295Y295704D01*
X531887D01*
X533357Y296313D01*
X534482Y297438D01*
X535091Y298908D01*
Y300499D01*
X534482Y301969D01*
X533357Y303095D01*
X531887Y303704D01*
X531416D01*
Y304954D01*
X531086Y305751D01*
X531060Y306663D01*
X531721Y307284D01*
X532521Y307616D01*
X533647Y308741D01*
X534255Y310211D01*
Y310227D01*
X534649Y310490D01*
X536240D01*
X537710Y311099D01*
X538264Y311653D01*
X538847Y312218D01*
X539923Y311653D01*
X540232Y311345D01*
X541702Y310736D01*
X543293D01*
X544763Y311345D01*
X545888Y312470D01*
X546420Y313754D01*
X547671Y314299D01*
X552503Y309467D01*
X551977Y308197D01*
X549686D01*
X548968Y308054D01*
X548360Y307648D01*
X547954Y307039D01*
X547828Y306406D01*
X547714Y306336D01*
X546471Y306362D01*
X546427Y306469D01*
X545301Y307595D01*
X543831Y308204D01*
X542240D01*
X540770Y307595D01*
X539644Y306469D01*
X539035Y304999D01*
Y303408D01*
X539644Y301938D01*
X540770Y300813D01*
X542240Y300204D01*
X543831D01*
X545301Y300813D01*
X546427Y301938D01*
X546541Y302214D01*
X547811Y301961D01*
Y300622D01*
X547954Y299904D01*
X548195Y299544D01*
X532877Y284226D01*
X532242Y284456D01*
X531703Y284848D01*
Y286242D01*
X531095Y287712D01*
X529969Y288837D01*
X528499Y289446D01*
X526908D01*
X525438Y288837D01*
X524312Y287712D01*
X523703Y286242D01*
Y284650D01*
X523819Y284370D01*
X522971Y283100D01*
X521605D01*
X520446Y282620D01*
X519966Y281462D01*
Y277212D01*
X520446Y276053D01*
X521605Y275573D01*
X525355D01*
X525427Y275603D01*
X525606Y275567D01*
X529972D01*
X530814Y275735D01*
X531528Y276212D01*
X534615Y279299D01*
X535092Y280013D01*
X535143Y280265D01*
X552467Y297589D01*
X552944Y298303D01*
X553032Y298747D01*
X560786D01*
X561503Y298890D01*
X562112Y299296D01*
X562518Y299904D01*
X562661Y300622D01*
Y306322D01*
X562584Y306707D01*
X563691Y307397D01*
X569805Y301282D01*
X569671Y300958D01*
Y299366D01*
X570280Y297896D01*
X571405Y296771D01*
X572875Y296162D01*
X574466D01*
X575937Y296771D01*
X577062Y297896D01*
X577671Y299366D01*
Y300958D01*
X577062Y302428D01*
X575937Y303553D01*
X574466Y304162D01*
X572875D01*
X572551Y304027D01*
X553162Y323416D01*
Y367295D01*
X553487Y367430D01*
X554612Y368555D01*
X555221Y370025D01*
Y371617D01*
X554612Y373087D01*
X553487Y374212D01*
X552017Y374821D01*
X550425D01*
X548955Y374212D01*
X547830Y373087D01*
X547221Y371617D01*
Y370025D01*
X547607Y369095D01*
X546530Y368375D01*
X544945Y369961D01*
X544971Y370025D01*
Y371617D01*
X544362Y373087D01*
X543237Y374212D01*
X541767Y374821D01*
X540176D01*
X538705Y374212D01*
X537580Y373087D01*
X537485Y372857D01*
X536110D01*
X536005Y373111D01*
X534880Y374237D01*
X533410Y374846D01*
D02*
G37*
G36*
X574651Y371940D02*
X573059D01*
X571589Y371331D01*
X570464Y370206D01*
X569855Y368736D01*
Y367144D01*
X570464Y365674D01*
X571589Y364549D01*
X573059Y363940D01*
X574651D01*
X576121Y364549D01*
X577246Y365674D01*
X577855Y367144D01*
Y368736D01*
X577246Y370206D01*
X576121Y371331D01*
X574651Y371940D01*
D02*
G37*
G36*
X561373Y362883D02*
X559782D01*
X558312Y362274D01*
X557187Y361149D01*
X556578Y359678D01*
Y358087D01*
X557187Y356617D01*
X558312Y355492D01*
X559782Y354883D01*
X561373D01*
X562844Y355492D01*
X563969Y356617D01*
X564578Y358087D01*
Y359678D01*
X563969Y361149D01*
X562844Y362274D01*
X561373Y362883D01*
D02*
G37*
G36*
X590144Y354231D02*
X588553D01*
X587082Y353622D01*
X585957Y352497D01*
X585348Y351027D01*
Y349435D01*
X585957Y347965D01*
X587082Y346840D01*
X588553Y346231D01*
X589760D01*
Y345064D01*
X590369Y343593D01*
X591494Y342468D01*
X592964Y341859D01*
X594556D01*
X596026Y342468D01*
X597151Y343593D01*
X597760Y345064D01*
Y346151D01*
X598763D01*
X600233Y346760D01*
X601359Y347885D01*
X601968Y349355D01*
Y349421D01*
X603237Y349422D01*
X603846Y347952D01*
X604972Y346826D01*
X606442Y346217D01*
X607638D01*
Y344809D01*
X608246Y343339D01*
X609372Y342214D01*
X610842Y341605D01*
X612433D01*
X613903Y342214D01*
X615029Y343339D01*
X615638Y344809D01*
Y346074D01*
X616582D01*
X618052Y346683D01*
X619177Y347808D01*
X619786Y349279D01*
Y350870D01*
X619177Y352340D01*
X618052Y353465D01*
X616582Y354074D01*
X614991D01*
X613520Y353465D01*
X612395Y352340D01*
X612229Y351938D01*
X610854D01*
X610628Y352483D01*
X609503Y353608D01*
X608033Y354217D01*
X606442D01*
X604972Y353608D01*
X603846Y352483D01*
X603237Y351013D01*
Y350947D01*
X601968Y350947D01*
X601359Y352417D01*
X600233Y353542D01*
X598763Y354151D01*
X597172D01*
X595702Y353542D01*
X594576Y352417D01*
X594362Y351898D01*
X592987D01*
X592739Y352497D01*
X591614Y353622D01*
X590144Y354231D01*
D02*
G37*
G36*
X438753Y294245D02*
X437162D01*
X435692Y293636D01*
X434566Y292511D01*
X433958Y291040D01*
Y289449D01*
X434566Y287979D01*
X435692Y286854D01*
X437162Y286245D01*
X438753D01*
X440223Y286854D01*
X441349Y287979D01*
X441958Y289449D01*
Y291040D01*
X441349Y292511D01*
X440223Y293636D01*
X438753Y294245D01*
D02*
G37*
G36*
X448620Y286087D02*
X447029D01*
X445559Y285478D01*
X444433Y284352D01*
X443824Y282882D01*
Y281291D01*
X444433Y279821D01*
X445559Y278696D01*
X447029Y278087D01*
X448620D01*
X450090Y278696D01*
X451215Y279821D01*
X451824Y281291D01*
Y282882D01*
X451215Y284352D01*
X450090Y285478D01*
X448620Y286087D01*
D02*
G37*
G36*
X590144Y284989D02*
X588553D01*
X587082Y284380D01*
X585957Y283255D01*
X585348Y281785D01*
Y280194D01*
X585957Y278724D01*
X587082Y277598D01*
X588553Y276989D01*
X589547D01*
X589602Y276906D01*
Y275315D01*
X590211Y273845D01*
X591337Y272719D01*
X592807Y272111D01*
X594398D01*
X595868Y272719D01*
X596993Y273845D01*
X597602Y275315D01*
Y276770D01*
X598763D01*
X600233Y277379D01*
X601359Y278505D01*
X601968Y279975D01*
Y281566D01*
X601359Y283036D01*
X600233Y284161D01*
X598763Y284770D01*
X597172D01*
X595702Y284161D01*
X594576Y283036D01*
X594391Y282587D01*
X593016D01*
X592739Y283255D01*
X591614Y284380D01*
X590144Y284989D01*
D02*
G37*
G36*
X608237Y284607D02*
X606646D01*
X605176Y283998D01*
X604050Y282873D01*
X603442Y281403D01*
Y279811D01*
X604050Y278341D01*
X605176Y277216D01*
X606646Y276607D01*
X607584D01*
Y275117D01*
X608193Y273647D01*
X609318Y272522D01*
X610788Y271913D01*
X612379D01*
X613849Y272522D01*
X614975Y273647D01*
X615584Y275117D01*
Y276483D01*
X616598D01*
X618068Y277092D01*
X619194Y278217D01*
X619803Y279688D01*
Y281279D01*
X619194Y282749D01*
X618068Y283874D01*
X616598Y284483D01*
X615007D01*
X613537Y283874D01*
X612411Y282749D01*
X612335Y282564D01*
X610960D01*
X610832Y282873D01*
X609707Y283998D01*
X608237Y284607D01*
D02*
G37*
G36*
X477860Y293449D02*
X476268D01*
X474798Y292840D01*
X473673Y291715D01*
X473064Y290245D01*
Y288653D01*
X473673Y287183D01*
X474738Y286118D01*
X474299Y285058D01*
Y280808D01*
X474779Y279649D01*
X475938Y279169D01*
X479688D01*
X480847Y279649D01*
X481327Y280808D01*
Y280992D01*
X483188D01*
Y280808D01*
X483668Y279649D01*
X484827Y279169D01*
X484977D01*
Y277058D01*
X484793D01*
X483634Y276578D01*
X483154Y275419D01*
Y271669D01*
X483634Y270510D01*
X484793Y270030D01*
X489043D01*
X490202Y270510D01*
X490682Y271669D01*
Y275419D01*
X490202Y276578D01*
X489043Y277058D01*
X488859D01*
Y279286D01*
X489736Y279649D01*
X490216Y280808D01*
Y285058D01*
X489736Y286217D01*
X488577Y286697D01*
X484827D01*
X483668Y286217D01*
X483188Y285058D01*
Y284874D01*
X481327D01*
Y285058D01*
X480847Y286217D01*
X480629Y286307D01*
X480455Y287183D01*
X481064Y288653D01*
Y290245D01*
X480455Y291715D01*
X479330Y292840D01*
X477860Y293449D01*
D02*
G37*
G36*
X421531Y407172D02*
X419940D01*
X418470Y406563D01*
X417345Y405438D01*
X416736Y403968D01*
Y402377D01*
X417229Y401186D01*
X416676Y399916D01*
X412410D01*
X411693Y399774D01*
X411085Y399367D01*
X410678Y398759D01*
X410535Y398041D01*
Y392341D01*
X410678Y391624D01*
X411085Y391016D01*
X411693Y390609D01*
X412410Y390466D01*
X423510D01*
X424228Y390609D01*
X424836Y391016D01*
X425243Y391624D01*
X425385Y392341D01*
Y398041D01*
X425243Y398759D01*
X424836Y399367D01*
X424655Y399488D01*
X425040Y400758D01*
X427462D01*
Y398136D01*
X439287D01*
Y405502D01*
X427462D01*
Y404641D01*
X424457D01*
X424127Y405438D01*
X423002Y406563D01*
X421531Y407172D01*
D02*
G37*
G36*
X433902Y384497D02*
X432311D01*
X430841Y383888D01*
X429715Y382763D01*
X429106Y381292D01*
Y379701D01*
X429715Y378231D01*
X430841Y377106D01*
X432311Y376497D01*
X433902D01*
X435372Y377106D01*
X436497Y378231D01*
X437106Y379701D01*
Y381292D01*
X436497Y382763D01*
X435372Y383888D01*
X433902Y384497D01*
D02*
G37*
G36*
X445939Y364151D02*
X444348D01*
X442878Y363542D01*
X441753Y362417D01*
X441143Y360947D01*
Y359355D01*
X441753Y357885D01*
X442878Y356760D01*
X444348Y356151D01*
X445939D01*
X447409Y356760D01*
X448535Y357885D01*
X449143Y359355D01*
Y360947D01*
X448535Y362417D01*
X447409Y363542D01*
X445939Y364151D01*
D02*
G37*
G36*
X452013Y350074D02*
X450422D01*
X448952Y349465D01*
X447827Y348340D01*
X447218Y346870D01*
Y345279D01*
X447827Y343809D01*
X448952Y342683D01*
X450422Y342074D01*
X452013D01*
X453483Y342683D01*
X454609Y343809D01*
X455218Y345279D01*
Y346870D01*
X454609Y348340D01*
X453483Y349465D01*
X452013Y350074D01*
D02*
G37*
G36*
X424677Y342242D02*
X423086D01*
X421615Y341633D01*
X420490Y340508D01*
X419881Y339038D01*
Y337447D01*
X420490Y335976D01*
X421615Y334851D01*
X423086Y334242D01*
X424677D01*
X426147Y334851D01*
X427272Y335976D01*
X427881Y337447D01*
Y339038D01*
X427272Y340508D01*
X426147Y341633D01*
X424677Y342242D01*
D02*
G37*
G36*
X437559Y328864D02*
X435968D01*
X434498Y328255D01*
X433372Y327129D01*
X432764Y325659D01*
Y324068D01*
X433372Y322598D01*
X434498Y321473D01*
X435968Y320864D01*
X437559D01*
X439029Y321473D01*
X440155Y322598D01*
X440764Y324068D01*
Y325659D01*
X440155Y327129D01*
X439029Y328255D01*
X437559Y328864D01*
D02*
G37*
G36*
X431480Y321610D02*
X429889D01*
X428419Y321001D01*
X427294Y319875D01*
X426685Y318405D01*
Y316814D01*
X427294Y315344D01*
X428419Y314219D01*
X429889Y313610D01*
X431480D01*
X432950Y314219D01*
X434076Y315344D01*
X434685Y316814D01*
Y318405D01*
X434076Y319875D01*
X432950Y321001D01*
X431480Y321610D01*
D02*
G37*
G36*
X421311D02*
X419720D01*
X418249Y321001D01*
X417124Y319875D01*
X416515Y318405D01*
Y316814D01*
X417124Y315344D01*
X418249Y314219D01*
X419720Y313610D01*
X421311D01*
X422781Y314219D01*
X423906Y315344D01*
X424515Y316814D01*
Y318405D01*
X423906Y319875D01*
X422781Y321001D01*
X421311Y321610D01*
D02*
G37*
G36*
X725080Y381329D02*
X723488D01*
X722018Y380720D01*
X720893Y379595D01*
X720284Y378125D01*
Y376534D01*
X720893Y375064D01*
X722018Y373938D01*
X723488Y373329D01*
X725080D01*
X726550Y373938D01*
X727214Y374603D01*
X728050Y374915D01*
X728856Y374596D01*
X729530Y373922D01*
X731000Y373313D01*
X732591D01*
X734062Y373922D01*
X735187Y375048D01*
X735796Y376518D01*
Y378109D01*
X735187Y379579D01*
X734062Y380704D01*
X732591Y381314D01*
X731000D01*
X729530Y380704D01*
X728866Y380040D01*
X728030Y379728D01*
X727224Y380047D01*
X726550Y380720D01*
X725080Y381329D01*
D02*
G37*
G36*
X657331Y376576D02*
X655740D01*
X654269Y375967D01*
X653144Y374842D01*
X652625Y373587D01*
X652535Y373372D01*
X652158Y373087D01*
X651821Y373120D01*
X650727Y373599D01*
X650279Y374680D01*
X649154Y375805D01*
X647684Y376414D01*
X646093D01*
X644622Y375805D01*
X643497Y374680D01*
X642888Y373209D01*
Y371618D01*
X643497Y370148D01*
X644512Y369134D01*
X644572Y368414D01*
X644512Y367694D01*
X643497Y366680D01*
X642888Y365210D01*
Y363618D01*
X643497Y362148D01*
X644512Y361134D01*
X644572Y360414D01*
X644512Y359694D01*
X643497Y358680D01*
X642888Y357210D01*
Y355618D01*
X643497Y354148D01*
X644512Y353134D01*
X644572Y352414D01*
X644512Y351694D01*
X643497Y350680D01*
X642888Y349210D01*
Y347618D01*
X643497Y346148D01*
X644622Y345023D01*
X646093Y344414D01*
X647684D01*
X647739Y344377D01*
Y343618D01*
X648348Y342148D01*
X649474Y341023D01*
X650944Y340414D01*
X652535D01*
X654005Y341023D01*
X655130Y342148D01*
X655650Y343403D01*
X655740Y343618D01*
X656116Y343903D01*
X656454Y343870D01*
X657548Y343391D01*
X657995Y342310D01*
X659121Y341185D01*
X660591Y340576D01*
X662182D01*
X663652Y341185D01*
X664777Y342310D01*
X665386Y343780D01*
Y344497D01*
X666964D01*
X667020Y344460D01*
Y343701D01*
X667629Y342231D01*
X668754Y341106D01*
X670224Y340497D01*
X671816D01*
X673286Y341106D01*
X674411Y342231D01*
X675020Y343701D01*
Y345293D01*
X674411Y346763D01*
X673397Y347777D01*
X673337Y348497D01*
X673397Y349217D01*
X674411Y350231D01*
X675020Y351701D01*
Y353293D01*
X674411Y354763D01*
X673397Y355777D01*
X673337Y356497D01*
X673397Y357217D01*
X674411Y358231D01*
X675020Y359701D01*
Y361293D01*
X674411Y362763D01*
X673397Y363777D01*
X673337Y364497D01*
X673397Y365217D01*
X674411Y366231D01*
X675020Y367701D01*
Y369293D01*
X674411Y370763D01*
X673286Y371888D01*
X671816Y372497D01*
X670224D01*
X670169Y372534D01*
Y373293D01*
X669560Y374763D01*
X668435Y375888D01*
X666964Y376497D01*
X665373D01*
X663903Y375888D01*
X662778Y374763D01*
X662169Y373293D01*
Y372576D01*
X660591D01*
X660535Y372613D01*
Y373372D01*
X659926Y374842D01*
X658801Y375967D01*
X657331Y376576D01*
D02*
G37*
G36*
X725135Y368674D02*
X723543D01*
X722073Y368065D01*
X720948Y366940D01*
X720339Y365470D01*
Y363878D01*
X720948Y362408D01*
X722073Y361283D01*
X723543Y360674D01*
X725135D01*
X726605Y361283D01*
X727155Y361833D01*
X728158Y362166D01*
X728790Y361808D01*
X729489Y361109D01*
X730959Y360500D01*
X732551D01*
X734021Y361109D01*
X735146Y362234D01*
X735755Y363704D01*
Y365296D01*
X735146Y366766D01*
X734021Y367891D01*
X732551Y368500D01*
X730959D01*
X729489Y367891D01*
X728939Y367341D01*
X727936Y367008D01*
X727304Y367365D01*
X726605Y368065D01*
X725135Y368674D01*
D02*
G37*
G36*
X725193Y355927D02*
X723601D01*
X722131Y355318D01*
X721006Y354193D01*
X720397Y352723D01*
Y351132D01*
X721006Y349662D01*
X722131Y348536D01*
X723601Y347927D01*
X725193D01*
X726663Y348536D01*
X727247Y349121D01*
X728144Y349489D01*
X728906Y349120D01*
X729547Y348478D01*
X731017Y347869D01*
X732608D01*
X734079Y348478D01*
X735204Y349604D01*
X735813Y351074D01*
Y352665D01*
X735204Y354135D01*
X734079Y355261D01*
X732608Y355869D01*
X731017D01*
X729547Y355261D01*
X728963Y354676D01*
X728066Y354308D01*
X727304Y354677D01*
X726663Y355318D01*
X725193Y355927D01*
D02*
G37*
G36*
X731802Y310861D02*
X730211D01*
X728741Y310252D01*
X727732Y309244D01*
X726724Y310252D01*
X725254Y310861D01*
X723662D01*
X722192Y310252D01*
X721067Y309127D01*
X720458Y307657D01*
Y306066D01*
X721067Y304596D01*
X722192Y303470D01*
X723662Y302861D01*
X725254D01*
X726724Y303470D01*
X727732Y304479D01*
X728741Y303470D01*
X730211Y302861D01*
X731802D01*
X733272Y303470D01*
X734398Y304596D01*
X735007Y306066D01*
Y307657D01*
X734398Y309127D01*
X733272Y310252D01*
X731802Y310861D01*
D02*
G37*
G36*
X657331Y305269D02*
X655740D01*
X654269Y304660D01*
X653144Y303535D01*
X652625Y302280D01*
X652535Y302065D01*
X652158Y301780D01*
X651821Y301813D01*
X650727Y302292D01*
X650279Y303373D01*
X649154Y304498D01*
X647684Y305107D01*
X646093D01*
X644622Y304498D01*
X643497Y303373D01*
X642888Y301902D01*
Y300311D01*
X643497Y298841D01*
X644512Y297827D01*
X644572Y297107D01*
X644512Y296387D01*
X643497Y295373D01*
X642888Y293902D01*
Y292311D01*
X643497Y290841D01*
X644512Y289827D01*
X644572Y289107D01*
X644512Y288387D01*
X643497Y287373D01*
X642888Y285903D01*
Y284311D01*
X643497Y282841D01*
X644512Y281827D01*
X644572Y281107D01*
X644512Y280387D01*
X643497Y279373D01*
X642888Y277902D01*
Y276311D01*
X643497Y274841D01*
X644622Y273716D01*
X646093Y273107D01*
X647684D01*
X647739Y273070D01*
Y272311D01*
X648348Y270841D01*
X649474Y269716D01*
X650944Y269107D01*
X652535D01*
X654005Y269716D01*
X655130Y270841D01*
X655650Y272096D01*
X655740Y272311D01*
X656116Y272596D01*
X656454Y272563D01*
X657548Y272084D01*
X657995Y271003D01*
X659121Y269878D01*
X660591Y269269D01*
X662182D01*
X663652Y269878D01*
X664777Y271003D01*
X665386Y272473D01*
Y273190D01*
X666964D01*
X667020Y273153D01*
Y272394D01*
X667629Y270924D01*
X668754Y269799D01*
X670224Y269190D01*
X671816D01*
X673286Y269799D01*
X674411Y270924D01*
X675020Y272394D01*
Y273986D01*
X674411Y275456D01*
X673397Y276470D01*
X673337Y277190D01*
X673397Y277910D01*
X674411Y278924D01*
X675020Y280394D01*
Y281985D01*
X674411Y283456D01*
X673397Y284470D01*
X673337Y285190D01*
X673397Y285910D01*
X674411Y286924D01*
X675020Y288394D01*
Y289986D01*
X674411Y291456D01*
X673397Y292470D01*
X673337Y293190D01*
X673397Y293910D01*
X674411Y294924D01*
X675020Y296394D01*
Y297985D01*
X674411Y299456D01*
X673286Y300581D01*
X671816Y301190D01*
X670224D01*
X670169Y301227D01*
Y301985D01*
X669560Y303456D01*
X668435Y304581D01*
X666964Y305190D01*
X665373D01*
X663903Y304581D01*
X662778Y303456D01*
X662169Y301985D01*
Y301269D01*
X660591D01*
X660535Y301306D01*
Y302065D01*
X659926Y303535D01*
X658801Y304660D01*
X657331Y305269D01*
D02*
G37*
G36*
X731842Y297994D02*
X730250D01*
X728780Y297385D01*
X727798Y296403D01*
X726816Y297385D01*
X725346Y297994D01*
X723755D01*
X722284Y297385D01*
X721159Y296260D01*
X720550Y294790D01*
Y293198D01*
X721159Y291728D01*
X722284Y290603D01*
X723755Y289994D01*
X725346D01*
X726816Y290603D01*
X727798Y291585D01*
X728780Y290603D01*
X730250Y289994D01*
X731842D01*
X733312Y290603D01*
X734437Y291728D01*
X735046Y293198D01*
Y294790D01*
X734437Y296260D01*
X733312Y297385D01*
X731842Y297994D01*
D02*
G37*
G36*
X725405Y285412D02*
X723813D01*
X722343Y284803D01*
X721218Y283678D01*
X720609Y282208D01*
Y280616D01*
X721218Y279146D01*
X722343Y278021D01*
X723813Y277412D01*
X725405D01*
X726875Y278021D01*
X727048Y278194D01*
X728842Y278193D01*
X729073Y277962D01*
X730543Y277353D01*
X732134D01*
X733604Y277962D01*
X734730Y279088D01*
X735339Y280558D01*
Y282149D01*
X734730Y283619D01*
X733604Y284744D01*
X732134Y285353D01*
X730543D01*
X729073Y284744D01*
X728900Y284571D01*
X727105Y284573D01*
X726875Y284803D01*
X725405Y285412D01*
D02*
G37*
G36*
X732591Y452134D02*
X731000D01*
X729530Y451525D01*
X728405Y450400D01*
X728329Y450218D01*
X726955D01*
X726880Y450400D01*
X725754Y451525D01*
X724284Y452134D01*
X722693D01*
X721223Y451525D01*
X720097Y450400D01*
X719489Y448929D01*
Y447338D01*
X720097Y445868D01*
X721223Y444743D01*
X722693Y444134D01*
X724284D01*
X725754Y444743D01*
X726880Y445868D01*
X726955Y446050D01*
X728329D01*
X728405Y445868D01*
X729530Y444743D01*
X731000Y444134D01*
X732591D01*
X734062Y444743D01*
X735187Y445868D01*
X735796Y447338D01*
Y448929D01*
X735187Y450400D01*
X734062Y451525D01*
X732591Y452134D01*
D02*
G37*
G36*
X657331Y446476D02*
X655740D01*
X654269Y445867D01*
X653144Y444742D01*
X652625Y443487D01*
X652535Y443272D01*
X652158Y442987D01*
X651821Y443020D01*
X650727Y443498D01*
X650279Y444580D01*
X649154Y445705D01*
X647684Y446314D01*
X646093D01*
X644622Y445705D01*
X643497Y444580D01*
X642888Y443110D01*
Y441518D01*
X643497Y440048D01*
X644512Y439034D01*
X644572Y438314D01*
X644512Y437594D01*
X643497Y436580D01*
X642888Y435109D01*
Y433518D01*
X643497Y432048D01*
X644512Y431034D01*
X644572Y430314D01*
X644512Y429594D01*
X643497Y428580D01*
X642888Y427109D01*
Y425518D01*
X643497Y424048D01*
X644512Y423034D01*
X644572Y422314D01*
X644512Y421594D01*
X643497Y420580D01*
X642888Y419109D01*
Y417518D01*
X643497Y416048D01*
X644622Y414923D01*
X646093Y414314D01*
X647684D01*
X647739Y414277D01*
Y413518D01*
X648348Y412048D01*
X649474Y410923D01*
X650944Y410314D01*
X652535D01*
X654005Y410923D01*
X655130Y412048D01*
X655650Y413303D01*
X655740Y413518D01*
X656116Y413802D01*
X656454Y413770D01*
X657548Y413291D01*
X657995Y412210D01*
X659121Y411085D01*
X660591Y410476D01*
X662182D01*
X663652Y411085D01*
X664777Y412210D01*
X665386Y413680D01*
Y414397D01*
X666964D01*
X667020Y414360D01*
Y413601D01*
X667629Y412131D01*
X668754Y411006D01*
X670224Y410397D01*
X671816D01*
X673286Y411006D01*
X674411Y412131D01*
X675020Y413601D01*
Y415193D01*
X674411Y416663D01*
X673397Y417677D01*
X673337Y418397D01*
X673397Y419117D01*
X674411Y420131D01*
X675020Y421601D01*
Y423192D01*
X674411Y424663D01*
X673397Y425677D01*
X673337Y426397D01*
X673397Y427117D01*
X674411Y428131D01*
X675020Y429601D01*
Y431193D01*
X674411Y432663D01*
X673397Y433677D01*
X673337Y434397D01*
X673397Y435117D01*
X674411Y436131D01*
X675020Y437601D01*
Y439193D01*
X674411Y440663D01*
X673286Y441788D01*
X671816Y442397D01*
X670224D01*
X670169Y442434D01*
Y443193D01*
X669560Y444663D01*
X668435Y445788D01*
X666964Y446397D01*
X665373D01*
X663903Y445788D01*
X662778Y444663D01*
X662169Y443193D01*
Y442476D01*
X660591D01*
X660535Y442513D01*
Y443272D01*
X659926Y444742D01*
X658801Y445867D01*
X657331Y446476D01*
D02*
G37*
G36*
X724469Y439259D02*
X722878D01*
X721408Y438650D01*
X720283Y437524D01*
X719674Y436054D01*
Y434463D01*
X720283Y432993D01*
X721408Y431868D01*
X722878Y431259D01*
X724469D01*
X725939Y431868D01*
X727065Y432993D01*
X727065Y432994D01*
X728440D01*
X728553Y432720D01*
X729678Y431595D01*
X731149Y430986D01*
X732740D01*
X734210Y431595D01*
X735335Y432720D01*
X735944Y434190D01*
Y435782D01*
X735335Y437252D01*
X734210Y438377D01*
X732740Y438986D01*
X731149D01*
X729678Y438377D01*
X728553Y437252D01*
X728553Y437251D01*
X727178D01*
X727065Y437524D01*
X725939Y438650D01*
X724469Y439259D01*
D02*
G37*
G36*
X724651Y426535D02*
X723060D01*
X721590Y425926D01*
X720464Y424801D01*
X719856Y423330D01*
Y421739D01*
X720464Y420269D01*
X721590Y419144D01*
X723060Y418535D01*
X724651D01*
X726121Y419144D01*
X727247Y420269D01*
X728595Y420206D01*
X728644Y420087D01*
X729769Y418962D01*
X731239Y418353D01*
X732831D01*
X734301Y418962D01*
X735426Y420087D01*
X736035Y421558D01*
Y423149D01*
X735426Y424619D01*
X734301Y425744D01*
X732831Y426353D01*
X731239D01*
X729769Y425744D01*
X728644Y424619D01*
X727296Y424682D01*
X727247Y424801D01*
X726121Y425926D01*
X724651Y426535D01*
D02*
G37*
%LPD*%
D11*
X486702Y282933D02*
X486918Y282717D01*
X456579Y304967D02*
X457204Y304342D01*
X513903Y279914D02*
X514480Y279337D01*
X505091Y279914D02*
Y289086D01*
X505668Y279337D02*
X514480D01*
X505091Y279914D02*
X505668Y279337D01*
X513911Y279906D02*
Y287003D01*
Y279906D02*
X514480Y279337D01*
X505091Y324864D02*
X505091Y324864D01*
X553440Y303472D02*
X555236D01*
X550910Y300942D02*
X553440Y303472D01*
X523480Y279087D02*
X524710Y277857D01*
X525518D02*
X525606Y277768D01*
X533059Y281294D02*
X550910Y299146D01*
X533059Y280856D02*
Y281294D01*
X529972Y277768D02*
X533059Y280856D01*
X550910Y299146D02*
Y300942D01*
X525606Y277768D02*
X529972D01*
X524710Y277857D02*
X525518D01*
X523480Y279087D02*
Y279337D01*
X540971Y370821D02*
X546524Y365268D01*
X555236Y303472D02*
Y309847D01*
X546524Y318559D02*
Y365268D01*
Y318559D02*
X555236Y309847D01*
D19*
X505091Y333864D02*
D03*
X505091Y270914D02*
D03*
X486918Y273544D02*
D03*
X505091Y289086D02*
D03*
Y279914D02*
D03*
Y315975D02*
D03*
X505091Y324864D02*
D03*
X413350Y295662D02*
D03*
X505091Y298085D02*
D03*
Y306975D02*
D03*
X413350Y304662D02*
D03*
X486918Y264544D02*
D03*
D20*
X477665Y388571D02*
D03*
X500607Y383448D02*
D03*
X417960Y395191D02*
D03*
X500607Y365549D02*
D03*
X477665Y406471D02*
D03*
X417960Y413091D02*
D03*
X555236Y303472D02*
D03*
Y285572D02*
D03*
D21*
X475104Y304342D02*
D03*
X457204D02*
D03*
D23*
X417961Y269044D02*
D03*
X430661D02*
D03*
X456060D02*
D03*
X443360D02*
D03*
X468760D02*
D03*
D42*
X500607Y383448D02*
X503392Y386233D01*
X490218Y332791D02*
Y341917D01*
X471004Y313577D02*
X490218Y332791D01*
X462657Y313577D02*
X471004D01*
X462347Y313887D02*
X462657Y313577D01*
X460673Y313887D02*
X462347D01*
X456579Y317981D02*
X460673Y313887D01*
X456579Y317981D02*
Y318231D01*
X421208Y402700D02*
X432494D01*
X420736Y396602D02*
Y403172D01*
X419325Y395191D02*
X420736Y396602D01*
Y403172D02*
X421208Y402700D01*
X417960Y395191D02*
X419325D01*
X432494Y402700D02*
X433375Y401819D01*
X486702Y282933D02*
X486918Y282717D01*
Y273544D02*
Y282717D01*
Y282717D01*
X477813Y282933D02*
X486702D01*
X486702D01*
X477064Y283682D02*
X477813Y282933D01*
X477064Y283682D02*
Y289449D01*
X457204Y304342D02*
Y317606D01*
X456579Y318231D02*
X457204Y317606D01*
X540245Y271058D02*
X540373Y271186D01*
X533395Y271058D02*
X540245D01*
X533267Y270930D02*
X533395Y271058D01*
X505081Y316044D02*
X505348Y316310D01*
X505081Y315984D02*
Y316044D01*
X505091Y315975D02*
X505091Y315975D01*
X505081Y315984D02*
X505091Y315975D01*
X505091Y315975D02*
Y324864D01*
X413350Y295662D02*
X419267D01*
X422739Y299133D01*
X449640Y326035D01*
X455204D01*
X505091Y298085D02*
Y306975D01*
X495702Y282933D02*
Y288696D01*
X505091Y298085D01*
X493280Y318785D02*
X505091Y306975D01*
X493280Y318785D02*
Y319476D01*
X539045Y262022D02*
X544873Y267850D01*
X489440Y262022D02*
X539045D01*
X486918Y264544D02*
X487168D01*
X488653Y263059D01*
Y262809D02*
Y263059D01*
Y262809D02*
X489440Y262022D01*
X544873Y267850D02*
Y281566D01*
X557357Y271000D02*
X557543Y270815D01*
X549558Y271000D02*
X557357D01*
X549373Y271186D02*
X549558Y271000D01*
X551221Y322612D02*
Y370821D01*
Y322612D02*
X573671Y300162D01*
X465579Y318231D02*
X480218Y332869D01*
Y343646D01*
D47*
X477665Y388571D02*
D03*
X611638Y345605D02*
D03*
X593760Y345859D02*
D03*
X479554Y442530D02*
D03*
X422748Y442178D02*
D03*
X496516Y339440D02*
D03*
X495607Y346239D02*
D03*
X498981Y352197D02*
D03*
X504267Y357053D02*
D03*
X508521Y349765D02*
D03*
X510321Y359319D02*
D03*
X490113Y342023D02*
D03*
X593744Y297009D02*
D03*
X611633Y297009D02*
D03*
X573671Y300162D02*
D03*
X530255Y311007D02*
D03*
X420736Y403172D02*
D03*
X731796Y448134D02*
D03*
X723674Y435259D02*
D03*
X723488Y448134D02*
D03*
X731944Y434986D02*
D03*
X732035Y422353D02*
D03*
X724284Y377329D02*
D03*
X723856Y422535D02*
D03*
X731796Y377313D02*
D03*
X611633Y419172D02*
D03*
X611633Y366529D02*
D03*
X593744Y419172D02*
D03*
X593744Y366529D02*
D03*
X731755Y364500D02*
D03*
X731813Y351869D02*
D03*
X724397Y351927D02*
D03*
X731007Y306861D02*
D03*
X724458D02*
D03*
X724339Y364674D02*
D03*
X731046Y293994D02*
D03*
X724550D02*
D03*
X731339Y281353D02*
D03*
X724609Y281412D02*
D03*
X382617Y305269D02*
D03*
X372983Y305348D02*
D03*
X393056Y305186D02*
D03*
X387468Y301269D02*
D03*
X397907Y301186D02*
D03*
X382617Y297269D02*
D03*
X377835Y301348D02*
D03*
X363336Y305186D02*
D03*
X372983Y297348D02*
D03*
X368188Y301186D02*
D03*
X397907Y293186D02*
D03*
Y285186D02*
D03*
X393056Y289186D02*
D03*
Y297186D02*
D03*
X387468Y285269D02*
D03*
X393056Y281186D02*
D03*
X387468Y277269D02*
D03*
X397907Y277186D02*
D03*
X392896Y272348D02*
D03*
X377835Y293348D02*
D03*
X387468Y293269D02*
D03*
X372983Y289348D02*
D03*
X382617Y289269D02*
D03*
X377835Y285348D02*
D03*
X368188Y293186D02*
D03*
X363336Y297186D02*
D03*
X368188Y285186D02*
D03*
X363336Y289186D02*
D03*
X382617Y281269D02*
D03*
X372983Y281348D02*
D03*
X382457Y272431D02*
D03*
X377835Y277348D02*
D03*
X368188Y277186D02*
D03*
X363336Y281186D02*
D03*
X372823Y272510D02*
D03*
X363176Y272348D02*
D03*
X405000Y352162D02*
D03*
X423881Y338242D02*
D03*
X436764Y324864D02*
D03*
X477064Y289449D02*
D03*
X437958Y290245D02*
D03*
X455829Y292454D02*
D03*
X405000Y332162D02*
D03*
X513911Y287003D02*
D03*
X430685Y317610D02*
D03*
X447824Y282087D02*
D03*
X495536Y325744D02*
D03*
X451218Y346074D02*
D03*
X523747Y316712D02*
D03*
X533267Y270930D02*
D03*
X505081Y316044D02*
D03*
X535444Y314490D02*
D03*
X455204Y326035D02*
D03*
X493280Y318785D02*
D03*
X420515Y317610D02*
D03*
X431866Y281064D02*
D03*
X433106Y380497D02*
D03*
X495536Y331994D02*
D03*
X445144Y360151D02*
D03*
X549736Y452798D02*
D03*
X558447D02*
D03*
X540285Y452744D02*
D03*
X531818D02*
D03*
X536277Y447751D02*
D03*
X513911Y452744D02*
D03*
X522127D02*
D03*
X504359Y452754D02*
D03*
X518072Y447907D02*
D03*
X500371Y447663D02*
D03*
X496465Y452744D02*
D03*
X554285Y447661D02*
D03*
X513072Y267037D02*
D03*
X500607Y365549D02*
D03*
X490119Y443669D02*
D03*
X615786Y350074D02*
D03*
X597968Y350151D02*
D03*
X589348Y350231D02*
D03*
X607237Y350217D02*
D03*
X531091Y299704D02*
D03*
X527416Y304158D02*
D03*
X557990Y419445D02*
D03*
X549605Y419563D02*
D03*
X540275Y419445D02*
D03*
X531536Y419563D02*
D03*
X522560Y419445D02*
D03*
X504845Y419682D02*
D03*
X514057Y419445D02*
D03*
X615803Y280483D02*
D03*
X611584Y275913D02*
D03*
X607441Y280607D02*
D03*
X597968Y280770D02*
D03*
X593602Y276111D02*
D03*
X589348Y280989D02*
D03*
X554086Y414820D02*
D03*
X536023Y415112D02*
D03*
X518325Y415111D02*
D03*
X500626Y415330D02*
D03*
X588744Y439072D02*
D03*
X593647Y434764D02*
D03*
X611530Y434685D02*
D03*
X616091Y439072D02*
D03*
X606633D02*
D03*
X598572Y439072D02*
D03*
X496619Y419834D02*
D03*
X525867Y382370D02*
D03*
X413740Y442091D02*
D03*
X418215Y438481D02*
D03*
X421992Y434255D02*
D03*
X417950Y429676D02*
D03*
X413854Y434255D02*
D03*
X417929Y421003D02*
D03*
X422110Y425117D02*
D03*
X413854Y425109D02*
D03*
X421992Y416819D02*
D03*
X413589D02*
D03*
X542497Y314736D02*
D03*
X392563Y411347D02*
D03*
X397574Y432185D02*
D03*
Y424185D02*
D03*
X392723Y428185D02*
D03*
Y420185D02*
D03*
Y444185D02*
D03*
X387135Y424268D02*
D03*
Y416268D02*
D03*
Y432268D02*
D03*
X397574Y416185D02*
D03*
X387135Y440268D02*
D03*
X392723Y436185D02*
D03*
X397574Y440185D02*
D03*
X367854Y424185D02*
D03*
Y432185D02*
D03*
Y416185D02*
D03*
X363003Y444185D02*
D03*
Y436185D02*
D03*
Y420185D02*
D03*
Y428185D02*
D03*
X362843Y411347D02*
D03*
X382284Y444268D02*
D03*
Y436268D02*
D03*
X377501Y440347D02*
D03*
X372490Y411509D02*
D03*
X382284Y428268D02*
D03*
Y420268D02*
D03*
X382124Y411430D02*
D03*
X377501Y424347D02*
D03*
X372650Y428347D02*
D03*
Y420347D02*
D03*
X377501Y416347D02*
D03*
Y432347D02*
D03*
X372650Y436347D02*
D03*
X367854Y440185D02*
D03*
X372650Y444347D02*
D03*
X666169Y285190D02*
D03*
X671020Y281190D02*
D03*
X666169Y277190D02*
D03*
X671020Y273190D02*
D03*
Y289190D02*
D03*
X666169Y293190D02*
D03*
X671020Y297190D02*
D03*
X666169Y301190D02*
D03*
X656535Y285269D02*
D03*
X661386Y281269D02*
D03*
X656535Y277269D02*
D03*
X661386Y273269D02*
D03*
Y289269D02*
D03*
X656535Y293269D02*
D03*
X661386Y297269D02*
D03*
X656535Y301269D02*
D03*
X646888Y285107D02*
D03*
X651740Y281107D02*
D03*
X646888Y277107D02*
D03*
X651740Y273107D02*
D03*
Y289107D02*
D03*
X646888Y293107D02*
D03*
X651740Y297107D02*
D03*
X646888Y301107D02*
D03*
X666169Y356497D02*
D03*
X671020Y352497D02*
D03*
X666169Y348497D02*
D03*
X671020Y344497D02*
D03*
Y360497D02*
D03*
X666169Y364497D02*
D03*
X671020Y368497D02*
D03*
X666169Y372497D02*
D03*
X656535Y356576D02*
D03*
X661386Y352576D02*
D03*
X656535Y348576D02*
D03*
X661386Y344576D02*
D03*
Y360576D02*
D03*
X656535Y364576D02*
D03*
X661386Y368576D02*
D03*
X656535Y372576D02*
D03*
X646888Y356414D02*
D03*
X651740Y352414D02*
D03*
X646888Y348414D02*
D03*
X651740Y344414D02*
D03*
Y360414D02*
D03*
X646888Y364414D02*
D03*
X651740Y368414D02*
D03*
X646888Y372414D02*
D03*
Y442314D02*
D03*
X651740Y438314D02*
D03*
X646888Y434314D02*
D03*
X651740Y430314D02*
D03*
Y414314D02*
D03*
X646888Y418314D02*
D03*
X651740Y422314D02*
D03*
X646888Y426314D02*
D03*
X656535Y442476D02*
D03*
X661386Y438476D02*
D03*
X656535Y434476D02*
D03*
X661386Y430476D02*
D03*
Y414476D02*
D03*
X656535Y418476D02*
D03*
X661386Y422476D02*
D03*
X656535Y426476D02*
D03*
X666169Y442397D02*
D03*
X671020Y438397D02*
D03*
X666169Y434397D02*
D03*
X671020Y430397D02*
D03*
Y414397D02*
D03*
X666169Y418397D02*
D03*
X671020Y422397D02*
D03*
X666169Y426397D02*
D03*
X468751Y359021D02*
D03*
X693411Y268603D02*
D03*
Y339276D02*
D03*
Y409550D02*
D03*
X527704Y285446D02*
D03*
X557543Y270815D02*
D03*
X470588Y442058D02*
D03*
X475063Y438448D02*
D03*
X478840Y434222D02*
D03*
X474798Y429643D02*
D03*
X470702Y434222D02*
D03*
X474778Y420970D02*
D03*
X478959Y425084D02*
D03*
X470702Y425076D02*
D03*
X478840Y416786D02*
D03*
X470437D02*
D03*
X526255Y370821D02*
D03*
X555501Y285837D02*
D03*
X544873Y281566D02*
D03*
X519861Y369453D02*
D03*
X543036Y304204D02*
D03*
X560578Y358883D02*
D03*
X573855Y367940D02*
D03*
X573855Y436043D02*
D03*
X767382Y426973D02*
D03*
X772234Y422973D02*
D03*
X767382Y418973D02*
D03*
X772234Y414973D02*
D03*
Y430973D02*
D03*
X767382Y434973D02*
D03*
X772234Y438973D02*
D03*
X767382Y442973D02*
D03*
X757749Y427052D02*
D03*
X762600Y423052D02*
D03*
X757749Y419052D02*
D03*
X762600Y415052D02*
D03*
Y431052D02*
D03*
X757749Y435052D02*
D03*
X762600Y439052D02*
D03*
X757749Y443052D02*
D03*
X748102Y426890D02*
D03*
X752953Y422890D02*
D03*
X748102Y418890D02*
D03*
X752953Y414890D02*
D03*
Y430890D02*
D03*
X748102Y434890D02*
D03*
X752953Y438890D02*
D03*
X748102Y442890D02*
D03*
X768672Y356787D02*
D03*
X773524Y352787D02*
D03*
X768672Y348787D02*
D03*
X773524Y344787D02*
D03*
Y360787D02*
D03*
X768672Y364787D02*
D03*
X773524Y368787D02*
D03*
X768672Y372787D02*
D03*
X759039Y356866D02*
D03*
X763890Y352866D02*
D03*
X759039Y348866D02*
D03*
X763890Y344866D02*
D03*
Y360866D02*
D03*
X759039Y364866D02*
D03*
X763890Y368866D02*
D03*
X759039Y372866D02*
D03*
X749392Y356704D02*
D03*
X754243Y352704D02*
D03*
X749392Y348704D02*
D03*
X754243Y344704D02*
D03*
Y360704D02*
D03*
X749392Y364704D02*
D03*
X754243Y368704D02*
D03*
X749392Y372704D02*
D03*
X768672Y286114D02*
D03*
X773524Y282114D02*
D03*
X768672Y278114D02*
D03*
X773524Y274114D02*
D03*
Y290114D02*
D03*
X768672Y294114D02*
D03*
X773524Y298114D02*
D03*
X768672Y302114D02*
D03*
X759039Y286193D02*
D03*
X763890Y282193D02*
D03*
X759039Y278193D02*
D03*
X763890Y274193D02*
D03*
Y290193D02*
D03*
X759039Y294193D02*
D03*
X763890Y298193D02*
D03*
X759039Y302193D02*
D03*
X749392Y286031D02*
D03*
X754243Y282031D02*
D03*
X749392Y278031D02*
D03*
X754243Y274031D02*
D03*
Y290031D02*
D03*
X749392Y294031D02*
D03*
X754243Y298031D02*
D03*
X749392Y302031D02*
D03*
X532614Y370846D02*
D03*
X540971Y370821D02*
D03*
X551221D02*
D03*
D48*
X804396Y269760D02*
D03*
Y277380D02*
D03*
Y285000D02*
D03*
Y292620D02*
D03*
Y300240D02*
D03*
X812016Y269760D02*
D03*
Y277380D02*
D03*
Y285000D02*
D03*
Y292620D02*
D03*
Y300240D02*
D03*
X819636Y269760D02*
D03*
Y277380D02*
D03*
Y285000D02*
D03*
Y292620D02*
D03*
Y300240D02*
D03*
X827256Y269760D02*
D03*
Y277380D02*
D03*
Y285000D02*
D03*
Y292620D02*
D03*
Y300240D02*
D03*
X834876Y269760D02*
D03*
Y277380D02*
D03*
Y285000D02*
D03*
Y292620D02*
D03*
Y300240D02*
D03*
X804396Y343086D02*
D03*
Y350706D02*
D03*
Y358326D02*
D03*
Y365946D02*
D03*
Y373566D02*
D03*
X812016Y343086D02*
D03*
Y350706D02*
D03*
Y358326D02*
D03*
Y365946D02*
D03*
Y373566D02*
D03*
X819636Y343086D02*
D03*
Y350706D02*
D03*
Y358326D02*
D03*
Y365946D02*
D03*
Y373566D02*
D03*
X827256Y343086D02*
D03*
Y350706D02*
D03*
Y358326D02*
D03*
Y365946D02*
D03*
Y373566D02*
D03*
X834876Y343086D02*
D03*
Y350706D02*
D03*
Y358326D02*
D03*
Y365946D02*
D03*
Y373566D02*
D03*
X804396Y416347D02*
D03*
Y423967D02*
D03*
Y431587D02*
D03*
Y439207D02*
D03*
Y446827D02*
D03*
X812016Y416347D02*
D03*
Y423967D02*
D03*
Y431587D02*
D03*
Y439207D02*
D03*
Y446827D02*
D03*
X819636Y416347D02*
D03*
Y423967D02*
D03*
Y431587D02*
D03*
Y439207D02*
D03*
Y446827D02*
D03*
X827256Y416347D02*
D03*
Y423967D02*
D03*
Y431587D02*
D03*
Y439207D02*
D03*
Y446827D02*
D03*
X834876Y416347D02*
D03*
Y423967D02*
D03*
Y431587D02*
D03*
Y439207D02*
D03*
Y446827D02*
D03*
D49*
X500053Y366102D02*
X500607Y365549D01*
X480736Y366102D02*
X500053D01*
X490119Y418872D02*
Y443669D01*
X487717Y380425D02*
Y393404D01*
X480354Y409107D02*
X490119Y418872D01*
X477314Y403807D02*
X487717Y393404D01*
X480218Y366620D02*
Y366656D01*
Y366620D02*
X480736Y366102D01*
X480218Y372925D02*
X487717Y380425D01*
X480218Y366656D02*
Y372925D01*
X474965Y406471D02*
X477665D01*
X477314Y403807D02*
Y406507D01*
X473665Y405171D02*
X474965Y406471D01*
X473665Y403315D02*
Y405171D01*
X462669Y392319D02*
X473665Y403315D01*
X462669Y392319D02*
X462963Y392613D01*
X460440Y392319D02*
X462669D01*
X461218Y349915D02*
X468751Y357449D01*
X461218Y343646D02*
Y349915D01*
X468751Y357449D02*
Y359021D01*
D51*
X433375Y401819D02*
D03*
X460440Y392319D02*
D03*
X433375Y411319D02*
D03*
Y392319D02*
D03*
X460440Y411319D02*
D03*
D52*
X470718Y343646D02*
D03*
X480218Y366656D02*
D03*
X461218D02*
D03*
Y343646D02*
D03*
D53*
X431739Y299133D02*
D03*
X468813Y282933D02*
D03*
X486702D02*
D03*
X477813D02*
D03*
X456579Y318231D02*
D03*
X514480Y279337D02*
D03*
X540373Y271186D02*
D03*
X422739Y299133D02*
D03*
X495702Y282933D02*
D03*
X465579Y318231D02*
D03*
X549373Y271186D02*
D03*
X523480Y279337D02*
D03*
D54*
X379229Y335940D02*
D03*
Y380940D02*
D03*
D55*
X480218Y343646D02*
D03*
M02*
