G04*
G04 #@! TF.GenerationSoftware,Altium Limited,Altium Designer,26.9.1 (10)*
G04*
G04 Layer_Color=13421772*
G04 Board_Origin=74640005|44270005*
%FSLAX44Y44*%
%MOMM*%
G71*
G04*
G04 #@! TF.SameCoordinates,427E28D3-E2DD-46D8-A39D-FC7D8936D1B0*
G04*
G04*
G04 #@! TF.FilePolarity,Positive*
G04*
G01*
G75*
%ADD10C,0.2500*%
%ADD12C,0.2000*%
%ADD13C,0.1500*%
%ADD58C,0.1524*%
%ADD59R,3.9400X0.2300*%
G36*
X589742Y343378D02*
X589864D01*
Y343256D01*
X589986D01*
Y343134D01*
X590107D01*
Y342891D01*
X590229D01*
Y342769D01*
X590350D01*
Y342648D01*
X590472D01*
Y342404D01*
X590594D01*
Y342283D01*
X590716D01*
Y342161D01*
X590837D01*
Y341917D01*
X590959D01*
Y341796D01*
X591081D01*
Y341674D01*
X591202D01*
Y341431D01*
X591324D01*
Y341309D01*
X591446D01*
Y341187D01*
X591567D01*
Y340944D01*
X591689D01*
Y340822D01*
X591811D01*
Y340701D01*
X591932D01*
Y340457D01*
X592054D01*
Y340336D01*
X592176D01*
Y340214D01*
X592298D01*
Y339970D01*
X592419D01*
Y339849D01*
X592541D01*
Y339727D01*
X592663D01*
Y339605D01*
X592784D01*
Y339362D01*
X592906D01*
Y339240D01*
X593028D01*
Y339119D01*
X593149D01*
Y338875D01*
X593271D01*
Y338754D01*
X593393D01*
Y338632D01*
X593515D01*
Y338388D01*
X593636D01*
Y338267D01*
X593758D01*
Y338145D01*
X593880D01*
Y337902D01*
X594001D01*
Y337780D01*
X594123D01*
Y337658D01*
X594245D01*
Y337415D01*
X594366D01*
Y337293D01*
X594488D01*
Y337172D01*
X594610D01*
Y336928D01*
X594731D01*
Y336806D01*
X594853D01*
Y336685D01*
X594975D01*
Y336563D01*
X595097D01*
Y336320D01*
X595218D01*
Y336198D01*
X595340D01*
Y336076D01*
X595462D01*
Y335833D01*
X595583D01*
Y335711D01*
X595705D01*
Y335589D01*
X595827D01*
Y335346D01*
X595948D01*
Y335224D01*
X596070D01*
Y335103D01*
X596192D01*
Y334859D01*
X596313D01*
Y334738D01*
X596435D01*
Y334616D01*
X596557D01*
Y334373D01*
X596679D01*
Y334251D01*
X596800D01*
Y334129D01*
X596922D01*
Y333886D01*
X597044D01*
Y333764D01*
X597165D01*
Y333643D01*
X597287D01*
Y333399D01*
X597409D01*
Y333277D01*
X597530D01*
Y333156D01*
X597652D01*
Y333034D01*
X597774D01*
Y332791D01*
X597895D01*
Y332669D01*
X598017D01*
Y332547D01*
X598139D01*
Y332304D01*
X598260D01*
Y332182D01*
X598382D01*
Y332061D01*
X598504D01*
Y331817D01*
X598626D01*
Y331695D01*
X598747D01*
Y331574D01*
X598869D01*
Y331330D01*
X598991D01*
Y331209D01*
X598869D01*
Y331330D01*
X598139D01*
Y331452D01*
X597409D01*
Y331574D01*
X596679D01*
Y331695D01*
X595948D01*
Y331817D01*
X595705D01*
Y332061D01*
X595583D01*
Y332304D01*
X595462D01*
Y332425D01*
X595340D01*
Y332669D01*
X595218D01*
Y332912D01*
X595097D01*
Y333156D01*
X594975D01*
Y333399D01*
X594853D01*
Y333643D01*
X594731D01*
Y333764D01*
X594610D01*
Y334007D01*
X594488D01*
Y334251D01*
X594366D01*
Y334494D01*
X594245D01*
Y334738D01*
X594123D01*
Y334859D01*
X594001D01*
Y335103D01*
X593880D01*
Y335346D01*
X593758D01*
Y335589D01*
X593636D01*
Y335833D01*
X593515D01*
Y336076D01*
X593393D01*
Y336198D01*
X593271D01*
Y336441D01*
X593149D01*
Y336685D01*
X593028D01*
Y336928D01*
X592906D01*
Y337172D01*
X592784D01*
Y337415D01*
X592663D01*
Y337537D01*
X592541D01*
Y337780D01*
X592419D01*
Y338023D01*
X592298D01*
Y338267D01*
X592176D01*
Y338510D01*
X592054D01*
Y338632D01*
X591932D01*
Y338875D01*
X591811D01*
Y339119D01*
X591689D01*
Y339362D01*
X591567D01*
Y339605D01*
X591446D01*
Y339849D01*
X591324D01*
Y339970D01*
X591202D01*
Y340214D01*
X591081D01*
Y340457D01*
X590959D01*
Y340701D01*
X590837D01*
Y340944D01*
X590716D01*
Y341187D01*
X590594D01*
Y341309D01*
X590472D01*
Y341187D01*
X590594D01*
Y340944D01*
X590716D01*
Y340579D01*
X590837D01*
Y340336D01*
X590959D01*
Y339970D01*
X591081D01*
Y339727D01*
X591202D01*
Y339362D01*
X591324D01*
Y339119D01*
X591446D01*
Y338754D01*
X591567D01*
Y338388D01*
X591689D01*
Y338145D01*
X591811D01*
Y337780D01*
X591932D01*
Y337537D01*
X592054D01*
Y337172D01*
X592176D01*
Y336928D01*
X592298D01*
Y336563D01*
X592419D01*
Y336320D01*
X592541D01*
Y335955D01*
X592663D01*
Y335711D01*
X592784D01*
Y335346D01*
X592906D01*
Y335103D01*
X593028D01*
Y334738D01*
X593149D01*
Y334494D01*
X593271D01*
Y334129D01*
X593393D01*
Y333886D01*
X593515D01*
Y333521D01*
X593636D01*
Y333277D01*
X593758D01*
Y332912D01*
X593880D01*
Y332669D01*
X594001D01*
Y332304D01*
X594123D01*
Y332061D01*
X594245D01*
Y331939D01*
X593515D01*
Y332061D01*
X592784D01*
Y332182D01*
X592419D01*
Y332061D01*
X592663D01*
Y331939D01*
X592906D01*
Y331817D01*
X593149D01*
Y331695D01*
X593393D01*
Y331574D01*
X593636D01*
Y331452D01*
X593880D01*
Y331330D01*
X594001D01*
Y331087D01*
X593880D01*
Y330844D01*
X593758D01*
Y330600D01*
X593636D01*
Y330357D01*
X593515D01*
Y330113D01*
X593393D01*
Y329870D01*
X593271D01*
Y329627D01*
X593149D01*
Y329383D01*
X593028D01*
Y329140D01*
X592906D01*
Y328896D01*
X592784D01*
Y328653D01*
X592663D01*
Y328896D01*
X592541D01*
Y329262D01*
X592419D01*
Y329627D01*
X592298D01*
Y329992D01*
X592176D01*
Y330479D01*
X592054D01*
Y330844D01*
X591932D01*
Y331209D01*
X591811D01*
Y331574D01*
X591689D01*
Y331939D01*
X591567D01*
Y332304D01*
X591324D01*
Y332425D01*
X590594D01*
Y332547D01*
X589742D01*
Y332669D01*
X589012D01*
Y332791D01*
X588404D01*
Y332912D01*
X588282D01*
Y333034D01*
X588404D01*
Y334007D01*
X588525D01*
Y334981D01*
X588647D01*
Y335955D01*
X588769D01*
Y336928D01*
X588890D01*
Y337902D01*
X589012D01*
Y338875D01*
X589134D01*
Y339849D01*
X589255D01*
Y340944D01*
X589377D01*
Y341917D01*
X589499D01*
Y342891D01*
X589620D01*
Y343499D01*
X589742D01*
Y343378D01*
D02*
G37*
G36*
X617123Y327436D02*
X616514D01*
Y328288D01*
Y328410D01*
Y329262D01*
X614689D01*
Y327436D01*
X614080D01*
Y331574D01*
X614689D01*
Y329870D01*
X616514D01*
Y331574D01*
X617123D01*
Y327436D01*
D02*
G37*
G36*
X622234Y331574D02*
X622599D01*
Y331452D01*
X622842D01*
Y331330D01*
X623086D01*
Y331209D01*
X623207D01*
Y331087D01*
X623329D01*
Y330965D01*
X623451D01*
Y330844D01*
X623572D01*
Y330722D01*
X623694D01*
Y330479D01*
X623816D01*
Y329992D01*
X623937D01*
Y329018D01*
X623816D01*
Y328653D01*
X623694D01*
Y328410D01*
X623572D01*
Y328166D01*
X623451D01*
Y328045D01*
X623329D01*
Y327923D01*
X623207D01*
Y327801D01*
X623086D01*
Y327680D01*
X622842D01*
Y327558D01*
X622599D01*
Y327436D01*
X621260D01*
Y327558D01*
X620895D01*
Y327680D01*
X620773D01*
Y327801D01*
X620530D01*
Y327923D01*
X620408D01*
Y328045D01*
X620287D01*
Y328166D01*
X620165D01*
Y328410D01*
X620043D01*
Y328653D01*
X619922D01*
Y329018D01*
X619800D01*
Y329383D01*
X622112D01*
Y328896D01*
X621990D01*
Y328775D01*
X620530D01*
Y328653D01*
X620652D01*
Y328531D01*
X620773D01*
Y328410D01*
X620895D01*
Y328288D01*
X621017D01*
Y328166D01*
X621138D01*
Y328045D01*
X621504D01*
Y327923D01*
X622112D01*
Y328045D01*
X622477D01*
Y328166D01*
X622720D01*
Y328288D01*
X622842D01*
Y328410D01*
X622964D01*
Y328531D01*
X623086D01*
Y328775D01*
X623207D01*
Y329018D01*
X623329D01*
Y329992D01*
X623207D01*
Y330357D01*
X623086D01*
Y330479D01*
X622964D01*
Y330600D01*
X622842D01*
Y330722D01*
X622720D01*
Y330844D01*
X622599D01*
Y330965D01*
X622234D01*
Y331087D01*
X621504D01*
Y330965D01*
X621138D01*
Y330844D01*
X620895D01*
Y330722D01*
X620773D01*
Y330600D01*
X620652D01*
Y330357D01*
X620530D01*
Y330113D01*
X619922D01*
Y330600D01*
X620043D01*
Y330722D01*
X620165D01*
Y330965D01*
X620287D01*
Y331087D01*
X620408D01*
Y331209D01*
X620530D01*
Y331330D01*
X620773D01*
Y331452D01*
X621017D01*
Y331574D01*
X621504D01*
Y331695D01*
X622234D01*
Y331574D01*
D02*
G37*
G36*
X628318D02*
X628440D01*
Y331209D01*
X628562D01*
Y330965D01*
X628683D01*
Y330600D01*
X628805D01*
Y330357D01*
X628927D01*
Y329992D01*
X629049D01*
Y329627D01*
X629170D01*
Y329383D01*
X629292D01*
Y329018D01*
X629413D01*
Y328775D01*
X629535D01*
Y328410D01*
X629657D01*
Y328288D01*
Y328166D01*
X629779D01*
Y327801D01*
X629900D01*
Y327558D01*
X630022D01*
Y327436D01*
X629292D01*
Y327801D01*
X629170D01*
Y328045D01*
X629049D01*
Y328410D01*
X628927D01*
Y328653D01*
X627345D01*
Y328531D01*
X627223D01*
Y328288D01*
X627101D01*
Y327923D01*
X626980D01*
Y327680D01*
X626858D01*
Y327436D01*
X626250D01*
Y327680D01*
X626371D01*
Y328045D01*
X626493D01*
Y328288D01*
X626615D01*
Y328653D01*
X626736D01*
Y329018D01*
X626858D01*
Y329262D01*
X626980D01*
Y329627D01*
X627101D01*
Y329870D01*
X627223D01*
Y330235D01*
X627345D01*
Y330479D01*
X627467D01*
Y330844D01*
X627588D01*
Y331087D01*
X627710D01*
Y331452D01*
X627832D01*
Y331695D01*
X628318D01*
Y331574D01*
D02*
G37*
G36*
X612133Y325611D02*
X612742D01*
Y325489D01*
X613107D01*
Y325367D01*
X613472D01*
Y325246D01*
X613715D01*
Y325124D01*
X614080D01*
Y325002D01*
X614324D01*
Y324881D01*
X614445D01*
Y324759D01*
X614689D01*
Y324637D01*
X614932D01*
Y324516D01*
X615054D01*
Y324394D01*
X615176D01*
Y324272D01*
X615419D01*
Y324151D01*
X615541D01*
Y324029D01*
X615662D01*
Y323907D01*
X615784D01*
Y323785D01*
X615906D01*
Y323664D01*
X616027D01*
Y323542D01*
X616149D01*
Y323420D01*
X616271D01*
Y323299D01*
X616393D01*
Y323177D01*
X616514D01*
Y322934D01*
X616636D01*
Y322812D01*
X616758D01*
Y322569D01*
X616879D01*
Y322447D01*
X617001D01*
Y322203D01*
X617123D01*
Y321960D01*
X617244D01*
Y321838D01*
X617366D01*
Y321473D01*
X617488D01*
Y321230D01*
X617609D01*
Y320865D01*
X617731D01*
Y320500D01*
X617853D01*
Y320013D01*
X617975D01*
Y319039D01*
X618096D01*
Y318796D01*
X617001D01*
Y318918D01*
X616027D01*
Y319405D01*
X615906D01*
Y320013D01*
X615784D01*
Y320378D01*
X615662D01*
Y320621D01*
X615541D01*
Y320865D01*
X615419D01*
Y321108D01*
X615297D01*
Y321352D01*
X615176D01*
Y321473D01*
X615054D01*
Y321717D01*
X614932D01*
Y321838D01*
X614811D01*
Y321960D01*
X614689D01*
Y322082D01*
X614567D01*
Y322203D01*
X614445D01*
Y322325D01*
X614324D01*
Y322447D01*
X614202D01*
Y322569D01*
X614080D01*
Y322690D01*
X613959D01*
Y322812D01*
X613715D01*
Y322934D01*
X613594D01*
Y323055D01*
X613350D01*
Y323177D01*
X613107D01*
Y323299D01*
X612864D01*
Y323420D01*
X612498D01*
Y323542D01*
X612133D01*
Y323664D01*
X611525D01*
Y323785D01*
X610430D01*
Y323664D01*
X609700D01*
Y323542D01*
X609334D01*
Y323420D01*
X608969D01*
Y323299D01*
X608726D01*
Y323177D01*
X608483D01*
Y323055D01*
X608239D01*
Y322934D01*
X608117D01*
Y322812D01*
X607874D01*
Y322690D01*
X607752D01*
Y322569D01*
X607631D01*
Y322447D01*
X607509D01*
Y322325D01*
X607387D01*
Y322203D01*
X607266D01*
Y322082D01*
X607144D01*
Y321960D01*
X607022D01*
Y321838D01*
X606901D01*
Y321960D01*
X606657D01*
Y322082D01*
X606414D01*
Y322203D01*
X606292D01*
Y322325D01*
X606049D01*
Y322447D01*
X605805D01*
Y322569D01*
X605562D01*
Y322690D01*
X605440D01*
Y322812D01*
X605197D01*
Y322934D01*
X605319D01*
Y323055D01*
X605440D01*
Y323177D01*
X605562D01*
Y323420D01*
X605684D01*
Y323542D01*
X605805D01*
Y323664D01*
X605927D01*
Y323785D01*
X606049D01*
Y323907D01*
X606170D01*
Y324029D01*
X606414D01*
Y324151D01*
X606535D01*
Y324272D01*
X606657D01*
Y324394D01*
X606779D01*
Y324516D01*
X607022D01*
Y324637D01*
X607144D01*
Y324759D01*
X607387D01*
Y324881D01*
X607631D01*
Y325002D01*
X607874D01*
Y325124D01*
X608117D01*
Y325246D01*
X608361D01*
Y325367D01*
X608726D01*
Y325489D01*
X609213D01*
Y325611D01*
X609700D01*
Y325732D01*
X612133D01*
Y325611D01*
D02*
G37*
G36*
X599721Y322082D02*
X599842D01*
Y321960D01*
X599964D01*
Y321838D01*
X600086D01*
Y321717D01*
X600208D01*
Y321595D01*
X600329D01*
Y321473D01*
X600451D01*
Y321352D01*
X600573D01*
Y321230D01*
X600694D01*
Y321108D01*
X600816D01*
Y320987D01*
X600938D01*
Y320865D01*
X601059D01*
Y320743D01*
X601303D01*
Y320621D01*
X601424D01*
Y320500D01*
X601546D01*
Y311616D01*
X593028D01*
Y313563D01*
X599599D01*
Y313685D01*
Y322203D01*
X599721D01*
Y322082D01*
D02*
G37*
G36*
X586578Y325489D02*
X586700D01*
Y325124D01*
X586822D01*
Y324881D01*
X586943D01*
Y324516D01*
X587065D01*
Y324272D01*
X587187D01*
Y323907D01*
X587308D01*
Y323664D01*
X587430D01*
Y323299D01*
X587552D01*
Y322934D01*
X587673D01*
Y322690D01*
X587795D01*
Y322325D01*
X587917D01*
Y322082D01*
X588038D01*
Y321717D01*
X588160D01*
Y321473D01*
X588282D01*
Y321108D01*
X588404D01*
Y320865D01*
X588525D01*
Y320500D01*
X588647D01*
Y320256D01*
X588769D01*
Y319891D01*
X588890D01*
Y319648D01*
X589012D01*
Y319283D01*
X589134D01*
Y319039D01*
X589255D01*
Y318674D01*
X589377D01*
Y318431D01*
X589499D01*
Y318066D01*
X589620D01*
Y317823D01*
X589742D01*
Y317458D01*
X589864D01*
Y317092D01*
X589986D01*
Y316849D01*
X590107D01*
Y316484D01*
X590229D01*
Y316241D01*
X590350D01*
Y315875D01*
X590472D01*
Y315632D01*
X590594D01*
Y315267D01*
X590716D01*
Y315024D01*
X590837D01*
Y314659D01*
X590959D01*
Y314415D01*
X591081D01*
Y314050D01*
X591202D01*
Y313807D01*
X591324D01*
Y313442D01*
X591446D01*
Y313198D01*
X591567D01*
Y312833D01*
X591689D01*
Y312590D01*
X591811D01*
Y312225D01*
X591932D01*
Y311981D01*
X592054D01*
Y311616D01*
X589986D01*
Y311738D01*
X589864D01*
Y311981D01*
X589742D01*
Y312346D01*
X589620D01*
Y312590D01*
X589499D01*
Y312955D01*
X589377D01*
Y313198D01*
X589255D01*
Y313563D01*
X589134D01*
Y313807D01*
X589012D01*
Y314172D01*
X588890D01*
Y314415D01*
X588769D01*
Y314659D01*
X588647D01*
Y315024D01*
X588525D01*
Y315267D01*
X588404D01*
Y315632D01*
X588282D01*
Y315754D01*
X583292D01*
Y315632D01*
X583171D01*
Y315389D01*
X583049D01*
Y315145D01*
X582927D01*
Y314780D01*
X582806D01*
Y314537D01*
X582684D01*
Y314172D01*
X582562D01*
Y313928D01*
X582441D01*
Y313563D01*
X582319D01*
Y313320D01*
X582197D01*
Y312955D01*
X582076D01*
Y312712D01*
X581954D01*
Y312346D01*
X581832D01*
Y312103D01*
X581710D01*
Y311860D01*
X581589D01*
Y311616D01*
X579398D01*
Y311738D01*
X579520D01*
Y311981D01*
X579642D01*
Y312346D01*
X579763D01*
Y312590D01*
X579885D01*
Y312955D01*
X580007D01*
Y313198D01*
X580129D01*
Y313563D01*
X580250D01*
Y313807D01*
X580372D01*
Y314172D01*
X580494D01*
Y314415D01*
X580615D01*
Y314780D01*
X580737D01*
Y315024D01*
X580859D01*
Y315389D01*
X580980D01*
Y315632D01*
X581102D01*
Y315997D01*
X581224D01*
Y316241D01*
X581345D01*
Y316606D01*
X581467D01*
Y316971D01*
X581589D01*
Y317214D01*
X581710D01*
Y317579D01*
X581832D01*
Y317823D01*
X581954D01*
Y318188D01*
X582076D01*
Y318431D01*
X582197D01*
Y318796D01*
X582319D01*
Y319039D01*
X582441D01*
Y319405D01*
X582562D01*
Y319648D01*
X582684D01*
Y320013D01*
X582806D01*
Y320256D01*
X582927D01*
Y320621D01*
X583049D01*
Y320865D01*
X583171D01*
Y321230D01*
X583292D01*
Y321473D01*
X583414D01*
Y321838D01*
X583536D01*
Y322082D01*
X583657D01*
Y322447D01*
X583779D01*
Y322812D01*
X583901D01*
Y323055D01*
X584023D01*
Y323420D01*
X584144D01*
Y323664D01*
X584266D01*
Y324029D01*
X584388D01*
Y324272D01*
X584509D01*
Y324637D01*
X584631D01*
Y324881D01*
X584753D01*
Y325246D01*
X584874D01*
Y325489D01*
X584996D01*
Y325732D01*
X586578D01*
Y325489D01*
D02*
G37*
G36*
X578181Y311616D02*
X576234D01*
Y323542D01*
X572340D01*
Y323420D01*
X571975D01*
Y323299D01*
X571732D01*
Y323177D01*
X571488D01*
Y323055D01*
X571367D01*
Y322934D01*
X571245D01*
Y322812D01*
X571123D01*
Y322690D01*
X571002D01*
Y322569D01*
X570880D01*
Y322325D01*
X570758D01*
Y322082D01*
X570636D01*
Y321595D01*
X570515D01*
Y320621D01*
X570636D01*
Y320256D01*
X570758D01*
Y319891D01*
X570880D01*
Y319770D01*
X571002D01*
Y319526D01*
X571123D01*
Y319405D01*
X571245D01*
Y319283D01*
X571367D01*
Y319161D01*
X571610D01*
Y319039D01*
X571853D01*
Y318918D01*
X572097D01*
Y318796D01*
X572584D01*
Y318674D01*
X575382D01*
Y317579D01*
X575261D01*
Y317458D01*
X575139D01*
Y317336D01*
X575017D01*
Y317214D01*
X574896D01*
Y316971D01*
X574774D01*
Y316849D01*
X574652D01*
Y316727D01*
X574531D01*
Y316606D01*
X574409D01*
Y316484D01*
X574287D01*
Y316241D01*
X574166D01*
Y316119D01*
X574044D01*
Y315997D01*
X573922D01*
Y315875D01*
X573801D01*
Y315754D01*
X573679D01*
Y315510D01*
X573557D01*
Y315389D01*
X573435D01*
Y315267D01*
X573314D01*
Y315145D01*
X573192D01*
Y315024D01*
X573070D01*
Y314780D01*
X572949D01*
Y314659D01*
X572827D01*
Y314537D01*
X572705D01*
Y314415D01*
X572584D01*
Y314293D01*
X572462D01*
Y314050D01*
X572340D01*
Y313928D01*
X572219D01*
Y313807D01*
X572097D01*
Y313685D01*
X571975D01*
Y313563D01*
X571853D01*
Y313320D01*
X571732D01*
Y313198D01*
X571610D01*
Y313077D01*
X571488D01*
Y312955D01*
X571367D01*
Y312712D01*
X571245D01*
Y312590D01*
X571123D01*
Y312468D01*
X571002D01*
Y312346D01*
X570880D01*
Y312225D01*
X570758D01*
Y312103D01*
Y311981D01*
X570636D01*
Y311860D01*
X570515D01*
Y311738D01*
X570393D01*
Y311616D01*
X567838D01*
Y311860D01*
X567959D01*
Y311981D01*
X568081D01*
Y312103D01*
X568203D01*
Y312225D01*
X568324D01*
Y312346D01*
X568446D01*
Y312468D01*
X568568D01*
Y312712D01*
X568689D01*
Y312833D01*
X568811D01*
Y312955D01*
X568933D01*
Y313077D01*
X569054D01*
Y313198D01*
X569176D01*
Y313442D01*
X569298D01*
Y313563D01*
X569420D01*
Y313685D01*
X569541D01*
Y313807D01*
X569663D01*
Y313928D01*
X569785D01*
Y314172D01*
X569906D01*
Y314293D01*
X570028D01*
Y314415D01*
X570150D01*
Y314537D01*
X570271D01*
Y314659D01*
X570393D01*
Y314902D01*
X570515D01*
Y315024D01*
X570636D01*
Y315145D01*
X570758D01*
Y315267D01*
X570880D01*
Y315389D01*
X571002D01*
Y315510D01*
X571123D01*
Y315754D01*
X571245D01*
Y315875D01*
X571367D01*
Y315997D01*
X571488D01*
Y316119D01*
X571610D01*
Y316241D01*
X571732D01*
Y316484D01*
X571853D01*
Y316606D01*
X571975D01*
Y316727D01*
X572097D01*
Y316849D01*
X571975D01*
Y316971D01*
X571488D01*
Y317092D01*
X571123D01*
Y317214D01*
X570880D01*
Y317336D01*
X570636D01*
Y317458D01*
X570393D01*
Y317579D01*
X570271D01*
Y317701D01*
X570028D01*
Y317823D01*
X569906D01*
Y317944D01*
X569785D01*
Y318066D01*
X569663D01*
Y318188D01*
X569541D01*
Y318309D01*
X569420D01*
Y318553D01*
X569298D01*
Y318674D01*
X569176D01*
Y318918D01*
X569054D01*
Y319161D01*
X568933D01*
Y319405D01*
X568811D01*
Y319770D01*
X568689D01*
Y320135D01*
X568568D01*
Y322082D01*
X568689D01*
Y322569D01*
X568811D01*
Y322934D01*
X568933D01*
Y323177D01*
X569054D01*
Y323420D01*
X569176D01*
Y323664D01*
X569298D01*
Y323785D01*
X569420D01*
Y324029D01*
X569541D01*
Y324151D01*
X569663D01*
Y324272D01*
X569785D01*
Y324394D01*
X569906D01*
Y324516D01*
X570028D01*
Y324637D01*
X570150D01*
Y324759D01*
X570393D01*
Y324881D01*
X570515D01*
Y325002D01*
X570758D01*
Y325124D01*
X571002D01*
Y325246D01*
X571367D01*
Y325367D01*
X571732D01*
Y325489D01*
X572340D01*
Y325611D01*
X578181D01*
Y311616D01*
D02*
G37*
G36*
X625763Y325611D02*
X626371D01*
Y325489D01*
X626858D01*
Y325367D01*
X627223D01*
Y325246D01*
X627467D01*
Y325124D01*
X627710D01*
Y325002D01*
X627953D01*
Y324881D01*
X628075D01*
Y324759D01*
X628318D01*
Y324637D01*
X628440D01*
Y324516D01*
X628562D01*
Y324394D01*
X628683D01*
Y324272D01*
X628805D01*
Y324151D01*
X628927D01*
Y324029D01*
X629049D01*
Y323907D01*
X629170D01*
Y323785D01*
X629292D01*
Y323542D01*
X629413D01*
Y323299D01*
X629535D01*
Y323055D01*
X629657D01*
Y322812D01*
X629779D01*
Y322325D01*
X629900D01*
Y320865D01*
X629779D01*
Y320256D01*
X629657D01*
Y320013D01*
X629535D01*
Y319770D01*
X629413D01*
Y319526D01*
X629292D01*
Y319283D01*
X629170D01*
Y319161D01*
X629049D01*
Y319039D01*
X628927D01*
Y318918D01*
X628805D01*
Y318796D01*
X628683D01*
Y318674D01*
X628440D01*
Y318553D01*
X628318D01*
Y318431D01*
X628075D01*
Y318309D01*
X627832D01*
Y318188D01*
X627467D01*
Y318066D01*
X627101D01*
Y317944D01*
X626615D01*
Y317823D01*
X626006D01*
Y317701D01*
X625033D01*
Y317579D01*
X624059D01*
Y317458D01*
X623329D01*
Y317336D01*
X622964D01*
Y317214D01*
X622599D01*
Y317092D01*
X622477D01*
Y316971D01*
X622234D01*
Y316849D01*
X622112D01*
Y316727D01*
X621990D01*
Y316484D01*
X621869D01*
Y315997D01*
X621747D01*
Y315510D01*
X621869D01*
Y315024D01*
X621990D01*
Y314780D01*
X622112D01*
Y314659D01*
X622234D01*
Y314537D01*
X622355D01*
Y314415D01*
X622477D01*
Y314293D01*
X622599D01*
Y314172D01*
X622720D01*
Y314050D01*
X622964D01*
Y313928D01*
X623207D01*
Y313807D01*
X623451D01*
Y313685D01*
X623816D01*
Y313563D01*
X624424D01*
Y313442D01*
X625398D01*
Y313563D01*
X626006D01*
Y313685D01*
X626371D01*
Y313807D01*
X626736D01*
Y313928D01*
X626858D01*
Y314050D01*
X627101D01*
Y314172D01*
X627223D01*
Y314293D01*
X627345D01*
Y314415D01*
X627467D01*
Y314537D01*
X627588D01*
Y314659D01*
X627710D01*
Y314780D01*
X627832D01*
Y315145D01*
X627953D01*
Y315632D01*
X630022D01*
Y315024D01*
X629900D01*
Y314537D01*
X629779D01*
Y314172D01*
X629657D01*
Y313928D01*
X629535D01*
Y313685D01*
X629413D01*
Y313563D01*
X629292D01*
Y313320D01*
X629170D01*
Y313198D01*
X629049D01*
Y313077D01*
X628927D01*
Y312955D01*
X628805D01*
Y312833D01*
X628683D01*
Y312712D01*
X628440D01*
Y312590D01*
X628318D01*
Y312468D01*
X628197D01*
Y312346D01*
X627953D01*
Y312225D01*
X627710D01*
Y312103D01*
X627467D01*
Y311981D01*
X627223D01*
Y311860D01*
X626858D01*
Y311738D01*
X626493D01*
Y311616D01*
X625885D01*
Y311495D01*
X624059D01*
Y311616D01*
X623451D01*
Y311738D01*
X622964D01*
Y311860D01*
X622720D01*
Y311981D01*
X622355D01*
Y312103D01*
X622112D01*
Y312225D01*
X621869D01*
Y312346D01*
X621747D01*
Y312468D01*
X621504D01*
Y312590D01*
X621382D01*
Y312712D01*
X621260D01*
Y312833D01*
X621017D01*
Y312955D01*
X620895D01*
Y313077D01*
X620773D01*
Y313198D01*
X620652D01*
Y313442D01*
X620530D01*
Y313563D01*
X620408D01*
Y313685D01*
X620287D01*
Y313928D01*
X620165D01*
Y314172D01*
X620043D01*
Y314537D01*
X619922D01*
Y314902D01*
X619800D01*
Y316606D01*
X619922D01*
Y316971D01*
X620043D01*
Y317336D01*
X620165D01*
Y317579D01*
X620287D01*
Y317701D01*
X620408D01*
Y317944D01*
X620530D01*
Y318066D01*
X620652D01*
Y318188D01*
X620773D01*
Y318309D01*
X620895D01*
Y318431D01*
X621138D01*
Y318553D01*
X621260D01*
Y318674D01*
X621504D01*
Y318796D01*
X621747D01*
Y318918D01*
X621990D01*
Y319039D01*
X622234D01*
Y319161D01*
X622599D01*
Y319283D01*
X623086D01*
Y319405D01*
X623572D01*
Y319526D01*
X624302D01*
Y319648D01*
X625398D01*
Y319770D01*
X626128D01*
Y319891D01*
X626615D01*
Y320013D01*
X626980D01*
Y320135D01*
X627101D01*
Y320256D01*
X627345D01*
Y320378D01*
X627467D01*
Y320500D01*
X627588D01*
Y320621D01*
X627710D01*
Y320865D01*
X627832D01*
Y321473D01*
X627953D01*
Y321717D01*
X627832D01*
Y322325D01*
X627710D01*
Y322569D01*
X627588D01*
Y322690D01*
X627467D01*
Y322812D01*
X627345D01*
Y322934D01*
X627223D01*
Y323055D01*
X627101D01*
Y323177D01*
X626980D01*
Y323299D01*
X626736D01*
Y323420D01*
X626493D01*
Y323542D01*
X626128D01*
Y323664D01*
X625641D01*
Y323785D01*
X624302D01*
Y323664D01*
X623816D01*
Y323542D01*
X623451D01*
Y323420D01*
X623207D01*
Y323299D01*
X622964D01*
Y323177D01*
X622842D01*
Y323055D01*
X622720D01*
Y322934D01*
X622599D01*
Y322812D01*
X622477D01*
Y322690D01*
X622355D01*
Y322447D01*
X622234D01*
Y322082D01*
X622112D01*
Y321960D01*
X621382D01*
Y322082D01*
X620165D01*
Y322447D01*
X620287D01*
Y322934D01*
X620408D01*
Y323177D01*
X620530D01*
Y323420D01*
X620652D01*
Y323664D01*
X620773D01*
Y323907D01*
X620895D01*
Y324029D01*
X621017D01*
Y324151D01*
X621138D01*
Y324272D01*
X621260D01*
Y324394D01*
X621382D01*
Y324516D01*
X621504D01*
Y324637D01*
X621625D01*
Y324759D01*
X621747D01*
Y324881D01*
X621990D01*
Y325002D01*
X622234D01*
Y325124D01*
X622355D01*
Y325246D01*
X622720D01*
Y325367D01*
X622964D01*
Y325489D01*
X623451D01*
Y325611D01*
X623937D01*
Y325732D01*
X625763D01*
Y325611D01*
D02*
G37*
G36*
X595097Y331330D02*
X595218D01*
Y331087D01*
X595340D01*
Y330965D01*
X595462D01*
Y330722D01*
X595583D01*
Y330600D01*
X595705D01*
Y330357D01*
X595827D01*
Y330235D01*
X595948D01*
Y329992D01*
X596070D01*
Y329870D01*
X596192D01*
Y329748D01*
X596313D01*
Y329505D01*
X596435D01*
Y329383D01*
X596557D01*
Y329140D01*
X596679D01*
Y329018D01*
X596800D01*
Y328896D01*
X596922D01*
Y328775D01*
X597044D01*
Y328531D01*
X597165D01*
Y328410D01*
X597287D01*
Y328288D01*
X597409D01*
Y328166D01*
X597530D01*
Y328045D01*
X597652D01*
Y327923D01*
X597774D01*
Y327680D01*
X597895D01*
Y327558D01*
X598017D01*
Y327436D01*
X598139D01*
Y327314D01*
X598260D01*
Y327193D01*
X598382D01*
Y327071D01*
X598504D01*
Y326949D01*
X598626D01*
Y326828D01*
X598747D01*
Y326706D01*
X598869D01*
Y326584D01*
X598991D01*
Y326463D01*
X599112D01*
Y326341D01*
X599234D01*
Y326219D01*
X599356D01*
Y326098D01*
X599477D01*
Y325976D01*
X599599D01*
Y325854D01*
X599721D01*
Y325732D01*
X599842D01*
Y325611D01*
X599964D01*
Y325489D01*
X600208D01*
Y325367D01*
X600329D01*
Y325246D01*
X600451D01*
Y325124D01*
X600573D01*
Y325002D01*
X600694D01*
Y324881D01*
X600816D01*
Y324759D01*
X601059D01*
Y324637D01*
X601181D01*
Y324516D01*
X601303D01*
Y324394D01*
X601424D01*
Y324272D01*
X601668D01*
Y324151D01*
X601790D01*
Y324029D01*
X601911D01*
Y323907D01*
X602155D01*
Y323785D01*
X602276D01*
Y323664D01*
X602398D01*
Y323542D01*
X602641D01*
Y323420D01*
X602763D01*
Y323299D01*
X603007D01*
Y323177D01*
X603128D01*
Y323055D01*
X603372D01*
Y322934D01*
X603493D01*
Y322812D01*
X603737D01*
Y322690D01*
X603858D01*
Y322569D01*
X604102D01*
Y322447D01*
X604345D01*
Y322325D01*
X604467D01*
Y322203D01*
X604710D01*
Y322082D01*
X604953D01*
Y321960D01*
X605075D01*
Y321838D01*
X605319D01*
Y321717D01*
X605562D01*
Y321595D01*
X605805D01*
Y321473D01*
X605927D01*
Y321352D01*
X606170D01*
Y321230D01*
X606414D01*
Y321108D01*
X606657D01*
Y320987D01*
X606901D01*
Y320865D01*
X607144D01*
Y320743D01*
X607387D01*
Y320621D01*
X607752D01*
Y320500D01*
X607996D01*
Y320378D01*
X608239D01*
Y320256D01*
X608483D01*
Y320135D01*
X608848D01*
Y320013D01*
X609091D01*
Y319891D01*
X609456D01*
Y319770D01*
X609700D01*
Y319648D01*
X610065D01*
Y319526D01*
X610430D01*
Y319405D01*
X610795D01*
Y319283D01*
X611160D01*
Y319161D01*
X611525D01*
Y319039D01*
X611890D01*
Y318918D01*
X612377D01*
Y318796D01*
X612864D01*
Y318674D01*
X613350D01*
Y318553D01*
X613837D01*
Y318431D01*
X614445D01*
Y318309D01*
X615054D01*
Y318188D01*
X615784D01*
Y318066D01*
X616758D01*
Y317944D01*
X617975D01*
Y317336D01*
X617853D01*
Y316727D01*
X617731D01*
Y316362D01*
X617609D01*
Y315997D01*
X617488D01*
Y315632D01*
X617366D01*
Y315389D01*
X617244D01*
Y315145D01*
X617123D01*
Y315024D01*
X617001D01*
Y314780D01*
X616879D01*
Y314659D01*
X616758D01*
Y314415D01*
X616636D01*
Y314293D01*
X616514D01*
Y314050D01*
X616393D01*
Y313928D01*
X616271D01*
Y313807D01*
X616149D01*
Y313685D01*
X616027D01*
Y313563D01*
X615906D01*
Y313442D01*
X615784D01*
Y313320D01*
X615662D01*
Y313198D01*
X615541D01*
Y313077D01*
X615419D01*
Y312955D01*
X615297D01*
Y312833D01*
X615054D01*
Y312712D01*
X614932D01*
Y312590D01*
X614689D01*
Y312468D01*
X614567D01*
Y312346D01*
X614324D01*
Y312225D01*
X614080D01*
Y312103D01*
X613837D01*
Y311981D01*
X613594D01*
Y311860D01*
X613229D01*
Y311738D01*
X612864D01*
Y311616D01*
X612255D01*
Y311495D01*
X611282D01*
Y311373D01*
X610673D01*
Y311495D01*
X609578D01*
Y311616D01*
X609091D01*
Y311738D01*
X608604D01*
Y311860D01*
X608361D01*
Y311981D01*
X607996D01*
Y312103D01*
X607752D01*
Y312225D01*
X607509D01*
Y312346D01*
X607387D01*
Y312468D01*
X607144D01*
Y312590D01*
X606901D01*
Y312712D01*
X606779D01*
Y312833D01*
X606657D01*
Y312955D01*
X606414D01*
Y313077D01*
X606292D01*
Y313198D01*
X606170D01*
Y313320D01*
X606049D01*
Y313442D01*
X605927D01*
Y313563D01*
X605805D01*
Y313685D01*
X605684D01*
Y313807D01*
X605562D01*
Y313928D01*
X605440D01*
Y314172D01*
X605319D01*
Y314293D01*
X605197D01*
Y314415D01*
X605075D01*
Y314659D01*
X604953D01*
Y314780D01*
X604832D01*
Y315024D01*
X604710D01*
Y315267D01*
X604589D01*
Y315510D01*
X604467D01*
Y315754D01*
X604345D01*
Y316119D01*
X604223D01*
Y316362D01*
X604102D01*
Y316849D01*
X603980D01*
Y317336D01*
X603858D01*
Y319648D01*
X603737D01*
Y319770D01*
X603615D01*
Y319891D01*
X603493D01*
Y320013D01*
X603250D01*
Y320135D01*
X603128D01*
Y320256D01*
X603007D01*
Y320378D01*
X602885D01*
Y320500D01*
X602763D01*
Y320621D01*
X602520D01*
Y320743D01*
X602398D01*
Y320865D01*
X602276D01*
Y320987D01*
X602155D01*
Y321108D01*
X602033D01*
Y321230D01*
X601911D01*
Y321352D01*
X601790D01*
Y321473D01*
X601546D01*
Y321595D01*
X601424D01*
Y321717D01*
X601303D01*
Y321838D01*
X601181D01*
Y321960D01*
X601059D01*
Y322082D01*
X600938D01*
Y322203D01*
X600816D01*
Y322325D01*
X600694D01*
Y322447D01*
X600573D01*
Y322569D01*
X600451D01*
Y322690D01*
X600329D01*
Y322812D01*
X600208D01*
Y322934D01*
X600086D01*
Y323055D01*
X599964D01*
Y323299D01*
X599842D01*
Y323420D01*
X599721D01*
Y323542D01*
X599599D01*
Y323664D01*
X599477D01*
Y323785D01*
X599356D01*
Y323907D01*
X599234D01*
Y324029D01*
X599112D01*
Y324272D01*
X598991D01*
Y324394D01*
X598869D01*
Y324516D01*
X598747D01*
Y324637D01*
X598626D01*
Y324881D01*
X598504D01*
Y325002D01*
X598382D01*
Y325124D01*
X598260D01*
Y325367D01*
X598139D01*
Y325489D01*
X598017D01*
Y325611D01*
X597895D01*
Y325854D01*
X597774D01*
Y325976D01*
X597652D01*
Y326219D01*
X597530D01*
Y326341D01*
X597409D01*
Y326584D01*
X597287D01*
Y326706D01*
X597165D01*
Y326949D01*
X597044D01*
Y327193D01*
X596922D01*
Y327314D01*
X596800D01*
Y327558D01*
X596679D01*
Y327801D01*
X596557D01*
Y328045D01*
X596435D01*
Y328288D01*
X596313D01*
Y328410D01*
X596192D01*
Y328653D01*
X596070D01*
Y329018D01*
X595948D01*
Y329262D01*
X595827D01*
Y329505D01*
X595705D01*
Y329748D01*
X595583D01*
Y329992D01*
X595462D01*
Y330357D01*
X595340D01*
Y330600D01*
X595218D01*
Y330965D01*
X595097D01*
Y331330D01*
X594975D01*
Y331452D01*
Y331574D01*
X595097D01*
Y331330D01*
D02*
G37*
G36*
X575504Y305653D02*
X575017D01*
Y308331D01*
X574896D01*
Y308209D01*
X574774D01*
Y308087D01*
X574652D01*
Y307844D01*
X574531D01*
Y307722D01*
X574409D01*
Y307479D01*
X574287D01*
Y307357D01*
X574166D01*
Y307114D01*
X574044D01*
Y306992D01*
X573922D01*
Y306749D01*
X573801D01*
Y306627D01*
X573679D01*
Y306505D01*
X573557D01*
Y306262D01*
X573435D01*
Y306140D01*
X573314D01*
Y305897D01*
X573192D01*
Y305775D01*
X573070D01*
Y305653D01*
X572584D01*
Y306262D01*
Y306383D01*
Y309548D01*
X573192D01*
Y306870D01*
X573314D01*
Y307114D01*
X573435D01*
Y307235D01*
X573557D01*
Y307479D01*
X573679D01*
Y307600D01*
X573801D01*
Y307722D01*
X573922D01*
Y307966D01*
X574044D01*
Y308087D01*
X574166D01*
Y308331D01*
X574287D01*
Y308452D01*
X574409D01*
Y308696D01*
X574531D01*
Y308817D01*
X574652D01*
Y309061D01*
X574774D01*
Y309182D01*
X574896D01*
Y309304D01*
X575017D01*
Y309548D01*
X575504D01*
Y305653D01*
D02*
G37*
G36*
X590959D02*
X590350D01*
Y306992D01*
X589012D01*
Y307114D01*
X588769D01*
Y307235D01*
X588647D01*
Y307357D01*
X588525D01*
Y307479D01*
X588404D01*
Y307722D01*
X588282D01*
Y308817D01*
X588404D01*
Y309061D01*
X588525D01*
Y309182D01*
X588647D01*
Y309304D01*
X588769D01*
Y309426D01*
X589134D01*
Y309548D01*
X590959D01*
Y305653D01*
D02*
G37*
G36*
X585848D02*
X583414D01*
Y306262D01*
X585239D01*
Y309548D01*
X585848D01*
Y305653D01*
D02*
G37*
G36*
X579763Y309304D02*
X579885D01*
Y309061D01*
X580007D01*
Y308696D01*
X580129D01*
Y308452D01*
X580250D01*
Y308087D01*
X580372D01*
Y307844D01*
X580494D01*
Y307479D01*
X580615D01*
Y307235D01*
X580737D01*
Y306870D01*
X580859D01*
Y306627D01*
X580980D01*
Y306262D01*
X581102D01*
Y305897D01*
X581224D01*
Y305653D01*
X580615D01*
Y306019D01*
X580494D01*
Y306262D01*
X580372D01*
Y306627D01*
X580250D01*
Y306749D01*
X580129D01*
Y306870D01*
X578912D01*
Y306749D01*
X578790D01*
Y306627D01*
X578668D01*
Y306262D01*
X578546D01*
Y306019D01*
X578425D01*
Y305775D01*
X578303D01*
Y305653D01*
X577816D01*
Y305897D01*
X577938D01*
Y306262D01*
X578060D01*
Y306627D01*
X578181D01*
Y306870D01*
X578303D01*
Y307235D01*
X578425D01*
Y307479D01*
X578546D01*
Y307844D01*
X578668D01*
Y308087D01*
X578790D01*
Y308452D01*
X578912D01*
Y308696D01*
X579033D01*
Y309061D01*
X579155D01*
Y309182D01*
Y309304D01*
X579277D01*
Y309548D01*
X579763D01*
Y309304D01*
D02*
G37*
G36*
X570028Y305653D02*
X567716D01*
Y306262D01*
X569541D01*
Y307357D01*
X567716D01*
Y307844D01*
X569541D01*
Y308939D01*
X567716D01*
Y309548D01*
X570028D01*
Y305653D01*
D02*
G37*
G36*
X840016Y268210D02*
X800016D01*
Y303210D01*
X840016D01*
Y268210D01*
D02*
G37*
G36*
X406988Y274055D02*
X353881D01*
Y304703D01*
X406988D01*
Y274055D01*
D02*
G37*
G36*
X406745Y412747D02*
X353637D01*
Y443396D01*
X406745D01*
Y412747D01*
D02*
G37*
G36*
X839636Y340826D02*
X799636D01*
Y375826D01*
X839636D01*
Y340826D01*
D02*
G37*
G36*
X639179Y390199D02*
Y368629D01*
X564278D01*
Y390199D01*
Y408455D01*
X639179D01*
Y390199D01*
D02*
G37*
G36*
X839636Y414087D02*
X799636D01*
Y449087D01*
X839636D01*
Y414087D01*
D02*
G37*
G36*
X577862Y265622D02*
X577985Y265603D01*
X578095Y265577D01*
X578192Y265551D01*
X578270Y265525D01*
X578328Y265499D01*
X578367Y265480D01*
X578373Y265473D01*
X578380D01*
X578477Y265415D01*
X578568Y265343D01*
X578639Y265272D01*
X578704Y265208D01*
X578756Y265149D01*
X578788Y265097D01*
X578814Y265065D01*
X578820Y265052D01*
X578872Y264948D01*
X578911Y264845D01*
X578937Y264735D01*
X578956Y264638D01*
X578969Y264553D01*
X578976Y264482D01*
Y264456D01*
Y264443D01*
Y264430D01*
Y264424D01*
X578315D01*
X578309Y264521D01*
X578289Y264612D01*
X578263Y264683D01*
X578237Y264748D01*
X578212Y264799D01*
X578186Y264832D01*
X578166Y264858D01*
X578160Y264864D01*
X578095Y264923D01*
X578024Y264961D01*
X577952Y264994D01*
X577888Y265013D01*
X577829Y265026D01*
X577784Y265033D01*
X577739D01*
X577648Y265026D01*
X577570Y265007D01*
X577499Y264981D01*
X577441Y264955D01*
X577396Y264923D01*
X577363Y264897D01*
X577344Y264877D01*
X577337Y264871D01*
X577285Y264806D01*
X577247Y264735D01*
X577221Y264663D01*
X577201Y264599D01*
X577188Y264540D01*
X577182Y264495D01*
Y264463D01*
Y264450D01*
X577188Y264385D01*
X577195Y264314D01*
X577234Y264184D01*
X577292Y264061D01*
X577350Y263957D01*
X577415Y263860D01*
X577473Y263796D01*
X577493Y263763D01*
X577512Y263750D01*
X577519Y263737D01*
X577525Y263731D01*
X578918Y262306D01*
Y261710D01*
X576456D01*
Y262306D01*
X578088D01*
X577110Y263277D01*
X577000Y263394D01*
X576903Y263504D01*
X576825Y263608D01*
X576761Y263698D01*
X576709Y263776D01*
X576676Y263834D01*
X576657Y263873D01*
X576651Y263886D01*
X576605Y263996D01*
X576566Y264106D01*
X576540Y264203D01*
X576527Y264294D01*
X576515Y264372D01*
X576508Y264430D01*
Y264469D01*
Y264482D01*
X576515Y264605D01*
X576534Y264722D01*
X576553Y264825D01*
X576579Y264909D01*
X576612Y264987D01*
X576631Y265039D01*
X576651Y265072D01*
X576657Y265084D01*
X576715Y265175D01*
X576787Y265259D01*
X576858Y265324D01*
X576929Y265382D01*
X576987Y265428D01*
X577039Y265460D01*
X577072Y265480D01*
X577078Y265486D01*
X577085D01*
X577188Y265531D01*
X577298Y265570D01*
X577408Y265596D01*
X577506Y265609D01*
X577596Y265622D01*
X577661Y265629D01*
X577726D01*
X577862Y265622D01*
D02*
G37*
G36*
X571501D02*
X571624Y265603D01*
X571735Y265577D01*
X571832Y265551D01*
X571909Y265525D01*
X571968Y265499D01*
X572007Y265480D01*
X572013Y265473D01*
X572020D01*
X572117Y265415D01*
X572207Y265343D01*
X572279Y265272D01*
X572343Y265208D01*
X572395Y265149D01*
X572428Y265097D01*
X572453Y265065D01*
X572460Y265052D01*
X572512Y264948D01*
X572551Y264845D01*
X572577Y264735D01*
X572596Y264638D01*
X572609Y264553D01*
X572615Y264482D01*
Y264456D01*
Y264443D01*
Y264430D01*
Y264424D01*
X571955D01*
X571948Y264521D01*
X571929Y264612D01*
X571903Y264683D01*
X571877Y264748D01*
X571851Y264799D01*
X571825Y264832D01*
X571806Y264858D01*
X571799Y264864D01*
X571735Y264923D01*
X571663Y264961D01*
X571592Y264994D01*
X571527Y265013D01*
X571469Y265026D01*
X571424Y265033D01*
X571378D01*
X571288Y265026D01*
X571210Y265007D01*
X571139Y264981D01*
X571080Y264955D01*
X571035Y264923D01*
X571003Y264897D01*
X570983Y264877D01*
X570977Y264871D01*
X570925Y264806D01*
X570886Y264735D01*
X570860Y264663D01*
X570841Y264599D01*
X570828Y264540D01*
X570821Y264495D01*
Y264463D01*
Y264450D01*
X570828Y264385D01*
X570834Y264314D01*
X570873Y264184D01*
X570931Y264061D01*
X570990Y263957D01*
X571054Y263860D01*
X571113Y263796D01*
X571132Y263763D01*
X571152Y263750D01*
X571158Y263737D01*
X571165Y263731D01*
X572557Y262306D01*
Y261710D01*
X570096D01*
Y262306D01*
X571728D01*
X570750Y263277D01*
X570640Y263394D01*
X570543Y263504D01*
X570465Y263608D01*
X570400Y263698D01*
X570349Y263776D01*
X570316Y263834D01*
X570297Y263873D01*
X570290Y263886D01*
X570245Y263996D01*
X570206Y264106D01*
X570180Y264203D01*
X570167Y264294D01*
X570154Y264372D01*
X570148Y264430D01*
Y264469D01*
Y264482D01*
X570154Y264605D01*
X570174Y264722D01*
X570193Y264825D01*
X570219Y264909D01*
X570251Y264987D01*
X570271Y265039D01*
X570290Y265072D01*
X570297Y265084D01*
X570355Y265175D01*
X570426Y265259D01*
X570498Y265324D01*
X570569Y265382D01*
X570627Y265428D01*
X570679Y265460D01*
X570711Y265480D01*
X570718Y265486D01*
X570724D01*
X570828Y265531D01*
X570938Y265570D01*
X571048Y265596D01*
X571145Y265609D01*
X571236Y265622D01*
X571301Y265629D01*
X571365D01*
X571501Y265622D01*
D02*
G37*
G36*
X610674Y264935D02*
Y264191D01*
X609657Y264935D01*
Y262306D01*
X610668D01*
Y261710D01*
X608187D01*
Y262306D01*
X608997D01*
Y265577D01*
X609781D01*
X610674Y264935D01*
D02*
G37*
G36*
X569124Y264055D02*
X569183Y263944D01*
X569234Y263834D01*
X569280Y263731D01*
X569319Y263640D01*
X569351Y263562D01*
X569370Y263504D01*
X569383Y263465D01*
X569390Y263459D01*
Y263452D01*
X569422Y263349D01*
X569448Y263251D01*
X569461Y263161D01*
X569474Y263083D01*
X569481Y263018D01*
X569487Y262973D01*
Y262947D01*
Y262934D01*
X569481Y262798D01*
X569461Y262668D01*
X569435Y262552D01*
X569403Y262455D01*
X569377Y262370D01*
X569351Y262312D01*
X569332Y262273D01*
X569325Y262267D01*
Y262260D01*
X569260Y262157D01*
X569183Y262066D01*
X569111Y261988D01*
X569040Y261930D01*
X568975Y261878D01*
X568917Y261839D01*
X568885Y261820D01*
X568872Y261814D01*
X568755Y261762D01*
X568639Y261723D01*
X568522Y261697D01*
X568412Y261677D01*
X568321Y261665D01*
X568243Y261658D01*
X568179D01*
X568036Y261665D01*
X567907Y261684D01*
X567790Y261710D01*
X567686Y261736D01*
X567602Y261762D01*
X567544Y261788D01*
X567505Y261807D01*
X567492Y261814D01*
X567388Y261878D01*
X567291Y261950D01*
X567214Y262021D01*
X567149Y262092D01*
X567097Y262150D01*
X567065Y262202D01*
X567039Y262234D01*
X567032Y262248D01*
X566981Y262358D01*
X566942Y262474D01*
X566909Y262584D01*
X566890Y262688D01*
X566877Y262779D01*
X566870Y262850D01*
Y262876D01*
Y262895D01*
Y262908D01*
Y262915D01*
X566877Y263044D01*
X566890Y263167D01*
X566916Y263271D01*
X566935Y263361D01*
X566961Y263433D01*
X566987Y263491D01*
X567000Y263524D01*
X567006Y263536D01*
X567058Y263634D01*
X567117Y263711D01*
X567181Y263783D01*
X567239Y263841D01*
X567291Y263886D01*
X567337Y263918D01*
X567363Y263938D01*
X567375Y263944D01*
X567466Y263996D01*
X567563Y264029D01*
X567660Y264055D01*
X567745Y264074D01*
X567822Y264087D01*
X567887Y264093D01*
X567939D01*
X568069Y264081D01*
X568127Y264074D01*
X568172Y264061D01*
X568218Y264048D01*
X568250Y264042D01*
X568269Y264029D01*
X568276D01*
X568328Y264003D01*
X568380Y263977D01*
X568418Y263951D01*
X568451Y263925D01*
X568477Y263899D01*
X568496Y263880D01*
X568503Y263867D01*
X568509Y263860D01*
X568529Y263867D01*
X567531Y265577D01*
X568282D01*
X569124Y264055D01*
D02*
G37*
G36*
X584222Y265622D02*
X584352Y265603D01*
X584475Y265577D01*
X584572Y265551D01*
X584656Y265525D01*
X584721Y265499D01*
X584760Y265480D01*
X584766Y265473D01*
X584773D01*
X584876Y265408D01*
X584967Y265337D01*
X585045Y265266D01*
X585110Y265194D01*
X585161Y265130D01*
X585194Y265078D01*
X585220Y265046D01*
X585226Y265039D01*
Y265033D01*
X585278Y264923D01*
X585317Y264806D01*
X585349Y264696D01*
X585369Y264592D01*
X585382Y264501D01*
X585388Y264430D01*
Y264404D01*
Y264385D01*
Y264372D01*
Y264366D01*
X585382Y264236D01*
X585362Y264119D01*
X585343Y264009D01*
X585310Y263912D01*
X585285Y263841D01*
X585265Y263783D01*
X585246Y263744D01*
X585239Y263737D01*
Y263731D01*
X585174Y263634D01*
X585110Y263549D01*
X585038Y263478D01*
X584974Y263413D01*
X584915Y263368D01*
X584870Y263329D01*
X584837Y263310D01*
X584825Y263303D01*
X584721Y263251D01*
X584624Y263219D01*
X584520Y263193D01*
X584436Y263174D01*
X584358Y263161D01*
X584294Y263154D01*
X584177D01*
X584125Y263161D01*
X584080Y263167D01*
X584047Y263174D01*
X584021D01*
X583996Y263180D01*
X583989Y263187D01*
X583983D01*
X583924Y263213D01*
X583879Y263239D01*
X583847Y263264D01*
X583834Y263271D01*
X584740Y261710D01*
X583976D01*
X583134Y263225D01*
X583076Y263336D01*
X583024Y263446D01*
X582979Y263549D01*
X582940Y263640D01*
X582907Y263711D01*
X582888Y263770D01*
X582875Y263808D01*
X582868Y263821D01*
X582836Y263932D01*
X582810Y264029D01*
X582797Y264119D01*
X582784Y264197D01*
X582778Y264262D01*
X582771Y264307D01*
Y264333D01*
Y264346D01*
X582778Y264489D01*
X582797Y264618D01*
X582823Y264728D01*
X582849Y264832D01*
X582882Y264909D01*
X582907Y264968D01*
X582927Y265007D01*
X582933Y265020D01*
X582998Y265123D01*
X583076Y265214D01*
X583147Y265292D01*
X583225Y265350D01*
X583289Y265402D01*
X583341Y265441D01*
X583380Y265460D01*
X583387Y265467D01*
X583393D01*
X583503Y265518D01*
X583626Y265557D01*
X583736Y265590D01*
X583847Y265609D01*
X583937Y265622D01*
X584015Y265629D01*
X584080D01*
X584222Y265622D01*
D02*
G37*
G36*
X619490Y261710D02*
X618634D01*
X617657Y265577D01*
X618330D01*
X618900Y263057D01*
X618932Y262915D01*
X618945Y262843D01*
X618958Y262785D01*
X618971Y262727D01*
X618978Y262688D01*
X618984Y262662D01*
Y262649D01*
X618997Y262571D01*
X619010Y262507D01*
X619023Y262448D01*
X619030Y262403D01*
X619036Y262364D01*
X619043Y262338D01*
X619049Y262319D01*
Y262312D01*
X619055Y262364D01*
X619068Y262416D01*
X619088Y262526D01*
X619094Y262578D01*
X619101Y262617D01*
X619107Y262643D01*
Y262649D01*
X619120Y262727D01*
X619140Y262805D01*
X619153Y262876D01*
X619166Y262934D01*
X619179Y262979D01*
X619192Y263018D01*
X619198Y263044D01*
Y263051D01*
X619781Y265577D01*
X620467D01*
X619490Y261710D01*
D02*
G37*
G36*
X613123D02*
X612281D01*
X611303Y264618D01*
X612002D01*
X612559Y262843D01*
X612592Y262733D01*
X612604Y262681D01*
X612617Y262630D01*
X612630Y262591D01*
X612637Y262558D01*
X612643Y262539D01*
Y262533D01*
X612663Y262422D01*
X612676Y262370D01*
X612682Y262332D01*
X612689Y262299D01*
Y262273D01*
X612695Y262260D01*
Y262254D01*
X612715Y262345D01*
X612734Y262435D01*
X612741Y262474D01*
X612747Y262507D01*
X612753Y262526D01*
Y262533D01*
X612786Y262649D01*
X612799Y262707D01*
X612812Y262753D01*
X612825Y262792D01*
X612838Y262824D01*
X612844Y262843D01*
Y262850D01*
X613408Y264618D01*
X614101D01*
X613123Y261710D01*
D02*
G37*
G36*
X626608D02*
X625947D01*
Y263245D01*
X625468D01*
X624788Y261710D01*
X624062D01*
X624820Y263336D01*
X624703Y263387D01*
X624606Y263452D01*
X624516Y263517D01*
X624444Y263588D01*
X624386Y263647D01*
X624341Y263698D01*
X624315Y263731D01*
X624308Y263744D01*
X624244Y263854D01*
X624198Y263970D01*
X624159Y264087D01*
X624140Y264191D01*
X624127Y264288D01*
X624114Y264359D01*
Y264385D01*
Y264404D01*
Y264417D01*
Y264424D01*
X624120Y264553D01*
X624140Y264663D01*
X624166Y264767D01*
X624192Y264858D01*
X624224Y264929D01*
X624250Y264981D01*
X624269Y265013D01*
X624276Y265026D01*
X624341Y265117D01*
X624412Y265201D01*
X624483Y265266D01*
X624554Y265324D01*
X624619Y265369D01*
X624671Y265402D01*
X624703Y265421D01*
X624710Y265428D01*
X624716D01*
X624827Y265480D01*
X624943Y265512D01*
X625053Y265538D01*
X625157Y265557D01*
X625247Y265570D01*
X625319Y265577D01*
X626608D01*
Y261710D01*
D02*
G37*
G36*
X623369D02*
X621044D01*
Y262286D01*
X622715D01*
Y263426D01*
X621232D01*
Y263983D01*
X622715D01*
Y264994D01*
X621044D01*
Y265577D01*
X623369D01*
Y261710D01*
D02*
G37*
G36*
X606419Y262630D02*
X606490Y262617D01*
X606548Y262591D01*
X606600Y262565D01*
X606646Y262539D01*
X606671Y262513D01*
X606691Y262500D01*
X606697Y262494D01*
X606743Y262442D01*
X606775Y262383D01*
X606801Y262325D01*
X606814Y262267D01*
X606827Y262222D01*
X606833Y262183D01*
Y262150D01*
Y262144D01*
X606827Y262066D01*
X606814Y261995D01*
X606788Y261937D01*
X606762Y261885D01*
X606743Y261839D01*
X606717Y261814D01*
X606704Y261794D01*
X606697Y261788D01*
X606646Y261742D01*
X606587Y261710D01*
X606522Y261691D01*
X606471Y261677D01*
X606419Y261665D01*
X606380Y261658D01*
X606341D01*
X606264Y261665D01*
X606192Y261677D01*
X606134Y261697D01*
X606082Y261723D01*
X606037Y261749D01*
X606011Y261768D01*
X605991Y261781D01*
X605985Y261788D01*
X605940Y261839D01*
X605907Y261898D01*
X605881Y261963D01*
X605868Y262014D01*
X605855Y262066D01*
X605849Y262105D01*
Y262137D01*
Y262144D01*
X605855Y262222D01*
X605868Y262286D01*
X605894Y262351D01*
X605914Y262397D01*
X605940Y262442D01*
X605965Y262468D01*
X605979Y262487D01*
X605985Y262494D01*
X606037Y262539D01*
X606095Y262578D01*
X606160Y262604D01*
X606212Y262617D01*
X606264Y262630D01*
X606302Y262636D01*
X606341D01*
X606419Y262630D01*
D02*
G37*
G36*
X603297Y265622D02*
X603420Y265609D01*
X603530Y265583D01*
X603627Y265557D01*
X603705Y265531D01*
X603763Y265505D01*
X603802Y265492D01*
X603809Y265486D01*
X603815D01*
X603912Y265428D01*
X603997Y265363D01*
X604068Y265292D01*
X604132Y265227D01*
X604178Y265169D01*
X604217Y265123D01*
X604236Y265091D01*
X604243Y265078D01*
X604294Y264981D01*
X604327Y264877D01*
X604353Y264774D01*
X604372Y264683D01*
X604385Y264599D01*
X604392Y264534D01*
Y264508D01*
Y264489D01*
Y264482D01*
Y264476D01*
Y262811D01*
X604385Y262681D01*
X604366Y262565D01*
X604346Y262461D01*
X604314Y262370D01*
X604288Y262299D01*
X604268Y262241D01*
X604249Y262209D01*
X604243Y262196D01*
X604178Y262105D01*
X604113Y262021D01*
X604042Y261956D01*
X603971Y261898D01*
X603912Y261852D01*
X603861Y261820D01*
X603828Y261801D01*
X603815Y261794D01*
X603705Y261749D01*
X603595Y261716D01*
X603485Y261691D01*
X603381Y261677D01*
X603297Y261665D01*
X603226Y261658D01*
X603161D01*
X603025Y261665D01*
X602902Y261677D01*
X602792Y261703D01*
X602695Y261729D01*
X602617Y261749D01*
X602559Y261775D01*
X602526Y261788D01*
X602513Y261794D01*
X602416Y261852D01*
X602332Y261917D01*
X602254Y261982D01*
X602196Y262047D01*
X602151Y262105D01*
X602112Y262150D01*
X602092Y262183D01*
X602086Y262196D01*
X602034Y262299D01*
X601995Y262403D01*
X601969Y262507D01*
X601950Y262604D01*
X601937Y262688D01*
X601930Y262753D01*
Y262779D01*
Y262798D01*
Y262805D01*
Y262811D01*
Y264476D01*
X601937Y264599D01*
X601956Y264715D01*
X601982Y264819D01*
X602008Y264903D01*
X602034Y264981D01*
X602060Y265033D01*
X602079Y265065D01*
X602086Y265078D01*
X602144Y265175D01*
X602215Y265253D01*
X602287Y265324D01*
X602358Y265382D01*
X602416Y265428D01*
X602468Y265460D01*
X602500Y265480D01*
X602507Y265486D01*
X602513D01*
X602617Y265531D01*
X602727Y265570D01*
X602837Y265596D01*
X602941Y265609D01*
X603025Y265622D01*
X603096Y265629D01*
X603161D01*
X603297Y265622D01*
D02*
G37*
G36*
X596937D02*
X597060Y265609D01*
X597170Y265583D01*
X597267Y265557D01*
X597345Y265531D01*
X597403Y265505D01*
X597442Y265492D01*
X597448Y265486D01*
X597455D01*
X597552Y265428D01*
X597636Y265363D01*
X597707Y265292D01*
X597772Y265227D01*
X597817Y265169D01*
X597856Y265123D01*
X597876Y265091D01*
X597882Y265078D01*
X597934Y264981D01*
X597966Y264877D01*
X597992Y264774D01*
X598012Y264683D01*
X598025Y264599D01*
X598031Y264534D01*
Y264508D01*
Y264489D01*
Y264482D01*
Y264476D01*
Y262811D01*
X598025Y262681D01*
X598005Y262565D01*
X597986Y262461D01*
X597953Y262370D01*
X597928Y262299D01*
X597908Y262241D01*
X597889Y262209D01*
X597882Y262196D01*
X597817Y262105D01*
X597753Y262021D01*
X597681Y261956D01*
X597610Y261898D01*
X597552Y261852D01*
X597500Y261820D01*
X597468Y261801D01*
X597455Y261794D01*
X597345Y261749D01*
X597234Y261716D01*
X597124Y261691D01*
X597021Y261677D01*
X596937Y261665D01*
X596865Y261658D01*
X596801D01*
X596665Y261665D01*
X596541Y261677D01*
X596431Y261703D01*
X596334Y261729D01*
X596256Y261749D01*
X596198Y261775D01*
X596166Y261788D01*
X596153Y261794D01*
X596056Y261852D01*
X595971Y261917D01*
X595894Y261982D01*
X595835Y262047D01*
X595790Y262105D01*
X595751Y262150D01*
X595732Y262183D01*
X595725Y262196D01*
X595674Y262299D01*
X595635Y262403D01*
X595609Y262507D01*
X595589Y262604D01*
X595576Y262688D01*
X595570Y262753D01*
Y262779D01*
Y262798D01*
Y262805D01*
Y262811D01*
Y264476D01*
X595576Y264599D01*
X595596Y264715D01*
X595622Y264819D01*
X595648Y264903D01*
X595674Y264981D01*
X595700Y265033D01*
X595719Y265065D01*
X595725Y265078D01*
X595784Y265175D01*
X595855Y265253D01*
X595926Y265324D01*
X595997Y265382D01*
X596056Y265428D01*
X596107Y265460D01*
X596140Y265480D01*
X596146Y265486D01*
X596153D01*
X596256Y265531D01*
X596367Y265570D01*
X596477Y265596D01*
X596580Y265609D01*
X596665Y265622D01*
X596736Y265629D01*
X596801D01*
X596937Y265622D01*
D02*
G37*
G36*
X594747Y263588D02*
X593633D01*
X593536Y263582D01*
X593452Y263562D01*
X593381Y263543D01*
X593322Y263517D01*
X593271Y263485D01*
X593238Y263465D01*
X593219Y263446D01*
X593212Y263439D01*
X593161Y263381D01*
X593128Y263316D01*
X593102Y263251D01*
X593083Y263187D01*
X593070Y263128D01*
X593063Y263083D01*
Y263051D01*
Y263038D01*
Y262785D01*
X593070Y262694D01*
X593089Y262610D01*
X593115Y262539D01*
X593141Y262481D01*
X593167Y262429D01*
X593193Y262397D01*
X593212Y262377D01*
X593219Y262370D01*
X593277Y262325D01*
X593348Y262286D01*
X593420Y262260D01*
X593484Y262248D01*
X593543Y262234D01*
X593594Y262228D01*
X593640D01*
X593737Y262234D01*
X593821Y262248D01*
X593892Y262273D01*
X593951Y262299D01*
X594002Y262325D01*
X594035Y262351D01*
X594061Y262364D01*
X594067Y262370D01*
X594119Y262429D01*
X594158Y262494D01*
X594184Y262558D01*
X594203Y262623D01*
X594216Y262681D01*
X594223Y262727D01*
Y262753D01*
Y262766D01*
X594883D01*
X594877Y262675D01*
X594870Y262584D01*
X594832Y262422D01*
X594780Y262286D01*
X594715Y262170D01*
X594650Y262079D01*
X594624Y262040D01*
X594598Y262008D01*
X594579Y261988D01*
X594560Y261969D01*
X594553Y261963D01*
X594547Y261956D01*
X594482Y261904D01*
X594411Y261859D01*
X594262Y261781D01*
X594113Y261729D01*
X593964Y261697D01*
X593841Y261671D01*
X593782Y261665D01*
X593737D01*
X593692Y261658D01*
X593640D01*
X593536Y261665D01*
X593433Y261671D01*
X593258Y261703D01*
X593173Y261729D01*
X593102Y261755D01*
X593031Y261781D01*
X592973Y261807D01*
X592914Y261833D01*
X592869Y261859D01*
X592830Y261885D01*
X592791Y261911D01*
X592765Y261930D01*
X592746Y261943D01*
X592739Y261956D01*
X592733D01*
X592675Y262014D01*
X592623Y262079D01*
X592578Y262144D01*
X592539Y262215D01*
X592480Y262351D01*
X592441Y262487D01*
X592422Y262604D01*
X592416Y262656D01*
X592409Y262701D01*
X592403Y262733D01*
Y262759D01*
Y262779D01*
Y262785D01*
Y263038D01*
X592409Y263135D01*
X592416Y263225D01*
X592448Y263394D01*
X592500Y263536D01*
X592558Y263659D01*
X592616Y263750D01*
X592642Y263789D01*
X592662Y263821D01*
X592688Y263841D01*
X592701Y263860D01*
X592707Y263867D01*
X592714Y263873D01*
X592772Y263925D01*
X592843Y263970D01*
X592986Y264048D01*
X593128Y264100D01*
X593271Y264132D01*
X593400Y264158D01*
X593458Y264165D01*
X593504D01*
X593543Y264171D01*
X594119D01*
X594126Y264974D01*
X592545D01*
Y265577D01*
X594747D01*
Y263588D01*
D02*
G37*
G36*
X590518Y262630D02*
X590589Y262617D01*
X590647Y262591D01*
X590699Y262565D01*
X590745Y262539D01*
X590770Y262513D01*
X590790Y262500D01*
X590796Y262494D01*
X590842Y262442D01*
X590874Y262383D01*
X590900Y262325D01*
X590913Y262267D01*
X590926Y262222D01*
X590932Y262183D01*
Y262150D01*
Y262144D01*
X590926Y262066D01*
X590913Y261995D01*
X590887Y261937D01*
X590861Y261885D01*
X590842Y261839D01*
X590816Y261814D01*
X590803Y261794D01*
X590796Y261788D01*
X590745Y261742D01*
X590686Y261710D01*
X590621Y261691D01*
X590570Y261677D01*
X590518Y261665D01*
X590479Y261658D01*
X590440D01*
X590362Y261665D01*
X590291Y261677D01*
X590233Y261697D01*
X590181Y261723D01*
X590136Y261749D01*
X590110Y261768D01*
X590090Y261781D01*
X590084Y261788D01*
X590039Y261839D01*
X590006Y261898D01*
X589980Y261963D01*
X589967Y262014D01*
X589954Y262066D01*
X589948Y262105D01*
Y262137D01*
Y262144D01*
X589954Y262222D01*
X589967Y262286D01*
X589993Y262351D01*
X590013Y262397D01*
X590039Y262442D01*
X590065Y262468D01*
X590077Y262487D01*
X590084Y262494D01*
X590136Y262539D01*
X590194Y262578D01*
X590259Y262604D01*
X590311Y262617D01*
X590362Y262630D01*
X590401Y262636D01*
X590440D01*
X590518Y262630D01*
D02*
G37*
G36*
X587396Y265622D02*
X587519Y265609D01*
X587629Y265583D01*
X587726Y265557D01*
X587804Y265531D01*
X587862Y265505D01*
X587901Y265492D01*
X587908Y265486D01*
X587914D01*
X588011Y265428D01*
X588096Y265363D01*
X588167Y265292D01*
X588232Y265227D01*
X588277Y265169D01*
X588316Y265123D01*
X588335Y265091D01*
X588342Y265078D01*
X588393Y264981D01*
X588426Y264877D01*
X588452Y264774D01*
X588471Y264683D01*
X588484Y264599D01*
X588491Y264534D01*
Y264508D01*
Y264489D01*
Y264482D01*
Y264476D01*
Y262811D01*
X588484Y262681D01*
X588465Y262565D01*
X588445Y262461D01*
X588413Y262370D01*
X588387Y262299D01*
X588368Y262241D01*
X588348Y262209D01*
X588342Y262196D01*
X588277Y262105D01*
X588212Y262021D01*
X588141Y261956D01*
X588070Y261898D01*
X588011Y261852D01*
X587960Y261820D01*
X587927Y261801D01*
X587914Y261794D01*
X587804Y261749D01*
X587694Y261716D01*
X587584Y261691D01*
X587480Y261677D01*
X587396Y261665D01*
X587325Y261658D01*
X587260D01*
X587124Y261665D01*
X587001Y261677D01*
X586891Y261703D01*
X586794Y261729D01*
X586716Y261749D01*
X586658Y261775D01*
X586625Y261788D01*
X586612Y261794D01*
X586515Y261852D01*
X586431Y261917D01*
X586353Y261982D01*
X586295Y262047D01*
X586250Y262105D01*
X586211Y262150D01*
X586191Y262183D01*
X586185Y262196D01*
X586133Y262299D01*
X586094Y262403D01*
X586068Y262507D01*
X586049Y262604D01*
X586036Y262688D01*
X586029Y262753D01*
Y262779D01*
Y262798D01*
Y262805D01*
Y262811D01*
Y264476D01*
X586036Y264599D01*
X586055Y264715D01*
X586081Y264819D01*
X586107Y264903D01*
X586133Y264981D01*
X586159Y265033D01*
X586178Y265065D01*
X586185Y265078D01*
X586243Y265175D01*
X586314Y265253D01*
X586385Y265324D01*
X586457Y265382D01*
X586515Y265428D01*
X586567Y265460D01*
X586599Y265480D01*
X586606Y265486D01*
X586612D01*
X586716Y265531D01*
X586826Y265570D01*
X586936Y265596D01*
X587040Y265609D01*
X587124Y265622D01*
X587195Y265629D01*
X587260D01*
X587396Y265622D01*
D02*
G37*
G36*
X580977Y262630D02*
X581049Y262617D01*
X581107Y262591D01*
X581159Y262565D01*
X581204Y262539D01*
X581230Y262513D01*
X581249Y262500D01*
X581256Y262494D01*
X581301Y262442D01*
X581334Y262383D01*
X581359Y262325D01*
X581372Y262267D01*
X581385Y262222D01*
X581392Y262183D01*
Y262150D01*
Y262144D01*
X581385Y262066D01*
X581372Y261995D01*
X581346Y261937D01*
X581320Y261885D01*
X581301Y261839D01*
X581275Y261814D01*
X581262Y261794D01*
X581256Y261788D01*
X581204Y261742D01*
X581146Y261710D01*
X581081Y261691D01*
X581029Y261677D01*
X580977Y261665D01*
X580938Y261658D01*
X580900D01*
X580822Y261665D01*
X580751Y261677D01*
X580692Y261697D01*
X580640Y261723D01*
X580595Y261749D01*
X580569Y261768D01*
X580550Y261781D01*
X580543Y261788D01*
X580498Y261839D01*
X580466Y261898D01*
X580440Y261963D01*
X580427Y262014D01*
X580414Y262066D01*
X580407Y262105D01*
Y262137D01*
Y262144D01*
X580414Y262222D01*
X580427Y262286D01*
X580453Y262351D01*
X580472Y262397D01*
X580498Y262442D01*
X580524Y262468D01*
X580537Y262487D01*
X580543Y262494D01*
X580595Y262539D01*
X580653Y262578D01*
X580718Y262604D01*
X580770Y262617D01*
X580822Y262630D01*
X580861Y262636D01*
X580900D01*
X580977Y262630D01*
D02*
G37*
G36*
X574675Y265622D02*
X574798Y265609D01*
X574908Y265583D01*
X575005Y265557D01*
X575083Y265531D01*
X575141Y265505D01*
X575180Y265492D01*
X575187Y265486D01*
X575193D01*
X575290Y265428D01*
X575375Y265363D01*
X575446Y265292D01*
X575511Y265227D01*
X575556Y265169D01*
X575595Y265123D01*
X575614Y265091D01*
X575621Y265078D01*
X575673Y264981D01*
X575705Y264877D01*
X575731Y264774D01*
X575750Y264683D01*
X575763Y264599D01*
X575770Y264534D01*
Y264508D01*
Y264489D01*
Y264482D01*
Y264476D01*
Y262811D01*
X575763Y262681D01*
X575744Y262565D01*
X575724Y262461D01*
X575692Y262370D01*
X575666Y262299D01*
X575647Y262241D01*
X575627Y262209D01*
X575621Y262196D01*
X575556Y262105D01*
X575491Y262021D01*
X575420Y261956D01*
X575349Y261898D01*
X575290Y261852D01*
X575239Y261820D01*
X575206Y261801D01*
X575193Y261794D01*
X575083Y261749D01*
X574973Y261716D01*
X574863Y261691D01*
X574759Y261677D01*
X574675Y261665D01*
X574604Y261658D01*
X574539D01*
X574403Y261665D01*
X574280Y261677D01*
X574170Y261703D01*
X574073Y261729D01*
X573995Y261749D01*
X573937Y261775D01*
X573904Y261788D01*
X573891Y261794D01*
X573794Y261852D01*
X573710Y261917D01*
X573632Y261982D01*
X573574Y262047D01*
X573529Y262105D01*
X573490Y262150D01*
X573470Y262183D01*
X573464Y262196D01*
X573412Y262299D01*
X573373Y262403D01*
X573347Y262507D01*
X573328Y262604D01*
X573315Y262688D01*
X573308Y262753D01*
Y262779D01*
Y262798D01*
Y262805D01*
Y262811D01*
Y264476D01*
X573315Y264599D01*
X573334Y264715D01*
X573360Y264819D01*
X573386Y264903D01*
X573412Y264981D01*
X573438Y265033D01*
X573457Y265065D01*
X573464Y265078D01*
X573522Y265175D01*
X573593Y265253D01*
X573665Y265324D01*
X573736Y265382D01*
X573794Y265428D01*
X573846Y265460D01*
X573879Y265480D01*
X573885Y265486D01*
X573891D01*
X573995Y265531D01*
X574105Y265570D01*
X574215Y265596D01*
X574319Y265609D01*
X574403Y265622D01*
X574474Y265629D01*
X574539D01*
X574675Y265622D01*
D02*
G37*
G36*
X583855Y272565D02*
X583948Y272556D01*
X584022Y272528D01*
X584087Y272500D01*
X584142Y272472D01*
X584179Y272454D01*
X584198Y272435D01*
X584207Y272426D01*
X584262Y272371D01*
X584299Y272306D01*
X584336Y272241D01*
X584355Y272176D01*
X584364Y272121D01*
X584373Y272075D01*
Y272047D01*
Y272038D01*
X584364Y271945D01*
X584346Y271871D01*
X584318Y271807D01*
X584290Y271742D01*
X584262Y271705D01*
X584235Y271668D01*
X584216Y271649D01*
X584207Y271640D01*
X584142Y271594D01*
X584068Y271557D01*
X583994Y271529D01*
X583920Y271511D01*
X583855Y271502D01*
X583800Y271492D01*
X583754D01*
X583652Y271502D01*
X583560Y271520D01*
X583486Y271539D01*
X583421Y271566D01*
X583365Y271594D01*
X583328Y271622D01*
X583310Y271631D01*
X583301Y271640D01*
X583245Y271696D01*
X583208Y271770D01*
X583171Y271834D01*
X583153Y271899D01*
X583144Y271954D01*
X583134Y272001D01*
Y272029D01*
Y272038D01*
X583144Y272130D01*
X583162Y272204D01*
X583190Y272269D01*
X583218Y272324D01*
X583245Y272371D01*
X583273Y272398D01*
X583292Y272417D01*
X583301Y272426D01*
X583365Y272472D01*
X583439Y272509D01*
X583513Y272537D01*
X583587Y272556D01*
X583652Y272565D01*
X583708Y272574D01*
X583754D01*
X583855Y272565D01*
D02*
G37*
G36*
X608282Y266638D02*
X607358D01*
Y267387D01*
X607302Y267248D01*
X607247Y267128D01*
X607173Y267027D01*
X607108Y266934D01*
X607043Y266870D01*
X606997Y266814D01*
X606960Y266786D01*
X606951Y266777D01*
X606831Y266703D01*
X606711Y266657D01*
X606590Y266620D01*
X606470Y266592D01*
X606368Y266574D01*
X606285Y266564D01*
X606211D01*
X606100Y266574D01*
X605999Y266583D01*
X605804Y266629D01*
X605638Y266703D01*
X605499Y266777D01*
X605388Y266851D01*
X605305Y266925D01*
X605259Y266971D01*
X605241Y266990D01*
X605111Y267165D01*
X605019Y267350D01*
X604954Y267544D01*
X604908Y267729D01*
X604880Y267896D01*
X604871Y267970D01*
Y268025D01*
X604861Y268081D01*
Y268118D01*
Y268136D01*
Y268145D01*
Y269273D01*
X604880Y269532D01*
X604917Y269763D01*
X604982Y269967D01*
X605046Y270133D01*
X605111Y270263D01*
X605148Y270318D01*
X605176Y270355D01*
X605194Y270392D01*
X605213Y270420D01*
X605231Y270429D01*
Y270438D01*
X605305Y270512D01*
X605379Y270586D01*
X605536Y270688D01*
X605703Y270771D01*
X605860Y270817D01*
X605999Y270854D01*
X606054Y270864D01*
X606110D01*
X606156Y270873D01*
X606211D01*
X606368Y270864D01*
X606507Y270836D01*
X606637Y270799D01*
X606738Y270762D01*
X606822Y270725D01*
X606886Y270688D01*
X606932Y270660D01*
X606942Y270651D01*
X607043Y270558D01*
X607136Y270466D01*
X607210Y270364D01*
X607265Y270263D01*
X607312Y270179D01*
X607339Y270105D01*
X607358Y270059D01*
X607367Y270041D01*
X607330Y270993D01*
Y272158D01*
X608282D01*
Y266638D01*
D02*
G37*
G36*
X599203D02*
X598260D01*
Y269079D01*
X597622D01*
X596531Y266638D01*
X595477D01*
X596781Y269523D01*
X595542Y272158D01*
X596559D01*
X597613Y269902D01*
X598260D01*
Y272158D01*
X599203D01*
Y266638D01*
D02*
G37*
G36*
X620459Y270854D02*
X620690Y270817D01*
X620893Y270762D01*
X621069Y270697D01*
X621208Y270632D01*
X621254Y270605D01*
X621300Y270577D01*
X621337Y270558D01*
X621365Y270540D01*
X621374Y270522D01*
X621383D01*
X621457Y270457D01*
X621531Y270383D01*
X621642Y270235D01*
X621725Y270078D01*
X621781Y269939D01*
X621818Y269810D01*
X621846Y269708D01*
Y269671D01*
X621855Y269643D01*
Y269625D01*
Y269615D01*
X620949D01*
X620930Y269699D01*
X620912Y269773D01*
X620875Y269828D01*
X620838Y269883D01*
X620801Y269921D01*
X620764Y269948D01*
X620745Y269967D01*
X620736Y269976D01*
X620653Y270022D01*
X620570Y270050D01*
X620477Y270078D01*
X620394Y270087D01*
X620320Y270096D01*
X620255Y270105D01*
X620200D01*
X620070Y270096D01*
X619959Y270078D01*
X619858Y270050D01*
X619775Y270004D01*
X619710Y269958D01*
X619645Y269911D01*
X619599Y269847D01*
X619562Y269791D01*
X619506Y269680D01*
X619479Y269578D01*
X619469Y269532D01*
Y269505D01*
Y269486D01*
Y269477D01*
Y269181D01*
X620486D01*
X620745Y269162D01*
X620967Y269125D01*
X621161Y269070D01*
X621328Y269005D01*
X621457Y268931D01*
X621550Y268876D01*
X621577Y268857D01*
X621605Y268839D01*
X621614Y268820D01*
X621624D01*
X621698Y268746D01*
X621762Y268672D01*
X621864Y268515D01*
X621938Y268358D01*
X621984Y268201D01*
X622021Y268071D01*
X622030Y267960D01*
X622040Y267914D01*
Y267887D01*
Y267868D01*
Y267859D01*
X622021Y267655D01*
X621984Y267470D01*
X621929Y267304D01*
X621855Y267165D01*
X621790Y267064D01*
X621735Y266980D01*
X621698Y266934D01*
X621679Y266916D01*
X621531Y266796D01*
X621365Y266712D01*
X621198Y266648D01*
X621032Y266611D01*
X620893Y266583D01*
X620829Y266574D01*
X620773D01*
X620736Y266564D01*
X620671D01*
X620486Y266574D01*
X620320Y266601D01*
X620181Y266638D01*
X620052Y266675D01*
X619959Y266712D01*
X619886Y266749D01*
X619849Y266777D01*
X619830Y266786D01*
X619719Y266879D01*
X619627Y266980D01*
X619562Y267082D01*
X619506Y267184D01*
X619479Y267276D01*
X619451Y267350D01*
X619442Y267397D01*
Y266638D01*
X618526D01*
Y269458D01*
X618536Y269578D01*
X618545Y269699D01*
X618591Y269902D01*
X618665Y270078D01*
X618748Y270226D01*
X618832Y270346D01*
X618896Y270429D01*
X618952Y270475D01*
X618961Y270494D01*
X618970D01*
X619146Y270623D01*
X619340Y270716D01*
X619543Y270780D01*
X619747Y270827D01*
X619922Y270854D01*
X619996Y270864D01*
X620061D01*
X620117Y270873D01*
X620191D01*
X620459Y270854D01*
D02*
G37*
G36*
X617315Y266638D02*
X616372D01*
Y268358D01*
X615706D01*
X614699Y266638D01*
X613617D01*
X614902Y268783D01*
X613663Y270790D01*
X614717D01*
X615706Y269162D01*
X616372D01*
Y272158D01*
X617315D01*
Y266638D01*
D02*
G37*
G36*
X612831Y268210D02*
X612822Y268071D01*
X612813Y267942D01*
X612757Y267702D01*
X612683Y267489D01*
X612600Y267313D01*
X612563Y267248D01*
X612517Y267184D01*
X612480Y267128D01*
X612452Y267082D01*
X612415Y267045D01*
X612397Y267017D01*
X612387Y267008D01*
X612378Y266999D01*
X612286Y266925D01*
X612193Y266860D01*
X611990Y266749D01*
X611786Y266675D01*
X611583Y266620D01*
X611407Y266592D01*
X611324Y266574D01*
X611259D01*
X611204Y266564D01*
X611130D01*
X610991Y266574D01*
X610853Y266583D01*
X610612Y266629D01*
X610400Y266703D01*
X610215Y266786D01*
X610141Y266823D01*
X610076Y266860D01*
X610020Y266897D01*
X609974Y266934D01*
X609937Y266962D01*
X609910Y266980D01*
X609900Y266999D01*
X609891D01*
X609808Y267082D01*
X609734Y267175D01*
X609678Y267276D01*
X609623Y267378D01*
X609540Y267581D01*
X609484Y267775D01*
X609456Y267942D01*
X609438Y268016D01*
Y268081D01*
X609429Y268136D01*
Y268173D01*
Y268201D01*
Y268210D01*
Y270790D01*
X610372D01*
Y268210D01*
X610381Y268071D01*
X610400Y267951D01*
X610437Y267850D01*
X610474Y267757D01*
X610510Y267692D01*
X610547Y267637D01*
X610566Y267609D01*
X610575Y267600D01*
X610658Y267526D01*
X610751Y267470D01*
X610843Y267433D01*
X610927Y267406D01*
X611010Y267387D01*
X611074Y267378D01*
X611130D01*
X611259Y267387D01*
X611370Y267415D01*
X611463Y267452D01*
X611546Y267489D01*
X611611Y267526D01*
X611657Y267563D01*
X611685Y267591D01*
X611694Y267600D01*
X611759Y267692D01*
X611805Y267785D01*
X611842Y267887D01*
X611860Y267988D01*
X611879Y268071D01*
X611888Y268145D01*
Y268192D01*
Y268210D01*
Y270790D01*
X612831D01*
Y268210D01*
D02*
G37*
G36*
X588247Y270864D02*
X588386Y270836D01*
X588515Y270799D01*
X588626Y270762D01*
X588709Y270716D01*
X588774Y270679D01*
X588811Y270651D01*
X588830Y270642D01*
X588931Y270549D01*
X589015Y270448D01*
X589079Y270346D01*
X589125Y270244D01*
X589162Y270152D01*
X589181Y270078D01*
X589199Y270032D01*
Y270790D01*
X590124D01*
Y266638D01*
X589172D01*
Y269236D01*
X589162Y269375D01*
X589144Y269495D01*
X589107Y269597D01*
X589070Y269680D01*
X589042Y269754D01*
X589005Y269800D01*
X588987Y269828D01*
X588978Y269837D01*
X588894Y269911D01*
X588802Y269958D01*
X588709Y269995D01*
X588617Y270022D01*
X588534Y270041D01*
X588469Y270050D01*
X588414D01*
X588293Y270041D01*
X588192Y270013D01*
X588099Y269985D01*
X588016Y269948D01*
X587961Y269902D01*
X587914Y269874D01*
X587887Y269847D01*
X587877Y269837D01*
X587813Y269754D01*
X587757Y269662D01*
X587720Y269560D01*
X587702Y269468D01*
X587683Y269384D01*
X587674Y269320D01*
Y269273D01*
Y269255D01*
Y266638D01*
X586731D01*
Y269366D01*
X586749Y269606D01*
X586786Y269828D01*
X586851Y270013D01*
X586916Y270170D01*
X586981Y270290D01*
X587045Y270383D01*
X587082Y270438D01*
X587101Y270457D01*
X587175Y270531D01*
X587249Y270595D01*
X587406Y270697D01*
X587572Y270771D01*
X587729Y270817D01*
X587868Y270854D01*
X587924Y270864D01*
X587979D01*
X588025Y270873D01*
X588081D01*
X588247Y270864D01*
D02*
G37*
G36*
X585436Y269939D02*
X584170D01*
Y267489D01*
X585584D01*
Y266638D01*
X581942D01*
Y267489D01*
X583218D01*
Y270790D01*
X585436D01*
Y269939D01*
D02*
G37*
G36*
X574453Y270864D02*
X574601Y270836D01*
X574730Y270799D01*
X574841Y270753D01*
X574933Y270706D01*
X574998Y270669D01*
X575035Y270642D01*
X575054Y270632D01*
X575155Y270540D01*
X575238Y270429D01*
X575303Y270318D01*
X575350Y270216D01*
X575387Y270124D01*
X575405Y270050D01*
X575424Y270004D01*
Y270790D01*
X576348D01*
Y266638D01*
X575405D01*
Y269181D01*
X575396Y269329D01*
X575377Y269458D01*
X575340Y269569D01*
X575303Y269652D01*
X575275Y269726D01*
X575238Y269782D01*
X575220Y269810D01*
X575211Y269819D01*
X575128Y269893D01*
X575035Y269948D01*
X574933Y269995D01*
X574841Y270022D01*
X574758Y270041D01*
X574693Y270050D01*
X574628D01*
X574499Y270041D01*
X574388Y270022D01*
X574296Y269985D01*
X574212Y269948D01*
X574157Y269911D01*
X574111Y269874D01*
X574083Y269856D01*
X574074Y269847D01*
X574009Y269763D01*
X573963Y269671D01*
X573926Y269578D01*
X573907Y269486D01*
X573889Y269403D01*
X573879Y269338D01*
Y269292D01*
Y269273D01*
Y268922D01*
X572927D01*
Y269320D01*
X572946Y269578D01*
X572983Y269810D01*
X573038Y270004D01*
X573103Y270161D01*
X573177Y270290D01*
X573232Y270383D01*
X573251Y270410D01*
X573269Y270438D01*
X573288Y270457D01*
X573352Y270531D01*
X573426Y270595D01*
X573593Y270697D01*
X573759Y270771D01*
X573916Y270817D01*
X574055Y270854D01*
X574120Y270864D01*
X574175D01*
X574212Y270873D01*
X574277D01*
X574453Y270864D01*
D02*
G37*
G36*
X593120Y270854D02*
X593258Y270845D01*
X593508Y270790D01*
X593730Y270725D01*
X593822Y270679D01*
X593915Y270642D01*
X593989Y270595D01*
X594053Y270558D01*
X594109Y270512D01*
X594164Y270485D01*
X594201Y270457D01*
X594229Y270429D01*
X594238Y270420D01*
X594248Y270410D01*
X594331Y270327D01*
X594395Y270235D01*
X594460Y270133D01*
X594516Y270032D01*
X594599Y269828D01*
X594654Y269643D01*
X594682Y269468D01*
X594691Y269394D01*
X594701Y269329D01*
X594710Y269273D01*
Y269236D01*
Y269209D01*
Y269199D01*
Y268229D01*
X594701Y268090D01*
X594691Y267960D01*
X594636Y267720D01*
X594562Y267507D01*
X594479Y267332D01*
X594432Y267267D01*
X594395Y267202D01*
X594358Y267147D01*
X594322Y267101D01*
X594294Y267064D01*
X594266Y267036D01*
X594257Y267027D01*
X594248Y267017D01*
X594155Y266943D01*
X594053Y266870D01*
X593850Y266758D01*
X593637Y266685D01*
X593434Y266629D01*
X593249Y266601D01*
X593175Y266583D01*
X593101D01*
X593046Y266574D01*
X592972D01*
X592824Y266583D01*
X592685Y266592D01*
X592435Y266648D01*
X592214Y266712D01*
X592121Y266758D01*
X592038Y266796D01*
X591964Y266842D01*
X591890Y266879D01*
X591834Y266916D01*
X591788Y266953D01*
X591751Y266980D01*
X591724Y266999D01*
X591714Y267008D01*
X591705Y267017D01*
X591622Y267101D01*
X591548Y267193D01*
X591483Y267295D01*
X591428Y267397D01*
X591344Y267600D01*
X591289Y267794D01*
X591261Y267960D01*
X591252Y268034D01*
X591243Y268099D01*
X591233Y268155D01*
Y268192D01*
Y268219D01*
Y268229D01*
Y269199D01*
X591243Y269338D01*
X591252Y269468D01*
X591307Y269717D01*
X591381Y269921D01*
X591465Y270096D01*
X591511Y270170D01*
X591557Y270226D01*
X591594Y270281D01*
X591631Y270327D01*
X591659Y270364D01*
X591687Y270392D01*
X591696Y270401D01*
X591705Y270410D01*
X591797Y270494D01*
X591890Y270558D01*
X591992Y270623D01*
X592093Y270669D01*
X592306Y270753D01*
X592509Y270808D01*
X592694Y270836D01*
X592768Y270854D01*
X592842D01*
X592898Y270864D01*
X592972D01*
X593120Y270854D01*
D02*
G37*
G36*
X579501D02*
X579640Y270845D01*
X579889Y270790D01*
X580111Y270725D01*
X580203Y270679D01*
X580296Y270642D01*
X580370Y270595D01*
X580435Y270558D01*
X580490Y270512D01*
X580546Y270485D01*
X580583Y270457D01*
X580610Y270429D01*
X580620Y270420D01*
X580629Y270410D01*
X580712Y270327D01*
X580777Y270235D01*
X580841Y270133D01*
X580897Y270032D01*
X580980Y269828D01*
X581035Y269643D01*
X581063Y269468D01*
X581073Y269394D01*
X581082Y269329D01*
X581091Y269273D01*
Y269236D01*
Y269209D01*
Y269199D01*
Y268229D01*
X581082Y268090D01*
X581073Y267960D01*
X581017Y267720D01*
X580943Y267507D01*
X580860Y267332D01*
X580814Y267267D01*
X580777Y267202D01*
X580740Y267147D01*
X580703Y267101D01*
X580675Y267064D01*
X580647Y267036D01*
X580638Y267027D01*
X580629Y267017D01*
X580536Y266943D01*
X580435Y266870D01*
X580231Y266758D01*
X580019Y266685D01*
X579815Y266629D01*
X579630Y266601D01*
X579556Y266583D01*
X579482D01*
X579427Y266574D01*
X579353D01*
X579205Y266583D01*
X579066Y266592D01*
X578817Y266648D01*
X578595Y266712D01*
X578502Y266758D01*
X578419Y266796D01*
X578345Y266842D01*
X578271Y266879D01*
X578216Y266916D01*
X578169Y266953D01*
X578132Y266980D01*
X578105Y266999D01*
X578095Y267008D01*
X578086Y267017D01*
X578003Y267101D01*
X577929Y267193D01*
X577864Y267295D01*
X577809Y267397D01*
X577726Y267600D01*
X577670Y267794D01*
X577642Y267960D01*
X577633Y268034D01*
X577624Y268099D01*
X577615Y268155D01*
Y268192D01*
Y268219D01*
Y268229D01*
Y269199D01*
X577624Y269338D01*
X577633Y269468D01*
X577689Y269717D01*
X577763Y269921D01*
X577846Y270096D01*
X577892Y270170D01*
X577938Y270226D01*
X577975Y270281D01*
X578012Y270327D01*
X578040Y270364D01*
X578068Y270392D01*
X578077Y270401D01*
X578086Y270410D01*
X578179Y270494D01*
X578271Y270558D01*
X578373Y270623D01*
X578475Y270669D01*
X578687Y270753D01*
X578891Y270808D01*
X579076Y270836D01*
X579149Y270854D01*
X579223D01*
X579279Y270864D01*
X579353D01*
X579501Y270854D01*
D02*
G37*
G36*
X624111Y268256D02*
X624120Y268108D01*
X624148Y267988D01*
X624185Y267877D01*
X624222Y267785D01*
X624268Y267711D01*
X624305Y267655D01*
X624333Y267618D01*
X624342Y267609D01*
X624434Y267535D01*
X624536Y267480D01*
X624647Y267433D01*
X624749Y267406D01*
X624841Y267387D01*
X624915Y267378D01*
X624980D01*
X625128Y267387D01*
X625248Y267415D01*
X625359Y267452D01*
X625451Y267498D01*
X625525Y267544D01*
X625572Y267581D01*
X625609Y267609D01*
X625618Y267618D01*
X625692Y267720D01*
X625747Y267822D01*
X625793Y267933D01*
X625821Y268034D01*
X625840Y268127D01*
X625849Y268201D01*
Y268247D01*
Y268266D01*
X626792D01*
X626783Y268127D01*
X626773Y267988D01*
X626718Y267739D01*
X626635Y267526D01*
X626542Y267350D01*
X626505Y267267D01*
X626459Y267202D01*
X626413Y267147D01*
X626376Y267101D01*
X626348Y267064D01*
X626320Y267036D01*
X626311Y267027D01*
X626302Y267017D01*
X626209Y266934D01*
X626108Y266870D01*
X625997Y266805D01*
X625886Y266758D01*
X625664Y266675D01*
X625461Y266620D01*
X625266Y266592D01*
X625183Y266583D01*
X625119Y266574D01*
X625063Y266564D01*
X624980D01*
X624823Y266574D01*
X624684Y266583D01*
X624416Y266638D01*
X624296Y266666D01*
X624185Y266712D01*
X624092Y266749D01*
X624000Y266796D01*
X623917Y266833D01*
X623852Y266879D01*
X623787Y266916D01*
X623741Y266943D01*
X623695Y266980D01*
X623667Y266999D01*
X623658Y267008D01*
X623648Y267017D01*
X623565Y267110D01*
X623482Y267202D01*
X623417Y267304D01*
X623362Y267406D01*
X623279Y267609D01*
X623223Y267803D01*
X623186Y267988D01*
X623177Y268062D01*
X623168Y268127D01*
X623158Y268182D01*
Y268219D01*
Y268247D01*
Y268256D01*
Y272158D01*
X624111D01*
Y268256D01*
D02*
G37*
%LPC*%
G36*
X628197Y330600D02*
X628075D01*
Y330479D01*
X627953D01*
Y330235D01*
X627832D01*
Y329870D01*
X627710D01*
Y329505D01*
X627588D01*
Y329262D01*
X628562D01*
Y329627D01*
X628440D01*
Y329992D01*
X628318D01*
Y330235D01*
X628197D01*
Y330357D01*
Y330600D01*
D02*
G37*
G36*
X585848Y322447D02*
X585726D01*
Y322325D01*
X585605D01*
Y321960D01*
X585483D01*
Y321595D01*
X585361D01*
Y321230D01*
X585239D01*
Y320987D01*
X585118D01*
Y320621D01*
X584996D01*
Y320256D01*
X584874D01*
Y319891D01*
X584753D01*
Y319526D01*
X584631D01*
Y319161D01*
X584509D01*
Y318796D01*
X584388D01*
Y318431D01*
X584266D01*
Y318188D01*
X584144D01*
Y317823D01*
X584023D01*
Y317579D01*
X587430D01*
Y318066D01*
X587308D01*
Y318431D01*
X587187D01*
Y318674D01*
X587065D01*
Y319039D01*
X586943D01*
Y319405D01*
X586822D01*
Y319770D01*
X586700D01*
Y320135D01*
X586578D01*
Y320500D01*
X586456D01*
Y320743D01*
X586335D01*
Y321108D01*
X586213D01*
Y321473D01*
X586091D01*
Y321838D01*
X585970D01*
Y322203D01*
X585848D01*
Y322447D01*
D02*
G37*
G36*
X606049Y318188D02*
X605805D01*
Y318066D01*
X605927D01*
Y317336D01*
X606049D01*
Y316971D01*
X606170D01*
Y316727D01*
Y316606D01*
X606292D01*
Y316362D01*
X606414D01*
Y316119D01*
X606535D01*
Y315875D01*
X606657D01*
Y315754D01*
X606779D01*
Y315510D01*
X606901D01*
Y315389D01*
X607022D01*
Y315267D01*
X607144D01*
Y315145D01*
X607266D01*
Y315024D01*
X607387D01*
Y314902D01*
X607509D01*
Y314780D01*
X607631D01*
Y314659D01*
X607752D01*
Y314537D01*
X607874D01*
Y314415D01*
X608117D01*
Y314293D01*
X608239D01*
Y314172D01*
X608483D01*
Y314050D01*
X608726D01*
Y313928D01*
X608969D01*
Y313807D01*
X609213D01*
Y313685D01*
X609578D01*
Y313563D01*
X610186D01*
Y313442D01*
X611647D01*
Y313563D01*
X612255D01*
Y313685D01*
X612620D01*
Y313807D01*
X612985D01*
Y313928D01*
X613229D01*
Y314050D01*
X613472D01*
Y314172D01*
X613594D01*
Y314293D01*
X613837D01*
Y314415D01*
X613959D01*
Y314537D01*
X613837D01*
Y314659D01*
X613350D01*
Y314780D01*
X612985D01*
Y314902D01*
X612620D01*
Y315024D01*
X612255D01*
Y315145D01*
X612012D01*
Y315267D01*
X611647D01*
Y315389D01*
X611282D01*
Y315510D01*
X611038D01*
Y315632D01*
X610795D01*
Y315754D01*
X610430D01*
Y315875D01*
X610186D01*
Y315997D01*
X609943D01*
Y316119D01*
X609578D01*
Y316241D01*
X609334D01*
Y316362D01*
X609091D01*
Y316484D01*
X608848D01*
Y316606D01*
X608604D01*
Y316727D01*
X608361D01*
Y316849D01*
X608117D01*
Y316971D01*
X607874D01*
Y317092D01*
X607752D01*
Y317214D01*
X607509D01*
Y317336D01*
X607266D01*
Y317458D01*
X607022D01*
Y317579D01*
X606901D01*
Y317701D01*
X606657D01*
Y317823D01*
X606414D01*
Y317944D01*
X606292D01*
Y318066D01*
X606049D01*
Y318188D01*
D02*
G37*
G36*
X590350Y308939D02*
X589134D01*
Y308817D01*
X589012D01*
Y308696D01*
X588890D01*
Y308574D01*
X588769D01*
Y307966D01*
X588890D01*
Y307722D01*
X589012D01*
Y307600D01*
X589255D01*
Y307479D01*
X590350D01*
Y308939D01*
D02*
G37*
G36*
X579642Y308574D02*
X579398D01*
Y308209D01*
X579277D01*
Y307844D01*
X579155D01*
Y307479D01*
X579033D01*
Y307357D01*
X580007D01*
Y307479D01*
X579885D01*
Y307844D01*
X579763D01*
Y308209D01*
X579642D01*
Y308574D01*
D02*
G37*
G36*
X820037Y298478D02*
X819621D01*
X819162Y298436D01*
X818621Y298353D01*
X817954Y298269D01*
X817246Y298103D01*
X816538Y297853D01*
X815872Y297561D01*
X815830D01*
X815788Y297520D01*
X815580Y297395D01*
X815247Y297186D01*
X814872Y296895D01*
X814414Y296520D01*
X813955Y296103D01*
X813497Y295562D01*
X813122Y294979D01*
X813081Y294895D01*
X812956Y294687D01*
X812789Y294354D01*
X812623Y293895D01*
X812456Y293312D01*
X812289Y292646D01*
X812164Y291938D01*
X812123Y291105D01*
X816413D01*
Y291188D01*
Y291396D01*
X816455Y291688D01*
X816538Y292104D01*
X816663Y292521D01*
X816830Y292979D01*
X817038Y293396D01*
X817371Y293771D01*
X817413Y293812D01*
X817538Y293937D01*
X817746Y294062D01*
X818038Y294270D01*
X818413Y294437D01*
X818871Y294562D01*
X819412Y294687D01*
X820037Y294729D01*
X820329D01*
X820620Y294687D01*
X820995Y294604D01*
X821453Y294479D01*
X821870Y294312D01*
X822328Y294104D01*
X822703Y293771D01*
X822745Y293729D01*
X822870Y293604D01*
X822995Y293396D01*
X823161Y293104D01*
X823370Y292729D01*
X823495Y292271D01*
X823620Y291729D01*
X823661Y291105D01*
Y280274D01*
Y280191D01*
Y279982D01*
X823620Y279691D01*
X823536Y279274D01*
X823411Y278858D01*
X823245Y278400D01*
X823036Y277941D01*
X822703Y277566D01*
X822662Y277525D01*
X822537Y277441D01*
X822328Y277275D01*
X821995Y277108D01*
X821620Y276942D01*
X821162Y276775D01*
X820620Y276692D01*
X820037Y276650D01*
X819746D01*
X819454Y276692D01*
X819037Y276775D01*
X818621Y276858D01*
X818163Y277025D01*
X817746Y277275D01*
X817371Y277566D01*
X817330Y277608D01*
X817205Y277733D01*
X817080Y277983D01*
X816871Y278274D01*
X816705Y278649D01*
X816580Y279108D01*
X816455Y279649D01*
X816413Y280274D01*
X812123D01*
Y279899D01*
X812164Y279482D01*
X812247Y278941D01*
X812373Y278316D01*
X812539Y277691D01*
X812789Y277025D01*
X813122Y276358D01*
X813164Y276275D01*
X813289Y276108D01*
X813539Y275817D01*
X813830Y275442D01*
X814205Y275025D01*
X814705Y274609D01*
X815247Y274192D01*
X815872Y273817D01*
X815955Y273776D01*
X816163Y273692D01*
X816538Y273526D01*
X817038Y273401D01*
X817663Y273234D01*
X818371Y273067D01*
X819162Y272984D01*
X820037Y272943D01*
X820454D01*
X820912Y272984D01*
X821453Y273067D01*
X822120Y273151D01*
X822828Y273317D01*
X823536Y273526D01*
X824245Y273817D01*
X824328Y273859D01*
X824536Y273984D01*
X824828Y274192D01*
X825244Y274484D01*
X825661Y274859D01*
X826119Y275275D01*
X826577Y275775D01*
X826952Y276358D01*
X826994Y276442D01*
X827119Y276650D01*
X827244Y277025D01*
X827410Y277483D01*
X827619Y278066D01*
X827744Y278733D01*
X827868Y279441D01*
X827910Y280274D01*
Y291479D01*
X827868Y291896D01*
X827785Y292437D01*
X827660Y293021D01*
X827494Y293687D01*
X827285Y294354D01*
X826952Y294979D01*
X826910Y295062D01*
X826786Y295270D01*
X826536Y295562D01*
X826244Y295937D01*
X825869Y296353D01*
X825411Y296770D01*
X824869Y297186D01*
X824245Y297561D01*
X824203D01*
X824161Y297603D01*
X823911Y297686D01*
X823536Y297853D01*
X823036Y298019D01*
X822412Y298186D01*
X821703Y298353D01*
X820912Y298436D01*
X820037Y298478D01*
D02*
G37*
G36*
X387489Y300433D02*
X382823D01*
X376676Y282546D01*
Y282583D01*
Y282731D01*
X376713Y282917D01*
X376750Y283176D01*
X376787Y283509D01*
X376824Y283916D01*
X376861Y284324D01*
X376898Y284805D01*
Y284879D01*
Y285027D01*
X376935Y285287D01*
Y285657D01*
X376972Y286064D01*
Y286509D01*
X377046Y287509D01*
Y287583D01*
Y287731D01*
X377083Y287990D01*
Y288323D01*
Y288694D01*
X377120Y289101D01*
Y289953D01*
Y300433D01*
X373676D01*
Y278324D01*
X378305D01*
X384379Y296174D01*
Y296137D01*
Y296026D01*
Y295841D01*
X384342Y295582D01*
Y295249D01*
X384305Y294878D01*
Y294471D01*
X384268Y294027D01*
Y293990D01*
X384230Y293804D01*
Y293582D01*
X384193Y293249D01*
X384156Y292878D01*
Y292434D01*
X384082Y291508D01*
Y291434D01*
Y291286D01*
X384045Y291027D01*
Y290730D01*
Y290360D01*
X384008Y289953D01*
Y289138D01*
Y278324D01*
X387489D01*
Y300433D01*
D02*
G37*
G36*
X398636Y300730D02*
X398266D01*
X397896Y300693D01*
X397377Y300618D01*
X396822Y300544D01*
X396192Y300396D01*
X395563Y300174D01*
X394933Y299915D01*
X394896D01*
X394859Y299878D01*
X394674Y299767D01*
X394378Y299582D01*
X394044Y299322D01*
X393637Y298989D01*
X393229Y298619D01*
X392822Y298137D01*
X392489Y297619D01*
X392452Y297545D01*
X392341Y297360D01*
X392193Y297063D01*
X392044Y296656D01*
X391896Y296137D01*
X391748Y295545D01*
X391637Y294915D01*
X391600Y294175D01*
X395415D01*
Y294249D01*
Y294434D01*
X395452Y294693D01*
X395526Y295063D01*
X395637Y295434D01*
X395785Y295841D01*
X395970Y296211D01*
X396266Y296545D01*
X396303Y296582D01*
X396414Y296693D01*
X396600Y296804D01*
X396859Y296989D01*
X397192Y297137D01*
X397599Y297248D01*
X398081Y297360D01*
X398636Y297397D01*
X398896D01*
X399155Y297360D01*
X399525Y297285D01*
X399896Y297211D01*
X400303Y297063D01*
X400710Y296841D01*
X401044Y296582D01*
X401081Y296545D01*
X401155Y296434D01*
X401303Y296248D01*
X401451Y295989D01*
X401599Y295656D01*
X401747Y295249D01*
X401821Y294767D01*
X401858Y294212D01*
Y284546D01*
Y284472D01*
Y284287D01*
X401821Y284028D01*
X401747Y283657D01*
X401673Y283287D01*
X401525Y282880D01*
X401303Y282472D01*
X401044Y282139D01*
X401007Y282102D01*
X400895Y281991D01*
X400673Y281880D01*
X400414Y281731D01*
X400081Y281546D01*
X399673Y281435D01*
X399192Y281324D01*
X398636Y281287D01*
X398377D01*
X398118Y281324D01*
X397748Y281398D01*
X397377Y281509D01*
X396970Y281657D01*
X396600Y281843D01*
X396266Y282139D01*
X396229Y282176D01*
X396118Y282287D01*
X396007Y282509D01*
X395822Y282768D01*
X395674Y283102D01*
X395563Y283509D01*
X395452Y283990D01*
X395415Y284546D01*
Y286990D01*
X399192D01*
Y290286D01*
X391600D01*
Y284213D01*
X391637Y283842D01*
X391711Y283361D01*
X391822Y282805D01*
X391970Y282250D01*
X392193Y281657D01*
X392489Y281065D01*
X392526Y280991D01*
X392637Y280843D01*
X392859Y280583D01*
X393118Y280250D01*
X393452Y279880D01*
X393896Y279510D01*
X394378Y279139D01*
X394933Y278806D01*
X395007Y278769D01*
X395229Y278695D01*
X395563Y278547D01*
X396007Y278435D01*
X396525Y278287D01*
X397155Y278139D01*
X397859Y278065D01*
X398636Y278028D01*
X399007D01*
X399414Y278065D01*
X399896Y278139D01*
X400488Y278213D01*
X401118Y278361D01*
X401747Y278547D01*
X402377Y278806D01*
X402451Y278843D01*
X402636Y278954D01*
X402932Y279139D01*
X403265Y279398D01*
X403673Y279732D01*
X404080Y280102D01*
X404451Y280546D01*
X404821Y281065D01*
X404858Y281139D01*
X404969Y281324D01*
X405080Y281657D01*
X405228Y282065D01*
X405414Y282583D01*
X405525Y283176D01*
X405636Y283805D01*
X405673Y284546D01*
Y294508D01*
X405636Y294878D01*
X405562Y295360D01*
X405451Y295878D01*
X405302Y296471D01*
X405117Y297063D01*
X404821Y297619D01*
X404784Y297693D01*
X404673Y297878D01*
X404451Y298137D01*
X404191Y298470D01*
X403821Y298841D01*
X403414Y299211D01*
X402932Y299582D01*
X402377Y299915D01*
X402340D01*
X402303Y299952D01*
X402080Y300026D01*
X401747Y300174D01*
X401303Y300322D01*
X400747Y300470D01*
X400118Y300618D01*
X399414Y300693D01*
X398636Y300730D01*
D02*
G37*
G36*
X369195Y300433D02*
X362270D01*
X361825Y300396D01*
X361307Y300322D01*
X360714Y300211D01*
X360048Y300063D01*
X359381Y299841D01*
X358752Y299544D01*
X358715D01*
X358678Y299507D01*
X358492Y299396D01*
X358159Y299211D01*
X357789Y298915D01*
X357381Y298582D01*
X356974Y298174D01*
X356567Y297693D01*
X356196Y297137D01*
X356159Y297063D01*
X356048Y296878D01*
X355900Y296545D01*
X355715Y296100D01*
X355567Y295582D01*
X355419Y294952D01*
X355308Y294286D01*
X355271Y293508D01*
Y284879D01*
X355308Y284509D01*
X355382Y283990D01*
X355493Y283435D01*
X355678Y282805D01*
X355900Y282176D01*
X356196Y281583D01*
X356233Y281509D01*
X356344Y281324D01*
X356567Y281065D01*
X356863Y280695D01*
X357196Y280324D01*
X357641Y279917D01*
X358159Y279510D01*
X358752Y279176D01*
X358826Y279139D01*
X359048Y279028D01*
X359381Y278917D01*
X359863Y278769D01*
X360418Y278584D01*
X361085Y278472D01*
X361825Y278361D01*
X362640Y278324D01*
X369195D01*
Y300433D01*
D02*
G37*
%LPD*%
G36*
X365418Y281694D02*
X362381D01*
X362048Y281731D01*
X361677Y281805D01*
X361270Y281917D01*
X360826Y282102D01*
X360381Y282324D01*
X360011Y282657D01*
X359974Y282694D01*
X359863Y282843D01*
X359715Y283065D01*
X359529Y283361D01*
X359344Y283731D01*
X359196Y284176D01*
X359085Y284657D01*
X359048Y285250D01*
Y293508D01*
Y293545D01*
Y293582D01*
Y293767D01*
X359085Y294063D01*
X359159Y294434D01*
X359270Y294841D01*
X359455Y295249D01*
X359678Y295693D01*
X360011Y296063D01*
X360048Y296100D01*
X360196Y296211D01*
X360418Y296360D01*
X360714Y296545D01*
X361085Y296730D01*
X361529Y296878D01*
X362048Y296989D01*
X362640Y297026D01*
X365418D01*
Y281694D01*
D02*
G37*
%LPC*%
G36*
X405651Y439126D02*
X398541D01*
X398319Y439089D01*
X398022D01*
X397726Y439052D01*
X397023Y438941D01*
X396208Y438756D01*
X395356Y438460D01*
X394504Y438089D01*
X393764Y437571D01*
X393727D01*
X393689Y437497D01*
X393467Y437275D01*
X393171Y436941D01*
X392801Y436460D01*
X392467Y435867D01*
X392171Y435164D01*
X391949Y434349D01*
X391912Y433905D01*
X391875Y433423D01*
Y433386D01*
Y433349D01*
Y433127D01*
X391912Y432794D01*
X392023Y432349D01*
X392134Y431868D01*
X392319Y431349D01*
X392579Y430794D01*
X392949Y430275D01*
X392986Y430238D01*
X393134Y430053D01*
X393356Y429868D01*
X393689Y429609D01*
X394060Y429313D01*
X394541Y429090D01*
X395060Y428868D01*
X395652Y428720D01*
Y428646D01*
X395578D01*
X395430Y428609D01*
X395208Y428572D01*
X394912Y428498D01*
X394541Y428350D01*
X394171Y428201D01*
X393801Y428016D01*
X393430Y427757D01*
X393393Y427720D01*
X393282Y427609D01*
X393097Y427461D01*
X392875Y427239D01*
X392653Y426979D01*
X392393Y426646D01*
X392134Y426239D01*
X391912Y425831D01*
X391875Y425794D01*
X391838Y425646D01*
X391727Y425387D01*
X391616Y425091D01*
X391542Y424720D01*
X391431Y424276D01*
X391394Y423832D01*
X391356Y423313D01*
Y422980D01*
X391394Y422646D01*
X391468Y422165D01*
X391579Y421647D01*
X391727Y421091D01*
X391949Y420499D01*
X392245Y419943D01*
X392282Y419869D01*
X392393Y419721D01*
X392616Y419462D01*
X392875Y419128D01*
X393245Y418795D01*
X393652Y418425D01*
X394171Y418091D01*
X394726Y417758D01*
X394800Y417721D01*
X395023Y417647D01*
X395356Y417536D01*
X395800Y417388D01*
X396356Y417240D01*
X396986Y417129D01*
X397726Y417054D01*
X398504Y417018D01*
X405651D01*
Y439126D01*
D02*
G37*
G36*
X383135D02*
X378284D01*
X372655Y417018D01*
X376543D01*
X377765Y422350D01*
X383616D01*
X384839Y417018D01*
X388727D01*
X383135Y439126D01*
D02*
G37*
G36*
X370210D02*
X354805D01*
Y435682D01*
X360619D01*
Y417018D01*
X364433D01*
Y435682D01*
X370210D01*
Y439126D01*
D02*
G37*
%LPD*%
G36*
X401948Y429979D02*
X398652D01*
X398393Y430016D01*
X398059Y430090D01*
X397689Y430164D01*
X397282Y430312D01*
X396911Y430535D01*
X396541Y430794D01*
X396504Y430831D01*
X396393Y430942D01*
X396245Y431127D01*
X396097Y431386D01*
X395948Y431683D01*
X395800Y432053D01*
X395689Y432497D01*
X395652Y432979D01*
Y433053D01*
Y433201D01*
X395689Y433460D01*
X395763Y433756D01*
X395874Y434127D01*
X396023Y434497D01*
X396245Y434830D01*
X396541Y435164D01*
X396578Y435201D01*
X396689Y435275D01*
X396874Y435423D01*
X397171Y435571D01*
X397504Y435719D01*
X397911Y435867D01*
X398356Y435941D01*
X398911Y435979D01*
X401948D01*
Y429979D01*
D02*
G37*
G36*
Y420165D02*
X398467D01*
X398134Y420202D01*
X397763Y420276D01*
X397356Y420387D01*
X396911Y420536D01*
X396467Y420758D01*
X396097Y421054D01*
X396060Y421091D01*
X395948Y421202D01*
X395800Y421424D01*
X395615Y421684D01*
X395430Y422054D01*
X395282Y422461D01*
X395171Y422943D01*
X395134Y423498D01*
Y423572D01*
Y423758D01*
X395171Y424017D01*
X395245Y424387D01*
X395356Y424757D01*
X395541Y425202D01*
X395763Y425609D01*
X396097Y425979D01*
X396134Y426017D01*
X396282Y426128D01*
X396504Y426276D01*
X396800Y426461D01*
X397171Y426646D01*
X397615Y426794D01*
X398134Y426905D01*
X398726Y426942D01*
X401948D01*
Y420165D01*
D02*
G37*
G36*
X380691Y435756D02*
X380728Y435682D01*
Y435571D01*
X380765Y435386D01*
X380839Y435127D01*
X380876Y434830D01*
X380987Y434497D01*
X381061Y434053D01*
Y434016D01*
X381098Y433830D01*
X381135Y433608D01*
X381209Y433275D01*
X381283Y432905D01*
X381395Y432460D01*
X381506Y431942D01*
X381617Y431423D01*
X382950Y425461D01*
X378469D01*
X379802Y431386D01*
Y431460D01*
X379839Y431646D01*
X379913Y431905D01*
X379987Y432275D01*
X380098Y432682D01*
X380209Y433127D01*
X380395Y434053D01*
Y434090D01*
X380432Y434238D01*
X380469Y434460D01*
X380506Y434719D01*
X380617Y435312D01*
X380654Y435571D01*
X380691Y435793D01*
Y435756D01*
D02*
G37*
%LPC*%
G36*
X827717Y370760D02*
X819719D01*
X819469Y370719D01*
X819136D01*
X818803Y370677D01*
X818011Y370552D01*
X817095Y370344D01*
X816137Y370010D01*
X815179Y369594D01*
X814345Y369011D01*
X814304D01*
X814262Y368927D01*
X814012Y368677D01*
X813679Y368303D01*
X813262Y367761D01*
X812888Y367095D01*
X812554Y366303D01*
X812304Y365387D01*
X812263Y364887D01*
X812221Y364345D01*
Y364304D01*
Y364262D01*
Y364012D01*
X812263Y363637D01*
X812388Y363137D01*
X812513Y362596D01*
X812721Y362012D01*
X813012Y361388D01*
X813429Y360804D01*
X813471Y360763D01*
X813637Y360555D01*
X813887Y360346D01*
X814262Y360055D01*
X814679Y359721D01*
X815220Y359472D01*
X815804Y359222D01*
X816470Y359055D01*
Y358972D01*
X816387D01*
X816220Y358930D01*
X815970Y358888D01*
X815637Y358805D01*
X815220Y358638D01*
X814804Y358472D01*
X814387Y358264D01*
X813971Y357972D01*
X813929Y357930D01*
X813804Y357805D01*
X813596Y357639D01*
X813346Y357389D01*
X813096Y357097D01*
X812804Y356722D01*
X812513Y356264D01*
X812263Y355806D01*
X812221Y355764D01*
X812179Y355597D01*
X812054Y355306D01*
X811929Y354973D01*
X811846Y354556D01*
X811721Y354056D01*
X811680Y353556D01*
X811638Y352973D01*
Y352598D01*
X811680Y352223D01*
X811763Y351682D01*
X811888Y351099D01*
X812054Y350474D01*
X812304Y349807D01*
X812638Y349183D01*
X812679Y349099D01*
X812804Y348933D01*
X813054Y348641D01*
X813346Y348266D01*
X813762Y347891D01*
X814221Y347475D01*
X814804Y347100D01*
X815429Y346725D01*
X815512Y346683D01*
X815762Y346600D01*
X816137Y346475D01*
X816637Y346308D01*
X817261Y346142D01*
X817970Y346017D01*
X818803Y345933D01*
X819678Y345892D01*
X827717D01*
Y370760D01*
D02*
G37*
%LPD*%
G36*
X823551Y360471D02*
X819844D01*
X819553Y360513D01*
X819178Y360596D01*
X818761Y360680D01*
X818303Y360846D01*
X817886Y361096D01*
X817470Y361388D01*
X817428Y361429D01*
X817303Y361554D01*
X817137Y361763D01*
X816970Y362054D01*
X816803Y362387D01*
X816637Y362804D01*
X816512Y363304D01*
X816470Y363845D01*
Y363929D01*
Y364095D01*
X816512Y364387D01*
X816595Y364720D01*
X816720Y365137D01*
X816887Y365553D01*
X817137Y365928D01*
X817470Y366303D01*
X817511Y366345D01*
X817636Y366428D01*
X817845Y366595D01*
X818178Y366761D01*
X818553Y366928D01*
X819011Y367095D01*
X819511Y367178D01*
X820136Y367220D01*
X823551D01*
Y360471D01*
D02*
G37*
G36*
Y349432D02*
X819636D01*
X819261Y349474D01*
X818844Y349557D01*
X818386Y349682D01*
X817886Y349849D01*
X817386Y350099D01*
X816970Y350432D01*
X816928Y350474D01*
X816803Y350599D01*
X816637Y350849D01*
X816428Y351140D01*
X816220Y351557D01*
X816053Y352015D01*
X815928Y352557D01*
X815887Y353181D01*
Y353265D01*
Y353473D01*
X815928Y353765D01*
X816012Y354181D01*
X816137Y354598D01*
X816345Y355098D01*
X816595Y355556D01*
X816970Y355972D01*
X817011Y356014D01*
X817178Y356139D01*
X817428Y356306D01*
X817761Y356514D01*
X818178Y356722D01*
X818678Y356889D01*
X819261Y357014D01*
X819927Y357056D01*
X823551D01*
Y349432D01*
D02*
G37*
%LPC*%
G36*
X581032Y407217D02*
X580754D01*
X580477Y407190D01*
X580088Y407134D01*
X579672Y407079D01*
X579200Y406968D01*
X578728Y406801D01*
X578284Y406607D01*
X578256D01*
X578228Y406579D01*
X578089Y406496D01*
X577867Y406357D01*
X577617Y406162D01*
X577312Y405913D01*
X577006Y405635D01*
X576701Y405274D01*
X576451Y404885D01*
X576423Y404830D01*
X576340Y404691D01*
X576257Y404469D01*
X576118Y404136D01*
X576007Y403775D01*
X575924Y403331D01*
X575840Y402831D01*
X575813Y402304D01*
Y402248D01*
Y402081D01*
X575840Y401832D01*
X575896Y401498D01*
X575951Y401110D01*
X576063Y400693D01*
X576229Y400221D01*
X576423Y399749D01*
X576451Y399694D01*
X576535Y399527D01*
X576673Y399277D01*
X576895Y398944D01*
X577173Y398556D01*
X577506Y398111D01*
X577923Y397640D01*
X578395Y397140D01*
X582587Y392976D01*
X575591D01*
Y390421D01*
X586140D01*
Y392976D01*
X580171Y399083D01*
X580144Y399111D01*
X580116Y399166D01*
X580033Y399222D01*
X579949Y399361D01*
X579699Y399638D01*
X579422Y400055D01*
X579172Y400499D01*
X578922Y401026D01*
X578755Y401582D01*
X578728Y401887D01*
X578700Y402165D01*
Y402220D01*
Y402359D01*
X578728Y402553D01*
X578783Y402803D01*
X578867Y403081D01*
X578978Y403386D01*
X579144Y403692D01*
X579366Y403969D01*
X579394Y403997D01*
X579477Y404080D01*
X579616Y404191D01*
X579810Y404330D01*
X580060Y404441D01*
X580366Y404552D01*
X580699Y404636D01*
X581087Y404663D01*
X581282D01*
X581476Y404636D01*
X581726Y404580D01*
X582004Y404497D01*
X582309Y404358D01*
X582614Y404191D01*
X582892Y403941D01*
X582920Y403914D01*
X583003Y403803D01*
X583114Y403664D01*
X583225Y403442D01*
X583336Y403164D01*
X583447Y402859D01*
X583531Y402470D01*
X583558Y402054D01*
X586390D01*
Y402304D01*
X586362Y402609D01*
X586307Y402970D01*
X586223Y403386D01*
X586113Y403858D01*
X585946Y404302D01*
X585724Y404747D01*
X585696Y404802D01*
X585585Y404941D01*
X585446Y405163D01*
X585224Y405413D01*
X584947Y405691D01*
X584641Y405996D01*
X584252Y406301D01*
X583836Y406551D01*
X583808D01*
X583780Y406579D01*
X583614Y406662D01*
X583364Y406773D01*
X583031Y406884D01*
X582614Y406995D01*
X582142Y407106D01*
X581615Y407190D01*
X581032Y407217D01*
D02*
G37*
G36*
X613847Y406995D02*
X610154D01*
X608294Y399860D01*
X606407Y406995D01*
X602687D01*
Y390421D01*
X605352D01*
Y397390D01*
Y397417D01*
Y397445D01*
Y397528D01*
Y397640D01*
Y397917D01*
Y398278D01*
X605324Y398722D01*
Y399222D01*
X605296Y399777D01*
X605268Y400332D01*
Y400360D01*
Y400416D01*
Y400499D01*
X605241Y400610D01*
Y400888D01*
X605213Y401276D01*
X605185Y401748D01*
X605157Y402248D01*
X605074Y403303D01*
Y403331D01*
Y403358D01*
Y403442D01*
X605046Y403553D01*
X605019Y403830D01*
X604991Y404164D01*
X604963Y404580D01*
X604907Y405024D01*
X604824Y405940D01*
X607156Y397612D01*
X609488D01*
X611737Y405746D01*
Y405718D01*
Y405663D01*
X611709Y405579D01*
Y405468D01*
X611682Y405302D01*
X611654Y405135D01*
Y404913D01*
X611626Y404691D01*
X611570Y404136D01*
X611515Y403497D01*
X611432Y402775D01*
X611376Y401998D01*
Y401970D01*
Y401915D01*
X611348Y401776D01*
Y401609D01*
Y401415D01*
X611320Y401193D01*
Y400915D01*
X611293Y400610D01*
X611265Y400277D01*
Y399916D01*
X611237Y399139D01*
X611209Y398278D01*
Y397390D01*
Y390421D01*
X613847D01*
Y406995D01*
D02*
G37*
G36*
X623730D02*
X620093D01*
X615873Y390421D01*
X618789D01*
X619705Y394419D01*
X624091D01*
X625007Y390421D01*
X627922D01*
X623730Y406995D01*
D02*
G37*
G36*
X599522D02*
X589944D01*
Y404580D01*
X593747Y400915D01*
X593664D01*
X593553Y400888D01*
X593414Y400860D01*
X593247Y400804D01*
X593053Y400749D01*
X592609Y400610D01*
X592109Y400416D01*
X591582Y400166D01*
X591082Y399805D01*
X590610Y399389D01*
X590554Y399333D01*
X590443Y399166D01*
X590249Y398889D01*
X590027Y398528D01*
X589833Y398084D01*
X589638Y397528D01*
X589527Y396890D01*
X589472Y396196D01*
Y394725D01*
X589500Y394586D01*
X589527Y394391D01*
X589555Y394197D01*
X589638Y393697D01*
X589833Y393142D01*
X590083Y392559D01*
X590249Y392281D01*
X590443Y392004D01*
X590666Y391726D01*
X590915Y391476D01*
X590943D01*
X590971Y391421D01*
X591054Y391365D01*
X591165Y391282D01*
X591332Y391171D01*
X591498Y391060D01*
X591693Y390949D01*
X591942Y390838D01*
X592192Y390727D01*
X592498Y390616D01*
X592803Y390505D01*
X593164Y390394D01*
X593914Y390255D01*
X594358Y390227D01*
X594802Y390199D01*
X595024D01*
X595219Y390227D01*
X595413D01*
X595663Y390255D01*
X596190Y390366D01*
X596829Y390505D01*
X597467Y390727D01*
X598106Y391060D01*
X598411Y391254D01*
X598689Y391476D01*
X598717Y391504D01*
X598744Y391532D01*
X598828Y391615D01*
X598911Y391698D01*
X599022Y391837D01*
X599133Y392004D01*
X599383Y392393D01*
X599660Y392892D01*
X599883Y393475D01*
X600049Y394169D01*
X600077Y394558D01*
X600105Y394947D01*
X597245D01*
Y394891D01*
Y394780D01*
X597217Y394586D01*
X597162Y394336D01*
X597079Y394058D01*
X596968Y393781D01*
X596829Y393503D01*
X596607Y393253D01*
X596579Y393225D01*
X596496Y393170D01*
X596329Y393059D01*
X596135Y392948D01*
X595857Y392837D01*
X595552Y392726D01*
X595191Y392670D01*
X594774Y392642D01*
X594580D01*
X594386Y392670D01*
X594136Y392726D01*
X593830Y392781D01*
X593553Y392892D01*
X593247Y393059D01*
X592998Y393253D01*
X592970Y393281D01*
X592886Y393364D01*
X592775Y393503D01*
X592664Y393697D01*
X592553Y393947D01*
X592442Y394225D01*
X592359Y394586D01*
X592331Y394947D01*
Y396196D01*
Y396251D01*
Y396390D01*
X592359Y396585D01*
X592415Y396834D01*
X592498Y397112D01*
X592609Y397390D01*
X592748Y397667D01*
X592970Y397917D01*
X592998Y397945D01*
X593081Y398028D01*
X593220Y398111D01*
X593442Y398250D01*
X593691Y398361D01*
X593997Y398445D01*
X594358Y398528D01*
X594774Y398556D01*
X596856D01*
Y400832D01*
X593053Y404497D01*
X599522D01*
Y406995D01*
D02*
G37*
G36*
X588264Y386884D02*
X587986D01*
X587681Y386857D01*
X587320Y386801D01*
X586876Y386746D01*
X586404Y386635D01*
X585932Y386468D01*
X585488Y386274D01*
X585460D01*
X585432Y386246D01*
X585294Y386163D01*
X585071Y386024D01*
X584822Y385830D01*
X584516Y385580D01*
X584211Y385302D01*
X583905Y384941D01*
X583656Y384552D01*
X583628Y384497D01*
X583545Y384358D01*
X583433Y384136D01*
X583322Y383831D01*
X583211Y383442D01*
X583100Y382998D01*
X583017Y382526D01*
X582989Y381970D01*
X585849D01*
Y382026D01*
Y382165D01*
X585877Y382359D01*
X585932Y382637D01*
X586015Y382914D01*
X586126Y383220D01*
X586265Y383498D01*
X586487Y383747D01*
X586515Y383775D01*
X586598Y383858D01*
X586737Y383942D01*
X586931Y384081D01*
X587181Y384192D01*
X587487Y384275D01*
X587848Y384358D01*
X588264Y384386D01*
X588458D01*
X588653Y384358D01*
X588903Y384303D01*
X589208Y384219D01*
X589486Y384108D01*
X589791Y383969D01*
X590041Y383747D01*
X590069Y383720D01*
X590152Y383636D01*
X590235Y383498D01*
X590346Y383303D01*
X590485Y383053D01*
X590568Y382748D01*
X590652Y382387D01*
X590679Y381970D01*
Y374752D01*
Y374697D01*
Y374558D01*
X590652Y374364D01*
X590596Y374086D01*
X590513Y373808D01*
X590402Y373503D01*
X590263Y373198D01*
X590041Y372948D01*
X590013Y372920D01*
X589930Y372864D01*
X589791Y372753D01*
X589569Y372642D01*
X589319Y372531D01*
X589014Y372420D01*
X588653Y372365D01*
X588264Y372337D01*
X588070D01*
X587875Y372365D01*
X587598Y372420D01*
X587320Y372476D01*
X587015Y372587D01*
X586737Y372753D01*
X586487Y372948D01*
X586460Y372976D01*
X586376Y373059D01*
X586293Y373225D01*
X586154Y373420D01*
X586043Y373670D01*
X585960Y373975D01*
X585877Y374336D01*
X585849Y374752D01*
X582989D01*
Y374502D01*
X583017Y374225D01*
X583073Y373864D01*
X583156Y373447D01*
X583267Y373031D01*
X583433Y372587D01*
X583656Y372143D01*
X583683Y372087D01*
X583767Y371976D01*
X583933Y371782D01*
X584128Y371532D01*
X584377Y371254D01*
X584711Y370977D01*
X585071Y370699D01*
X585488Y370449D01*
X585543Y370421D01*
X585682Y370366D01*
X585932Y370255D01*
X586265Y370172D01*
X586682Y370061D01*
X587154Y369949D01*
X587681Y369894D01*
X588264Y369866D01*
X588542D01*
X588847Y369894D01*
X589208Y369949D01*
X589652Y370005D01*
X590124Y370116D01*
X590596Y370255D01*
X591068Y370449D01*
X591124Y370477D01*
X591262Y370560D01*
X591457Y370699D01*
X591734Y370893D01*
X592012Y371143D01*
X592317Y371421D01*
X592623Y371754D01*
X592873Y372143D01*
X592900Y372198D01*
X592984Y372337D01*
X593067Y372587D01*
X593178Y372892D01*
X593317Y373281D01*
X593400Y373725D01*
X593483Y374197D01*
X593511Y374752D01*
Y382220D01*
X593483Y382498D01*
X593428Y382859D01*
X593344Y383248D01*
X593233Y383692D01*
X593095Y384136D01*
X592873Y384552D01*
X592845Y384608D01*
X592761Y384747D01*
X592595Y384941D01*
X592401Y385191D01*
X592151Y385469D01*
X591845Y385746D01*
X591484Y386024D01*
X591068Y386274D01*
X591040D01*
X591012Y386301D01*
X590846Y386357D01*
X590596Y386468D01*
X590263Y386579D01*
X589846Y386690D01*
X589375Y386801D01*
X588847Y386857D01*
X588264Y386884D01*
D02*
G37*
G36*
X620524Y386662D02*
X610557D01*
Y384164D01*
X617720D01*
Y379833D01*
X611362D01*
Y377445D01*
X617720D01*
Y372559D01*
X610557D01*
Y370088D01*
X620524D01*
Y386662D01*
D02*
G37*
G36*
X602562Y386884D02*
X601895D01*
X601590Y386857D01*
X601229Y386801D01*
X600785Y386746D01*
X600341Y386635D01*
X599869Y386496D01*
X599425Y386301D01*
X599369Y386274D01*
X599230Y386190D01*
X599008Y386079D01*
X598758Y385885D01*
X598480Y385663D01*
X598175Y385385D01*
X597870Y385052D01*
X597620Y384691D01*
X597592Y384636D01*
X597509Y384497D01*
X597426Y384303D01*
X597287Y383997D01*
X597176Y383664D01*
X597092Y383248D01*
X597009Y382803D01*
X596981Y382304D01*
X599758D01*
Y382359D01*
Y382470D01*
X599785Y382637D01*
X599841Y382859D01*
X599924Y383081D01*
X600035Y383359D01*
X600202Y383609D01*
X600424Y383831D01*
X600452Y383858D01*
X600535Y383914D01*
X600674Y384025D01*
X600868Y384136D01*
X601118Y384219D01*
X601423Y384330D01*
X601757Y384386D01*
X602145Y384414D01*
X602312D01*
X602534Y384386D01*
X602756Y384330D01*
X603033Y384275D01*
X603339Y384164D01*
X603616Y384025D01*
X603866Y383831D01*
X603894Y383803D01*
X603950Y383720D01*
X604061Y383609D01*
X604172Y383442D01*
X604283Y383220D01*
X604394Y382970D01*
X604449Y382665D01*
X604477Y382331D01*
Y382304D01*
Y382193D01*
X604449Y382054D01*
X604422Y381887D01*
X604366Y381665D01*
X604283Y381471D01*
X604172Y381249D01*
X604033Y381054D01*
X604005Y381027D01*
X603950Y380971D01*
X603839Y380888D01*
X603700Y380777D01*
X603533Y380666D01*
X603311Y380527D01*
X603061Y380416D01*
X602784Y380333D01*
X600507Y379777D01*
X600479D01*
X600424Y379750D01*
X600341Y379722D01*
X600202Y379694D01*
X600035Y379638D01*
X599869Y379555D01*
X599452Y379361D01*
X598980Y379111D01*
X598480Y378806D01*
X598009Y378417D01*
X597592Y377945D01*
Y377917D01*
X597537Y377890D01*
X597481Y377806D01*
X597426Y377695D01*
X597259Y377417D01*
X597065Y377029D01*
X596870Y376557D01*
X596704Y376002D01*
X596593Y375391D01*
X596537Y374697D01*
Y374447D01*
X596565Y374169D01*
X596620Y373836D01*
X596704Y373420D01*
X596843Y373003D01*
X597009Y372559D01*
X597231Y372143D01*
X597259Y372087D01*
X597342Y371976D01*
X597509Y371782D01*
X597703Y371532D01*
X597981Y371254D01*
X598314Y370977D01*
X598675Y370699D01*
X599119Y370449D01*
X599175Y370421D01*
X599341Y370366D01*
X599591Y370255D01*
X599924Y370172D01*
X600368Y370061D01*
X600840Y369949D01*
X601396Y369894D01*
X602006Y369866D01*
X602284D01*
X602589Y369894D01*
X603006Y369949D01*
X603450Y370005D01*
X603950Y370116D01*
X604449Y370255D01*
X604949Y370449D01*
X605005Y370477D01*
X605144Y370560D01*
X605393Y370699D01*
X605671Y370866D01*
X605976Y371115D01*
X606282Y371393D01*
X606615Y371726D01*
X606893Y372115D01*
X606920Y372170D01*
X607004Y372309D01*
X607115Y372559D01*
X607226Y372864D01*
X607364Y373253D01*
X607476Y373697D01*
X607559Y374197D01*
X607587Y374752D01*
X604783D01*
Y374697D01*
Y374558D01*
X604755Y374364D01*
X604699Y374114D01*
X604588Y373836D01*
X604477Y373531D01*
X604283Y373253D01*
X604033Y372976D01*
X604005Y372948D01*
X603894Y372864D01*
X603728Y372753D01*
X603478Y372642D01*
X603200Y372531D01*
X602839Y372420D01*
X602450Y372337D01*
X602006Y372309D01*
X601812D01*
X601562Y372337D01*
X601284Y372393D01*
X600979Y372476D01*
X600646Y372587D01*
X600341Y372726D01*
X600063Y372948D01*
X600035Y372976D01*
X599952Y373059D01*
X599841Y373225D01*
X599702Y373420D01*
X599563Y373670D01*
X599452Y373975D01*
X599369Y374308D01*
X599341Y374697D01*
Y374725D01*
Y374836D01*
X599369Y375002D01*
X599397Y375197D01*
X599452Y375419D01*
X599535Y375668D01*
X599647Y375891D01*
X599813Y376141D01*
X599841Y376168D01*
X599896Y376251D01*
X600008Y376363D01*
X600146Y376501D01*
X600341Y376640D01*
X600563Y376779D01*
X600840Y376890D01*
X601146Y377001D01*
X603367Y377556D01*
X603394D01*
X603450Y377584D01*
X603533Y377612D01*
X603672Y377640D01*
X603978Y377778D01*
X604394Y377945D01*
X604838Y378195D01*
X605310Y378473D01*
X605782Y378833D01*
X606198Y379278D01*
Y379305D01*
X606254Y379333D01*
X606365Y379500D01*
X606532Y379777D01*
X606726Y380111D01*
X606920Y380555D01*
X607087Y381054D01*
X607198Y381637D01*
X607253Y382248D01*
Y382276D01*
Y382331D01*
Y382443D01*
X607226Y382609D01*
X607198Y382776D01*
X607170Y382970D01*
X607087Y383470D01*
X606920Y383997D01*
X606670Y384552D01*
X606504Y384830D01*
X606310Y385108D01*
X606115Y385358D01*
X605865Y385607D01*
X605838Y385635D01*
X605810Y385663D01*
X605727Y385718D01*
X605615Y385802D01*
X605477Y385913D01*
X605310Y386024D01*
X605116Y386135D01*
X604866Y386246D01*
X604338Y386468D01*
X603700Y386690D01*
X602978Y386829D01*
X602562Y386884D01*
D02*
G37*
%LPD*%
G36*
X621898Y404469D02*
X621926Y404413D01*
Y404330D01*
X621954Y404191D01*
X622009Y403997D01*
X622037Y403775D01*
X622120Y403525D01*
X622176Y403192D01*
Y403164D01*
X622203Y403025D01*
X622231Y402859D01*
X622287Y402609D01*
X622342Y402331D01*
X622425Y401998D01*
X622509Y401609D01*
X622592Y401221D01*
X623591Y396751D01*
X620232D01*
X621232Y401193D01*
Y401249D01*
X621259Y401387D01*
X621315Y401582D01*
X621371Y401859D01*
X621454Y402165D01*
X621537Y402498D01*
X621676Y403192D01*
Y403220D01*
X621704Y403331D01*
X621731Y403497D01*
X621759Y403692D01*
X621842Y404136D01*
X621870Y404330D01*
X621898Y404497D01*
Y404469D01*
D02*
G37*
%LPC*%
G36*
X822427Y444021D02*
X816970D01*
X810638Y419153D01*
X815012D01*
X816387Y425151D01*
X822968D01*
X824343Y419153D01*
X828717D01*
X822427Y444021D01*
D02*
G37*
%LPD*%
G36*
X819678Y440230D02*
X819719Y440147D01*
Y440022D01*
X819761Y439814D01*
X819844Y439522D01*
X819886Y439189D01*
X820011Y438814D01*
X820094Y438314D01*
Y438273D01*
X820136Y438064D01*
X820177Y437814D01*
X820261Y437439D01*
X820344Y437023D01*
X820469Y436523D01*
X820594Y435940D01*
X820719Y435357D01*
X822218Y428650D01*
X817178D01*
X818678Y435315D01*
Y435398D01*
X818719Y435607D01*
X818803Y435898D01*
X818886Y436315D01*
X819011Y436773D01*
X819136Y437273D01*
X819344Y438314D01*
Y438356D01*
X819386Y438523D01*
X819427Y438773D01*
X819469Y439064D01*
X819594Y439731D01*
X819636Y440022D01*
X819678Y440272D01*
Y440230D01*
D02*
G37*
%LPC*%
G36*
X568231Y263601D02*
X568179D01*
X568075Y263595D01*
X567978Y263569D01*
X567900Y263543D01*
X567829Y263504D01*
X567777Y263472D01*
X567738Y263439D01*
X567712Y263413D01*
X567706Y263407D01*
X567648Y263329D01*
X567602Y263251D01*
X567570Y263167D01*
X567544Y263083D01*
X567531Y263012D01*
X567524Y262953D01*
Y262915D01*
Y262908D01*
Y262902D01*
X567531Y262792D01*
X567550Y262694D01*
X567583Y262610D01*
X567615Y262539D01*
X567648Y262481D01*
X567680Y262435D01*
X567699Y262409D01*
X567706Y262403D01*
X567777Y262338D01*
X567855Y262293D01*
X567933Y262260D01*
X568010Y262241D01*
X568075Y262228D01*
X568127Y262215D01*
X568179D01*
X568282Y262222D01*
X568380Y262248D01*
X568464Y262273D01*
X568529Y262312D01*
X568587Y262345D01*
X568626Y262377D01*
X568652Y262397D01*
X568658Y262403D01*
X568716Y262481D01*
X568762Y262558D01*
X568794Y262643D01*
X568813Y262720D01*
X568826Y262792D01*
X568839Y262850D01*
Y262889D01*
Y262895D01*
Y262902D01*
X568833Y263012D01*
X568813Y263115D01*
X568781Y263200D01*
X568749Y263271D01*
X568716Y263329D01*
X568684Y263375D01*
X568665Y263400D01*
X568658Y263407D01*
X568587Y263472D01*
X568509Y263517D01*
X568425Y263556D01*
X568347Y263575D01*
X568282Y263588D01*
X568231Y263601D01*
D02*
G37*
G36*
X584132Y265065D02*
X584080D01*
X583976Y265058D01*
X583879Y265039D01*
X583801Y265007D01*
X583730Y264974D01*
X583678Y264935D01*
X583639Y264909D01*
X583613Y264884D01*
X583607Y264877D01*
X583549Y264799D01*
X583503Y264722D01*
X583471Y264638D01*
X583445Y264560D01*
X583432Y264489D01*
X583426Y264430D01*
Y264391D01*
Y264385D01*
Y264378D01*
X583432Y264268D01*
X583451Y264165D01*
X583484Y264081D01*
X583516Y264009D01*
X583549Y263951D01*
X583581Y263906D01*
X583600Y263880D01*
X583607Y263873D01*
X583678Y263808D01*
X583756Y263763D01*
X583834Y263731D01*
X583911Y263711D01*
X583976Y263698D01*
X584028Y263685D01*
X584080D01*
X584183Y263692D01*
X584281Y263718D01*
X584365Y263744D01*
X584430Y263783D01*
X584488Y263815D01*
X584527Y263847D01*
X584553Y263867D01*
X584559Y263873D01*
X584617Y263951D01*
X584663Y264029D01*
X584695Y264113D01*
X584715Y264197D01*
X584727Y264268D01*
X584740Y264327D01*
Y264366D01*
Y264372D01*
Y264378D01*
X584734Y264489D01*
X584715Y264586D01*
X584682Y264670D01*
X584650Y264748D01*
X584617Y264799D01*
X584585Y264845D01*
X584566Y264871D01*
X584559Y264877D01*
X584488Y264942D01*
X584410Y264987D01*
X584326Y265020D01*
X584248Y265039D01*
X584183Y265058D01*
X584132Y265065D01*
D02*
G37*
G36*
X625947Y264994D02*
X625384D01*
X625286Y264987D01*
X625202Y264968D01*
X625125Y264942D01*
X625066Y264916D01*
X625014Y264884D01*
X624982Y264858D01*
X624956Y264838D01*
X624950Y264832D01*
X624898Y264767D01*
X624859Y264702D01*
X624827Y264631D01*
X624807Y264560D01*
X624794Y264501D01*
X624788Y264450D01*
Y264417D01*
Y264404D01*
X624794Y264307D01*
X624814Y264223D01*
X624840Y264152D01*
X624865Y264087D01*
X624898Y264042D01*
X624924Y264003D01*
X624943Y263983D01*
X624950Y263977D01*
X625014Y263925D01*
X625086Y263893D01*
X625157Y263867D01*
X625222Y263847D01*
X625286Y263834D01*
X625338Y263828D01*
X625947D01*
Y264994D01*
D02*
G37*
G36*
X603206Y265052D02*
X603161D01*
X603064Y265046D01*
X602973Y265026D01*
X602902Y265000D01*
X602837Y264974D01*
X602785Y264942D01*
X602753Y264916D01*
X602727Y264897D01*
X602720Y264890D01*
X602669Y264825D01*
X602630Y264761D01*
X602598Y264689D01*
X602578Y264625D01*
X602565Y264566D01*
X602559Y264521D01*
Y264489D01*
Y264476D01*
Y262811D01*
X602565Y262714D01*
X602584Y262630D01*
X602610Y262558D01*
X602643Y262500D01*
X602675Y262448D01*
X602701Y262416D01*
X602720Y262390D01*
X602727Y262383D01*
X602792Y262332D01*
X602863Y262293D01*
X602934Y262267D01*
X603005Y262248D01*
X603064Y262234D01*
X603116Y262228D01*
X603161D01*
X603258Y262234D01*
X603349Y262254D01*
X603420Y262280D01*
X603485Y262306D01*
X603537Y262332D01*
X603569Y262358D01*
X603595Y262377D01*
X603601Y262383D01*
X603653Y262448D01*
X603692Y262519D01*
X603725Y262591D01*
X603744Y262656D01*
X603757Y262720D01*
X603763Y262766D01*
Y262798D01*
Y262811D01*
Y264476D01*
X603757Y264566D01*
X603737Y264650D01*
X603712Y264722D01*
X603679Y264780D01*
X603653Y264825D01*
X603627Y264864D01*
X603608Y264884D01*
X603601Y264890D01*
X603537Y264942D01*
X603465Y264981D01*
X603388Y265013D01*
X603323Y265033D01*
X603258Y265046D01*
X603206Y265052D01*
D02*
G37*
%LPD*%
G36*
X603219Y263970D02*
X603271Y263964D01*
X603316Y263951D01*
X603349Y263938D01*
X603381Y263918D01*
X603401Y263906D01*
X603414Y263899D01*
X603420Y263893D01*
X603452Y263860D01*
X603472Y263821D01*
X603498Y263750D01*
X603504Y263711D01*
X603511Y263685D01*
Y263666D01*
Y263659D01*
X603504Y263601D01*
X603498Y263549D01*
X603485Y263510D01*
X603465Y263472D01*
X603446Y263446D01*
X603433Y263426D01*
X603427Y263413D01*
X603420Y263407D01*
X603381Y263381D01*
X603336Y263361D01*
X603252Y263336D01*
X603219Y263329D01*
X603187Y263323D01*
X603161D01*
X603103Y263329D01*
X603057Y263336D01*
X603012Y263349D01*
X602973Y263368D01*
X602947Y263381D01*
X602928Y263394D01*
X602915Y263400D01*
X602908Y263407D01*
X602876Y263446D01*
X602850Y263485D01*
X602837Y263530D01*
X602824Y263569D01*
X602818Y263601D01*
X602811Y263634D01*
Y263653D01*
Y263659D01*
X602818Y263711D01*
X602824Y263763D01*
X602844Y263802D01*
X602857Y263834D01*
X602876Y263860D01*
X602895Y263880D01*
X602902Y263886D01*
X602908Y263893D01*
X602947Y263918D01*
X602986Y263944D01*
X603070Y263964D01*
X603109Y263970D01*
X603135Y263977D01*
X603161D01*
X603219Y263970D01*
D02*
G37*
%LPC*%
G36*
X596846Y265052D02*
X596801D01*
X596703Y265046D01*
X596613Y265026D01*
X596541Y265000D01*
X596477Y264974D01*
X596425Y264942D01*
X596393Y264916D01*
X596367Y264897D01*
X596360Y264890D01*
X596308Y264825D01*
X596269Y264761D01*
X596237Y264689D01*
X596218Y264625D01*
X596205Y264566D01*
X596198Y264521D01*
Y264489D01*
Y264476D01*
Y262811D01*
X596205Y262714D01*
X596224Y262630D01*
X596250Y262558D01*
X596282Y262500D01*
X596315Y262448D01*
X596341Y262416D01*
X596360Y262390D01*
X596367Y262383D01*
X596431Y262332D01*
X596503Y262293D01*
X596574Y262267D01*
X596645Y262248D01*
X596703Y262234D01*
X596755Y262228D01*
X596801D01*
X596898Y262234D01*
X596988Y262254D01*
X597060Y262280D01*
X597124Y262306D01*
X597176Y262332D01*
X597209Y262358D01*
X597234Y262377D01*
X597241Y262383D01*
X597293Y262448D01*
X597332Y262519D01*
X597364Y262591D01*
X597383Y262656D01*
X597396Y262720D01*
X597403Y262766D01*
Y262798D01*
Y262811D01*
Y264476D01*
X597396Y264566D01*
X597377Y264650D01*
X597351Y264722D01*
X597319Y264780D01*
X597293Y264825D01*
X597267Y264864D01*
X597248Y264884D01*
X597241Y264890D01*
X597176Y264942D01*
X597105Y264981D01*
X597027Y265013D01*
X596963Y265033D01*
X596898Y265046D01*
X596846Y265052D01*
D02*
G37*
%LPD*%
G36*
X596859Y263970D02*
X596911Y263964D01*
X596956Y263951D01*
X596988Y263938D01*
X597021Y263918D01*
X597040Y263906D01*
X597053Y263899D01*
X597060Y263893D01*
X597092Y263860D01*
X597112Y263821D01*
X597137Y263750D01*
X597144Y263711D01*
X597150Y263685D01*
Y263666D01*
Y263659D01*
X597144Y263601D01*
X597137Y263549D01*
X597124Y263510D01*
X597105Y263472D01*
X597085Y263446D01*
X597073Y263426D01*
X597066Y263413D01*
X597060Y263407D01*
X597021Y263381D01*
X596975Y263361D01*
X596891Y263336D01*
X596859Y263329D01*
X596827Y263323D01*
X596801D01*
X596742Y263329D01*
X596697Y263336D01*
X596652Y263349D01*
X596613Y263368D01*
X596587Y263381D01*
X596567Y263394D01*
X596554Y263400D01*
X596548Y263407D01*
X596516Y263446D01*
X596490Y263485D01*
X596477Y263530D01*
X596464Y263569D01*
X596457Y263601D01*
X596451Y263634D01*
Y263653D01*
Y263659D01*
X596457Y263711D01*
X596464Y263763D01*
X596483Y263802D01*
X596496Y263834D01*
X596516Y263860D01*
X596535Y263880D01*
X596541Y263886D01*
X596548Y263893D01*
X596587Y263918D01*
X596626Y263944D01*
X596710Y263964D01*
X596749Y263970D01*
X596775Y263977D01*
X596801D01*
X596859Y263970D01*
D02*
G37*
%LPC*%
G36*
X587305Y265052D02*
X587260D01*
X587163Y265046D01*
X587072Y265026D01*
X587001Y265000D01*
X586936Y264974D01*
X586884Y264942D01*
X586852Y264916D01*
X586826Y264897D01*
X586819Y264890D01*
X586768Y264825D01*
X586729Y264761D01*
X586696Y264689D01*
X586677Y264625D01*
X586664Y264566D01*
X586658Y264521D01*
Y264489D01*
Y264476D01*
Y262811D01*
X586664Y262714D01*
X586684Y262630D01*
X586709Y262558D01*
X586742Y262500D01*
X586774Y262448D01*
X586800Y262416D01*
X586819Y262390D01*
X586826Y262383D01*
X586891Y262332D01*
X586962Y262293D01*
X587033Y262267D01*
X587104Y262248D01*
X587163Y262234D01*
X587215Y262228D01*
X587260D01*
X587357Y262234D01*
X587448Y262254D01*
X587519Y262280D01*
X587584Y262306D01*
X587636Y262332D01*
X587668Y262358D01*
X587694Y262377D01*
X587700Y262383D01*
X587752Y262448D01*
X587791Y262519D01*
X587823Y262591D01*
X587843Y262656D01*
X587856Y262720D01*
X587862Y262766D01*
Y262798D01*
Y262811D01*
Y264476D01*
X587856Y264566D01*
X587836Y264650D01*
X587811Y264722D01*
X587778Y264780D01*
X587752Y264825D01*
X587726Y264864D01*
X587707Y264884D01*
X587700Y264890D01*
X587636Y264942D01*
X587564Y264981D01*
X587487Y265013D01*
X587422Y265033D01*
X587357Y265046D01*
X587305Y265052D01*
D02*
G37*
%LPD*%
G36*
X587318Y263970D02*
X587370Y263964D01*
X587415Y263951D01*
X587448Y263938D01*
X587480Y263918D01*
X587500Y263906D01*
X587513Y263899D01*
X587519Y263893D01*
X587551Y263860D01*
X587571Y263821D01*
X587597Y263750D01*
X587603Y263711D01*
X587610Y263685D01*
Y263666D01*
Y263659D01*
X587603Y263601D01*
X587597Y263549D01*
X587584Y263510D01*
X587564Y263472D01*
X587545Y263446D01*
X587532Y263426D01*
X587525Y263413D01*
X587519Y263407D01*
X587480Y263381D01*
X587435Y263361D01*
X587351Y263336D01*
X587318Y263329D01*
X587286Y263323D01*
X587260D01*
X587202Y263329D01*
X587156Y263336D01*
X587111Y263349D01*
X587072Y263368D01*
X587046Y263381D01*
X587027Y263394D01*
X587014Y263400D01*
X587007Y263407D01*
X586975Y263446D01*
X586949Y263485D01*
X586936Y263530D01*
X586923Y263569D01*
X586917Y263601D01*
X586910Y263634D01*
Y263653D01*
Y263659D01*
X586917Y263711D01*
X586923Y263763D01*
X586943Y263802D01*
X586955Y263834D01*
X586975Y263860D01*
X586994Y263880D01*
X587001Y263886D01*
X587007Y263893D01*
X587046Y263918D01*
X587085Y263944D01*
X587169Y263964D01*
X587208Y263970D01*
X587234Y263977D01*
X587260D01*
X587318Y263970D01*
D02*
G37*
%LPC*%
G36*
X574584Y265052D02*
X574539D01*
X574442Y265046D01*
X574351Y265026D01*
X574280Y265000D01*
X574215Y264974D01*
X574163Y264942D01*
X574131Y264916D01*
X574105Y264897D01*
X574099Y264890D01*
X574047Y264825D01*
X574008Y264761D01*
X573976Y264689D01*
X573956Y264625D01*
X573943Y264566D01*
X573937Y264521D01*
Y264489D01*
Y264476D01*
Y262811D01*
X573943Y262714D01*
X573963Y262630D01*
X573989Y262558D01*
X574021Y262500D01*
X574053Y262448D01*
X574079Y262416D01*
X574099Y262390D01*
X574105Y262383D01*
X574170Y262332D01*
X574241Y262293D01*
X574312Y262267D01*
X574384Y262248D01*
X574442Y262234D01*
X574494Y262228D01*
X574539D01*
X574636Y262234D01*
X574727Y262254D01*
X574798Y262280D01*
X574863Y262306D01*
X574915Y262332D01*
X574947Y262358D01*
X574973Y262377D01*
X574980Y262383D01*
X575031Y262448D01*
X575070Y262519D01*
X575103Y262591D01*
X575122Y262656D01*
X575135Y262720D01*
X575141Y262766D01*
Y262798D01*
Y262811D01*
Y264476D01*
X575135Y264566D01*
X575116Y264650D01*
X575090Y264722D01*
X575057Y264780D01*
X575031Y264825D01*
X575005Y264864D01*
X574986Y264884D01*
X574980Y264890D01*
X574915Y264942D01*
X574843Y264981D01*
X574766Y265013D01*
X574701Y265033D01*
X574636Y265046D01*
X574584Y265052D01*
D02*
G37*
%LPD*%
G36*
X574597Y263970D02*
X574649Y263964D01*
X574695Y263951D01*
X574727Y263938D01*
X574759Y263918D01*
X574779Y263906D01*
X574792Y263899D01*
X574798Y263893D01*
X574831Y263860D01*
X574850Y263821D01*
X574876Y263750D01*
X574882Y263711D01*
X574889Y263685D01*
Y263666D01*
Y263659D01*
X574882Y263601D01*
X574876Y263549D01*
X574863Y263510D01*
X574843Y263472D01*
X574824Y263446D01*
X574811Y263426D01*
X574805Y263413D01*
X574798Y263407D01*
X574759Y263381D01*
X574714Y263361D01*
X574630Y263336D01*
X574597Y263329D01*
X574565Y263323D01*
X574539D01*
X574481Y263329D01*
X574436Y263336D01*
X574390Y263349D01*
X574351Y263368D01*
X574325Y263381D01*
X574306Y263394D01*
X574293Y263400D01*
X574286Y263407D01*
X574254Y263446D01*
X574228Y263485D01*
X574215Y263530D01*
X574202Y263569D01*
X574196Y263601D01*
X574189Y263634D01*
Y263653D01*
Y263659D01*
X574196Y263711D01*
X574202Y263763D01*
X574222Y263802D01*
X574235Y263834D01*
X574254Y263860D01*
X574274Y263880D01*
X574280Y263886D01*
X574286Y263893D01*
X574325Y263918D01*
X574364Y263944D01*
X574448Y263964D01*
X574487Y263970D01*
X574513Y263977D01*
X574539D01*
X574597Y263970D01*
D02*
G37*
%LPC*%
G36*
X606627Y270050D02*
X606572D01*
X606442Y270041D01*
X606331Y270022D01*
X606230Y269985D01*
X606147Y269958D01*
X606091Y269921D01*
X606045Y269883D01*
X606017Y269865D01*
X606008Y269856D01*
X605943Y269773D01*
X605888Y269680D01*
X605851Y269578D01*
X605832Y269486D01*
X605814Y269394D01*
X605804Y269320D01*
Y269273D01*
Y269264D01*
Y269255D01*
Y268173D01*
X605814Y268034D01*
X605832Y267905D01*
X605869Y267803D01*
X605906Y267720D01*
X605943Y267655D01*
X605980Y267609D01*
X605999Y267581D01*
X606008Y267572D01*
X606091Y267507D01*
X606174Y267461D01*
X606267Y267424D01*
X606359Y267406D01*
X606442Y267387D01*
X606507Y267378D01*
X606572D01*
X606701Y267387D01*
X606812Y267415D01*
X606905Y267443D01*
X606988Y267489D01*
X607053Y267526D01*
X607099Y267554D01*
X607127Y267581D01*
X607136Y267591D01*
X607201Y267683D01*
X607247Y267785D01*
X607284Y267887D01*
X607302Y267988D01*
X607321Y268071D01*
X607330Y268145D01*
Y268192D01*
Y268210D01*
Y269209D01*
X607321Y269356D01*
X607302Y269477D01*
X607265Y269588D01*
X607228Y269671D01*
X607201Y269736D01*
X607164Y269791D01*
X607145Y269819D01*
X607136Y269828D01*
X607053Y269902D01*
X606960Y269958D01*
X606868Y269995D01*
X606775Y270022D01*
X606692Y270041D01*
X606627Y270050D01*
D02*
G37*
G36*
X620486Y268571D02*
X619469D01*
Y268081D01*
X619479Y267960D01*
X619506Y267850D01*
X619543Y267757D01*
X619590Y267683D01*
X619636Y267618D01*
X619673Y267572D01*
X619701Y267544D01*
X619710Y267535D01*
X619802Y267470D01*
X619913Y267415D01*
X620024Y267378D01*
X620126Y267360D01*
X620218Y267341D01*
X620302Y267332D01*
X620366D01*
X620496Y267341D01*
X620607Y267360D01*
X620699Y267387D01*
X620782Y267415D01*
X620838Y267443D01*
X620884Y267470D01*
X620912Y267489D01*
X620921Y267498D01*
X620986Y267572D01*
X621032Y267646D01*
X621060Y267720D01*
X621078Y267794D01*
X621097Y267859D01*
X621106Y267905D01*
Y267942D01*
Y267951D01*
X621097Y268044D01*
X621078Y268136D01*
X621050Y268210D01*
X621013Y268275D01*
X620986Y268321D01*
X620958Y268367D01*
X620940Y268386D01*
X620930Y268395D01*
X620856Y268451D01*
X620773Y268497D01*
X620690Y268524D01*
X620616Y268552D01*
X620542Y268561D01*
X620486Y268571D01*
D02*
G37*
G36*
X593036Y270041D02*
X592972D01*
X592833Y270032D01*
X592722Y270004D01*
X592620Y269976D01*
X592537Y269939D01*
X592472Y269893D01*
X592426Y269865D01*
X592398Y269837D01*
X592389Y269828D01*
X592315Y269745D01*
X592269Y269652D01*
X592232Y269551D01*
X592204Y269449D01*
X592186Y269366D01*
X592177Y269292D01*
Y269246D01*
Y269236D01*
Y269227D01*
Y268201D01*
X592186Y268062D01*
X592214Y267942D01*
X592241Y267831D01*
X592278Y267748D01*
X592324Y267683D01*
X592352Y267628D01*
X592380Y267600D01*
X592389Y267591D01*
X592472Y267526D01*
X592565Y267470D01*
X592667Y267433D01*
X592759Y267415D01*
X592842Y267397D01*
X592907Y267387D01*
X592972D01*
X593101Y267397D01*
X593221Y267415D01*
X593323Y267452D01*
X593406Y267489D01*
X593480Y267526D01*
X593526Y267563D01*
X593554Y267581D01*
X593563Y267591D01*
X593628Y267674D01*
X593684Y267775D01*
X593721Y267877D01*
X593739Y267979D01*
X593758Y268062D01*
X593767Y268136D01*
Y268182D01*
Y268201D01*
Y269227D01*
X593758Y269366D01*
X593739Y269486D01*
X593702Y269588D01*
X593665Y269680D01*
X593628Y269745D01*
X593591Y269791D01*
X593573Y269819D01*
X593563Y269828D01*
X593480Y269902D01*
X593378Y269948D01*
X593286Y269985D01*
X593184Y270013D01*
X593101Y270032D01*
X593036Y270041D01*
D02*
G37*
G36*
X579418D02*
X579353D01*
X579214Y270032D01*
X579103Y270004D01*
X579002Y269976D01*
X578918Y269939D01*
X578854Y269893D01*
X578807Y269865D01*
X578780Y269837D01*
X578770Y269828D01*
X578696Y269745D01*
X578650Y269652D01*
X578613Y269551D01*
X578586Y269449D01*
X578567Y269366D01*
X578558Y269292D01*
Y269246D01*
Y269236D01*
Y269227D01*
Y268201D01*
X578567Y268062D01*
X578595Y267942D01*
X578622Y267831D01*
X578659Y267748D01*
X578706Y267683D01*
X578733Y267628D01*
X578761Y267600D01*
X578770Y267591D01*
X578854Y267526D01*
X578946Y267470D01*
X579048Y267433D01*
X579140Y267415D01*
X579223Y267397D01*
X579288Y267387D01*
X579353D01*
X579482Y267397D01*
X579603Y267415D01*
X579704Y267452D01*
X579787Y267489D01*
X579861Y267526D01*
X579908Y267563D01*
X579935Y267581D01*
X579945Y267591D01*
X580009Y267674D01*
X580065Y267775D01*
X580102Y267877D01*
X580120Y267979D01*
X580139Y268062D01*
X580148Y268136D01*
Y268182D01*
Y268201D01*
Y269227D01*
X580139Y269366D01*
X580120Y269486D01*
X580083Y269588D01*
X580046Y269680D01*
X580009Y269745D01*
X579972Y269791D01*
X579954Y269819D01*
X579945Y269828D01*
X579861Y269902D01*
X579760Y269948D01*
X579667Y269985D01*
X579566Y270013D01*
X579482Y270032D01*
X579418Y270041D01*
D02*
G37*
%LPD*%
D10*
X481718Y326120D02*
G03*
X481718Y326120I-1250J0D01*
G01*
D12*
X487718Y341151D02*
Y369151D01*
X453718Y341151D02*
Y369151D01*
X359529Y335590D02*
Y381290D01*
X398929Y335590D02*
Y381290D01*
X359529D02*
X364729D01*
X359529Y335590D02*
X364729D01*
X393729D02*
X398929D01*
X393729Y381290D02*
X398929D01*
D13*
X412460Y401191D02*
Y407191D01*
X423460Y401191D02*
Y407191D01*
X461079Y316231D02*
Y320231D01*
X427239Y297133D02*
Y301133D01*
X411350Y300162D02*
X415350D01*
X503091Y329364D02*
X507091D01*
X503091Y275414D02*
X507091D01*
X473313Y280933D02*
Y284933D01*
X544873Y269186D02*
Y273186D01*
X518980Y277337D02*
Y281337D01*
X484918Y269044D02*
X488918D01*
X503091Y311475D02*
X507091D01*
X503091Y293585D02*
X507091D01*
X491202Y280933D02*
Y284933D01*
X483165Y394571D02*
Y400571D01*
X472165Y394571D02*
Y400571D01*
X463204Y298842D02*
X469204D01*
X463204Y309842D02*
X469204D01*
X506107Y371549D02*
Y377548D01*
X495107Y371549D02*
Y377548D01*
X560736Y291572D02*
Y297572D01*
X549736Y291572D02*
Y297572D01*
D58*
X437128Y418583D02*
X456686D01*
Y398440D02*
Y405198D01*
X437128Y385055D02*
X456686D01*
D59*
X379229Y365940D02*
D03*
M02*
