M48
;Layer_Color=9474304
;FILE_FORMAT=4:4
METRIC,LZ
;TYPE=PLATED
T01F00S00C0.3000
T02F00S00C0.8000
%
T01
X00513072Y00267037
X00513911Y00287003
X00527704Y00285446
X00531091Y00299704
X00527416Y00304158
X00530255Y00311007
X00535444Y0031449
X00542497Y00314736
X00543036Y00304204
X00544873Y00281566
X00555501Y00285837
X00557543Y00270815
X00533267Y0027093
X00523747Y00316712
X00505081Y00316044
X0049328Y00318785
X00495536Y00325744
Y00331994
X00496516Y0033944
X00495607Y00346239
X00498981Y00352197
X00504267Y00357053
X00510321Y00359319
X00508521Y00349765
X00500607Y00365549
X00519861Y00369453
X00526255Y00370821
X00532614Y00370846
X00540971Y00370821
X00551221
X00560578Y00358883
X00573855Y0036794
X00593744Y00366529
X00611633Y00366529
X00615786Y00350074
X00611638Y00345605
X00607237Y00350217
X00597968Y00350151
X0059376Y00345859
X00589348Y00350231
X00593744Y00297009
X00611633Y00297009
X00607441Y00280607
X00615803Y00280483
X00611584Y00275913
X00593602Y00276111
X00597968Y0028077
X00589348Y00280989
X00573671Y00300162
X00646888Y00301107
Y00293107
Y00285107
Y00277107
X0065174Y00281107
Y00273107
X00656535Y00277269
Y00285269
Y00293269
Y00301269
X00661386Y00297269
Y00289269
Y00281269
Y00273269
X00666169Y0027719
Y0028519
Y0029319
Y0030119
X0067102Y0029719
Y0028919
Y0028119
Y0027319
X00693411Y00268603
X00724609Y00281412
X00731339Y00281353
X00731046Y00293994
X0072455
X00724458Y00306861
X00731007
X00749392Y00302031
Y00294031
Y00286031
Y00278031
X00754243Y00282031
Y00274031
X00759039Y00278193
Y00286193
Y00294193
Y00302193
X0076389Y00298193
Y00290193
Y00282193
Y00274193
X00768672Y00278114
Y00286114
Y00294114
Y00302114
X00773524Y00298114
Y00290114
Y00282114
Y00274114
X00804396Y0027738
Y0026976
X00812016
Y0027738
Y00285
X00804396
Y0029262
Y0030024
X00812016
Y0029262
X00819636
Y00285
Y0027738
Y0026976
X00827256
Y0027738
Y00285
Y0029262
Y0030024
X00819636
X00834876
Y0029262
Y00285
Y0027738
Y0026976
Y00343086
X00827256
X00819636
X00812016
X00804396
Y00350706
Y00358326
Y00365946
Y00373566
X00812016
Y00365946
Y00358326
Y00350706
X00819636
Y00358326
Y00365946
Y00373566
X00827256
Y00365946
Y00358326
Y00350706
X00834876
Y00358326
Y00365946
Y00373566
Y00416347
X00827256
X00819636
X00812016
X00804396
Y00423967
Y00431587
Y00439207
Y00446827
X00812016
Y00439207
Y00431587
Y00423967
X00819636
Y00431587
Y00439207
Y00446827
X00827256
Y00439207
Y00431587
Y00423967
X00834876
Y00431587
Y00439207
Y00446827
X00772234Y00438973
Y00430973
Y00422973
Y00414973
X00767382Y00418973
Y00426973
Y00434973
Y00442973
X007626Y00439052
Y00431052
Y00423052
Y00415052
X00757749Y00419052
Y00427052
Y00435052
Y00443052
X00752953Y0043889
Y0043089
Y0042289
Y0041489
X00748102Y0041889
Y0042689
Y0043489
Y0044289
X00731796Y00448134
X00723488
X00723674Y00435259
X00731944Y00434986
X00732035Y00422353
X00723856Y00422535
X00693411Y0040955
X0067102Y00414397
Y00422397
Y00430397
Y00438397
X00666169Y00434397
Y00426397
Y00418397
X00661386Y00414476
Y00422476
Y00430476
Y00438476
X00666169Y00442397
X00656535Y00442476
Y00434476
Y00426476
Y00418476
X0065174Y00422314
Y00414314
X00646888Y00418314
Y00426314
Y00434314
Y00442314
X0065174Y00438314
Y00430314
X00616091Y00439072
X0061153Y00434685
X00606633Y00439072
X00598572Y00439072
X00593647Y00434764
X00588744Y00439072
X00573855Y00436043
X00554285Y00447661
X00558447Y00452798
X00549736
X00540285Y00452744
X00531818
X00536277Y00447751
X00518072Y00447907
X00522127Y00452744
X00513911
X00504359Y00452754
X00496465Y00452744
X00500371Y00447663
X00490119Y00443669
X00496619Y00419834
X00504845Y00419682
X00500626Y0041533
X00514057Y00419445
X0052256
X00518325Y00415111
X00531536Y00419563
X00540275Y00419445
X00536023Y00415112
X00549605Y00419563
X0055799Y00419445
X00554086Y0041482
X00593744Y00419172
X00611633Y00419172
X00646888Y00372414
Y00364414
Y00356414
Y00348414
X0065174Y00352414
Y00344414
X00656535Y00348576
Y00356576
Y00364576
Y00372576
X00661386Y00368576
Y00360576
Y00352576
Y00344576
X00666169Y00348497
Y00356497
Y00364497
Y00372497
X0067102Y00368497
Y00360497
Y00352497
Y00344497
X00693411Y00339276
X00724397Y00351927
X00731813Y00351869
X00731755Y003645
X00724339Y00364674
X00724284Y00377329
X00731796Y00377313
X00749392Y00372704
Y00364704
Y00356704
Y00348704
X00754243Y00352704
Y00344704
X00759039Y00348866
Y00356866
Y00364866
Y00372866
X0076389Y00368866
Y00360866
Y00352866
Y00344866
X00768672Y00348787
Y00356787
Y00364787
Y00372787
X00773524Y00368787
Y00360787
Y00352787
Y00344787
X00754243Y00360704
Y00368704
Y00298031
Y00290031
X0065174Y00289107
Y00297107
Y00360414
Y00368414
X00525867Y0038237
X00490113Y00342023
X00468751Y00359021
X00445144Y00360151
X00451218Y00346074
X00455204Y00326035
X00436764Y00324864
X00430685Y0031761
X00420515
X00423881Y00338242
X00405Y00332162
X00405Y00352162
X00433106Y00380497
X00420736Y00403172
X00421992Y00416819
X00417929Y00421003
X00413854Y00425109
X0042211Y00425117
X0041795Y00429676
X00421992Y00434255
X00418215Y00438481
X0041374Y00442091
X00413854Y00434255
X00422748Y00442178
X00397574Y00440185
Y00432185
Y00424185
Y00416185
X00392723Y00420185
Y00428185
Y00436185
Y00444185
X00387135Y00440268
Y00432268
Y00424268
Y00416268
X00382284Y00420268
Y00428268
Y00436268
Y00444268
X00377501Y00440347
Y00432347
Y00424347
Y00416347
X0037265Y00420347
Y00428347
Y00436347
Y00444347
X00367854Y00440185
Y00432185
Y00424185
Y00416185
X00363003Y00420185
Y00428185
Y00436185
Y00444185
X00362843Y00411347
X0037249Y00411509
X00382124Y0041143
X00392563Y00411347
X00413589Y00416819
X00470437Y00416786
X0047884
X00474778Y0042097
X00470702Y00425076
X00478959Y00425084
X00474798Y00429643
X0047884Y00434222
X00475063Y00438448
X00470588Y00442058
X00470702Y00434222
X00479554Y0044253
X00477665Y00388571
X00477064Y00289449
X00455829Y00292454
X00447824Y00282087
X00431866Y00281064
X00437958Y00290245
X00397907Y00293186
Y00301186
X00393056Y00297186
Y00289186
Y00281186
X00397907Y00285186
Y00277186
X00392896Y00272348
X00387468Y00277269
Y00285269
Y00293269
Y00301269
X00382617Y00297269
Y00289269
Y00281269
X00377835Y00277348
Y00285348
Y00293348
Y00301348
X00382617Y00305269
X00372983Y00305348
Y00297348
Y00289348
Y00281348
X00368188Y00285186
Y00277186
X00363336Y00281186
Y00289186
Y00297186
Y00305186
X00368188Y00301186
Y00293186
X00372823Y0027251
X00382457Y00272431
X00363176Y00272348
X00393056Y00305186
T02
X00417961Y00269044
X00430661
X0044336
X0045606
X0046876
M30
