G04*
G04 #@! TF.GenerationSoftware,Altium Limited,Altium Designer,26.9.1 (10)*
G04*
G04 Layer_Color=16711935*
G04 Board_Origin=74640005|44270005*
%FSLAX44Y44*%
%MOMM*%
G71*
G04*
G04 #@! TF.SameCoordinates,427E28D3-E2DD-46D8-A39D-FC7D8936D1B0*
G04*
G04*
G04 #@! TF.FilePolarity,Positive*
G04*
G01*
G75*
%ADD12C,0.2000*%
%ADD14C,0.1270*%
%ADD60C,0.1000*%
G36*
X438107Y357955D02*
X433105D01*
X433114Y357946D01*
X433151Y357900D01*
X433206Y357844D01*
X433271Y357752D01*
X433354Y357650D01*
X433447Y357520D01*
X433549Y357373D01*
X433650Y357206D01*
Y357197D01*
X433659Y357188D01*
X433696Y357132D01*
X433743Y357040D01*
X433798Y356929D01*
X433863Y356799D01*
X433928Y356661D01*
X433992Y356522D01*
X434048Y356383D01*
X433290D01*
Y356393D01*
X433271Y356411D01*
X433262Y356448D01*
X433234Y356494D01*
X433206Y356550D01*
X433169Y356614D01*
X433077Y356772D01*
X432975Y356956D01*
X432846Y357141D01*
X432698Y357336D01*
X432541Y357530D01*
X432532Y357539D01*
X432522Y357548D01*
X432495Y357576D01*
X432467Y357613D01*
X432374Y357696D01*
X432263Y357807D01*
X432134Y357918D01*
X431986Y358038D01*
X431838Y358140D01*
X431681Y358232D01*
Y358741D01*
X438107D01*
Y357955D01*
D02*
G37*
G36*
X435647Y354682D02*
X435740D01*
X435851Y354673D01*
X435962Y354664D01*
X436211Y354636D01*
X436470Y354599D01*
X436720Y354543D01*
X436840Y354506D01*
X436951Y354469D01*
X436960D01*
X436979Y354460D01*
X437006Y354442D01*
X437043Y354423D01*
X437145Y354368D01*
X437275Y354285D01*
X437422Y354174D01*
X437570Y354044D01*
X437728Y353878D01*
X437866Y353674D01*
Y353665D01*
X437885Y353647D01*
X437894Y353619D01*
X437922Y353573D01*
X437949Y353517D01*
X437977Y353443D01*
X438005Y353369D01*
X438042Y353277D01*
X438079Y353175D01*
X438107Y353064D01*
X438134Y352944D01*
X438162Y352805D01*
X438181Y352667D01*
X438199Y352519D01*
X438218Y352186D01*
Y352103D01*
X438208Y352038D01*
Y351964D01*
X438199Y351871D01*
X438190Y351770D01*
X438181Y351668D01*
X438144Y351437D01*
X438088Y351187D01*
X438014Y350947D01*
X437912Y350716D01*
Y350706D01*
X437894Y350688D01*
X437875Y350660D01*
X437857Y350623D01*
X437783Y350522D01*
X437681Y350401D01*
X437552Y350263D01*
X437404Y350133D01*
X437219Y350004D01*
X437016Y349902D01*
X437006D01*
X436988Y349893D01*
X436951Y349884D01*
X436905Y349865D01*
X436849Y349847D01*
X436775Y349828D01*
X436692Y349800D01*
X436590Y349782D01*
X436479Y349763D01*
X436359Y349736D01*
X436230Y349717D01*
X436091Y349699D01*
X435934Y349680D01*
X435767Y349671D01*
X435592Y349662D01*
X435407D01*
X431709D01*
Y350512D01*
X435407D01*
X435416D01*
X435444D01*
X435490D01*
X435546D01*
X435610Y350522D01*
X435694D01*
X435869Y350531D01*
X436073Y350549D01*
X436276Y350577D01*
X436470Y350614D01*
X436553Y350633D01*
X436637Y350660D01*
X436655Y350670D01*
X436701Y350688D01*
X436766Y350734D01*
X436858Y350790D01*
X436951Y350854D01*
X437053Y350947D01*
X437154Y351058D01*
X437238Y351187D01*
X437247Y351206D01*
X437275Y351252D01*
X437302Y351335D01*
X437339Y351446D01*
X437385Y351576D01*
X437413Y351742D01*
X437441Y351918D01*
X437450Y352112D01*
Y352204D01*
X437441Y352260D01*
Y352343D01*
X437432Y352426D01*
X437395Y352630D01*
X437348Y352851D01*
X437275Y353064D01*
X437173Y353268D01*
X437108Y353360D01*
X437034Y353443D01*
X437025Y353452D01*
X437016Y353462D01*
X436988Y353480D01*
X436951Y353508D01*
X436895Y353536D01*
X436840Y353573D01*
X436757Y353610D01*
X436674Y353647D01*
X436572Y353684D01*
X436452Y353711D01*
X436313Y353748D01*
X436165Y353776D01*
X435999Y353804D01*
X435823Y353822D01*
X435620Y353841D01*
X435407D01*
X431709D01*
Y354691D01*
X435407D01*
X435416D01*
X435453D01*
X435499D01*
X435564D01*
X435647Y354682D01*
D02*
G37*
G36*
X446469Y422202D02*
X443501D01*
X443427Y422211D01*
X443344D01*
X443149Y422220D01*
X442946Y422248D01*
X442724Y422276D01*
X442521Y422322D01*
X442419Y422350D01*
X442336Y422378D01*
X442327D01*
X442317Y422387D01*
X442262Y422415D01*
X442179Y422452D01*
X442077Y422516D01*
X441966Y422599D01*
X441846Y422710D01*
X441735Y422840D01*
X441624Y422988D01*
Y422997D01*
X441615Y423006D01*
X441578Y423062D01*
X441541Y423154D01*
X441485Y423274D01*
X441439Y423413D01*
X441393Y423579D01*
X441365Y423755D01*
X441356Y423949D01*
Y423959D01*
Y423977D01*
Y424014D01*
X441365Y424060D01*
Y424125D01*
X441374Y424190D01*
X441411Y424347D01*
X441467Y424532D01*
X441541Y424726D01*
X441652Y424920D01*
X441726Y425013D01*
X441800Y425105D01*
X441809Y425114D01*
X441818Y425123D01*
X441846Y425151D01*
X441883Y425179D01*
X441929Y425216D01*
X441984Y425253D01*
X442058Y425299D01*
X442132Y425355D01*
X442225Y425401D01*
X442327Y425447D01*
X442437Y425503D01*
X442558Y425549D01*
X442696Y425586D01*
X442835Y425632D01*
X442992Y425660D01*
X443159Y425687D01*
X443140Y425697D01*
X443103Y425715D01*
X443048Y425752D01*
X442974Y425789D01*
X442807Y425891D01*
X442724Y425956D01*
X442650Y426011D01*
X442632Y426030D01*
X442585Y426076D01*
X442511Y426150D01*
X442419Y426242D01*
X442317Y426372D01*
X442197Y426510D01*
X442077Y426677D01*
X441947Y426862D01*
X440847Y428600D01*
X441901D01*
X442743Y427268D01*
Y427259D01*
X442761Y427241D01*
X442780Y427213D01*
X442807Y427176D01*
X442872Y427074D01*
X442955Y426945D01*
X443057Y426806D01*
X443159Y426658D01*
X443260Y426520D01*
X443353Y426390D01*
X443362Y426381D01*
X443390Y426344D01*
X443436Y426288D01*
X443501Y426224D01*
X443639Y426085D01*
X443713Y426020D01*
X443787Y425965D01*
X443797Y425956D01*
X443815Y425946D01*
X443852Y425928D01*
X443908Y425900D01*
X443963Y425872D01*
X444028Y425845D01*
X444176Y425798D01*
X444185D01*
X444203Y425789D01*
X444240D01*
X444287Y425780D01*
X444351Y425771D01*
X444425D01*
X444527Y425761D01*
X445618D01*
Y428600D01*
X446469D01*
Y422202D01*
D02*
G37*
G36*
X438175Y423598D02*
X438185Y423607D01*
X438231Y423644D01*
X438286Y423700D01*
X438379Y423764D01*
X438480Y423848D01*
X438610Y423940D01*
X438758Y424042D01*
X438924Y424143D01*
X438933D01*
X438943Y424153D01*
X438998Y424190D01*
X439090Y424236D01*
X439202Y424291D01*
X439331Y424356D01*
X439470Y424421D01*
X439608Y424486D01*
X439747Y424541D01*
Y423783D01*
X439738D01*
X439719Y423764D01*
X439682Y423755D01*
X439636Y423727D01*
X439581Y423700D01*
X439516Y423663D01*
X439359Y423570D01*
X439174Y423469D01*
X438989Y423339D01*
X438795Y423191D01*
X438601Y423034D01*
X438591Y423025D01*
X438582Y423016D01*
X438554Y422988D01*
X438517Y422960D01*
X438434Y422868D01*
X438323Y422757D01*
X438212Y422627D01*
X438092Y422479D01*
X437990Y422331D01*
X437898Y422174D01*
X437389D01*
Y428600D01*
X438175D01*
Y423598D01*
D02*
G37*
G36*
X435485Y428591D02*
Y428554D01*
Y428498D01*
X435476Y428424D01*
X435466Y428341D01*
X435448Y428248D01*
X435429Y428156D01*
X435392Y428054D01*
Y428045D01*
X435383Y428036D01*
X435365Y427980D01*
X435328Y427897D01*
X435272Y427786D01*
X435198Y427657D01*
X435106Y427509D01*
X435004Y427361D01*
X434874Y427204D01*
Y427195D01*
X434856Y427185D01*
X434810Y427130D01*
X434727Y427047D01*
X434606Y426926D01*
X434468Y426788D01*
X434292Y426621D01*
X434079Y426436D01*
X433848Y426242D01*
X433839Y426233D01*
X433802Y426205D01*
X433747Y426159D01*
X433682Y426104D01*
X433599Y426030D01*
X433497Y425946D01*
X433395Y425854D01*
X433275Y425752D01*
X433044Y425530D01*
X432813Y425308D01*
X432702Y425197D01*
X432600Y425087D01*
X432508Y424985D01*
X432434Y424883D01*
Y424874D01*
X432415Y424865D01*
X432397Y424837D01*
X432378Y424800D01*
X432313Y424698D01*
X432239Y424578D01*
X432175Y424430D01*
X432110Y424273D01*
X432073Y424097D01*
X432055Y423931D01*
Y423922D01*
Y423912D01*
X432064Y423857D01*
X432073Y423764D01*
X432101Y423663D01*
X432138Y423533D01*
X432203Y423404D01*
X432286Y423274D01*
X432397Y423145D01*
X432415Y423126D01*
X432461Y423089D01*
X432526Y423043D01*
X432628Y422979D01*
X432757Y422923D01*
X432905Y422868D01*
X433081Y422831D01*
X433275Y422821D01*
X433330D01*
X433368Y422831D01*
X433479Y422840D01*
X433608Y422868D01*
X433747Y422905D01*
X433904Y422969D01*
X434052Y423052D01*
X434190Y423163D01*
X434209Y423182D01*
X434246Y423228D01*
X434301Y423302D01*
X434357Y423413D01*
X434422Y423543D01*
X434477Y423709D01*
X434514Y423894D01*
X434533Y424106D01*
X435337Y424023D01*
Y424014D01*
X435328Y423986D01*
Y423940D01*
X435318Y423875D01*
X435300Y423801D01*
X435281Y423718D01*
X435254Y423616D01*
X435226Y423515D01*
X435152Y423293D01*
X435041Y423071D01*
X434976Y422960D01*
X434893Y422849D01*
X434810Y422747D01*
X434717Y422655D01*
X434708Y422646D01*
X434690Y422636D01*
X434662Y422609D01*
X434616Y422581D01*
X434560Y422544D01*
X434496Y422507D01*
X434422Y422461D01*
X434329Y422415D01*
X434227Y422368D01*
X434116Y422322D01*
X433996Y422285D01*
X433867Y422248D01*
X433728Y422220D01*
X433580Y422193D01*
X433423Y422183D01*
X433257Y422174D01*
X433164D01*
X433099Y422183D01*
X433025Y422193D01*
X432933Y422202D01*
X432831Y422220D01*
X432730Y422239D01*
X432489Y422304D01*
X432249Y422396D01*
X432129Y422452D01*
X432008Y422516D01*
X431898Y422599D01*
X431796Y422692D01*
X431786Y422701D01*
X431768Y422710D01*
X431749Y422747D01*
X431712Y422784D01*
X431666Y422831D01*
X431620Y422895D01*
X431574Y422960D01*
X431518Y423043D01*
X431426Y423219D01*
X431334Y423441D01*
X431297Y423552D01*
X431278Y423681D01*
X431259Y423811D01*
X431250Y423949D01*
Y423968D01*
Y424014D01*
X431259Y424088D01*
X431269Y424190D01*
X431287Y424301D01*
X431324Y424430D01*
X431361Y424569D01*
X431417Y424707D01*
X431426Y424726D01*
X431444Y424772D01*
X431481Y424846D01*
X431537Y424948D01*
X431611Y425059D01*
X431703Y425197D01*
X431814Y425336D01*
X431944Y425493D01*
X431962Y425512D01*
X432008Y425567D01*
X432055Y425614D01*
X432101Y425660D01*
X432156Y425715D01*
X432230Y425789D01*
X432304Y425863D01*
X432397Y425946D01*
X432489Y426039D01*
X432600Y426141D01*
X432720Y426242D01*
X432850Y426362D01*
X432998Y426483D01*
X433146Y426612D01*
X433155Y426621D01*
X433173Y426640D01*
X433210Y426668D01*
X433257Y426704D01*
X433312Y426760D01*
X433377Y426815D01*
X433525Y426936D01*
X433682Y427074D01*
X433830Y427213D01*
X433959Y427333D01*
X434015Y427379D01*
X434061Y427426D01*
X434070Y427435D01*
X434098Y427463D01*
X434135Y427500D01*
X434181Y427555D01*
X434227Y427620D01*
X434283Y427685D01*
X434394Y427842D01*
X431241D01*
Y428600D01*
X435485D01*
Y428591D01*
D02*
G37*
%LPC*%
G36*
X445618Y425031D02*
X443713D01*
X443602Y425022D01*
X443473Y425013D01*
X443325Y425003D01*
X443177Y424985D01*
X443029Y424957D01*
X442900Y424920D01*
X442881Y424911D01*
X442844Y424892D01*
X442789Y424865D01*
X442715Y424828D01*
X442632Y424772D01*
X442548Y424707D01*
X442465Y424624D01*
X442401Y424532D01*
X442391Y424523D01*
X442373Y424486D01*
X442345Y424430D01*
X442308Y424356D01*
X442280Y424273D01*
X442253Y424180D01*
X442234Y424070D01*
X442225Y423959D01*
Y423949D01*
Y423940D01*
X442234Y423885D01*
X442243Y423801D01*
X442262Y423690D01*
X442308Y423579D01*
X442364Y423450D01*
X442447Y423330D01*
X442558Y423210D01*
X442576Y423200D01*
X442622Y423163D01*
X442696Y423117D01*
X442817Y423062D01*
X442955Y423006D01*
X443140Y422960D01*
X443353Y422923D01*
X443602Y422914D01*
X445618D01*
Y425031D01*
D02*
G37*
%LPD*%
D12*
X714300Y306703D02*
G03*
X714300Y306703I-1000J0D01*
G01*
Y377376D02*
G03*
X714300Y377376I-1000J0D01*
G01*
Y447852D02*
G03*
X714300Y447852I-1000J0D01*
G01*
X709411Y268603D02*
G03*
X709411Y268603I-1000J0D01*
G01*
Y339276D02*
G03*
X709411Y339276I-1000J0D01*
G01*
Y409550D02*
G03*
X709411Y409550I-1000J0D01*
G01*
X388717Y300162D02*
Y399162D01*
X487717D01*
Y300162D02*
Y399162D01*
X388717Y300162D02*
X487717D01*
X484268Y409200D02*
Y448000D01*
X408668D02*
X484268D01*
X408668Y409200D02*
Y448000D01*
Y409200D02*
X484268D01*
D14*
X726000Y263153D02*
Y312153D01*
Y263153D02*
X784000D01*
Y312153D01*
X726000D02*
X784000D01*
X726000Y333826D02*
Y382826D01*
Y333826D02*
X784000D01*
Y382826D01*
X726000D02*
X784000D01*
X726000Y404302D02*
Y453302D01*
Y404302D02*
X784000D01*
Y453302D01*
X726000D02*
X784000D01*
X695711Y263153D02*
Y312153D01*
X637711D02*
X695711D01*
X637711Y263153D02*
Y312153D01*
Y263153D02*
X695711D01*
Y333826D02*
Y382826D01*
X637711D02*
X695711D01*
X637711Y333826D02*
Y382826D01*
Y333826D02*
X695711D01*
Y404100D02*
Y453100D01*
X637711D02*
X695711D01*
X637711Y404100D02*
Y453100D01*
Y404100D02*
X695711D01*
D60*
X516923Y323008D02*
X556923D01*
Y363008D01*
X516923D02*
X556923D01*
X516923Y323008D02*
Y363008D01*
X628272Y274014D02*
Y284514D01*
X622772Y274014D02*
Y284514D01*
X628272D01*
X622772Y274014D02*
X628272D01*
X628272Y343449D02*
Y353949D01*
X622772Y343449D02*
Y353949D01*
X628272D01*
X622772Y343449D02*
X628272D01*
X628272Y413002D02*
Y423502D01*
X622772Y413002D02*
Y423502D01*
X628272D01*
X622772Y413002D02*
X628272D01*
X578421Y265023D02*
Y281523D01*
X568921Y265023D02*
Y281523D01*
X578421D01*
X568921Y265023D02*
X578421D01*
X569105Y332801D02*
Y349301D01*
X578605Y332801D02*
Y349301D01*
X569105Y332801D02*
X578605D01*
X569105Y349301D02*
X578605D01*
X569105Y400904D02*
Y417403D01*
X578605Y400904D02*
Y417403D01*
X569105Y400904D02*
X578605D01*
X569105Y417403D02*
X578605D01*
X622772Y291903D02*
Y302403D01*
X628272Y291903D02*
Y302403D01*
X622772Y291903D02*
X628272D01*
X622772Y302403D02*
X628272D01*
X622772Y361338D02*
Y371838D01*
X628272Y361338D02*
Y371838D01*
X622772Y361338D02*
X628272D01*
X622772Y371838D02*
X628272D01*
X622772Y430891D02*
Y441391D01*
X628272Y430891D02*
Y441391D01*
X622772Y430891D02*
X628272D01*
X622772Y441391D02*
X628272D01*
X578421Y298912D02*
Y315412D01*
X568921Y298912D02*
Y315412D01*
X578421D01*
X568921Y298912D02*
X578421D01*
X578605Y366690D02*
Y383190D01*
X569105Y366690D02*
Y383190D01*
X578605D01*
X569105Y366690D02*
X578605D01*
X578605Y434793D02*
Y451292D01*
X569105Y434793D02*
Y451292D01*
X578605D01*
X569105Y434793D02*
X578605D01*
X540285Y294454D02*
Y304954D01*
X545785Y294454D02*
Y304954D01*
X540285Y294454D02*
X545785D01*
X540285Y304954D02*
X545785D01*
X510188Y266295D02*
Y276795D01*
X515688Y266295D02*
Y276795D01*
X510188Y266295D02*
X515688D01*
X510188Y276795D02*
X515688D01*
X618883Y277109D02*
Y299109D01*
X604383Y277109D02*
Y299109D01*
X618883D01*
X604383Y277109D02*
X618883D01*
X600994Y277109D02*
Y299109D01*
X586494Y277109D02*
Y299109D01*
X600994D01*
X586494Y277109D02*
X600994D01*
X600994Y346629D02*
Y368629D01*
X586494Y346629D02*
Y368629D01*
X600994D01*
X586494Y346629D02*
X600994D01*
X618883Y346629D02*
Y368629D01*
X604383Y346629D02*
Y368629D01*
X618883D01*
X604383Y346629D02*
X618883D01*
X604383Y417072D02*
Y439072D01*
X618883Y417072D02*
Y439072D01*
X604383Y417072D02*
X618883D01*
X604383Y439072D02*
X618883D01*
X586494Y417072D02*
Y439072D01*
X600994Y417072D02*
Y439072D01*
X586494Y417072D02*
X600994D01*
X586494Y439072D02*
X600994D01*
X546716Y397834D02*
Y419834D01*
X561216Y397834D02*
Y419834D01*
X546716Y397834D02*
X561216D01*
X546716Y419834D02*
X561216D01*
X528827Y397834D02*
Y419834D01*
X543327Y397834D02*
Y419834D01*
X528827Y397834D02*
X543327D01*
X528827Y419834D02*
X543327D01*
X510938Y397834D02*
Y419834D01*
X525438Y397834D02*
Y419834D01*
X510938Y397834D02*
X525438D01*
X510938Y419834D02*
X525438D01*
X493049Y397834D02*
Y419834D01*
X507549Y397834D02*
Y419834D01*
X493049Y397834D02*
X507549D01*
X493049Y419834D02*
X507549D01*
X505559Y389202D02*
X527558D01*
X505559Y374702D02*
X527558D01*
X505559D02*
Y389202D01*
X527558Y374702D02*
Y389202D01*
X543327Y430744D02*
Y452744D01*
X528827Y430744D02*
Y452744D01*
X543327D01*
X528827Y430744D02*
X543327D01*
X525438Y430744D02*
Y452744D01*
X510938Y430744D02*
Y452744D01*
X525438D01*
X510938Y430744D02*
X525438D01*
X507549Y430744D02*
Y452744D01*
X493049Y430744D02*
Y452744D01*
X507549D01*
X493049Y430744D02*
X507549D01*
X561216Y430798D02*
Y452798D01*
X546716Y430798D02*
Y452798D01*
X561216D01*
X546716Y430798D02*
X561216D01*
X491799Y264153D02*
Y286153D01*
X506299Y264153D02*
Y286153D01*
X491799Y264153D02*
X506299D01*
X491799Y286153D02*
X506299D01*
X536447Y374636D02*
X558447D01*
X536447Y389136D02*
X558447D01*
Y374636D02*
Y389136D01*
X536447Y374636D02*
Y389136D01*
X509091Y306954D02*
X531091D01*
X509091Y292454D02*
X531091D01*
X509091D02*
Y306954D01*
X531091Y292454D02*
Y306954D01*
X525448Y274565D02*
X547447D01*
X525448Y289065D02*
X547447D01*
Y274565D02*
Y289065D01*
X525448Y274565D02*
Y289065D01*
M02*
