G04*
G04 #@! TF.GenerationSoftware,Altium Limited,Altium Designer,26.9.1 (10)*
G04*
G04 Layer_Color=8388736*
G04 Board_Origin=74640005|44270005*
%FSLAX44Y44*%
%MOMM*%
G71*
G04*
G04 #@! TF.SameCoordinates,427E28D3-E2DD-46D8-A39D-FC7D8936D1B0*
G04*
G04*
G04 #@! TF.FilePolarity,Positive*
G04*
G01*
G75*
%ADD12C,0.2000*%
%ADD60C,0.1000*%
%ADD61C,0.0254*%
%ADD62C,0.0762*%
G36*
X471054Y365460D02*
X471258Y365423D01*
X471433Y365367D01*
X471581Y365312D01*
X471701Y365256D01*
X471794Y365201D01*
X471849Y365164D01*
X471868Y365155D01*
X472006Y365025D01*
X472127Y364887D01*
X472219Y364739D01*
X472293Y364591D01*
X472349Y364461D01*
X472385Y364360D01*
X472395Y364323D01*
X472404Y364295D01*
X472413Y364276D01*
Y364267D01*
X472496Y364424D01*
X472580Y364554D01*
X472672Y364665D01*
X472755Y364757D01*
X472829Y364831D01*
X472894Y364887D01*
X472931Y364914D01*
X472949Y364924D01*
X473079Y364997D01*
X473208Y365053D01*
X473338Y365099D01*
X473458Y365127D01*
X473560Y365145D01*
X473634Y365155D01*
X473689D01*
X473708D01*
X473865Y365145D01*
X474022Y365118D01*
X474161Y365081D01*
X474281Y365034D01*
X474383Y364988D01*
X474466Y364951D01*
X474512Y364924D01*
X474530Y364914D01*
X474669Y364822D01*
X474789Y364711D01*
X474891Y364600D01*
X474983Y364489D01*
X475048Y364397D01*
X475104Y364313D01*
X475131Y364258D01*
X475141Y364249D01*
Y364239D01*
X475215Y364073D01*
X475270Y363907D01*
X475316Y363740D01*
X475344Y363592D01*
X475363Y363472D01*
X475372Y363370D01*
Y363139D01*
X475353Y363010D01*
X475307Y362760D01*
X475233Y362547D01*
X475159Y362363D01*
X475113Y362279D01*
X475076Y362215D01*
X475039Y362150D01*
X475002Y362104D01*
X474974Y362067D01*
X474956Y362039D01*
X474947Y362020D01*
X474937Y362011D01*
X474762Y361836D01*
X474567Y361697D01*
X474364Y361586D01*
X474161Y361493D01*
X473985Y361438D01*
X473911Y361410D01*
X473846Y361392D01*
X473791Y361382D01*
X473754Y361373D01*
X473726Y361364D01*
X473717D01*
X473578Y362150D01*
X473782Y362187D01*
X473957Y362242D01*
X474105Y362307D01*
X474225Y362372D01*
X474318Y362436D01*
X474383Y362492D01*
X474429Y362529D01*
X474438Y362538D01*
X474530Y362658D01*
X474604Y362788D01*
X474651Y362908D01*
X474688Y363028D01*
X474706Y363139D01*
X474725Y363222D01*
Y363296D01*
X474715Y363463D01*
X474678Y363611D01*
X474632Y363740D01*
X474586Y363851D01*
X474530Y363934D01*
X474484Y363999D01*
X474447Y364045D01*
X474438Y364054D01*
X474327Y364156D01*
X474207Y364230D01*
X474087Y364276D01*
X473976Y364313D01*
X473874Y364332D01*
X473800Y364350D01*
X473745D01*
X473735D01*
X473726D01*
X473624D01*
X473532Y364332D01*
X473375Y364286D01*
X473236Y364221D01*
X473116Y364147D01*
X473033Y364073D01*
X472968Y364008D01*
X472931Y363962D01*
X472922Y363953D01*
Y363943D01*
X472839Y363786D01*
X472774Y363638D01*
X472728Y363481D01*
X472700Y363343D01*
X472681Y363222D01*
X472663Y363121D01*
Y363000D01*
X472672Y362963D01*
Y362917D01*
X471979Y362825D01*
X472006Y362945D01*
X472025Y363056D01*
X472043Y363148D01*
X472053Y363232D01*
X472062Y363296D01*
Y363380D01*
X472043Y363574D01*
X472006Y363749D01*
X471951Y363907D01*
X471886Y364036D01*
X471822Y364138D01*
X471766Y364212D01*
X471729Y364258D01*
X471711Y364276D01*
X471572Y364397D01*
X471424Y364489D01*
X471276Y364554D01*
X471128Y364591D01*
X471008Y364618D01*
X470906Y364628D01*
X470869Y364637D01*
X470841D01*
X470823D01*
X470814D01*
X470610Y364618D01*
X470425Y364572D01*
X470268Y364517D01*
X470130Y364443D01*
X470019Y364369D01*
X469935Y364313D01*
X469880Y364267D01*
X469861Y364249D01*
X469732Y364101D01*
X469640Y363943D01*
X469575Y363786D01*
X469529Y363638D01*
X469501Y363509D01*
X469492Y363407D01*
X469482Y363370D01*
Y363315D01*
X469492Y363148D01*
X469529Y362991D01*
X469575Y362853D01*
X469630Y362742D01*
X469677Y362649D01*
X469723Y362575D01*
X469760Y362538D01*
X469769Y362520D01*
X469898Y362409D01*
X470046Y362316D01*
X470204Y362233D01*
X470370Y362168D01*
X470509Y362122D01*
X470573Y362104D01*
X470629Y362094D01*
X470675Y362085D01*
X470712Y362076D01*
X470731Y362067D01*
X470740D01*
X470638Y361281D01*
X470490Y361299D01*
X470351Y361327D01*
X470093Y361410D01*
X469871Y361512D01*
X469778Y361567D01*
X469686Y361623D01*
X469603Y361678D01*
X469538Y361734D01*
X469473Y361780D01*
X469427Y361826D01*
X469390Y361854D01*
X469362Y361882D01*
X469344Y361900D01*
X469334Y361909D01*
X469251Y362020D01*
X469168Y362131D01*
X469103Y362242D01*
X469048Y362363D01*
X468955Y362594D01*
X468900Y362816D01*
X468881Y362917D01*
X468863Y363010D01*
X468854Y363093D01*
X468844Y363167D01*
X468835Y363222D01*
Y363306D01*
X468844Y363481D01*
X468863Y363638D01*
X468891Y363796D01*
X468928Y363943D01*
X468974Y364082D01*
X469020Y364202D01*
X469076Y364323D01*
X469131Y364424D01*
X469177Y364526D01*
X469233Y364609D01*
X469279Y364683D01*
X469325Y364739D01*
X469362Y364785D01*
X469390Y364822D01*
X469408Y364840D01*
X469418Y364850D01*
X469529Y364961D01*
X469649Y365053D01*
X469769Y365136D01*
X469889Y365210D01*
X470000Y365266D01*
X470120Y365321D01*
X470342Y365395D01*
X470444Y365414D01*
X470536Y365432D01*
X470620Y365451D01*
X470694Y365460D01*
X470749Y365469D01*
X470795D01*
X470823D01*
X470832D01*
X471054Y365460D01*
D02*
G37*
G36*
X475344Y359330D02*
X471646D01*
X471433D01*
X471230Y359311D01*
X471054Y359293D01*
X470888Y359265D01*
X470740Y359238D01*
X470601Y359201D01*
X470481Y359173D01*
X470379Y359136D01*
X470296Y359099D01*
X470213Y359062D01*
X470157Y359025D01*
X470102Y358997D01*
X470065Y358969D01*
X470037Y358951D01*
X470028Y358942D01*
X470019Y358932D01*
X469945Y358849D01*
X469880Y358757D01*
X469778Y358553D01*
X469704Y358341D01*
X469658Y358119D01*
X469621Y357915D01*
X469612Y357832D01*
Y357749D01*
X469603Y357693D01*
Y357601D01*
X469612Y357407D01*
X469640Y357231D01*
X469667Y357065D01*
X469714Y356935D01*
X469750Y356824D01*
X469778Y356741D01*
X469806Y356695D01*
X469815Y356676D01*
X469898Y356547D01*
X470000Y356436D01*
X470102Y356344D01*
X470194Y356279D01*
X470287Y356223D01*
X470351Y356177D01*
X470398Y356159D01*
X470416Y356149D01*
X470499Y356122D01*
X470583Y356103D01*
X470777Y356066D01*
X470980Y356039D01*
X471184Y356020D01*
X471359Y356011D01*
X471442D01*
X471507Y356002D01*
X471563D01*
X471609D01*
X471637D01*
X471646D01*
X475344D01*
Y355151D01*
X471646D01*
X471461D01*
X471285Y355160D01*
X471119Y355169D01*
X470962Y355188D01*
X470823Y355206D01*
X470694Y355225D01*
X470573Y355253D01*
X470462Y355271D01*
X470361Y355290D01*
X470277Y355317D01*
X470204Y355336D01*
X470148Y355354D01*
X470102Y355373D01*
X470065Y355382D01*
X470046Y355391D01*
X470037D01*
X469834Y355493D01*
X469649Y355622D01*
X469501Y355752D01*
X469371Y355891D01*
X469270Y356011D01*
X469196Y356113D01*
X469177Y356149D01*
X469159Y356177D01*
X469140Y356196D01*
Y356205D01*
X469039Y356436D01*
X468965Y356676D01*
X468909Y356926D01*
X468872Y357157D01*
X468863Y357259D01*
X468854Y357361D01*
X468844Y357453D01*
Y357527D01*
X468835Y357592D01*
Y357675D01*
X468854Y358008D01*
X468872Y358156D01*
X468891Y358294D01*
X468918Y358433D01*
X468946Y358553D01*
X468974Y358664D01*
X469011Y358766D01*
X469048Y358858D01*
X469076Y358932D01*
X469103Y359006D01*
X469131Y359062D01*
X469159Y359108D01*
X469168Y359136D01*
X469187Y359154D01*
Y359164D01*
X469325Y359367D01*
X469482Y359533D01*
X469630Y359663D01*
X469778Y359774D01*
X469908Y359857D01*
X470009Y359912D01*
X470046Y359931D01*
X470074Y359949D01*
X470093Y359959D01*
X470102D01*
X470213Y359996D01*
X470333Y360033D01*
X470583Y360088D01*
X470841Y360125D01*
X471091Y360153D01*
X471202Y360162D01*
X471313Y360171D01*
X471405D01*
X471489Y360181D01*
X471553D01*
X471600D01*
X471637D01*
X471646D01*
X475344D01*
Y359330D01*
D02*
G37*
D12*
X451218Y329620D02*
X490218D01*
X451218D02*
Y380682D01*
X490218D01*
Y329620D02*
Y380682D01*
D60*
X410710Y393191D02*
X425210D01*
X410710Y415191D02*
X425210D01*
Y393191D02*
Y415191D01*
X410710Y393191D02*
Y415191D01*
X455829Y320981D02*
X466329D01*
X455829Y315481D02*
X466329D01*
Y320981D01*
X455829Y315481D02*
Y320981D01*
X421989Y296383D02*
X432489D01*
X421989Y301883D02*
X432489D01*
X421989Y296383D02*
Y301883D01*
X432489Y296383D02*
Y301883D01*
X410600Y294912D02*
Y305412D01*
X416100Y294912D02*
Y305412D01*
X410600D02*
X416100D01*
X410600Y294912D02*
X416100D01*
X507841Y324114D02*
Y334614D01*
X502341Y324114D02*
Y334614D01*
Y324114D02*
X507841D01*
X502341Y334614D02*
X507841D01*
X502341Y270164D02*
Y280664D01*
X507841Y270164D02*
Y280664D01*
X502341D02*
X507841D01*
X502341Y270164D02*
X507841D01*
X468063Y285683D02*
X478563D01*
X468063Y280183D02*
X478563D01*
Y285683D01*
X468063Y280183D02*
Y285683D01*
X539623Y268436D02*
X550123D01*
X539623Y273936D02*
X550123D01*
X539623Y268436D02*
Y273936D01*
X550123Y268436D02*
Y273936D01*
X513730Y276587D02*
X524230D01*
X513730Y282087D02*
X524230D01*
X513730Y276587D02*
Y282087D01*
X524230Y276587D02*
Y282087D01*
X484168Y263794D02*
Y274294D01*
X489668Y263794D02*
Y274294D01*
X484168D02*
X489668D01*
X484168Y263794D02*
X489668D01*
X507841Y306225D02*
Y316725D01*
X502341Y306225D02*
Y316725D01*
Y306225D02*
X507841D01*
X502341Y316725D02*
X507841D01*
X502341Y288335D02*
Y298836D01*
X507841Y288335D02*
Y298836D01*
X502341D02*
X507841D01*
X502341Y288335D02*
X507841D01*
X485952Y285683D02*
X496452D01*
X485952Y280183D02*
X496452D01*
Y285683D01*
X485952Y280183D02*
Y285683D01*
X470415Y386571D02*
Y408571D01*
X484915Y386571D02*
Y408571D01*
X470415D02*
X484915D01*
X470415Y386571D02*
X484915D01*
X455204Y311592D02*
X477204D01*
X455204Y297092D02*
X477204D01*
Y311592D01*
X455204Y297092D02*
Y311592D01*
X493357Y363549D02*
Y385549D01*
X507857Y363549D02*
Y385549D01*
X493357D02*
X507857D01*
X493357Y363549D02*
X507857D01*
X547986Y283572D02*
Y305572D01*
X562486Y283572D02*
Y305572D01*
X547986D02*
X562486D01*
X547986Y283572D02*
X562486D01*
D61*
X449955Y386325D02*
G03*
X443859Y386325I-3048J0D01*
G01*
X438398Y389779D02*
Y394859D01*
X431907Y389779D02*
X438398D01*
X431907D02*
Y394859D01*
X438398D01*
Y399279D02*
Y404359D01*
X431907Y399279D02*
X438398D01*
X431907D02*
Y404359D01*
X438398D01*
Y408779D02*
Y413859D01*
X431907Y408779D02*
X438398D01*
X431907D02*
Y413859D01*
X438398D01*
X455416Y408779D02*
Y413859D01*
X461907D01*
Y408779D02*
Y413859D01*
X455416Y408779D02*
X461907D01*
X455416Y389779D02*
Y394859D01*
X461907D01*
Y389779D02*
Y394859D01*
X455416Y389779D02*
X461907D01*
X438398Y417313D02*
X455416D01*
Y386325D02*
Y417313D01*
X438398Y386325D02*
X455416D01*
X438398D02*
Y417313D01*
D62*
X439033Y389207D02*
X447497Y397671D01*
X439033D02*
X447497Y389207D01*
X439033Y393439D02*
X447497D01*
X443265Y397671D02*
Y389207D01*
X411982Y395473D02*
Y406053D01*
X414098Y408169D01*
X418330D01*
X420446Y406053D01*
Y395473D01*
X431026Y408169D02*
Y395473D01*
X424678Y401821D01*
X433142D01*
M02*
