G04*
G04 #@! TF.GenerationSoftware,Altium Limited,Altium Designer,26.9.1 (10)*
G04*
G04 Layer_Color=128*
G04 Board_Origin=74640005|44270005*
%FSLAX44Y44*%
%MOMM*%
G71*
G04*
G04 #@! TF.SameCoordinates,427E28D3-E2DD-46D8-A39D-FC7D8936D1B0*
G04*
G04*
G04 #@! TF.FilePolarity,Positive*
G04*
G01*
G75*
G04:AMPARAMS|DCode=19|XSize=0.55mm|YSize=0.5mm|CornerRadius=0.0625mm|HoleSize=0mm|Usage=FLASHONLY|Rotation=180.000|XOffset=0mm|YOffset=0mm|HoleType=Round|Shape=RoundedRectangle|*
%AMROUNDEDRECTD19*
21,1,0.5500,0.3750,0,0,180.0*
21,1,0.4250,0.5000,0,0,180.0*
1,1,0.1250,-0.2125,0.1875*
1,1,0.1250,0.2125,0.1875*
1,1,0.1250,0.2125,-0.1875*
1,1,0.1250,-0.2125,-0.1875*
%
%ADD19ROUNDEDRECTD19*%
G04:AMPARAMS|DCode=20|XSize=1.3mm|YSize=0.76mm|CornerRadius=0.095mm|HoleSize=0mm|Usage=FLASHONLY|Rotation=0.000|XOffset=0mm|YOffset=0mm|HoleType=Round|Shape=RoundedRectangle|*
%AMROUNDEDRECTD20*
21,1,1.3000,0.5700,0,0,0.0*
21,1,1.1100,0.7600,0,0,0.0*
1,1,0.1900,0.5550,-0.2850*
1,1,0.1900,-0.5550,-0.2850*
1,1,0.1900,-0.5550,0.2850*
1,1,0.1900,0.5550,0.2850*
%
%ADD20ROUNDEDRECTD20*%
G04:AMPARAMS|DCode=21|XSize=1.3mm|YSize=0.76mm|CornerRadius=0.095mm|HoleSize=0mm|Usage=FLASHONLY|Rotation=270.000|XOffset=0mm|YOffset=0mm|HoleType=Round|Shape=RoundedRectangle|*
%AMROUNDEDRECTD21*
21,1,1.3000,0.5700,0,0,270.0*
21,1,1.1100,0.7600,0,0,270.0*
1,1,0.1900,-0.2850,-0.5550*
1,1,0.1900,-0.2850,0.5550*
1,1,0.1900,0.2850,0.5550*
1,1,0.1900,0.2850,-0.5550*
%
%ADD21ROUNDEDRECTD21*%
%ADD51R,1.0047X0.5588*%
G04:AMPARAMS|DCode=52|XSize=1.8052mm|YSize=0.6121mm|CornerRadius=0.3061mm|HoleSize=0mm|Usage=FLASHONLY|Rotation=90.000|XOffset=0mm|YOffset=0mm|HoleType=Round|Shape=RoundedRectangle|*
%AMROUNDEDRECTD52*
21,1,1.8052,0.0000,0,0,90.0*
21,1,1.1931,0.6121,0,0,90.0*
1,1,0.6121,0.0000,0.5966*
1,1,0.6121,0.0000,-0.5966*
1,1,0.6121,0.0000,-0.5966*
1,1,0.6121,0.0000,0.5966*
%
%ADD52ROUNDEDRECTD52*%
G04:AMPARAMS|DCode=53|XSize=0.55mm|YSize=0.5mm|CornerRadius=0.0625mm|HoleSize=0mm|Usage=FLASHONLY|Rotation=90.000|XOffset=0mm|YOffset=0mm|HoleType=Round|Shape=RoundedRectangle|*
%AMROUNDEDRECTD53*
21,1,0.5500,0.3750,0,0,90.0*
21,1,0.4250,0.5000,0,0,90.0*
1,1,0.1250,0.1875,0.2125*
1,1,0.1250,0.1875,-0.2125*
1,1,0.1250,-0.1875,-0.2125*
1,1,0.1250,-0.1875,0.2125*
%
%ADD53ROUNDEDRECTD53*%
%ADD54R,2.3000X2.3000*%
%ADD55R,0.6121X1.8052*%
D19*
X505091Y333864D02*
D03*
X505091Y270914D02*
D03*
X486918Y273544D02*
D03*
X505091Y289086D02*
D03*
Y279914D02*
D03*
Y315975D02*
D03*
X505091Y324864D02*
D03*
X413350Y295662D02*
D03*
X505091Y298085D02*
D03*
Y306975D02*
D03*
X413350Y304662D02*
D03*
X486918Y264544D02*
D03*
D20*
X477665Y388571D02*
D03*
X500607Y383448D02*
D03*
X417960Y395191D02*
D03*
X500607Y365549D02*
D03*
X477665Y406471D02*
D03*
X417960Y413091D02*
D03*
X555236Y303472D02*
D03*
Y285572D02*
D03*
D21*
X475104Y304342D02*
D03*
X457204D02*
D03*
D51*
X433375Y401819D02*
D03*
X460440Y392319D02*
D03*
X433375Y411319D02*
D03*
Y392319D02*
D03*
X460440Y411319D02*
D03*
D52*
X470718Y343646D02*
D03*
X480218Y366656D02*
D03*
X461218D02*
D03*
Y343646D02*
D03*
D53*
X431739Y299133D02*
D03*
X468813Y282933D02*
D03*
X486702D02*
D03*
X477813D02*
D03*
X456579Y318231D02*
D03*
X514480Y279337D02*
D03*
X540373Y271186D02*
D03*
X422739Y299133D02*
D03*
X495702Y282933D02*
D03*
X465579Y318231D02*
D03*
X549373Y271186D02*
D03*
X523480Y279337D02*
D03*
D54*
X379229Y335940D02*
D03*
Y380940D02*
D03*
D55*
X480218Y343646D02*
D03*
M02*
