G04*
G04 #@! TF.GenerationSoftware,Altium Limited,Altium Designer,26.9.1 (10)*
G04*
G04 Layer_Color=15724527*
G04 Board_Origin=74640005|44270005*
%FSLAX44Y44*%
%MOMM*%
G71*
G04*
G04 #@! TF.SameCoordinates,427E28D3-E2DD-46D8-A39D-FC7D8936D1B0*
G04*
G04*
G04 #@! TF.FilePolarity,Positive*
G04*
G01*
G75*
%ADD11C,0.2540*%
D11*
X350000Y275000D02*
G03*
X365993Y259007I15993J0D01*
G01*
X365234Y457734D02*
G03*
X350000Y442500I0J-15234D01*
G01*
X835495Y259007D02*
G03*
X848195Y271707I0J12700D01*
G01*
Y298664D02*
G03*
X836120Y310739I-12075J0D01*
G01*
X810006Y321742D02*
G03*
X821009Y310739I11003J0D01*
G01*
X820923Y332658D02*
G03*
X810006Y321742I0J-10917D01*
G01*
X835333Y332658D02*
G03*
X848033Y345358I0J12700D01*
G01*
Y371796D02*
G03*
X835553Y384276I-12480J0D01*
G01*
X810006Y393905D02*
G03*
X819636Y384276I9629J0D01*
G01*
X819589Y405691D02*
G03*
X810006Y396108I0J-9583D01*
G01*
X835553Y405691D02*
G03*
X848253Y418391I0J12700D01*
G01*
Y445034D02*
G03*
X835553Y457734I-12700J0D01*
G01*
X350000Y275000D02*
Y442500D01*
X365205Y259007D02*
X836283D01*
X848195Y271707D02*
Y298664D01*
X821009Y310739D02*
X836206D01*
X820923Y332658D02*
X835333D01*
X848033Y345358D02*
Y371796D01*
X819636Y384276D02*
X835553D01*
X810006Y393905D02*
Y396108D01*
X819589Y405691D02*
X835553D01*
X848253Y418391D02*
Y445034D01*
X365234Y457734D02*
X835553D01*
M02*
