G04*
G04 #@! TF.GenerationSoftware,Altium Limited,Altium Designer,26.9.1 (10)*
G04*
G04 Layer_Color=32768*
G04 Board_Origin=74640005|44270005*
%FSLAX44Y44*%
%MOMM*%
G71*
G04*
G04 #@! TF.SameCoordinates,556BA08A-7CB3-48A2-B18C-BE4019624912*
G04*
G04*
G04 #@! TF.FilePolarity,Positive*
G04*
G01*
G75*
%ADD12C,0.2000*%
%ADD60C,0.1000*%
%ADD63C,0.0500*%
D12*
X388717Y300162D02*
Y399162D01*
X487717D01*
Y300162D02*
Y399162D01*
X388717Y300162D02*
X487717D01*
X484268Y409200D02*
Y448000D01*
X408668D02*
X484268D01*
X408668Y409200D02*
Y448000D01*
Y409200D02*
X484268D01*
D60*
X568921Y273273D02*
X578421D01*
X573671Y268523D02*
Y278023D01*
X569105Y341051D02*
X578605D01*
X573855Y336301D02*
Y345801D01*
X569105Y409154D02*
X578605D01*
X573855Y404403D02*
Y413904D01*
X568921Y307162D02*
X578421D01*
X573671Y302412D02*
Y311912D01*
X569105Y374940D02*
X578605D01*
X573855Y370190D02*
Y379690D01*
X569105Y443042D02*
X578605D01*
X573855Y438293D02*
Y447793D01*
D63*
X622772Y279264D02*
X628272D01*
X625522Y276514D02*
Y282014D01*
X630022Y270764D02*
Y287764D01*
X621022Y270764D02*
Y287764D01*
X630022D01*
X621022Y270764D02*
X630022D01*
X622772Y348699D02*
X628272D01*
X625522Y345949D02*
Y351449D01*
X630022Y340199D02*
Y357199D01*
X621022Y340199D02*
Y357199D01*
X630022D01*
X621022Y340199D02*
X630022D01*
X622772Y418252D02*
X628272D01*
X625522Y415502D02*
Y421002D01*
X630022Y409752D02*
Y426752D01*
X621022Y409752D02*
Y426752D01*
X630022D01*
X621022Y409752D02*
X630022D01*
X584171Y256773D02*
Y289773D01*
X563171Y256773D02*
Y289773D01*
X584171D01*
X563171Y256773D02*
X584171D01*
X563355Y324551D02*
Y357551D01*
X584355Y324551D02*
Y357551D01*
X563355Y324551D02*
X584355D01*
X563355Y357551D02*
X584355D01*
X563355Y392654D02*
Y425653D01*
X584355Y392654D02*
Y425653D01*
X563355Y392654D02*
X584355D01*
X563355Y425653D02*
X584355D01*
X622772Y297153D02*
X628272D01*
X625522Y294403D02*
Y299903D01*
X621022Y288653D02*
Y305653D01*
X630022Y288653D02*
Y305653D01*
X621022Y288653D02*
X630022D01*
X621022Y305653D02*
X630022D01*
X622772Y366588D02*
X628272D01*
X625522Y363838D02*
Y369338D01*
X621022Y358088D02*
Y375088D01*
X630022Y358088D02*
Y375088D01*
X621022Y358088D02*
X630022D01*
X621022Y375088D02*
X630022D01*
X622772Y436141D02*
X628272D01*
X625522Y433391D02*
Y438891D01*
X621022Y427641D02*
Y444641D01*
X630022Y427641D02*
Y444641D01*
X621022Y427641D02*
X630022D01*
X621022Y444641D02*
X630022D01*
X584171Y290662D02*
Y323662D01*
X563171Y290662D02*
Y323662D01*
X584171D01*
X563171Y290662D02*
X584171D01*
X584355Y358440D02*
Y391440D01*
X563355Y358440D02*
Y391440D01*
X584355D01*
X563355Y358440D02*
X584355D01*
X584355Y426543D02*
Y459543D01*
X563355Y426543D02*
Y459543D01*
X584355D01*
X563355Y426543D02*
X584355D01*
X540285Y299704D02*
X545785D01*
X543036Y296954D02*
Y302454D01*
X538535Y291204D02*
Y308204D01*
X547536Y291204D02*
Y308204D01*
X538535Y291204D02*
X547536D01*
X538535Y308204D02*
X547536D01*
X510188Y271545D02*
X515688D01*
X512938Y268795D02*
Y274295D01*
X508438Y263045D02*
Y280045D01*
X517438Y263045D02*
Y280045D01*
X508438Y263045D02*
X517438D01*
X508438Y280045D02*
X517438D01*
X719450Y260653D02*
Y314653D01*
Y260653D02*
X790550D01*
Y314653D01*
X719450D02*
X790550D01*
X719450Y331326D02*
Y385326D01*
Y331326D02*
X790550D01*
Y385326D01*
X719450D02*
X790550D01*
X719450Y401802D02*
Y455802D01*
Y401802D02*
X790550D01*
Y455802D01*
X719450D02*
X790550D01*
X702261Y260653D02*
Y314653D01*
X631161D02*
X702261D01*
X631161Y260653D02*
Y314653D01*
Y260653D02*
X702261D01*
Y331326D02*
Y385326D01*
X631161D02*
X702261D01*
X631161Y331326D02*
Y385326D01*
Y331326D02*
X702261D01*
Y401600D02*
Y455600D01*
X631161D02*
X702261D01*
X631161Y401600D02*
Y455600D01*
Y401600D02*
X702261D01*
X603133Y273109D02*
X620133D01*
X603133Y303109D02*
X620133D01*
X603133Y273109D02*
Y303109D01*
X620133Y273109D02*
Y303109D01*
X611633Y283109D02*
Y293109D01*
X606633Y288109D02*
X616633D01*
X585244Y273109D02*
X602244D01*
X585244Y303109D02*
X602244D01*
X585244Y273109D02*
Y303109D01*
X602244Y273109D02*
Y303109D01*
X593744Y283109D02*
Y293109D01*
X588744Y288109D02*
X598744D01*
X585244Y342629D02*
X602244D01*
X585244Y372629D02*
X602244D01*
X585244Y342629D02*
Y372629D01*
X602244Y342629D02*
Y372629D01*
X593744Y352629D02*
Y362629D01*
X588744Y357629D02*
X598744D01*
X603133Y342629D02*
X620133D01*
X603133Y372629D02*
X620133D01*
X603133Y342629D02*
Y372629D01*
X620133Y342629D02*
Y372629D01*
X611633Y352629D02*
Y362629D01*
X606633Y357629D02*
X616633D01*
X603133Y443072D02*
X620133D01*
X603133Y413072D02*
X620133D01*
Y443072D01*
X603133Y413072D02*
Y443072D01*
X611633Y423072D02*
Y433072D01*
X606633Y428072D02*
X616633D01*
X585244Y443072D02*
X602244D01*
X585244Y413072D02*
X602244D01*
Y443072D01*
X585244Y413072D02*
Y443072D01*
X593744Y423072D02*
Y433072D01*
X588744Y428072D02*
X598744D01*
X545466Y423834D02*
X562466D01*
X545466Y393834D02*
X562466D01*
Y423834D01*
X545466Y393834D02*
Y423834D01*
X553966Y403834D02*
Y413834D01*
X548966Y408834D02*
X558966D01*
X527577Y423834D02*
X544577D01*
X527577Y393834D02*
X544577D01*
Y423834D01*
X527577Y393834D02*
Y423834D01*
X536077Y403834D02*
Y413834D01*
X531077Y408834D02*
X541077D01*
X509688Y423834D02*
X526688D01*
X509688Y393834D02*
X526688D01*
Y423834D01*
X509688Y393834D02*
Y423834D01*
X518188Y403834D02*
Y413834D01*
X513188Y408834D02*
X523188D01*
X491799Y423834D02*
X508799D01*
X491799Y393834D02*
X508799D01*
Y423834D01*
X491799Y393834D02*
Y423834D01*
X500299Y403834D02*
Y413834D01*
X495299Y408834D02*
X505299D01*
X531558Y373452D02*
Y390452D01*
X501558Y373452D02*
Y390452D01*
Y373452D02*
X531558D01*
X501558Y390452D02*
X531558D01*
X511558Y381952D02*
X521558D01*
X516558Y376952D02*
Y386952D01*
X527577Y426744D02*
X544577D01*
X527577Y456744D02*
X544577D01*
X527577Y426744D02*
Y456744D01*
X544577Y426744D02*
Y456744D01*
X536077Y436744D02*
Y446744D01*
X531077Y441744D02*
X541077D01*
X509688Y426744D02*
X526688D01*
X509688Y456744D02*
X526688D01*
X509688Y426744D02*
Y456744D01*
X526688Y426744D02*
Y456744D01*
X518188Y436744D02*
Y446744D01*
X513188Y441744D02*
X523188D01*
X491799Y426744D02*
X508799D01*
X491799Y456744D02*
X508799D01*
X491799Y426744D02*
Y456744D01*
X508799Y426744D02*
Y456744D01*
X500299Y436744D02*
Y446744D01*
X495299Y441744D02*
X505299D01*
X545466Y426798D02*
X562466D01*
X545466Y456798D02*
X562466D01*
X545466Y426798D02*
Y456798D01*
X562466Y426798D02*
Y456798D01*
X553966Y436798D02*
Y446798D01*
X548966Y441798D02*
X558966D01*
X490549Y290153D02*
X507549D01*
X490549Y260153D02*
X507549D01*
Y290153D01*
X490549Y260153D02*
Y290153D01*
X499049Y270153D02*
Y280153D01*
X494049Y275153D02*
X504049D01*
X532447Y373386D02*
Y390386D01*
X562447Y373386D02*
Y390386D01*
X532447D02*
X562447D01*
X532447Y373386D02*
X562447D01*
X542448Y381886D02*
X552448D01*
X547448Y376886D02*
Y386886D01*
X535091Y291204D02*
Y308204D01*
X505091Y291204D02*
Y308204D01*
Y291204D02*
X535091D01*
X505091Y308204D02*
X535091D01*
X515091Y299704D02*
X525091D01*
X520091Y294704D02*
Y304704D01*
X521447Y273315D02*
Y290315D01*
X551447Y273315D02*
Y290315D01*
X521447D02*
X551447D01*
X521447Y273315D02*
X551447D01*
X531447Y281815D02*
X541447D01*
X536447Y276815D02*
Y286815D01*
M02*
