G04*
G04 #@! TF.GenerationSoftware,Altium Limited,Altium Designer,26.9.1 (10)*
G04*
G04 Layer_Color=255*
G04 Board_Origin=74640005|44270005*
%FSLAX44Y44*%
%MOMM*%
G71*
G04*
G04 #@! TF.SameCoordinates,556BA08A-7CB3-48A2-B18C-BE4019624912*
G04*
G04*
G04 #@! TF.FilePolarity,Positive*
G04*
G01*
G75*
G04:AMPARAMS|DCode=15|XSize=1.3mm|YSize=0.76mm|CornerRadius=0.095mm|HoleSize=0mm|Usage=FLASHONLY|Rotation=90.000|XOffset=0mm|YOffset=0mm|HoleType=Round|Shape=RoundedRectangle|*
%AMROUNDEDRECTD15*
21,1,1.3000,0.5700,0,0,90.0*
21,1,1.1100,0.7600,0,0,90.0*
1,1,0.1900,0.2850,0.5550*
1,1,0.1900,0.2850,-0.5550*
1,1,0.1900,-0.2850,-0.5550*
1,1,0.1900,-0.2850,0.5550*
%
%ADD15ROUNDEDRECTD15*%
%ADD16R,1.2700X0.6100*%
%ADD17R,0.9096X0.2425*%
%ADD18R,0.3000X1.2000*%
%ADD19R,1.2000X0.3000*%
%ADD20R,0.2425X0.9096*%
G04:AMPARAMS|DCode=21|XSize=0.55mm|YSize=0.5mm|CornerRadius=0.0625mm|HoleSize=0mm|Usage=FLASHONLY|Rotation=180.000|XOffset=0mm|YOffset=0mm|HoleType=Round|Shape=RoundedRectangle|*
%AMROUNDEDRECTD21*
21,1,0.5500,0.3750,0,0,180.0*
21,1,0.4250,0.5000,0,0,180.0*
1,1,0.1250,-0.2125,0.1875*
1,1,0.1250,0.2125,0.1875*
1,1,0.1250,0.2125,-0.1875*
1,1,0.1250,-0.2125,-0.1875*
%
%ADD21ROUNDEDRECTD21*%
G04:AMPARAMS|DCode=22|XSize=1.3mm|YSize=0.76mm|CornerRadius=0.095mm|HoleSize=0mm|Usage=FLASHONLY|Rotation=0.000|XOffset=0mm|YOffset=0mm|HoleType=Round|Shape=RoundedRectangle|*
%AMROUNDEDRECTD22*
21,1,1.3000,0.5700,0,0,0.0*
21,1,1.1100,0.7600,0,0,0.0*
1,1,0.1900,0.5550,-0.2850*
1,1,0.1900,-0.5550,-0.2850*
1,1,0.1900,-0.5550,0.2850*
1,1,0.1900,0.5550,0.2850*
%
%ADD22ROUNDEDRECTD22*%
G04:AMPARAMS|DCode=23|XSize=5mm|YSize=5mm|CornerRadius=1.25mm|HoleSize=0mm|Usage=FLASHONLY|Rotation=0.000|XOffset=0mm|YOffset=0mm|HoleType=Round|Shape=RoundedRectangle|*
%AMROUNDEDRECTD23*
21,1,5.0000,2.5000,0,0,0.0*
21,1,2.5000,5.0000,0,0,0.0*
1,1,2.5000,1.2500,-1.2500*
1,1,2.5000,-1.2500,-1.2500*
1,1,2.5000,-1.2500,1.2500*
1,1,2.5000,1.2500,1.2500*
%
%ADD23ROUNDEDRECTD23*%
%ADD24C,1.1000*%
%ADD25R,1.6500X3.6800*%
%ADD27R,1.0500X0.9000*%
%ADD36R,2.5500X2.5500*%
G04:AMPARAMS|DCode=38|XSize=5mm|YSize=4.5mm|CornerRadius=1.125mm|HoleSize=0mm|Usage=FLASHONLY|Rotation=0.000|XOffset=0mm|YOffset=0mm|HoleType=Round|Shape=RoundedRectangle|*
%AMROUNDEDRECTD38*
21,1,5.0000,2.2500,0,0,0.0*
21,1,2.7500,4.5000,0,0,0.0*
1,1,2.2500,1.3750,-1.1250*
1,1,2.2500,-1.3750,-1.1250*
1,1,2.2500,-1.3750,1.1250*
1,1,2.2500,1.3750,1.1250*
%
%ADD38ROUNDEDRECTD38*%
%AMCUSTOMSHAPE39*
4,1,20,2.4160,1.2935,1.7060,1.2935,1.7060,0.6985,2.4160,0.6985,2.4160,0.0635,1.7060,0.0635,1.7060,-0.5715,2.4160,-0.5715,2.4160,-1.2065,1.7060,-1.2065,1.7060,-1.8415,2.4160,-1.8415,2.4160,-2.4640,1.3960,-2.4640,1.3960,-2.1590,-2.1040,-2.1590,-2.1040,1.6510,1.3960,1.6510,1.3960,1.9560,2.4160,1.9560,2.4160,1.2935,0.0*%
%ADD39CUSTOMSHAPE39*%

%ADD40R,2.0000X1.5000*%
%AMCUSTOMSHAPE41*
4,1,20,-2.4160,-1.2935,-1.7060,-1.2935,-1.7060,-0.6985,-2.4160,-0.6985,-2.4160,-0.0635,-1.7060,-0.0635,-1.7060,0.5715,-2.4160,0.5715,-2.4160,1.2065,-1.7060,1.2065,-1.7060,1.8415,-2.4160,1.8415,-2.4160,2.4640,-1.3960,2.4640,-1.3960,2.1590,2.1040,2.1590,2.1040,-1.6510,-1.3960,-1.6510,-1.3960,-1.9560,-2.4160,-1.9560,-2.4160,-1.2935,0.0*%
%ADD41CUSTOMSHAPE41*%

D15*
X556348Y381886D02*
D03*
X507658Y381952D02*
D03*
X511191Y299704D02*
D03*
X529091D02*
D03*
X525559Y381952D02*
D03*
X538447Y381886D02*
D03*
X545347Y281815D02*
D03*
X527447D02*
D03*
D16*
X693411Y294003D02*
D03*
Y281303D02*
D03*
Y268603D02*
D03*
X728300Y422452D02*
D03*
Y435152D02*
D03*
Y447852D02*
D03*
Y377376D02*
D03*
Y364676D02*
D03*
Y306703D02*
D03*
Y351976D02*
D03*
Y294003D02*
D03*
Y281303D02*
D03*
Y268603D02*
D03*
Y339276D02*
D03*
Y409752D02*
D03*
X693411Y306703D02*
D03*
Y339276D02*
D03*
Y351976D02*
D03*
Y364676D02*
D03*
Y377376D02*
D03*
Y409550D02*
D03*
Y422250D02*
D03*
Y434950D02*
D03*
Y447650D02*
D03*
D17*
X555936Y355508D02*
D03*
X517910Y330508D02*
D03*
Y340508D02*
D03*
Y335508D02*
D03*
X555936Y330508D02*
D03*
Y335508D02*
D03*
Y340508D02*
D03*
Y345508D02*
D03*
Y350508D02*
D03*
X517910Y355508D02*
D03*
Y350508D02*
D03*
Y345508D02*
D03*
D18*
X410717Y307162D02*
D03*
X415717D02*
D03*
X420717D02*
D03*
X425717D02*
D03*
X430717D02*
D03*
X435717D02*
D03*
X440717D02*
D03*
X445717D02*
D03*
X450717D02*
D03*
X455717D02*
D03*
X460717D02*
D03*
X465717D02*
D03*
Y392162D02*
D03*
X460717D02*
D03*
X455717D02*
D03*
X450717D02*
D03*
X445717D02*
D03*
X440717D02*
D03*
X435717D02*
D03*
X430717D02*
D03*
X425717D02*
D03*
X420717D02*
D03*
X415717D02*
D03*
X410717D02*
D03*
D19*
X480717Y322162D02*
D03*
Y327162D02*
D03*
Y332162D02*
D03*
Y337162D02*
D03*
Y342162D02*
D03*
Y347162D02*
D03*
Y352162D02*
D03*
Y357162D02*
D03*
Y362162D02*
D03*
Y367162D02*
D03*
Y372162D02*
D03*
Y377162D02*
D03*
X395717D02*
D03*
Y372162D02*
D03*
Y367162D02*
D03*
Y362162D02*
D03*
Y357162D02*
D03*
Y352162D02*
D03*
Y347162D02*
D03*
Y342162D02*
D03*
Y337162D02*
D03*
Y332162D02*
D03*
Y327162D02*
D03*
Y322162D02*
D03*
D20*
X529423Y323996D02*
D03*
X549423D02*
D03*
X524423D02*
D03*
X534423D02*
D03*
X539423D02*
D03*
X544423D02*
D03*
X549423Y362021D02*
D03*
X544423D02*
D03*
X539423D02*
D03*
X534423D02*
D03*
X529423D02*
D03*
X524423D02*
D03*
D21*
X625522Y422752D02*
D03*
Y431641D02*
D03*
Y292653D02*
D03*
Y283764D02*
D03*
X625522Y353199D02*
D03*
Y362088D02*
D03*
X543036Y295204D02*
D03*
X512938Y276045D02*
D03*
Y267045D02*
D03*
X625522Y274764D02*
D03*
X625522Y344199D02*
D03*
X625522Y413752D02*
D03*
Y301653D02*
D03*
X625522Y371088D02*
D03*
X625522Y440641D02*
D03*
X543036Y304204D02*
D03*
D22*
X611633Y419172D02*
D03*
X553966Y432798D02*
D03*
X593744Y419172D02*
D03*
X536077Y432744D02*
D03*
X518188Y432744D02*
D03*
X553966Y399934D02*
D03*
X536077Y399934D02*
D03*
X518188Y399934D02*
D03*
X611633Y366529D02*
D03*
X593744Y366529D02*
D03*
X593744Y297009D02*
D03*
X611633Y297009D02*
D03*
X500299Y432744D02*
D03*
X500299Y399934D02*
D03*
X499049Y266253D02*
D03*
Y284153D02*
D03*
X553966Y450698D02*
D03*
X536077Y450644D02*
D03*
X518188Y450644D02*
D03*
X500299Y450644D02*
D03*
X500299Y417834D02*
D03*
X518188Y417834D02*
D03*
X536077Y417834D02*
D03*
X553966Y417834D02*
D03*
X593744Y437072D02*
D03*
X611633Y437072D02*
D03*
X611633Y348629D02*
D03*
X593744Y348629D02*
D03*
X593744Y279109D02*
D03*
X611633Y279109D02*
D03*
D23*
X380435Y289379D02*
D03*
X380191Y428072D02*
D03*
D24*
X417961Y269044D02*
D03*
X430661D02*
D03*
X456060D02*
D03*
X443360D02*
D03*
X468760D02*
D03*
D25*
X417918Y428600D02*
D03*
X475018D02*
D03*
D27*
X573671Y280273D02*
D03*
Y266273D02*
D03*
X573855Y334051D02*
D03*
Y348051D02*
D03*
X573855Y402154D02*
D03*
Y416153D02*
D03*
X573671Y314162D02*
D03*
Y300162D02*
D03*
X573855Y381940D02*
D03*
Y367940D02*
D03*
X573855Y450042D02*
D03*
Y436043D02*
D03*
D36*
X536923Y343008D02*
D03*
D38*
X819636Y285000D02*
D03*
Y358326D02*
D03*
Y431587D02*
D03*
D39*
X763890Y290193D02*
D03*
Y360866D02*
D03*
Y431342D02*
D03*
D40*
X367500Y336840D02*
D03*
Y360151D02*
D03*
Y385125D02*
D03*
D41*
X657821Y426060D02*
D03*
Y355786D02*
D03*
Y285113D02*
D03*
M02*
