G04*
G04 #@! TF.GenerationSoftware,Altium Limited,Altium Designer,26.9.1 (10)*
G04*
G04 Layer_Color=16711935*
G04 Board_Origin=74640005|44270005*
%FSLAX44Y44*%
%MOMM*%
G71*
G04*
G04 #@! TF.SameCoordinates,556BA08A-7CB3-48A2-B18C-BE4019624912*
G04*
G04*
G04 #@! TF.FilePolarity,Negative*
G04*
G01*
G75*
G04:AMPARAMS|DCode=29|XSize=1.45mm|YSize=0.91mm|CornerRadius=0.17mm|HoleSize=0mm|Usage=FLASHONLY|Rotation=90.000|XOffset=0mm|YOffset=0mm|HoleType=Round|Shape=RoundedRectangle|*
%AMROUNDEDRECTD29*
21,1,1.4500,0.5700,0,0,90.0*
21,1,1.1100,0.9100,0,0,90.0*
1,1,0.3400,0.2850,0.5550*
1,1,0.3400,0.2850,-0.5550*
1,1,0.3400,-0.2850,-0.5550*
1,1,0.3400,-0.2850,0.5550*
%
%ADD29ROUNDEDRECTD29*%
G04:AMPARAMS|DCode=32|XSize=0.7mm|YSize=0.65mm|CornerRadius=0.1375mm|HoleSize=0mm|Usage=FLASHONLY|Rotation=180.000|XOffset=0mm|YOffset=0mm|HoleType=Round|Shape=RoundedRectangle|*
%AMROUNDEDRECTD32*
21,1,0.7000,0.3750,0,0,180.0*
21,1,0.4250,0.6500,0,0,180.0*
1,1,0.2750,-0.2125,0.1875*
1,1,0.2750,0.2125,0.1875*
1,1,0.2750,0.2125,-0.1875*
1,1,0.2750,-0.2125,-0.1875*
%
%ADD32ROUNDEDRECTD32*%
G04:AMPARAMS|DCode=33|XSize=1.45mm|YSize=0.91mm|CornerRadius=0.17mm|HoleSize=0mm|Usage=FLASHONLY|Rotation=0.000|XOffset=0mm|YOffset=0mm|HoleType=Round|Shape=RoundedRectangle|*
%AMROUNDEDRECTD33*
21,1,1.4500,0.5700,0,0,0.0*
21,1,1.1100,0.9100,0,0,0.0*
1,1,0.3400,0.5550,-0.2850*
1,1,0.3400,-0.5550,-0.2850*
1,1,0.3400,-0.5550,0.2850*
1,1,0.3400,0.5550,0.2850*
%
%ADD33ROUNDEDRECTD33*%
%ADD52R,1.0047X0.5588*%
G04:AMPARAMS|DCode=53|XSize=1.8052mm|YSize=0.6121mm|CornerRadius=0.3061mm|HoleSize=0mm|Usage=FLASHONLY|Rotation=90.000|XOffset=0mm|YOffset=0mm|HoleType=Round|Shape=RoundedRectangle|*
%AMROUNDEDRECTD53*
21,1,1.8052,0.0000,0,0,90.0*
21,1,1.1931,0.6121,0,0,90.0*
1,1,0.6121,0.0000,0.5966*
1,1,0.6121,0.0000,-0.5966*
1,1,0.6121,0.0000,-0.5966*
1,1,0.6121,0.0000,0.5966*
%
%ADD53ROUNDEDRECTD53*%
%ADD55R,0.6121X1.8052*%
G04:AMPARAMS|DCode=56|XSize=0.7mm|YSize=0.65mm|CornerRadius=0.1375mm|HoleSize=0mm|Usage=FLASHONLY|Rotation=90.000|XOffset=0mm|YOffset=0mm|HoleType=Round|Shape=RoundedRectangle|*
%AMROUNDEDRECTD56*
21,1,0.7000,0.3750,0,0,90.0*
21,1,0.4250,0.6500,0,0,90.0*
1,1,0.2750,0.1875,0.2125*
1,1,0.2750,0.1875,-0.2125*
1,1,0.2750,-0.1875,-0.2125*
1,1,0.2750,-0.1875,0.2125*
%
%ADD56ROUNDEDRECTD56*%
%ADD57R,2.4500X2.4500*%
D29*
X475104Y304342D02*
D03*
X457204D02*
D03*
D32*
X505091Y333864D02*
D03*
X505091Y270914D02*
D03*
X486918Y273544D02*
D03*
X505091Y289086D02*
D03*
Y279914D02*
D03*
Y315975D02*
D03*
X505091Y324864D02*
D03*
X413350Y295662D02*
D03*
X505091Y298085D02*
D03*
Y306975D02*
D03*
X413350Y304662D02*
D03*
X486918Y264544D02*
D03*
D33*
X477665Y388571D02*
D03*
X500607Y383448D02*
D03*
X417960Y395191D02*
D03*
X500607Y365549D02*
D03*
X477665Y406471D02*
D03*
X417960Y413091D02*
D03*
X555236Y303472D02*
D03*
Y285572D02*
D03*
D52*
X433375Y401819D02*
D03*
X460440Y392319D02*
D03*
X433375Y411319D02*
D03*
Y392319D02*
D03*
X460440Y411319D02*
D03*
D53*
X470718Y343646D02*
D03*
X480218Y366656D02*
D03*
X461218D02*
D03*
Y343646D02*
D03*
D55*
X480218D02*
D03*
D56*
X549373Y271186D02*
D03*
X431739Y299133D02*
D03*
X468813Y282933D02*
D03*
X486702D02*
D03*
X477813D02*
D03*
X456579Y318231D02*
D03*
X514480Y279337D02*
D03*
X540373Y271186D02*
D03*
X422739Y299133D02*
D03*
X495702Y282933D02*
D03*
X465579Y318231D02*
D03*
X523480Y279337D02*
D03*
D57*
X379229Y335940D02*
D03*
Y380940D02*
D03*
M02*
