G04*
G04 #@! TF.GenerationSoftware,Altium Limited,Altium Designer,26.9.1 (10)*
G04*
G04 Layer_Physical_Order=4*
G04 Layer_Color=6736896*
G04 Board_Origin=74640005|44270005*
%FSLAX44Y44*%
%MOMM*%
G71*
G04*
G04 #@! TF.SameCoordinates,556BA08A-7CB3-48A2-B18C-BE4019624912*
G04*
G04*
G04 #@! TF.FilePolarity,Positive*
G04*
G01*
G75*
%ADD11C,0.2540*%
%ADD24C,1.1000*%
%ADD42C,0.2030*%
%ADD43C,0.1540*%
%ADD44C,0.4000*%
%ADD45C,0.3000*%
%ADD47C,0.4500*%
%ADD50C,0.3500*%
G36*
X838663Y455304D02*
X840603Y454501D01*
X842349Y453334D01*
X843834Y451849D01*
X845001Y450103D01*
X845805Y448162D01*
X846214Y446103D01*
Y417387D01*
X845805Y415327D01*
X845001Y413387D01*
X843834Y411641D01*
X842349Y410156D01*
X840603Y408990D01*
X838663Y408186D01*
X836603Y407776D01*
X819636D01*
X819586Y407766D01*
X819536Y407774D01*
X818592Y407727D01*
X818445Y407691D01*
X818294D01*
X816443Y407322D01*
X816257Y407245D01*
X816060Y407206D01*
X814316Y406484D01*
X814149Y406372D01*
X813964Y406296D01*
X812394Y405247D01*
X812252Y405105D01*
X812085Y404993D01*
X810750Y403658D01*
X810639Y403491D01*
X810497Y403349D01*
X809448Y401780D01*
X809371Y401594D01*
X809259Y401427D01*
X808537Y399683D01*
X808498Y399486D01*
X808421Y399301D01*
X808053Y397449D01*
Y397298D01*
X808016Y397151D01*
X807970Y396208D01*
X807977Y396157D01*
X807967Y396108D01*
Y393905D01*
X807977Y393855D01*
X807970Y393805D01*
X808016Y392861D01*
X808053Y392715D01*
Y392564D01*
X808421Y390712D01*
X808498Y390527D01*
X808537Y390330D01*
X809259Y388586D01*
X809371Y388419D01*
X809448Y388233D01*
X810497Y386663D01*
X810639Y386521D01*
X810750Y386354D01*
X812085Y385020D01*
X812252Y384908D01*
X812394Y384766D01*
X813964Y383717D01*
X814149Y383640D01*
X814316Y383529D01*
X816060Y382806D01*
X816257Y382767D01*
X816443Y382690D01*
X818294Y382322D01*
X818445D01*
X818592Y382285D01*
X819536Y382239D01*
X819586Y382247D01*
X819636Y382237D01*
X836582D01*
X838599Y381835D01*
X840499Y381048D01*
X842209Y379906D01*
X843663Y378451D01*
X844806Y376741D01*
X845593Y374841D01*
X845994Y372824D01*
Y344308D01*
X845585Y342248D01*
X844781Y340308D01*
X843614Y338562D01*
X842129Y337077D01*
X840383Y335911D01*
X838443Y335107D01*
X836383Y334697D01*
X820923D01*
X820873Y334687D01*
X820823Y334695D01*
X819753Y334642D01*
X819606Y334605D01*
X819455D01*
X817356Y334188D01*
X817170Y334111D01*
X816973Y334072D01*
X814996Y333253D01*
X814829Y333141D01*
X814644Y333065D01*
X812865Y331876D01*
X812722Y331734D01*
X812555Y331622D01*
X811042Y330109D01*
X810931Y329942D01*
X810789Y329800D01*
X809600Y328021D01*
X809523Y327835D01*
X809411Y327668D01*
X808593Y325691D01*
X808553Y325494D01*
X808476Y325308D01*
X808059Y323209D01*
Y323058D01*
X808022Y322912D01*
X807970Y321842D01*
X807984Y321742D01*
X807970Y321642D01*
X808023Y320563D01*
X808059Y320416D01*
Y320265D01*
X808480Y318150D01*
X808557Y317964D01*
X808596Y317767D01*
X809422Y315774D01*
X809533Y315607D01*
X809610Y315422D01*
X810808Y313629D01*
X810950Y313486D01*
X811062Y313319D01*
X812587Y311794D01*
X812754Y311683D01*
X812896Y311541D01*
X814690Y310342D01*
X814875Y310265D01*
X815042Y310154D01*
X817035Y309328D01*
X817232Y309289D01*
X817418Y309212D01*
X819533Y308792D01*
X819684D01*
X819831Y308755D01*
X820909Y308702D01*
X820960Y308709D01*
X821009Y308699D01*
X836545D01*
X838605Y308290D01*
X840545Y307486D01*
X842291Y306319D01*
X843776Y304834D01*
X844942Y303088D01*
X845746Y301148D01*
X846156Y299088D01*
Y270657D01*
X845746Y268598D01*
X844942Y266658D01*
X843776Y264911D01*
X842291Y263426D01*
X840545Y262260D01*
X838605Y261456D01*
X836545Y261046D01*
X469754D01*
X469652Y262274D01*
X471374Y262735D01*
X472917Y263627D01*
X473637Y264347D01*
X510106D01*
X510806Y263646D01*
X512276Y263037D01*
X513868D01*
X515338Y263646D01*
X516463Y264771D01*
X517072Y266242D01*
Y267833D01*
X516463Y269303D01*
X515338Y270428D01*
X513868Y271037D01*
X512276D01*
X510806Y270428D01*
X510106Y269728D01*
X475531D01*
Y269935D01*
X475168Y271286D01*
X485647Y281765D01*
X486285Y282720D01*
X486510Y283847D01*
X486510Y283848D01*
Y338173D01*
X487780Y338699D01*
X487847Y338632D01*
X489317Y338022D01*
X490908D01*
X491417Y338233D01*
X492396Y338599D01*
X492949Y337598D01*
X493125Y337174D01*
X493461Y336838D01*
X493271Y335385D01*
X492146Y334260D01*
X491536Y332789D01*
Y331198D01*
X492146Y329728D01*
X493005Y328869D01*
X492146Y328010D01*
X491536Y326539D01*
Y324948D01*
X492146Y323478D01*
X491464Y322363D01*
X491014Y322177D01*
X489889Y321051D01*
X489280Y319581D01*
Y317990D01*
X489889Y316520D01*
X491014Y315394D01*
X492484Y314786D01*
X494076D01*
X495546Y315394D01*
X496671Y316520D01*
X497280Y317990D01*
Y319581D01*
X496671Y321051D01*
X497352Y322166D01*
X497802Y322353D01*
X498927Y323478D01*
X499537Y324948D01*
Y326539D01*
X498927Y328010D01*
X498068Y328869D01*
X498927Y329728D01*
X499537Y331198D01*
Y332789D01*
X498927Y334260D01*
X498592Y334595D01*
X498782Y336049D01*
X499907Y337174D01*
X500516Y338644D01*
Y340235D01*
X499907Y341706D01*
X498963Y342650D01*
X498998Y343973D01*
X499019Y344025D01*
X499409Y344548D01*
X501068D01*
X523634Y321982D01*
X523108Y320712D01*
X522952D01*
X521482Y320103D01*
X520356Y318977D01*
X519747Y317507D01*
Y315916D01*
X520356Y314446D01*
X521482Y313321D01*
X522952Y312712D01*
X524543D01*
X525405Y313069D01*
X526377Y312097D01*
X526255Y311802D01*
Y310211D01*
X526864Y308741D01*
X527990Y307616D01*
X529460Y307007D01*
X531051D01*
X532521Y307616D01*
X533647Y308741D01*
X534255Y310211D01*
Y310227D01*
X534649Y310490D01*
X536240D01*
X537710Y311099D01*
X538835Y312224D01*
X539445Y313695D01*
Y315286D01*
X538835Y316756D01*
X537710Y317881D01*
X536240Y318490D01*
X534649D01*
X533179Y317881D01*
X532849Y317551D01*
X502965Y347435D01*
X502416Y347802D01*
X502060Y347873D01*
X501693Y348690D01*
X501642Y349201D01*
X502372Y349931D01*
X502981Y351401D01*
Y351881D01*
X503270Y352571D01*
X504244Y352659D01*
X504919Y351521D01*
X504521Y350560D01*
Y348969D01*
X505130Y347499D01*
X506256Y346374D01*
X507726Y345765D01*
X509317D01*
X510787Y346374D01*
X511912Y347499D01*
X512332Y348512D01*
X513695Y348945D01*
X546114Y316526D01*
Y308441D01*
X544844Y307784D01*
X543831Y308204D01*
X542240D01*
X540770Y307595D01*
X539644Y306469D01*
X539035Y304999D01*
Y303408D01*
X539644Y301938D01*
X540770Y300813D01*
X541782Y300393D01*
X542216Y299030D01*
X538502Y295316D01*
X538502Y295316D01*
X530996Y287810D01*
X529969Y288837D01*
X528499Y289446D01*
X526908D01*
X525438Y288837D01*
X524312Y287712D01*
X523703Y286242D01*
Y284650D01*
X524312Y283180D01*
X525438Y282055D01*
X526908Y281446D01*
X528499D01*
X529969Y282055D01*
X531095Y283180D01*
X531360Y283821D01*
X531671Y283883D01*
X532220Y284250D01*
X540894Y292924D01*
X540894Y292924D01*
X549002Y301032D01*
X549368Y301581D01*
X549410Y301790D01*
X550680Y301665D01*
Y288966D01*
X550809Y288319D01*
X551175Y287770D01*
X551739Y287207D01*
X551501Y286632D01*
Y285041D01*
X552110Y283571D01*
X553235Y282446D01*
X554705Y281837D01*
X556297D01*
X557767Y282446D01*
X558892Y283571D01*
X559501Y285041D01*
Y286632D01*
X558892Y288103D01*
X557767Y289228D01*
X556297Y289837D01*
X554705D01*
X554063Y290945D01*
Y318405D01*
X553934Y319053D01*
X553567Y319601D01*
X527947Y345222D01*
Y367192D01*
X528521Y367430D01*
X529447Y368356D01*
X530348Y367455D01*
X531818Y366846D01*
X533410D01*
X534880Y367455D01*
X536005Y368580D01*
X536100Y368810D01*
X537475D01*
X537580Y368555D01*
X538705Y367430D01*
X540176Y366821D01*
X541767D01*
X541832Y366848D01*
X546083Y362596D01*
X546797Y362119D01*
X547639Y361951D01*
X556330D01*
X556993Y360681D01*
X556578Y359678D01*
Y358087D01*
X557187Y356617D01*
X558312Y355492D01*
X559049Y355187D01*
X559205Y354953D01*
X611879Y302279D01*
X611353Y301009D01*
X610837D01*
X609367Y300400D01*
X608242Y299275D01*
X607633Y297805D01*
Y296213D01*
X608242Y294743D01*
X609367Y293618D01*
X610837Y293009D01*
X612429D01*
X613899Y293618D01*
X615024Y294743D01*
X615633Y296213D01*
Y296728D01*
X616903Y297255D01*
X647438Y266719D01*
X648068Y266298D01*
X648811Y266150D01*
X690207D01*
X691145Y265212D01*
X692615Y264603D01*
X694207D01*
X695677Y265212D01*
X696802Y266337D01*
X697411Y267808D01*
Y269399D01*
X696802Y270869D01*
X695677Y271994D01*
X694207Y272603D01*
X692615D01*
X691145Y271994D01*
X690020Y270869D01*
X689674Y270033D01*
X649615D01*
X563500Y356148D01*
X563969Y356617D01*
X564289Y357391D01*
X565751Y357725D01*
X585888Y337587D01*
X586603Y337110D01*
X587445Y336943D01*
X690088D01*
X691145Y335885D01*
X692615Y335276D01*
X694207D01*
X695677Y335885D01*
X696802Y337010D01*
X697411Y338480D01*
Y340072D01*
X696802Y341542D01*
X695677Y342667D01*
X694207Y343276D01*
X692615D01*
X691145Y342667D01*
X690020Y341542D01*
X689939Y341345D01*
X588357D01*
X567903Y361799D01*
X567882Y361908D01*
X567404Y362622D01*
X564317Y365709D01*
X563603Y366186D01*
X562761Y366354D01*
X554071D01*
X553880Y366706D01*
X553681Y367624D01*
X554612Y368555D01*
X555221Y370025D01*
Y371617D01*
X554612Y373087D01*
X553555Y374144D01*
X553580Y374481D01*
X553903Y375414D01*
X598232D01*
X598975Y375562D01*
X599605Y375983D01*
X630980Y407357D01*
X689989D01*
X690020Y407284D01*
X691145Y406159D01*
X692615Y405550D01*
X694207D01*
X695677Y406159D01*
X696802Y407284D01*
X697411Y408754D01*
Y410345D01*
X696802Y411816D01*
X695677Y412941D01*
X694207Y413550D01*
X692615D01*
X691145Y412941D01*
X690020Y411816D01*
X689782Y411240D01*
X630176D01*
X629433Y411092D01*
X628803Y410672D01*
X597428Y379297D01*
X525698D01*
X524955Y379149D01*
X524325Y378728D01*
X519039Y373442D01*
X517595Y372844D01*
X516470Y371718D01*
X515861Y370248D01*
Y368657D01*
X516470Y367187D01*
X517595Y366062D01*
X519065Y365453D01*
X520657D01*
X522127Y366062D01*
X523252Y367187D01*
X523664Y367188D01*
X524564Y366292D01*
Y344656D01*
X524249Y344402D01*
X523360Y344064D01*
X512788Y354636D01*
X512587Y355928D01*
X513712Y357053D01*
X514321Y358523D01*
Y360114D01*
X513712Y361584D01*
X512587Y362710D01*
X511117Y363319D01*
X509525D01*
X508055Y362710D01*
X506930Y361584D01*
X506469Y360471D01*
X505063Y361053D01*
X503472D01*
X503396Y361021D01*
X502873Y362158D01*
X503998Y363283D01*
X504607Y364753D01*
Y366344D01*
X503998Y367814D01*
X502872Y368940D01*
X501402Y369548D01*
X499811D01*
X498341Y368940D01*
X497539Y368137D01*
X493977D01*
X492850Y367913D01*
X491894Y367275D01*
X481481Y356861D01*
X480843Y355906D01*
X480618Y354779D01*
Y293348D01*
X479348Y292822D01*
X479330Y292840D01*
X477860Y293449D01*
X476268D01*
X474798Y292840D01*
X473673Y291715D01*
X473064Y290245D01*
Y288653D01*
X473673Y287183D01*
X474798Y286058D01*
X476268Y285449D01*
X477860D01*
X478445Y285692D01*
X479885Y284954D01*
X479988Y284437D01*
X471003Y275452D01*
X469652Y275814D01*
X467869D01*
X466147Y275352D01*
X464604Y274461D01*
X463343Y273201D01*
X463144Y272855D01*
X461677D01*
X461478Y273201D01*
X460217Y274461D01*
X458674Y275352D01*
X456952Y275814D01*
X455169D01*
X453447Y275352D01*
X451904Y274461D01*
X450643Y273201D01*
X450444Y272855D01*
X448977D01*
X448778Y273201D01*
X447517Y274461D01*
X445974Y275352D01*
X444252Y275814D01*
X442469D01*
X440747Y275352D01*
X439204Y274461D01*
X437943Y273201D01*
X437744Y272855D01*
X436277D01*
X436078Y273201D01*
X434817Y274461D01*
X433274Y275352D01*
X431552Y275814D01*
X431600Y277064D01*
X432661Y277064D01*
X434131Y277673D01*
X435257Y278798D01*
X435866Y280268D01*
Y281859D01*
X435257Y283330D01*
X434131Y284455D01*
X432661Y285064D01*
X431070D01*
X429600Y284455D01*
X428475Y283330D01*
X427865Y281859D01*
Y280268D01*
X428475Y278798D01*
X429600Y277673D01*
X431070Y277064D01*
X431021Y275814D01*
X429769Y275814D01*
X428047Y275352D01*
X426504Y274461D01*
X425243Y273201D01*
X425044Y272855D01*
X423577D01*
X423378Y273201D01*
X422117Y274461D01*
X420574Y275352D01*
X418852Y275814D01*
X417069D01*
X415347Y275352D01*
X413804Y274461D01*
X412543Y273201D01*
X411652Y271657D01*
X411190Y269935D01*
Y268153D01*
X411652Y266431D01*
X412543Y264887D01*
X413804Y263627D01*
X415347Y262735D01*
X417069Y262274D01*
X416967Y261046D01*
X364618D01*
X361922Y261583D01*
X359383Y262635D01*
X357098Y264162D01*
X355154Y266105D01*
X353627Y268391D01*
X352575Y270930D01*
X352039Y273626D01*
Y275000D01*
Y442500D01*
Y443799D01*
X352546Y446349D01*
X353541Y448750D01*
X354985Y450911D01*
X356823Y452749D01*
X358984Y454193D01*
X361385Y455188D01*
X363935Y455695D01*
X492100D01*
X492832Y454425D01*
X492465Y453540D01*
Y451948D01*
X493074Y450478D01*
X494199Y449353D01*
X495670Y448744D01*
X496180D01*
X496371Y448458D01*
Y446867D01*
X496980Y445397D01*
X498105Y444272D01*
X499575Y443663D01*
X501166D01*
X502636Y444272D01*
X503762Y445397D01*
X504371Y446867D01*
Y448458D01*
X504568Y448754D01*
X505155D01*
X506625Y449363D01*
X507750Y450488D01*
X508359Y451958D01*
Y453550D01*
X508168Y454011D01*
X508909Y455172D01*
X509365Y455172D01*
X510104Y454008D01*
X509911Y453540D01*
Y451948D01*
X510519Y450478D01*
X511645Y449353D01*
X512899Y448833D01*
X513115Y448744D01*
X514072Y447626D01*
Y447112D01*
X514681Y445642D01*
X515807Y444516D01*
X517277Y443907D01*
X518868D01*
X520338Y444516D01*
X521463Y445642D01*
X522072Y447112D01*
Y447587D01*
X522922Y448744D01*
X523246Y448878D01*
X524393Y449353D01*
X525518Y450478D01*
X526127Y451948D01*
Y453540D01*
X525803Y454322D01*
X526463Y455381D01*
X527482D01*
X528142Y454322D01*
X527818Y453540D01*
Y451948D01*
X528427Y450478D01*
X529552Y449353D01*
X531023Y448744D01*
X532145D01*
X532277Y448546D01*
Y446955D01*
X532886Y445485D01*
X534011Y444360D01*
X535481Y443751D01*
X537073D01*
X538543Y444360D01*
X539668Y445485D01*
X540277Y446955D01*
Y448546D01*
X540409Y448744D01*
X541081D01*
X542551Y449353D01*
X543676Y450478D01*
X544286Y451948D01*
Y453540D01*
X544194Y453760D01*
X544994Y455009D01*
X545005Y455009D01*
X545812Y453778D01*
X545736Y453594D01*
Y452002D01*
X546345Y450532D01*
X547470Y449407D01*
X548940Y448798D01*
X550057D01*
X550285Y448456D01*
Y446865D01*
X550894Y445395D01*
X552020Y444270D01*
X553490Y443661D01*
X555081D01*
X556551Y444270D01*
X557676Y445395D01*
X558285Y446865D01*
Y448456D01*
X558514Y448798D01*
X559243D01*
X560713Y449407D01*
X561838Y450532D01*
X562447Y452002D01*
Y453594D01*
X562103Y454425D01*
X562867Y455695D01*
X834533D01*
X834551Y455699D01*
X834570Y455695D01*
X835572Y455714D01*
X836603D01*
X838663Y455304D01*
D02*
G37*
%LPC*%
G36*
X732591Y452134D02*
X731000D01*
X729530Y451525D01*
X728405Y450400D01*
X728329Y450218D01*
X726955D01*
X726880Y450400D01*
X725754Y451525D01*
X724284Y452134D01*
X722693D01*
X721223Y451525D01*
X720097Y450400D01*
X719489Y448929D01*
Y447338D01*
X720097Y445868D01*
X721223Y444743D01*
X722693Y444134D01*
X724284D01*
X725754Y444743D01*
X726880Y445868D01*
X726955Y446050D01*
X728329D01*
X728405Y445868D01*
X729530Y444743D01*
X731000Y444134D01*
X732591D01*
X734062Y444743D01*
X735187Y445868D01*
X735796Y447338D01*
Y448929D01*
X735187Y450400D01*
X734062Y451525D01*
X732591Y452134D01*
D02*
G37*
G36*
X835725Y451097D02*
X834026D01*
X832457Y450447D01*
X831896Y449885D01*
X831066Y449365D01*
X830236Y449885D01*
X829675Y450447D01*
X828105Y451097D01*
X826406D01*
X824837Y450447D01*
X824276Y449885D01*
X823446Y449365D01*
X822616Y449885D01*
X822055Y450447D01*
X820485Y451097D01*
X818786D01*
X817217Y450447D01*
X816656Y449885D01*
X815826Y449365D01*
X814996Y449885D01*
X814435Y450447D01*
X812865Y451097D01*
X811167D01*
X809597Y450447D01*
X809035Y449885D01*
X808206Y449365D01*
X807376Y449885D01*
X806815Y450447D01*
X805245Y451097D01*
X803547D01*
X801977Y450447D01*
X800776Y449246D01*
X800126Y447676D01*
Y445978D01*
X800776Y444408D01*
X801338Y443847D01*
X801858Y443017D01*
X801338Y442187D01*
X800776Y441626D01*
X800126Y440056D01*
Y438358D01*
X800776Y436788D01*
X801338Y436227D01*
X801858Y435397D01*
X801338Y434567D01*
X800776Y434006D01*
X800126Y432436D01*
Y430737D01*
X800776Y429168D01*
X801338Y428607D01*
X801858Y427777D01*
X801338Y426947D01*
X800776Y426386D01*
X800126Y424816D01*
Y423117D01*
X800776Y421548D01*
X801338Y420987D01*
X801858Y420157D01*
X801338Y419327D01*
X800776Y418766D01*
X800126Y417196D01*
Y415498D01*
X800776Y413928D01*
X801977Y412727D01*
X803547Y412077D01*
X805245D01*
X806815Y412727D01*
X807376Y413288D01*
X808206Y413809D01*
X809035Y413288D01*
X809597Y412727D01*
X811167Y412077D01*
X812865D01*
X814435Y412727D01*
X814996Y413288D01*
X815826Y413809D01*
X816656Y413288D01*
X817217Y412727D01*
X818786Y412077D01*
X820485D01*
X822055Y412727D01*
X822616Y413288D01*
X823446Y413809D01*
X824276Y413288D01*
X824837Y412727D01*
X826406Y412077D01*
X828105D01*
X829675Y412727D01*
X830236Y413288D01*
X831066Y413809D01*
X831896Y413288D01*
X832457Y412727D01*
X834026Y412077D01*
X835725D01*
X837295Y412727D01*
X838496Y413928D01*
X839146Y415498D01*
Y417196D01*
X838496Y418766D01*
X837934Y419327D01*
X837414Y420157D01*
X837934Y420987D01*
X838496Y421548D01*
X839146Y423117D01*
Y424816D01*
X838496Y426386D01*
X837934Y426947D01*
X837414Y427777D01*
X837934Y428607D01*
X838496Y429168D01*
X839146Y430737D01*
Y432436D01*
X838496Y434006D01*
X837934Y434567D01*
X837414Y435397D01*
X837934Y436227D01*
X838496Y436788D01*
X839146Y438358D01*
Y440056D01*
X838496Y441626D01*
X837934Y442187D01*
X837414Y443017D01*
X837934Y443847D01*
X838496Y444408D01*
X839146Y445978D01*
Y447676D01*
X838496Y449246D01*
X837295Y450447D01*
X835725Y451097D01*
D02*
G37*
G36*
X758544Y447052D02*
X756953D01*
X755483Y446443D01*
X754358Y445318D01*
X753838Y444063D01*
X753749Y443848D01*
X753372Y443563D01*
X753034Y443596D01*
X751941Y444074D01*
X751493Y445155D01*
X750368Y446281D01*
X748898Y446890D01*
X747306D01*
X745836Y446281D01*
X744711Y445155D01*
X744102Y443685D01*
Y442094D01*
X744711Y440624D01*
X745725Y439609D01*
X745785Y438890D01*
X745725Y438170D01*
X744711Y437155D01*
X744102Y435685D01*
Y434094D01*
X744711Y432624D01*
X745725Y431609D01*
X745785Y430890D01*
X745725Y430170D01*
X744711Y429156D01*
X744102Y427685D01*
Y426094D01*
X744711Y424624D01*
X745725Y423610D01*
X745785Y422890D01*
X745725Y422170D01*
X744711Y421156D01*
X744102Y419685D01*
Y418094D01*
X744711Y416624D01*
X745836Y415499D01*
X747306Y414890D01*
X748897D01*
X748953Y414853D01*
Y414094D01*
X749562Y412624D01*
X750687Y411499D01*
X752157Y410890D01*
X753749D01*
X755219Y411499D01*
X756344Y412624D01*
X756864Y413879D01*
X756931Y414042D01*
X757629Y414373D01*
X758729Y413945D01*
X759209Y412786D01*
X760334Y411661D01*
X761804Y411052D01*
X763396D01*
X764866Y411661D01*
X765991Y412786D01*
X766600Y414256D01*
Y414973D01*
X768178D01*
X768234Y414936D01*
Y414177D01*
X768843Y412707D01*
X769968Y411582D01*
X771438Y410973D01*
X773029D01*
X774499Y411582D01*
X775625Y412707D01*
X776234Y414177D01*
Y415769D01*
X775625Y417239D01*
X774610Y418253D01*
X774550Y418973D01*
X774610Y419693D01*
X775625Y420707D01*
X776234Y422177D01*
Y423769D01*
X775625Y425239D01*
X774610Y426253D01*
X774550Y426973D01*
X774610Y427693D01*
X775625Y428707D01*
X776234Y430177D01*
Y431768D01*
X775625Y433239D01*
X774610Y434253D01*
X774550Y434973D01*
X774610Y435693D01*
X775625Y436707D01*
X776234Y438177D01*
Y439768D01*
X775625Y441239D01*
X774499Y442364D01*
X773029Y442973D01*
X771438D01*
X771382Y443010D01*
Y443769D01*
X770773Y445239D01*
X769648Y446364D01*
X768178Y446973D01*
X766587D01*
X765117Y446364D01*
X763991Y445239D01*
X763382Y443769D01*
Y443052D01*
X761804D01*
X761749Y443089D01*
Y443848D01*
X761140Y445318D01*
X760015Y446443D01*
X758544Y447052D01*
D02*
G37*
G36*
X480350Y446530D02*
X478758D01*
X477288Y445921D01*
X476163Y444795D01*
X475661Y443583D01*
X474720Y443416D01*
X474338Y443457D01*
X473979Y444324D01*
X472854Y445449D01*
X471384Y446058D01*
X469793D01*
X468323Y445449D01*
X467197Y444324D01*
X466589Y442853D01*
Y441262D01*
X467197Y439792D01*
X468129Y438860D01*
X468277Y438259D01*
X468176Y437353D01*
X467311Y436488D01*
X466702Y435018D01*
Y433426D01*
X467311Y431956D01*
X468436Y430831D01*
X469757Y430284D01*
X469836Y429649D01*
X469757Y429014D01*
X468436Y428467D01*
X467311Y427342D01*
X466702Y425872D01*
Y424280D01*
X467311Y422810D01*
X468436Y421685D01*
X468465Y421673D01*
Y420298D01*
X468171Y420177D01*
X467046Y419052D01*
X466437Y417581D01*
Y415990D01*
X467046Y414520D01*
X468171Y413395D01*
X469642Y412786D01*
X471233D01*
X472703Y413395D01*
X473828Y414520D01*
X473951Y414818D01*
X475326D01*
X475449Y414520D01*
X476575Y413395D01*
X478045Y412786D01*
X479636D01*
X481106Y413395D01*
X482231Y414520D01*
X482840Y415990D01*
Y417581D01*
X482231Y419052D01*
X481106Y420177D01*
X480994Y420223D01*
Y421598D01*
X481224Y421693D01*
X482350Y422818D01*
X482958Y424288D01*
Y425880D01*
X482350Y427350D01*
X481224Y428475D01*
X479855Y429042D01*
X479824Y429206D01*
X479792Y429541D01*
X479855Y430312D01*
X481106Y430831D01*
X482231Y431956D01*
X482840Y433426D01*
Y435018D01*
X482231Y436488D01*
X481208Y437511D01*
X481182Y438177D01*
X481281Y438915D01*
X481820Y439139D01*
X482945Y440264D01*
X483554Y441734D01*
Y443325D01*
X482945Y444795D01*
X481820Y445921D01*
X480350Y446530D01*
D02*
G37*
G36*
X490915Y447668D02*
X489324D01*
X487854Y447060D01*
X486728Y445934D01*
X486119Y444464D01*
Y442873D01*
X486728Y441403D01*
X487854Y440277D01*
X489324Y439669D01*
X490915D01*
X492385Y440277D01*
X493510Y441403D01*
X494119Y442873D01*
Y444464D01*
X493510Y445934D01*
X492385Y447060D01*
X490915Y447668D01*
D02*
G37*
G36*
X574651Y440042D02*
X573059D01*
X571589Y439434D01*
X570464Y438308D01*
X569855Y436838D01*
Y435247D01*
X570464Y433777D01*
X571589Y432651D01*
X573059Y432043D01*
X574651D01*
X576121Y432651D01*
X577246Y433777D01*
X577855Y435247D01*
Y436838D01*
X577246Y438308D01*
X576121Y439434D01*
X574651Y440042D01*
D02*
G37*
G36*
X724469Y439259D02*
X722878D01*
X721408Y438650D01*
X720283Y437524D01*
X719674Y436054D01*
Y434463D01*
X720283Y432993D01*
X721408Y431868D01*
X722878Y431259D01*
X724469D01*
X725939Y431868D01*
X727065Y432993D01*
X727065Y432994D01*
X728440D01*
X728553Y432720D01*
X729678Y431595D01*
X731149Y430986D01*
X732740D01*
X734210Y431595D01*
X735335Y432720D01*
X735944Y434190D01*
Y435782D01*
X735335Y437252D01*
X734210Y438377D01*
X732740Y438986D01*
X731149D01*
X729678Y438377D01*
X728553Y437252D01*
X728553Y437251D01*
X727178D01*
X727065Y437524D01*
X725939Y438650D01*
X724469Y439259D01*
D02*
G37*
G36*
X724651Y426535D02*
X723060D01*
X721590Y425926D01*
X720464Y424801D01*
X719856Y423330D01*
Y421739D01*
X720464Y420269D01*
X721590Y419144D01*
X723060Y418535D01*
X724651D01*
X726121Y419144D01*
X727247Y420269D01*
X728595Y420206D01*
X728644Y420087D01*
X729769Y418962D01*
X731239Y418353D01*
X732831D01*
X734301Y418962D01*
X735426Y420087D01*
X736035Y421558D01*
Y423149D01*
X735426Y424619D01*
X734301Y425744D01*
X732831Y426353D01*
X731239D01*
X729769Y425744D01*
X728644Y424619D01*
X727296Y424682D01*
X727247Y424801D01*
X726121Y425926D01*
X724651Y426535D01*
D02*
G37*
G36*
X594540Y423172D02*
X592948D01*
X591478Y422563D01*
X590353Y421438D01*
X589744Y419967D01*
Y418376D01*
X590353Y416906D01*
X591478Y415781D01*
X592948Y415172D01*
X594540D01*
X596010Y415781D01*
X597135Y416906D01*
X597744Y418376D01*
Y419967D01*
X597135Y421438D01*
X596010Y422563D01*
X594540Y423172D01*
D02*
G37*
G36*
X612429Y423172D02*
X610837D01*
X609367Y422563D01*
X608242Y421438D01*
X607633Y419967D01*
Y418376D01*
X608242Y416906D01*
X609367Y415781D01*
X610837Y415172D01*
X612429D01*
X613899Y415781D01*
X615024Y416906D01*
X615633Y418376D01*
Y419967D01*
X615024Y421438D01*
X613899Y422563D01*
X612429Y423172D01*
D02*
G37*
G36*
X421531Y407172D02*
X419940D01*
X418470Y406563D01*
X417345Y405438D01*
X416736Y403968D01*
Y402377D01*
X417345Y400906D01*
X418470Y399781D01*
X419940Y399172D01*
X421531D01*
X423002Y399781D01*
X424127Y400906D01*
X424736Y402377D01*
Y403968D01*
X424127Y405438D01*
X423002Y406563D01*
X421531Y407172D01*
D02*
G37*
G36*
X478461Y392571D02*
X476869D01*
X475399Y391962D01*
X474274Y390837D01*
X473665Y389367D01*
Y387775D01*
X474274Y386305D01*
X475399Y385180D01*
X476869Y384571D01*
X478461D01*
X479931Y385180D01*
X481056Y386305D01*
X481665Y387775D01*
Y389367D01*
X481056Y390837D01*
X479931Y391962D01*
X478461Y392571D01*
D02*
G37*
G36*
X433902Y384497D02*
X432311D01*
X430841Y383888D01*
X429715Y382763D01*
X429106Y381292D01*
Y379701D01*
X429715Y378231D01*
X430841Y377106D01*
X432311Y376497D01*
X433902D01*
X435372Y377106D01*
X436497Y378231D01*
X437106Y379701D01*
Y381292D01*
X436497Y382763D01*
X435372Y383888D01*
X433902Y384497D01*
D02*
G37*
G36*
X835725Y377836D02*
X834026D01*
X832457Y377186D01*
X831896Y376624D01*
X831066Y376104D01*
X830236Y376624D01*
X829675Y377186D01*
X828105Y377836D01*
X826406D01*
X824837Y377186D01*
X824276Y376624D01*
X823446Y376104D01*
X822616Y376624D01*
X822055Y377186D01*
X820485Y377836D01*
X818786D01*
X817217Y377186D01*
X816656Y376624D01*
X815826Y376104D01*
X814996Y376624D01*
X814435Y377186D01*
X812865Y377836D01*
X811167D01*
X809597Y377186D01*
X809035Y376624D01*
X808206Y376104D01*
X807376Y376624D01*
X806815Y377186D01*
X805245Y377836D01*
X803547D01*
X801977Y377186D01*
X800776Y375985D01*
X800126Y374415D01*
Y372717D01*
X800776Y371147D01*
X801338Y370586D01*
X801858Y369756D01*
X801338Y368926D01*
X800776Y368365D01*
X800126Y366795D01*
Y365097D01*
X800776Y363527D01*
X801338Y362966D01*
X801858Y362136D01*
X801338Y361306D01*
X800776Y360745D01*
X800126Y359175D01*
Y357477D01*
X800776Y355907D01*
X801338Y355346D01*
X801858Y354516D01*
X801338Y353686D01*
X800776Y353125D01*
X800126Y351555D01*
Y349857D01*
X800776Y348287D01*
X801338Y347726D01*
X801858Y346896D01*
X801338Y346066D01*
X800776Y345505D01*
X800126Y343935D01*
Y342237D01*
X800776Y340667D01*
X801977Y339466D01*
X803547Y338816D01*
X805245D01*
X806815Y339466D01*
X807376Y340028D01*
X808206Y340548D01*
X809035Y340028D01*
X809597Y339466D01*
X811167Y338816D01*
X812865D01*
X814435Y339466D01*
X814996Y340028D01*
X815826Y340548D01*
X816656Y340028D01*
X817217Y339466D01*
X818786Y338816D01*
X820485D01*
X822055Y339466D01*
X822616Y340028D01*
X823446Y340548D01*
X824276Y340028D01*
X824837Y339466D01*
X826406Y338816D01*
X828105D01*
X829675Y339466D01*
X830236Y340028D01*
X831066Y340548D01*
X831896Y340028D01*
X832457Y339466D01*
X834026Y338816D01*
X835725D01*
X837295Y339466D01*
X838496Y340667D01*
X839146Y342237D01*
Y343935D01*
X838496Y345505D01*
X837934Y346066D01*
X837414Y346896D01*
X837934Y347726D01*
X838496Y348287D01*
X839146Y349857D01*
Y351555D01*
X838496Y353125D01*
X837934Y353686D01*
X837414Y354516D01*
X837934Y355346D01*
X838496Y355907D01*
X839146Y357477D01*
Y359175D01*
X838496Y360745D01*
X837934Y361306D01*
X837414Y362136D01*
X837934Y362966D01*
X838496Y363527D01*
X839146Y365097D01*
Y366795D01*
X838496Y368365D01*
X837934Y368926D01*
X837414Y369756D01*
X837934Y370586D01*
X838496Y371147D01*
X839146Y372717D01*
Y374415D01*
X838496Y375985D01*
X837295Y377186D01*
X835725Y377836D01*
D02*
G37*
G36*
X759835Y376866D02*
X758243D01*
X756773Y376257D01*
X755648Y375132D01*
X755128Y373877D01*
X755039Y373662D01*
X754662Y373377D01*
X754324Y373410D01*
X753231Y373889D01*
X752783Y374970D01*
X751658Y376095D01*
X750188Y376704D01*
X748596D01*
X747126Y376095D01*
X746001Y374970D01*
X745392Y373499D01*
Y371908D01*
X746001Y370438D01*
X747015Y369424D01*
X747075Y368704D01*
X747015Y367984D01*
X746001Y366970D01*
X745392Y365499D01*
Y363908D01*
X746001Y362438D01*
X747015Y361424D01*
X747075Y360704D01*
X747015Y359984D01*
X746001Y358970D01*
X745392Y357500D01*
Y355908D01*
X746001Y354438D01*
X747015Y353424D01*
X747075Y352704D01*
X747015Y351984D01*
X746001Y350970D01*
X745392Y349500D01*
Y347908D01*
X746001Y346438D01*
X747126Y345313D01*
X748596Y344704D01*
X750188D01*
X750243Y344667D01*
Y343908D01*
X750852Y342438D01*
X751977Y341313D01*
X753447Y340704D01*
X755039D01*
X756509Y341313D01*
X757634Y342438D01*
X758154Y343693D01*
X758243Y343908D01*
X758620Y344193D01*
X758957Y344160D01*
X760051Y343681D01*
X760499Y342600D01*
X761624Y341475D01*
X763094Y340866D01*
X764686D01*
X766156Y341475D01*
X767281Y342600D01*
X767890Y344070D01*
Y344787D01*
X769468D01*
X769524Y344750D01*
Y343991D01*
X770133Y342521D01*
X771258Y341396D01*
X772728Y340787D01*
X774319D01*
X775789Y341396D01*
X776915Y342521D01*
X777524Y343991D01*
Y345583D01*
X776915Y347053D01*
X775900Y348067D01*
X775840Y348787D01*
X775900Y349507D01*
X776915Y350521D01*
X777524Y351991D01*
Y353583D01*
X776915Y355053D01*
X775900Y356067D01*
X775840Y356787D01*
X775900Y357507D01*
X776915Y358521D01*
X777524Y359991D01*
Y361583D01*
X776915Y363053D01*
X775900Y364067D01*
X775840Y364787D01*
X775900Y365507D01*
X776915Y366521D01*
X777524Y367991D01*
Y369582D01*
X776915Y371053D01*
X775789Y372178D01*
X774319Y372787D01*
X772728D01*
X772672Y372824D01*
Y373583D01*
X772064Y375053D01*
X770938Y376178D01*
X769468Y376787D01*
X767877D01*
X766407Y376178D01*
X765281Y375053D01*
X764672Y373583D01*
Y372866D01*
X763094D01*
X763039Y372903D01*
Y373662D01*
X762430Y375132D01*
X761305Y376257D01*
X759835Y376866D01*
D02*
G37*
G36*
X725080Y381329D02*
X723488D01*
X722018Y380720D01*
X720893Y379595D01*
X720284Y378125D01*
Y376534D01*
X720893Y375064D01*
X722018Y373938D01*
X723488Y373329D01*
X725080D01*
X726550Y373938D01*
X727214Y374603D01*
X728050Y374915D01*
X728856Y374596D01*
X729530Y373922D01*
X731000Y373313D01*
X732591D01*
X734062Y373922D01*
X735187Y375048D01*
X735796Y376518D01*
Y378109D01*
X735187Y379579D01*
X734062Y380704D01*
X732591Y381314D01*
X731000D01*
X729530Y380704D01*
X728866Y380040D01*
X728030Y379728D01*
X727224Y380047D01*
X726550Y380720D01*
X725080Y381329D01*
D02*
G37*
G36*
X574651Y371940D02*
X573059D01*
X571589Y371331D01*
X570464Y370206D01*
X569855Y368736D01*
Y367144D01*
X570464Y365674D01*
X571589Y364549D01*
X573059Y363940D01*
X574651D01*
X576121Y364549D01*
X577246Y365674D01*
X577855Y367144D01*
Y368736D01*
X577246Y370206D01*
X576121Y371331D01*
X574651Y371940D01*
D02*
G37*
G36*
X612429Y370529D02*
X610837D01*
X609367Y369920D01*
X608242Y368795D01*
X607633Y367325D01*
Y365733D01*
X608242Y364263D01*
X609367Y363138D01*
X610837Y362529D01*
X612429D01*
X613899Y363138D01*
X615024Y364263D01*
X615633Y365733D01*
Y367325D01*
X615024Y368795D01*
X613899Y369920D01*
X612429Y370529D01*
D02*
G37*
G36*
X594540Y370529D02*
X592948D01*
X591478Y369920D01*
X590353Y368795D01*
X589744Y367325D01*
Y365733D01*
X590353Y364263D01*
X591478Y363138D01*
X592948Y362529D01*
X594540D01*
X596010Y363138D01*
X597135Y364263D01*
X597744Y365733D01*
Y367325D01*
X597135Y368795D01*
X596010Y369920D01*
X594540Y370529D01*
D02*
G37*
G36*
X725135Y368674D02*
X723543D01*
X722073Y368065D01*
X720948Y366940D01*
X720339Y365470D01*
Y363878D01*
X720948Y362408D01*
X722073Y361283D01*
X723543Y360674D01*
X725135D01*
X726605Y361283D01*
X727155Y361833D01*
X728158Y362166D01*
X728790Y361808D01*
X729489Y361109D01*
X730959Y360500D01*
X732551D01*
X734021Y361109D01*
X735146Y362234D01*
X735755Y363704D01*
Y365296D01*
X735146Y366766D01*
X734021Y367891D01*
X732551Y368500D01*
X730959D01*
X729489Y367891D01*
X728939Y367341D01*
X727936Y367008D01*
X727304Y367365D01*
X726605Y368065D01*
X725135Y368674D01*
D02*
G37*
G36*
X445939Y364151D02*
X444348D01*
X442878Y363542D01*
X441753Y362417D01*
X441143Y360947D01*
Y359355D01*
X441753Y357885D01*
X442878Y356760D01*
X444348Y356151D01*
X445939D01*
X447409Y356760D01*
X448535Y357885D01*
X449143Y359355D01*
Y360947D01*
X448535Y362417D01*
X447409Y363542D01*
X445939Y364151D01*
D02*
G37*
G36*
X469547Y363021D02*
X467956D01*
X466486Y362412D01*
X465360Y361287D01*
X464751Y359817D01*
Y358226D01*
X465360Y356756D01*
X466486Y355630D01*
X467956Y355022D01*
X469547D01*
X471017Y355630D01*
X472142Y356756D01*
X472751Y358226D01*
Y359817D01*
X472142Y361287D01*
X471017Y362412D01*
X469547Y363021D01*
D02*
G37*
G36*
X405796Y356162D02*
X404204D01*
X402734Y355553D01*
X401609Y354428D01*
X401000Y352957D01*
Y351366D01*
X401609Y349896D01*
X402734Y348771D01*
X404204Y348162D01*
X405796D01*
X407266Y348771D01*
X408391Y349896D01*
X409000Y351366D01*
Y352957D01*
X408391Y354428D01*
X407266Y355553D01*
X405796Y356162D01*
D02*
G37*
G36*
X725193Y355927D02*
X723601D01*
X722131Y355318D01*
X721006Y354193D01*
X720397Y352723D01*
Y351132D01*
X721006Y349662D01*
X722131Y348536D01*
X723601Y347927D01*
X725193D01*
X726663Y348536D01*
X727247Y349121D01*
X728144Y349489D01*
X728906Y349120D01*
X729547Y348478D01*
X731017Y347869D01*
X732608D01*
X734079Y348478D01*
X735204Y349604D01*
X735813Y351074D01*
Y352665D01*
X735204Y354135D01*
X734079Y355261D01*
X732608Y355869D01*
X731017D01*
X729547Y355261D01*
X728963Y354676D01*
X728066Y354308D01*
X727304Y354677D01*
X726663Y355318D01*
X725193Y355927D01*
D02*
G37*
G36*
X452013Y350074D02*
X450422D01*
X448952Y349465D01*
X447827Y348340D01*
X447218Y346870D01*
Y345279D01*
X447827Y343809D01*
X448952Y342683D01*
X450422Y342074D01*
X452013D01*
X453483Y342683D01*
X454609Y343809D01*
X455218Y345279D01*
Y346870D01*
X454609Y348340D01*
X453483Y349465D01*
X452013Y350074D01*
D02*
G37*
G36*
X424677Y342242D02*
X423086D01*
X421615Y341633D01*
X420490Y340508D01*
X419881Y339038D01*
Y337447D01*
X420490Y335976D01*
X421615Y334851D01*
X423086Y334242D01*
X424677D01*
X426147Y334851D01*
X427272Y335976D01*
X427881Y337447D01*
Y339038D01*
X427272Y340508D01*
X426147Y341633D01*
X424677Y342242D01*
D02*
G37*
G36*
X405796Y336162D02*
X404204D01*
X402734Y335553D01*
X401609Y334428D01*
X401000Y332957D01*
Y331366D01*
X401609Y329896D01*
X402734Y328771D01*
X404204Y328162D01*
X405796D01*
X407266Y328771D01*
X408391Y329896D01*
X409000Y331366D01*
Y332957D01*
X408391Y334428D01*
X407266Y335553D01*
X405796Y336162D01*
D02*
G37*
G36*
X456000Y330035D02*
X454408D01*
X452938Y329426D01*
X451813Y328301D01*
X451204Y326830D01*
Y325239D01*
X451813Y323769D01*
X452938Y322644D01*
X454408Y322035D01*
X456000D01*
X457470Y322644D01*
X458595Y323769D01*
X459204Y325239D01*
Y326830D01*
X458595Y328301D01*
X457470Y329426D01*
X456000Y330035D01*
D02*
G37*
G36*
X437559Y328864D02*
X435968D01*
X434498Y328255D01*
X433372Y327129D01*
X432764Y325659D01*
Y324068D01*
X433372Y322598D01*
X434498Y321473D01*
X435968Y320864D01*
X437559D01*
X439029Y321473D01*
X440155Y322598D01*
X440764Y324068D01*
Y325659D01*
X440155Y327129D01*
X439029Y328255D01*
X437559Y328864D01*
D02*
G37*
G36*
X431480Y321610D02*
X429889D01*
X428419Y321001D01*
X427294Y319875D01*
X426685Y318405D01*
Y316814D01*
X427294Y315344D01*
X428419Y314219D01*
X429889Y313610D01*
X431480D01*
X432950Y314219D01*
X434076Y315344D01*
X434685Y316814D01*
Y318405D01*
X434076Y319875D01*
X432950Y321001D01*
X431480Y321610D01*
D02*
G37*
G36*
X421311D02*
X419720D01*
X418249Y321001D01*
X417124Y319875D01*
X416515Y318405D01*
Y316814D01*
X417124Y315344D01*
X418249Y314219D01*
X419720Y313610D01*
X421311D01*
X422781Y314219D01*
X423906Y315344D01*
X424515Y316814D01*
Y318405D01*
X423906Y319875D01*
X422781Y321001D01*
X421311Y321610D01*
D02*
G37*
G36*
X505877Y320044D02*
X504286D01*
X502816Y319435D01*
X501690Y318309D01*
X501081Y316839D01*
Y315248D01*
X501690Y313778D01*
X502816Y312653D01*
X504286Y312044D01*
X505877D01*
X507347Y312653D01*
X508472Y313778D01*
X509081Y315248D01*
Y316839D01*
X508472Y318309D01*
X507347Y319435D01*
X505877Y320044D01*
D02*
G37*
G36*
X731802Y310861D02*
X730211D01*
X728741Y310252D01*
X727732Y309244D01*
X726724Y310252D01*
X725254Y310861D01*
X723662D01*
X722192Y310252D01*
X721067Y309127D01*
X720458Y307657D01*
Y306066D01*
X721067Y304596D01*
X722192Y303470D01*
X723662Y302861D01*
X725254D01*
X726724Y303470D01*
X727732Y304479D01*
X728741Y303470D01*
X730211Y302861D01*
X731802D01*
X733272Y303470D01*
X734398Y304596D01*
X735007Y306066D01*
Y307657D01*
X734398Y309127D01*
X733272Y310252D01*
X731802Y310861D01*
D02*
G37*
G36*
X373779Y309348D02*
X372188D01*
X370718Y308739D01*
X369592Y307614D01*
X369073Y306359D01*
X368983Y306144D01*
X368606Y305859D01*
X368269Y305892D01*
X367175Y306371D01*
X366727Y307452D01*
X365602Y308577D01*
X364132Y309186D01*
X362541D01*
X361071Y308577D01*
X359945Y307452D01*
X359336Y305982D01*
Y304390D01*
X359945Y302920D01*
X360960Y301906D01*
X361020Y301186D01*
X360960Y300466D01*
X359945Y299452D01*
X359336Y297981D01*
Y296390D01*
X359945Y294920D01*
X360960Y293906D01*
X361020Y293186D01*
X360960Y292466D01*
X359945Y291452D01*
X359336Y289981D01*
Y288390D01*
X359945Y286920D01*
X360960Y285906D01*
X361020Y285186D01*
X360960Y284466D01*
X359945Y283452D01*
X359336Y281982D01*
Y280390D01*
X359945Y278920D01*
X361071Y277795D01*
X361813Y277487D01*
Y276113D01*
X360910Y275739D01*
X359785Y274614D01*
X359176Y273144D01*
Y271552D01*
X359785Y270082D01*
X360910Y268957D01*
X362380Y268348D01*
X363972D01*
X365442Y268957D01*
X366567Y270082D01*
X367176Y271552D01*
Y271823D01*
X367521Y272099D01*
X368530Y272353D01*
X368823Y272112D01*
Y271714D01*
X369432Y270244D01*
X370557Y269119D01*
X372028Y268510D01*
X373619D01*
X375089Y269119D01*
X376214Y270244D01*
X376823Y271714D01*
Y271994D01*
X377151Y272256D01*
X378176Y272508D01*
X378457Y272268D01*
Y271635D01*
X379066Y270165D01*
X380191Y269040D01*
X381661Y268431D01*
X383252D01*
X384723Y269040D01*
X385848Y270165D01*
X386457Y271635D01*
Y272096D01*
X386666Y273234D01*
X387630Y273269D01*
X387723D01*
X388299Y273207D01*
X388896Y272156D01*
Y271552D01*
X389505Y270082D01*
X390630Y268957D01*
X392100Y268348D01*
X393692D01*
X395162Y268957D01*
X396287Y270082D01*
X396896Y271552D01*
Y272013D01*
X397105Y273151D01*
X398069Y273186D01*
X398703D01*
X400173Y273795D01*
X401298Y274920D01*
X401907Y276390D01*
Y277981D01*
X401298Y279452D01*
X400284Y280466D01*
X400224Y281186D01*
X400284Y281906D01*
X401298Y282920D01*
X401907Y284390D01*
Y285982D01*
X401298Y287452D01*
X400284Y288466D01*
X400224Y289186D01*
X400284Y289906D01*
X401298Y290920D01*
X401907Y292390D01*
Y293981D01*
X401298Y295452D01*
X400284Y296466D01*
X400224Y297186D01*
X400284Y297906D01*
X401298Y298920D01*
X401907Y300390D01*
Y301982D01*
X401298Y303452D01*
X400173Y304577D01*
X398703Y305186D01*
X397112D01*
X397056Y305223D01*
Y305982D01*
X396447Y307452D01*
X395322Y308577D01*
X393852Y309186D01*
X392261D01*
X390790Y308577D01*
X389665Y307452D01*
X389056Y305982D01*
Y305798D01*
X388264Y305269D01*
X387760D01*
X386617Y306065D01*
X386460Y306442D01*
X386008Y307535D01*
X384883Y308660D01*
X383413Y309269D01*
X381821D01*
X380351Y308660D01*
X379226Y307535D01*
X378617Y306065D01*
Y305348D01*
X377039D01*
X376983Y305385D01*
Y306144D01*
X376374Y307614D01*
X375249Y308739D01*
X373779Y309348D01*
D02*
G37*
G36*
X835725Y304510D02*
X834026D01*
X832457Y303860D01*
X831896Y303298D01*
X831066Y302778D01*
X830236Y303298D01*
X829675Y303860D01*
X828105Y304510D01*
X826406D01*
X824837Y303860D01*
X824276Y303298D01*
X823446Y302778D01*
X822616Y303298D01*
X822055Y303860D01*
X820485Y304510D01*
X818786D01*
X817217Y303860D01*
X816656Y303298D01*
X815826Y302778D01*
X814996Y303298D01*
X814435Y303860D01*
X812865Y304510D01*
X811167D01*
X809597Y303860D01*
X809035Y303298D01*
X808206Y302778D01*
X807376Y303298D01*
X806815Y303860D01*
X805245Y304510D01*
X803547D01*
X801977Y303860D01*
X800776Y302659D01*
X800126Y301089D01*
Y299391D01*
X800776Y297821D01*
X801338Y297260D01*
X801858Y296430D01*
X801338Y295600D01*
X800776Y295039D01*
X800126Y293469D01*
Y291771D01*
X800776Y290201D01*
X801338Y289640D01*
X801858Y288810D01*
X801338Y287980D01*
X800776Y287419D01*
X800126Y285849D01*
Y284151D01*
X800776Y282581D01*
X801338Y282020D01*
X801858Y281190D01*
X801338Y280360D01*
X800776Y279799D01*
X800126Y278229D01*
Y276531D01*
X800776Y274961D01*
X801338Y274400D01*
X801858Y273570D01*
X801338Y272740D01*
X800776Y272179D01*
X800126Y270609D01*
Y268911D01*
X800776Y267341D01*
X801977Y266140D01*
X803547Y265490D01*
X805245D01*
X806815Y266140D01*
X807376Y266702D01*
X808206Y267222D01*
X809035Y266702D01*
X809597Y266140D01*
X811167Y265490D01*
X812865D01*
X814435Y266140D01*
X814996Y266702D01*
X815826Y267222D01*
X816656Y266702D01*
X817217Y266140D01*
X818786Y265490D01*
X820485D01*
X822055Y266140D01*
X822616Y266702D01*
X823446Y267222D01*
X824276Y266702D01*
X824837Y266140D01*
X826406Y265490D01*
X828105D01*
X829675Y266140D01*
X830236Y266702D01*
X831066Y267222D01*
X831896Y266702D01*
X832457Y266140D01*
X834026Y265490D01*
X835725D01*
X837295Y266140D01*
X838496Y267341D01*
X839146Y268911D01*
Y270609D01*
X838496Y272179D01*
X837934Y272740D01*
X837414Y273570D01*
X837934Y274400D01*
X838496Y274961D01*
X839146Y276531D01*
Y278229D01*
X838496Y279799D01*
X837934Y280360D01*
X837414Y281190D01*
X837934Y282020D01*
X838496Y282581D01*
X839146Y284151D01*
Y285849D01*
X838496Y287419D01*
X837934Y287980D01*
X837414Y288810D01*
X837934Y289640D01*
X838496Y290201D01*
X839146Y291771D01*
Y293469D01*
X838496Y295039D01*
X837934Y295600D01*
X837414Y296430D01*
X837934Y297260D01*
X838496Y297821D01*
X839146Y299391D01*
Y301089D01*
X838496Y302659D01*
X837295Y303860D01*
X835725Y304510D01*
D02*
G37*
G36*
X759835Y306193D02*
X758243D01*
X756773Y305584D01*
X755648Y304459D01*
X755128Y303204D01*
X755039Y302989D01*
X754662Y302705D01*
X754324Y302737D01*
X753231Y303216D01*
X752783Y304297D01*
X751658Y305422D01*
X750188Y306031D01*
X748596D01*
X747126Y305422D01*
X746001Y304297D01*
X745392Y302827D01*
Y301235D01*
X746001Y299765D01*
X747015Y298751D01*
X747075Y298031D01*
X747015Y297311D01*
X746001Y296297D01*
X745392Y294827D01*
Y293235D01*
X746001Y291765D01*
X747015Y290751D01*
X747075Y290031D01*
X747015Y289311D01*
X746001Y288297D01*
X745392Y286827D01*
Y285235D01*
X746001Y283765D01*
X747015Y282751D01*
X747075Y282031D01*
X747015Y281311D01*
X746001Y280297D01*
X745392Y278827D01*
Y277235D01*
X746001Y275765D01*
X747126Y274640D01*
X748596Y274031D01*
X750188D01*
X750243Y273994D01*
Y273235D01*
X750852Y271765D01*
X751977Y270640D01*
X753447Y270031D01*
X755039D01*
X756509Y270640D01*
X757634Y271765D01*
X758154Y273020D01*
X758243Y273235D01*
X758620Y273520D01*
X758957Y273487D01*
X760051Y273008D01*
X760499Y271927D01*
X761624Y270802D01*
X763094Y270193D01*
X764686D01*
X766156Y270802D01*
X767281Y271927D01*
X767890Y273398D01*
Y274114D01*
X769468D01*
X769524Y274077D01*
Y273318D01*
X770133Y271848D01*
X771258Y270723D01*
X772728Y270114D01*
X774319D01*
X775789Y270723D01*
X776915Y271848D01*
X777524Y273318D01*
Y274910D01*
X776915Y276380D01*
X775900Y277394D01*
X775840Y278114D01*
X775900Y278834D01*
X776915Y279848D01*
X777524Y281318D01*
Y282910D01*
X776915Y284380D01*
X775900Y285394D01*
X775840Y286114D01*
X775900Y286834D01*
X776915Y287848D01*
X777524Y289318D01*
Y290910D01*
X776915Y292380D01*
X775900Y293394D01*
X775840Y294114D01*
X775900Y294834D01*
X776915Y295848D01*
X777524Y297318D01*
Y298910D01*
X776915Y300380D01*
X775789Y301505D01*
X774319Y302114D01*
X773815D01*
X772672Y302910D01*
X772516Y303287D01*
X772064Y304380D01*
X770938Y305505D01*
X769468Y306114D01*
X767877D01*
X766407Y305505D01*
X765281Y304380D01*
X764672Y302910D01*
Y302193D01*
X763094D01*
X763039Y302230D01*
Y302989D01*
X762430Y304459D01*
X761305Y305584D01*
X759835Y306193D01*
D02*
G37*
G36*
X731842Y297994D02*
X730250D01*
X728780Y297385D01*
X727798Y296403D01*
X726816Y297385D01*
X725346Y297994D01*
X723755D01*
X722284Y297385D01*
X721159Y296260D01*
X720550Y294790D01*
Y293198D01*
X721159Y291728D01*
X722284Y290603D01*
X723755Y289994D01*
X725346D01*
X726816Y290603D01*
X727798Y291585D01*
X728780Y290603D01*
X730250Y289994D01*
X731842D01*
X733312Y290603D01*
X734437Y291728D01*
X735046Y293198D01*
Y294790D01*
X734437Y296260D01*
X733312Y297385D01*
X731842Y297994D01*
D02*
G37*
G36*
X574466Y304162D02*
X572875D01*
X571405Y303553D01*
X570280Y302428D01*
X569671Y300958D01*
Y299366D01*
X570280Y297896D01*
X571405Y296771D01*
X572875Y296162D01*
X574466D01*
X575937Y296771D01*
X577062Y297896D01*
X577671Y299366D01*
Y300958D01*
X577062Y302428D01*
X575937Y303553D01*
X574466Y304162D01*
D02*
G37*
G36*
X594540Y301009D02*
X592948D01*
X591478Y300400D01*
X590353Y299275D01*
X589744Y297805D01*
Y296213D01*
X590353Y294743D01*
X591478Y293618D01*
X592948Y293009D01*
X594540D01*
X596010Y293618D01*
X597135Y294743D01*
X597744Y296213D01*
Y297805D01*
X597135Y299275D01*
X596010Y300400D01*
X594540Y301009D01*
D02*
G37*
G36*
X456625Y296454D02*
X455034D01*
X453563Y295845D01*
X452438Y294719D01*
X451829Y293249D01*
Y291658D01*
X452438Y290188D01*
X453563Y289063D01*
X455034Y288454D01*
X456625D01*
X458095Y289063D01*
X459220Y290188D01*
X459829Y291658D01*
Y293249D01*
X459220Y294719D01*
X458095Y295845D01*
X456625Y296454D01*
D02*
G37*
G36*
X438753Y294245D02*
X437162D01*
X435692Y293636D01*
X434566Y292511D01*
X433958Y291040D01*
Y289449D01*
X434566Y287979D01*
X435692Y286854D01*
X437162Y286245D01*
X438753D01*
X440223Y286854D01*
X441349Y287979D01*
X441958Y289449D01*
Y291040D01*
X441349Y292511D01*
X440223Y293636D01*
X438753Y294245D01*
D02*
G37*
G36*
X514706Y291003D02*
X513115D01*
X511645Y290394D01*
X510519Y289269D01*
X509911Y287799D01*
Y286208D01*
X510519Y284737D01*
X511645Y283612D01*
X513115Y283003D01*
X514706D01*
X516176Y283612D01*
X517302Y284737D01*
X517910Y286208D01*
Y287799D01*
X517302Y289269D01*
X516176Y290394D01*
X514706Y291003D01*
D02*
G37*
G36*
X448620Y286087D02*
X447029D01*
X445559Y285478D01*
X444433Y284352D01*
X443824Y282882D01*
Y281291D01*
X444433Y279821D01*
X445559Y278696D01*
X447029Y278087D01*
X448620D01*
X450090Y278696D01*
X451215Y279821D01*
X451824Y281291D01*
Y282882D01*
X451215Y284352D01*
X450090Y285478D01*
X448620Y286087D01*
D02*
G37*
G36*
X545668Y285566D02*
X544077D01*
X542607Y284957D01*
X541482Y283832D01*
X540873Y282362D01*
Y280770D01*
X541482Y279300D01*
X542607Y278175D01*
X544077Y277566D01*
X545668D01*
X547139Y278175D01*
X548264Y279300D01*
X548873Y280770D01*
Y282362D01*
X548264Y283832D01*
X547139Y284957D01*
X545668Y285566D01*
D02*
G37*
G36*
X725405Y285412D02*
X723813D01*
X722343Y284803D01*
X721218Y283678D01*
X720609Y282208D01*
Y280616D01*
X721218Y279146D01*
X722343Y278021D01*
X723813Y277412D01*
X725405D01*
X726875Y278021D01*
X727048Y278194D01*
X728842Y278193D01*
X729073Y277962D01*
X730543Y277353D01*
X732134D01*
X733604Y277962D01*
X734730Y279088D01*
X735339Y280558D01*
Y282149D01*
X734730Y283619D01*
X733604Y284744D01*
X732134Y285353D01*
X730543D01*
X729073Y284744D01*
X728900Y284571D01*
X727105Y284573D01*
X726875Y284803D01*
X725405Y285412D01*
D02*
G37*
G36*
X534062Y274930D02*
X532471D01*
X531001Y274321D01*
X529876Y273196D01*
X529267Y271726D01*
Y270135D01*
X529876Y268664D01*
X531001Y267539D01*
X532471Y266930D01*
X534062D01*
X535533Y267539D01*
X536658Y268664D01*
X537267Y270135D01*
Y271726D01*
X536658Y273196D01*
X535533Y274321D01*
X534062Y274930D01*
D02*
G37*
G36*
X558339Y274815D02*
X556748D01*
X555277Y274206D01*
X554152Y273081D01*
X553543Y271610D01*
Y270019D01*
X554152Y268549D01*
X555277Y267424D01*
X556748Y266815D01*
X558339D01*
X559809Y267424D01*
X560934Y268549D01*
X561543Y270019D01*
Y271610D01*
X560934Y273081D01*
X559809Y274206D01*
X558339Y274815D01*
D02*
G37*
%LPD*%
D11*
X562761Y364153D02*
X565848Y361066D01*
Y360741D02*
Y361066D01*
Y360741D02*
X587445Y339144D01*
X547639Y364153D02*
X562761D01*
X587445Y339144D02*
X693279D01*
X693411Y339276D01*
X540971Y370821D02*
X547639Y364153D01*
D24*
X468760Y269044D02*
D03*
D42*
X691581Y268092D02*
X691620Y268131D01*
X692938D02*
X693411Y268603D01*
X691620Y268131D02*
X692938D01*
X648811Y268092D02*
X691581D01*
X560578Y356325D02*
Y358883D01*
Y356325D02*
X648811Y268092D01*
X630176Y409299D02*
X693160D01*
X598232Y377355D02*
X630176Y409299D01*
X693160D02*
X693411Y409550D01*
X525698Y377355D02*
X598232D01*
X520045Y371703D02*
X525698Y377355D01*
X520045Y369637D02*
Y371703D01*
X519861Y369453D02*
X520045Y369637D01*
D43*
X501769Y346239D02*
X533195Y314813D01*
X495607Y346239D02*
X501769D01*
X533195Y314813D02*
X535121D01*
X535444Y314490D01*
X547805Y302228D02*
Y317226D01*
X510355Y354676D02*
X547805Y317226D01*
X510355Y354676D02*
Y359284D01*
X510321Y359319D02*
X510355Y359284D01*
X539698Y294120D02*
X539698D01*
X527704Y285446D02*
X531024D01*
X539698Y294120D01*
X539698D02*
X547805Y302228D01*
X526255Y344521D02*
Y370821D01*
Y344521D02*
X552371Y318405D01*
Y288966D02*
Y318405D01*
Y288966D02*
X555501Y285837D01*
D44*
X500250Y365192D02*
X500607Y365549D01*
X493977Y365192D02*
X500250D01*
X483564Y354779D02*
X493977Y365192D01*
X483564Y283847D02*
Y354779D01*
X468760Y269044D02*
X483564Y283847D01*
D45*
X531091Y299704D02*
Y300037D01*
X542497Y311444D01*
Y314736D01*
D47*
X560578Y358883D02*
D03*
X693411Y268603D02*
D03*
X611638Y345605D02*
D03*
X593760Y345859D02*
D03*
X422748Y442178D02*
D03*
X495607Y346239D02*
D03*
X510321Y359319D02*
D03*
X535444Y314490D02*
D03*
X513072Y267037D02*
D03*
X500607Y365549D02*
D03*
X615786Y350074D02*
D03*
X597968Y350151D02*
D03*
X589348Y350231D02*
D03*
X607237Y350217D02*
D03*
X531091Y299704D02*
D03*
X527416Y304158D02*
D03*
X557990Y419445D02*
D03*
X549605Y419563D02*
D03*
X540275Y419445D02*
D03*
X531536Y419563D02*
D03*
X522560Y419445D02*
D03*
X504845Y419682D02*
D03*
X514057Y419445D02*
D03*
X615803Y280483D02*
D03*
X611584Y275913D02*
D03*
X607441Y280607D02*
D03*
X597968Y280770D02*
D03*
X593602Y276111D02*
D03*
X589348Y280989D02*
D03*
X554086Y414820D02*
D03*
X536023Y415112D02*
D03*
X518325Y415111D02*
D03*
X500626Y415330D02*
D03*
X588744Y439072D02*
D03*
X593647Y434764D02*
D03*
X611530Y434685D02*
D03*
X616091Y439072D02*
D03*
X606633D02*
D03*
X598572Y439072D02*
D03*
X496619Y419834D02*
D03*
X525867Y382370D02*
D03*
X413740Y442091D02*
D03*
X418215Y438481D02*
D03*
X421992Y434255D02*
D03*
X417950Y429676D02*
D03*
X413854Y434255D02*
D03*
X417929Y421003D02*
D03*
X422110Y425117D02*
D03*
X413854Y425109D02*
D03*
X421992Y416819D02*
D03*
X413589D02*
D03*
X542497Y314736D02*
D03*
X392563Y411347D02*
D03*
X397574Y432185D02*
D03*
Y424185D02*
D03*
X392723Y428185D02*
D03*
Y420185D02*
D03*
Y444185D02*
D03*
X387135Y424268D02*
D03*
Y416268D02*
D03*
Y432268D02*
D03*
X397574Y416185D02*
D03*
X387135Y440268D02*
D03*
X392723Y436185D02*
D03*
X397574Y440185D02*
D03*
X367854Y424185D02*
D03*
Y432185D02*
D03*
Y416185D02*
D03*
X363003Y444185D02*
D03*
Y436185D02*
D03*
Y420185D02*
D03*
Y428185D02*
D03*
X362843Y411347D02*
D03*
X382284Y444268D02*
D03*
Y436268D02*
D03*
X377501Y440347D02*
D03*
X372490Y411509D02*
D03*
X382284Y428268D02*
D03*
Y420268D02*
D03*
X382124Y411430D02*
D03*
X377501Y424347D02*
D03*
X372650Y428347D02*
D03*
Y420347D02*
D03*
X377501Y416347D02*
D03*
Y432347D02*
D03*
X372650Y436347D02*
D03*
X367854Y440185D02*
D03*
X372650Y444347D02*
D03*
X666169Y285190D02*
D03*
X671020Y281190D02*
D03*
X666169Y277190D02*
D03*
X671020Y273190D02*
D03*
Y289190D02*
D03*
X666169Y293190D02*
D03*
X671020Y297190D02*
D03*
X666169Y301190D02*
D03*
X656535Y285269D02*
D03*
X661386Y281269D02*
D03*
X656535Y277269D02*
D03*
X661386Y273269D02*
D03*
Y289269D02*
D03*
X656535Y293269D02*
D03*
X661386Y297269D02*
D03*
X656535Y301269D02*
D03*
X646888Y285107D02*
D03*
X651740Y281107D02*
D03*
X646888Y277107D02*
D03*
X651740Y273107D02*
D03*
Y289107D02*
D03*
X646888Y293107D02*
D03*
X651740Y297107D02*
D03*
X646888Y301107D02*
D03*
X666169Y356497D02*
D03*
X671020Y352497D02*
D03*
X666169Y348497D02*
D03*
X671020Y344497D02*
D03*
Y360497D02*
D03*
X666169Y364497D02*
D03*
X671020Y368497D02*
D03*
X666169Y372497D02*
D03*
X656535Y356576D02*
D03*
X661386Y352576D02*
D03*
X656535Y348576D02*
D03*
X661386Y344576D02*
D03*
Y360576D02*
D03*
X656535Y364576D02*
D03*
X661386Y368576D02*
D03*
X656535Y372576D02*
D03*
X646888Y356414D02*
D03*
X651740Y352414D02*
D03*
X646888Y348414D02*
D03*
X651740Y344414D02*
D03*
Y360414D02*
D03*
X646888Y364414D02*
D03*
X651740Y368414D02*
D03*
X646888Y372414D02*
D03*
Y442314D02*
D03*
X651740Y438314D02*
D03*
X646888Y434314D02*
D03*
X651740Y430314D02*
D03*
Y414314D02*
D03*
X646888Y418314D02*
D03*
X651740Y422314D02*
D03*
X646888Y426314D02*
D03*
X656535Y442476D02*
D03*
X661386Y438476D02*
D03*
X656535Y434476D02*
D03*
X661386Y430476D02*
D03*
Y414476D02*
D03*
X656535Y418476D02*
D03*
X661386Y422476D02*
D03*
X656535Y426476D02*
D03*
X666169Y442397D02*
D03*
X671020Y438397D02*
D03*
X666169Y434397D02*
D03*
X671020Y430397D02*
D03*
Y414397D02*
D03*
X666169Y418397D02*
D03*
X671020Y422397D02*
D03*
X666169Y426397D02*
D03*
X693411Y339276D02*
D03*
Y409550D02*
D03*
X527704Y285446D02*
D03*
X526255Y370821D02*
D03*
X555501Y285837D02*
D03*
X519861Y369453D02*
D03*
X540971Y370821D02*
D03*
D50*
X471061Y269044D02*
X473067Y267037D01*
X513072D01*
X468760Y269044D02*
X471061D01*
M02*
