G04*
G04 #@! TF.GenerationSoftware,Altium Limited,Altium Designer,26.9.1 (10)*
G04*
G04 Layer_Physical_Order=3*
G04 Layer_Color=16440176*
G04 Board_Origin=74640005|44270005*
%FSLAX44Y44*%
%MOMM*%
G71*
G04*
G04 #@! TF.SameCoordinates,556BA08A-7CB3-48A2-B18C-BE4019624912*
G04*
G04*
G04 #@! TF.FilePolarity,Positive*
G04*
G01*
G75*
%ADD11C,0.2540*%
%ADD42C,0.2030*%
%ADD43C,0.1540*%
%ADD47C,0.4500*%
%ADD49C,0.5000*%
D11*
X458558Y332162D02*
X503318Y287402D01*
X513911D01*
X405000Y332162D02*
X458558D01*
D42*
X557543Y270815D02*
Y280787D01*
X560578Y283821D01*
Y358883D01*
X476596Y337007D02*
X494084D01*
X496516Y339440D01*
X433106Y380497D02*
X476596Y337007D01*
X405000Y352162D02*
X409962D01*
X423881Y338242D01*
X472178Y289449D02*
X477064D01*
X436764Y324864D02*
X472178Y289449D01*
X453620Y290245D02*
X455829Y292454D01*
X437958Y290245D02*
X453620D01*
X430685Y289337D02*
Y317610D01*
Y289337D02*
X437935Y282087D01*
X447824D01*
X471548Y325744D02*
X495536D01*
X451218Y346074D02*
X471548Y325744D01*
X505081Y316044D02*
X533267Y287858D01*
Y270930D02*
Y287858D01*
X420515Y290063D02*
Y317610D01*
Y290063D02*
X428593Y281985D01*
X431197Y281064D02*
X431866D01*
X428593Y281985D02*
X430275D01*
X431197Y281064D01*
X473301Y331994D02*
X495536D01*
X445144Y360151D02*
X473301Y331994D01*
X544873Y281566D02*
X544900Y281593D01*
Y291486D01*
X519861Y362516D02*
Y369453D01*
X552371Y298957D02*
Y330006D01*
X519861Y362516D02*
X552371Y330006D01*
X544900Y291486D02*
X552371Y298957D01*
X532614Y370846D02*
X537654Y365806D01*
X571721D01*
X573855Y367940D01*
D43*
X500393Y345581D02*
Y350426D01*
X518977Y318687D02*
Y326996D01*
X500393Y345581D02*
X518977Y326996D01*
X498981Y351838D02*
Y352197D01*
Y351838D02*
X500393Y350426D01*
X523747Y316712D02*
Y327793D01*
X503751Y347789D02*
X523747Y327793D01*
X503751Y356537D02*
X504267Y357053D01*
X503751Y347789D02*
Y356537D01*
X509057Y349229D02*
X510717D01*
X540440Y319506D01*
X544473D01*
X508521Y349765D02*
X509057Y349229D01*
X547267Y312760D02*
Y316712D01*
X543036Y308528D02*
X547267Y312760D01*
X544473Y319506D02*
X547267Y316712D01*
X518977Y314736D02*
Y318687D01*
Y314736D02*
X520437Y313276D01*
X529710Y310461D02*
X530255Y311007D01*
X520437Y313276D02*
X523252Y310461D01*
X529710D01*
X543036Y304204D02*
Y308528D01*
D47*
X560578Y358883D02*
D03*
X557543Y270815D02*
D03*
X496516Y339440D02*
D03*
X498981Y352197D02*
D03*
X504267Y357053D02*
D03*
X508521Y349765D02*
D03*
X530255Y311007D02*
D03*
X405000Y352162D02*
D03*
X423881Y338242D02*
D03*
X436764Y324864D02*
D03*
X477064Y289449D02*
D03*
X437958Y290245D02*
D03*
X455829Y292454D02*
D03*
X405000Y332162D02*
D03*
X513911Y287003D02*
D03*
X430685Y317610D02*
D03*
X447824Y282087D02*
D03*
X495536Y325744D02*
D03*
X451218Y346074D02*
D03*
X523747Y316712D02*
D03*
X533267Y270930D02*
D03*
X505081Y316044D02*
D03*
X420515Y317610D02*
D03*
X431866Y281064D02*
D03*
X433106Y380497D02*
D03*
X495536Y331994D02*
D03*
X445144Y360151D02*
D03*
X468751Y359021D02*
D03*
X470437Y416786D02*
D03*
X544873Y281566D02*
D03*
X519861Y369453D02*
D03*
X543036Y304204D02*
D03*
X573855Y367940D02*
D03*
X532614Y370846D02*
D03*
D49*
X468751Y415100D02*
X470437Y416786D01*
X468751Y359021D02*
Y415100D01*
M02*
