G04*
G04 #@! TF.GenerationSoftware,Altium Limited,Altium Designer,26.9.1 (10)*
G04*
G04 Layer_Color=8421504*
G04 Board_Origin=74640005|44270005*
%FSLAX44Y44*%
%MOMM*%
G71*
G04*
G04 #@! TF.SameCoordinates,556BA08A-7CB3-48A2-B18C-BE4019624912*
G04*
G04*
G04 #@! TF.FilePolarity,Positive*
G04*
G01*
G75*
G04:AMPARAMS|DCode=15|XSize=1.3mm|YSize=0.76mm|CornerRadius=0.095mm|HoleSize=0mm|Usage=FLASHONLY|Rotation=90.000|XOffset=0mm|YOffset=0mm|HoleType=Round|Shape=RoundedRectangle|*
%AMROUNDEDRECTD15*
21,1,1.3000,0.5700,0,0,90.0*
21,1,1.1100,0.7600,0,0,90.0*
1,1,0.1900,0.2850,0.5550*
1,1,0.1900,0.2850,-0.5550*
1,1,0.1900,-0.2850,-0.5550*
1,1,0.1900,-0.2850,0.5550*
%
%ADD15ROUNDEDRECTD15*%
%ADD16R,1.2700X0.6100*%
%ADD17R,0.9096X0.2425*%
%ADD18R,0.3000X1.2000*%
%ADD19R,1.2000X0.3000*%
%ADD20R,0.2425X0.9096*%
G04:AMPARAMS|DCode=21|XSize=0.55mm|YSize=0.5mm|CornerRadius=0.0625mm|HoleSize=0mm|Usage=FLASHONLY|Rotation=180.000|XOffset=0mm|YOffset=0mm|HoleType=Round|Shape=RoundedRectangle|*
%AMROUNDEDRECTD21*
21,1,0.5500,0.3750,0,0,180.0*
21,1,0.4250,0.5000,0,0,180.0*
1,1,0.1250,-0.2125,0.1875*
1,1,0.1250,0.2125,0.1875*
1,1,0.1250,0.2125,-0.1875*
1,1,0.1250,-0.2125,-0.1875*
%
%ADD21ROUNDEDRECTD21*%
G04:AMPARAMS|DCode=22|XSize=1.3mm|YSize=0.76mm|CornerRadius=0.095mm|HoleSize=0mm|Usage=FLASHONLY|Rotation=0.000|XOffset=0mm|YOffset=0mm|HoleType=Round|Shape=RoundedRectangle|*
%AMROUNDEDRECTD22*
21,1,1.3000,0.5700,0,0,0.0*
21,1,1.1100,0.7600,0,0,0.0*
1,1,0.1900,0.5550,-0.2850*
1,1,0.1900,-0.5550,-0.2850*
1,1,0.1900,-0.5550,0.2850*
1,1,0.1900,0.5550,0.2850*
%
%ADD22ROUNDEDRECTD22*%
G04:AMPARAMS|DCode=23|XSize=5mm|YSize=5mm|CornerRadius=1.25mm|HoleSize=0mm|Usage=FLASHONLY|Rotation=0.000|XOffset=0mm|YOffset=0mm|HoleType=Round|Shape=RoundedRectangle|*
%AMROUNDEDRECTD23*
21,1,5.0000,2.5000,0,0,0.0*
21,1,2.5000,5.0000,0,0,0.0*
1,1,2.5000,1.2500,-1.2500*
1,1,2.5000,-1.2500,-1.2500*
1,1,2.5000,-1.2500,1.2500*
1,1,2.5000,1.2500,1.2500*
%
%ADD23ROUNDEDRECTD23*%
%ADD24C,1.1000*%
%ADD25R,1.6500X3.6800*%
%ADD26R,0.0254X0.0254*%
%ADD27R,1.0500X0.9000*%
G36*
X788050Y450902D02*
Y444277D01*
Y444202D01*
X780950D01*
Y438327D01*
X788050D01*
Y431977D01*
X780950D01*
Y425627D01*
X788050D01*
Y419277D01*
X780950D01*
Y412927D01*
X788050D01*
Y406702D01*
X777850D01*
Y409752D01*
X742850D01*
Y447852D01*
X777850D01*
Y450902D01*
Y451002D01*
X788050D01*
Y450902D01*
D02*
G37*
G36*
X643861Y447650D02*
X678861D01*
Y409550D01*
X643861D01*
Y406500D01*
Y406400D01*
X633661D01*
Y406500D01*
Y413125D01*
Y413200D01*
X640761D01*
Y419075D01*
X633661D01*
Y425425D01*
X640761D01*
Y431775D01*
X633661D01*
Y438125D01*
X640761D01*
Y444475D01*
X633661D01*
Y450700D01*
X643861D01*
Y447650D01*
D02*
G37*
G36*
X788050Y380426D02*
Y373801D01*
Y373726D01*
X780950D01*
Y367851D01*
X788050D01*
Y361501D01*
X780950D01*
Y355151D01*
X788050D01*
Y348801D01*
X780950D01*
Y342451D01*
X788050D01*
Y336226D01*
X777850D01*
Y339276D01*
X742850D01*
Y377376D01*
X777850D01*
Y380426D01*
Y380526D01*
X788050D01*
Y380426D01*
D02*
G37*
G36*
X643861Y377376D02*
X678861D01*
Y339276D01*
X643861D01*
Y336226D01*
Y336126D01*
X633661D01*
Y336226D01*
Y342851D01*
Y342926D01*
X640761D01*
Y348801D01*
X633661D01*
Y355151D01*
X640761D01*
Y361501D01*
X633661D01*
Y367851D01*
X640761D01*
Y374201D01*
X633661D01*
Y380426D01*
X643861D01*
Y377376D01*
D02*
G37*
G36*
X544987Y334944D02*
X528859D01*
Y351072D01*
X544987D01*
Y334944D01*
D02*
G37*
G36*
X788050Y309753D02*
Y303128D01*
Y303053D01*
X780950D01*
Y297178D01*
X788050D01*
Y290828D01*
X780950D01*
Y284478D01*
X788050D01*
Y278128D01*
X780950D01*
Y271778D01*
X788050D01*
Y265553D01*
X777850D01*
Y268603D01*
X742850D01*
Y306703D01*
X777850D01*
Y309753D01*
Y309853D01*
X788050D01*
Y309753D01*
D02*
G37*
G36*
X643861Y306703D02*
X678861D01*
Y268603D01*
X643861D01*
Y265553D01*
Y265453D01*
X633661D01*
Y265553D01*
Y272178D01*
Y272253D01*
X640761D01*
Y278128D01*
X633661D01*
Y284478D01*
X640761D01*
Y290828D01*
X633661D01*
Y297178D01*
X640761D01*
Y303528D01*
X633661D01*
Y309753D01*
X643861D01*
Y306703D01*
D02*
G37*
D15*
X556348Y381886D02*
D03*
X507658Y381952D02*
D03*
X511191Y299704D02*
D03*
X529091D02*
D03*
X525559Y381952D02*
D03*
X538447Y381886D02*
D03*
X545347Y281815D02*
D03*
X527447D02*
D03*
D16*
X693411Y294003D02*
D03*
Y281303D02*
D03*
Y268603D02*
D03*
X728300Y422452D02*
D03*
Y435152D02*
D03*
Y447852D02*
D03*
Y377376D02*
D03*
Y364676D02*
D03*
Y306703D02*
D03*
Y351976D02*
D03*
Y294003D02*
D03*
Y281303D02*
D03*
Y268603D02*
D03*
Y339276D02*
D03*
Y409752D02*
D03*
X693411Y306703D02*
D03*
Y339276D02*
D03*
Y351976D02*
D03*
Y364676D02*
D03*
Y377376D02*
D03*
Y409550D02*
D03*
Y422250D02*
D03*
Y434950D02*
D03*
Y447650D02*
D03*
D17*
X555936Y355508D02*
D03*
X517910Y330508D02*
D03*
Y340508D02*
D03*
Y335508D02*
D03*
X555936Y330508D02*
D03*
Y335508D02*
D03*
Y340508D02*
D03*
Y345508D02*
D03*
Y350508D02*
D03*
X517910Y355508D02*
D03*
Y350508D02*
D03*
Y345508D02*
D03*
D18*
X410717Y307162D02*
D03*
X415717D02*
D03*
X420717D02*
D03*
X425717D02*
D03*
X430717D02*
D03*
X435717D02*
D03*
X440717D02*
D03*
X445717D02*
D03*
X450717D02*
D03*
X455717D02*
D03*
X460717D02*
D03*
X465717D02*
D03*
Y392162D02*
D03*
X460717D02*
D03*
X455717D02*
D03*
X450717D02*
D03*
X445717D02*
D03*
X440717D02*
D03*
X435717D02*
D03*
X430717D02*
D03*
X425717D02*
D03*
X420717D02*
D03*
X415717D02*
D03*
X410717D02*
D03*
D19*
X480717Y322162D02*
D03*
Y327162D02*
D03*
Y332162D02*
D03*
Y337162D02*
D03*
Y342162D02*
D03*
Y347162D02*
D03*
Y352162D02*
D03*
Y357162D02*
D03*
Y362162D02*
D03*
Y367162D02*
D03*
Y372162D02*
D03*
Y377162D02*
D03*
X395717D02*
D03*
Y372162D02*
D03*
Y367162D02*
D03*
Y362162D02*
D03*
Y357162D02*
D03*
Y352162D02*
D03*
Y347162D02*
D03*
Y342162D02*
D03*
Y337162D02*
D03*
Y332162D02*
D03*
Y327162D02*
D03*
Y322162D02*
D03*
D20*
X529423Y323996D02*
D03*
X549423D02*
D03*
X524423D02*
D03*
X534423D02*
D03*
X539423D02*
D03*
X544423D02*
D03*
X549423Y362021D02*
D03*
X544423D02*
D03*
X539423D02*
D03*
X534423D02*
D03*
X529423D02*
D03*
X524423D02*
D03*
D21*
X625522Y422752D02*
D03*
Y431641D02*
D03*
Y292653D02*
D03*
Y283764D02*
D03*
X625522Y353199D02*
D03*
Y362088D02*
D03*
X543036Y295204D02*
D03*
X512938Y276045D02*
D03*
Y267045D02*
D03*
X625522Y274764D02*
D03*
X625522Y344199D02*
D03*
X625522Y413752D02*
D03*
Y301653D02*
D03*
X625522Y371088D02*
D03*
X625522Y440641D02*
D03*
X543036Y304204D02*
D03*
D22*
X611633Y419172D02*
D03*
X553966Y432798D02*
D03*
X593744Y419172D02*
D03*
X536077Y432744D02*
D03*
X518188Y432744D02*
D03*
X553966Y399934D02*
D03*
X536077Y399934D02*
D03*
X518188Y399934D02*
D03*
X611633Y366529D02*
D03*
X593744Y366529D02*
D03*
X593744Y297009D02*
D03*
X611633Y297009D02*
D03*
X500299Y432744D02*
D03*
X500299Y399934D02*
D03*
X499049Y266253D02*
D03*
Y284153D02*
D03*
X553966Y450698D02*
D03*
X536077Y450644D02*
D03*
X518188Y450644D02*
D03*
X500299Y450644D02*
D03*
X500299Y417834D02*
D03*
X518188Y417834D02*
D03*
X536077Y417834D02*
D03*
X553966Y417834D02*
D03*
X593744Y437072D02*
D03*
X611633Y437072D02*
D03*
X611633Y348629D02*
D03*
X593744Y348629D02*
D03*
X593744Y279109D02*
D03*
X611633Y279109D02*
D03*
D23*
X380435Y289379D02*
D03*
X380191Y428072D02*
D03*
D24*
X417961Y269044D02*
D03*
X430661D02*
D03*
X456060D02*
D03*
X443360D02*
D03*
X468760D02*
D03*
D25*
X417918Y428600D02*
D03*
X475018D02*
D03*
D26*
X536923Y343008D02*
D03*
D27*
X573671Y280273D02*
D03*
Y266273D02*
D03*
X573855Y334051D02*
D03*
Y348051D02*
D03*
X573855Y402154D02*
D03*
Y416153D02*
D03*
X573671Y314162D02*
D03*
Y300162D02*
D03*
X573855Y381940D02*
D03*
Y367940D02*
D03*
X573855Y450042D02*
D03*
Y436043D02*
D03*
M02*
